<?xml version="1.0" standalone="no"?>
<!DOCTYPE svg PUBLIC "-//W3C//DTD SVG 1.1//EN" "http://www.w3.org/Graphics/SVG/1.1/DTD/svg11.dtd" >
<svg>
<metadata>
Created by FontForge 20090914 at Thu Mar 10 09:16:26 2016
 By www-data
(C) 1993 B &#38; P Graphics, Ltd.
</metadata>
<defs>
<font id="Glasgow-Medium" horiz-adv-x="532" >
  <font-face 
    font-family="Glasgow-Medium"
    font-weight="100"
    font-stretch="normal"
    units-per-em="1000"
    panose-1="0 0 0 0 0 0 0 0 0 0"
    ascent="800"
    descent="-200"
    x-height="508"
    cap-height="721"
    bbox="-148 -233 966 967"
    underline-thickness="50"
    underline-position="-75"
    unicode-range="U+0020-U+F002"
  />
<missing-glyph horiz-adv-x="967" 
d="M60 0v967h847v-967h-847zM847 60v847h-727v-847h727z" />
    <glyph glyph-name=".notdef" horiz-adv-x="967" 
d="M60 0v967h847v-967h-847zM847 60v847h-727v-847h727z" />
    <glyph glyph-name="space" unicode=" " horiz-adv-x="290" 
 />
    <glyph glyph-name="exclam" unicode="!" horiz-adv-x="235" 
d="M190 721l-38 -560h-73l-38 560h149zM118 98c20 0 37.667 -5.16699 53 -15.5s23 -23.5 23 -39.5c0 -15.333 -7.5 -28.5 -22.5 -39.5s-32.833 -16.5 -53.5 -16.5c-21.333 0 -39.5 5.5 -54.5 16.5s-22.5 24.167 -22.5 39.5s7.33301 28.333 22 39s33 16 55 16z" />
    <glyph glyph-name="quotedbl" unicode="&#x22;" horiz-adv-x="366" 
d="M68 712h122l-119 -240l-56 16zM226 712h122l-119 -240l-56 16z" />
    <glyph glyph-name="numbersign" unicode="#" horiz-adv-x="204" 
d="M103 99c20.667 0 37.999 -5.66699 51.999 -17c6.66699 -4.66699 12 -10.334 16 -17.001s6 -14.334 6 -23.001c0 -13.333 -7 -26 -21 -38c-4.66699 -3.33301 -11.167 -6.83301 -19.5 -10.5s-19.166 -5.5 -32.499 -5.5c-20.667 0 -39 5 -55 15
c-6.66699 4.66699 -12 10.334 -16 17.001s-6 14.334 -6 23.001c0 16 7.33301 29.333 22 40s32.667 16 54 16z" />
    <glyph glyph-name="dollar" unicode="$" horiz-adv-x="495" 
d="M218 803l48.999 -1.00195v-74l23 2c19.333 0 39.5 -2.16699 60.5 -6.5s46.833 -11.5 77.5 -21.5l-30 -98c-22.667 9.33301 -43 16.333 -61 21s-36.333 7 -55 7l-16 -1v-202l41 -19l41 -22l55 -34c44.667 -35.333 67 -83.666 67 -144.999
c0 -57.333 -17.5 -105.166 -52.5 -143.499s-85.833 -63.5 -152.5 -75.5v-83l-51 1l1 79c-21.333 0 -37.333 1.33301 -48 4l-49 9c-9.33301 2 -22.166 5.5 -38.499 10.5s-33.833 11.167 -52.5 18.5l32 101c32 -16 59 -27 81 -33c23.333 -5.33301 49.333 -8 78 -8v217
c-128.667 48 -193 120.333 -193 217c0 56 18.5 103.667 55.5 143s82.833 59 137.5 59v78zM264.999 281.998v-183.001c48.667 18 73 48.333 73 91c0 34.667 -24.333 65.334 -73 92.001zM217.999 621.997c-41.333 -20 -62 -49.333 -62 -88c0 -32 20.667 -58.333 62 -79v167z
" />
    <glyph glyph-name="percent" unicode="%" horiz-adv-x="772" 
d="M209 734c54.667 0 97.333 -16.333 128 -49s46 -78 46 -136s-15 -103.333 -45 -136s-73 -49 -129 -49c-55.333 0 -98.333 16 -129 48s-46 77.667 -46 137c0 57.333 15.167 102.5 45.5 135.5s73.5 49.5 129.5 49.5zM651.999 721h73l-604 -721h-75zM563.999 355
c54.667 0 97.334 -16.333 128.001 -49s46 -78 46 -136s-15.167 -103.333 -45.5 -136s-73.166 -49 -128.499 -49c-54.667 0 -97.334 16 -128.001 48s-46 77.667 -46 137c0 57.333 15.167 102.5 45.5 135.5s73.166 49.5 128.499 49.5zM136.999 549
c0 -34.667 6.16797 -61.667 18.501 -81s30.166 -29 53.499 -29c22 0 39.333 9.83301 52 29.5s19 46.5 19 80.5c0 32.667 -6.16699 59.167 -18.5 79.5s-29.833 30.5 -52.5 30.5c-21.333 0 -39 -10 -53 -30c-12.667 -20 -19 -46.667 -19 -80zM494 170
c0 -32.667 6.16699 -59 18.5 -79s29.5 -30 51.5 -30s39.333 9.83301 52 29.5s19 46.167 19 79.5s-6.16699 59.833 -18.5 79.5s-29.833 29.5 -52.5 29.5c-21.333 0 -38.333 -9.83301 -51 -29.5s-19 -46.167 -19 -79.5z" />
    <glyph glyph-name="ampersand" unicode="&#x26;" horiz-adv-x="649" 
d="M99 551c0 55.333 17.1689 99.5 51.502 132.5s80.166 49.5 137.499 49.5c48.667 0 88 -14.667 118 -44c31.333 -28 47 -65 47 -111c0 -38 -10.5 -71.833 -31.5 -101.5s-56.5 -61.5 -106.5 -95.5l41 -52l32 -38l32 -33l51 -46l13 16l12 14l12 18l14 20l70 -57l-12 -18.5
c-4.66699 -7 -9.33398 -13.167 -14.001 -18.5l-11 -15l-17 -20l46 -35l54 -40l-75 -80l-53 36l-48 38c-62 -58 -130 -87 -204 -87c-66.667 0 -121.5 19.5 -164.5 58.5s-64.5 88.833 -64.5 149.5c0 50.667 9.66699 87.667 29 111c9.33301 12 18 22.5 26 31.5
s15 15.833 21 20.5c11.333 10 28 22.667 50 38c-19.333 31.333 -33.5 58.833 -42.5 82.5s-13.5 49.167 -13.5 76.5zM253.002 449c60 34 90 76.332 90 126.999c0 20 -5.66699 36.667 -17 50s-26 20 -44 20c-19.333 0 -35.833 -8.33301 -49.5 -25s-20.5 -37.667 -20.5 -63
c0 -33.333 13.667 -69.666 41 -108.999zM213.002 318.999c-46 -36 -69.001 -75.667 -69.001 -119c0 -34 11.833 -62.333 35.5 -85s52.834 -34 87.501 -34c43.333 0 83 18 119 54l-41 37l-44 45l-43 48z" />
    <glyph glyph-name="quotesingle" unicode="'" horiz-adv-x="209" 
d="M68 712h122l-119 -240l-56 16z" />
    <glyph glyph-name="parenleft" unicode="(" horiz-adv-x="261" 
d="M249 791c-10 -19.333 -18.834 -38.166 -26.501 -56.499s-15.167 -37.5 -22.5 -57.5c-11.333 -34 -21.5 -81.5 -30.5 -142.5s-13.5 -119.5 -13.5 -175.5c0 -81.333 4.33301 -144 13 -188c3.33301 -18.667 6.83301 -36 10.5 -52s6.83398 -28.667 9.50098 -38l18 -58
c4.66699 -12.667 10 -25.834 16 -39.501s14.667 -32.167 26 -55.5l-25 -20l-41 50l-55 78c-24.667 38 -46.5 86.333 -65.5 145s-28.5 118 -28.5 178c0 85.333 13.333 156.833 40 214.5s51 102.5 73 134.5l35 50c10.667 14.667 24.667 32 42 52z" />
    <glyph glyph-name="parenright" unicode=")" horiz-adv-x="261" 
d="M54 26c34 100 50.999 211.001 50.999 333.001c0 39.333 -1 73.333 -3 102s-5.66699 55.667 -11 81l-21 100c-2 9.33301 -4.33301 18.5 -7 27.5s-6 17.833 -10 26.5l-16 42l-25 52l26 19l41 -50l82 -120c44 -66 66 -159.333 66 -280c0 -82.667 -13 -152.667 -39 -210
s-48.333 -100.333 -67 -129l-40 -58c-7.33301 -10.667 -21.666 -28.334 -42.999 -53.001l-26 19c14 27.333 23 47 27 59z" />
    <glyph glyph-name="asterisk" unicode="*" horiz-adv-x="373" 
d="M141 561l-112 45l42 72l92 -77l-19 120h84l-22 -121l97 77l42 -74l-116 -43l113 -41l-45 -71l-94 75l26 -118h-84l18 119l-93 -75l-42 72z" />
    <glyph glyph-name="plus" unicode="+" 
d="M69 416h152v154h89v-154h153v-90h-153v-148h-91v148h-150v90z" />
    <glyph glyph-name="comma" unicode="," horiz-adv-x="200" 
d="M51 105h122l-118 -239l-56 15z" />
    <glyph glyph-name="hyphen" unicode="-" horiz-adv-x="317" 
d="M27 305h263v-92h-263v92z" />
    <glyph glyph-name="period" unicode="." horiz-adv-x="204" 
d="M103 99c20.667 0 37.999 -5.66699 51.999 -17c6.66699 -4.66699 12 -10.334 16 -17.001s6 -14.334 6 -23.001c0 -13.333 -7 -26 -21 -38c-4.66699 -3.33301 -11.167 -6.83301 -19.5 -10.5s-19.166 -5.5 -32.499 -5.5c-20.667 0 -39 5 -55 15
c-6.66699 4.66699 -12 10.334 -16 17.001s-6 14.334 -6 23.001c0 16 7.33301 29.333 22 40s32.667 16 54 16z" />
    <glyph glyph-name="slash" unicode="/" horiz-adv-x="330" 
d="M270 730h54l-266 -742h-53z" />
    <glyph glyph-name="zero" unicode="0" 
d="M266 733c75.333 0 132.666 -31.666 171.999 -94.999s59 -156 59 -278c0 -121.333 -19.667 -213.833 -59 -277.5s-96.666 -95.5 -171.999 -95.5s-132.666 31.667 -171.999 95s-59 155.333 -59 276c0 123.333 19.667 216.666 59 279.999s96.666 95 171.999 95zM171 360.001
c0 -122.667 8.66699 -200 26 -232s40.333 -48 69 -48c42.667 0 69.167 27.833 79.5 83.5s15.5 121.167 15.5 196.5c0 123.333 -8.66699 200.833 -26 232.5s-40.333 47.5 -69 47.5c-42 0 -68.333 -27.833 -79 -83.5s-16 -121.167 -16 -196.5z" />
    <glyph glyph-name="one" unicode="1" 
d="M278 721h68v-614h123v-107h-379v107h123v466l-122 -42l-19 66z" />
    <glyph glyph-name="two" unicode="2" 
d="M54 80l24.999 27.998c96.667 110.667 165 198 205 262s60 116.667 60 158c0 28.667 -9.33301 51.834 -28 69.501s-44.667 26.5 -78 26.5c-39.333 0 -87.333 -14.333 -144 -43l-28 94c78 38 149.667 57 215 57c60 0 107.833 -16.333 143.5 -49s53.5 -77.667 53.5 -135
c0 -36 -9.66699 -75.667 -29 -119s-50.666 -93.666 -93.999 -150.999l-53 -67l-28 -35l-29 -35l-41 -47l272 -8v-86h-422v80z" />
    <glyph glyph-name="three" unicode="3" 
d="M316 229c0 34 -13.8311 60.332 -41.498 78.999s-66.834 28 -117.501 28l-39 -2v85c62.667 0 112.167 11.667 148.5 35s54.5 54.666 54.5 93.999c0 26 -10 47.667 -30 65c-20 16 -47.667 24 -83 24c-36.667 0 -76.667 -8.33301 -120 -25l-23 90c66 20.667 124 31 174 31
c60 0 108.667 -14.167 146 -42.5s56 -66.166 56 -113.499c0 -40.667 -14 -77.667 -42 -111s-67.333 -59.666 -118 -78.999c51.333 0 92.666 -14.667 123.999 -44s47 -67.666 47 -114.999c0 -32.667 -8 -63.667 -24 -93s-39.833 -55.333 -71.5 -78
s-69.5 -39.834 -113.5 -51.501s-95.333 -17.5 -154 -17.5l-24 93c76.667 0 137.667 13.167 183 39.5s68 62.5 68 108.5z" />
    <glyph glyph-name="four" unicode="4" 
d="M35 236l211 485h138l-222 -468h153l45 303h77v-303h59v-91h-59v-162h-134v161h-268v75z" />
    <glyph glyph-name="five" unicode="5" 
d="M331 245c0 33.333 -15.499 59.332 -46.499 77.999s-74.167 28 -129.5 28l-64 -3l25 373h322v-84l-210 -13l-11 -197l27 1c67.333 0 121.333 -16.333 162 -49s61 -76 61 -130c0 -75.333 -36 -137.666 -108 -186.999s-165 -74 -279 -74l-25 88
c81.333 0 147.666 16 198.999 48s77 72.333 77 121z" />
    <glyph glyph-name="six" unicode="6" 
d="M440 653c-80.667 -28 -141 -62.1689 -181 -102.502s-66.667 -96.166 -80 -167.499c44.667 29.333 87 44 127 44c53.333 0 97.5 -20.167 132.5 -60.5s52.5 -91.833 52.5 -154.5c0 -67.333 -19.667 -121.666 -59 -162.999s-91.333 -62 -156 -62c-70 0 -126 27 -168 81
s-63 126 -63 216c0 128 30 224 90 288s111 104 153 120l78 27l46 12zM173 301.998l-1 -29.999c0 -55.333 11 -101.833 33 -139.5s49.667 -56.5 83 -56.5c26 0 47.167 10.5 63.5 31.5s24.5 49.167 24.5 84.5c0 41.333 -10.667 75.666 -32 102.999s-47.666 41 -78.999 41
c-30.667 0 -61.334 -11.333 -92.001 -34z" />
    <glyph glyph-name="seven" unicode="7" 
d="M335 622l-274 10v89h419v-62l-276 -659h-151z" />
    <glyph glyph-name="eight" unicode="8" 
d="M59 547c0 52 19.666 95.666 58.999 130.999c20 17.333 42.167 30.333 66.5 39s52.5 13 84.5 13c57.333 0 104.833 -16 142.5 -48s56.5 -72.667 56.5 -122c0 -66.667 -38.667 -121.667 -116 -165c52.667 -32 89.834 -63.167 111.501 -93.5s32.5 -65.166 32.5 -104.499
c0 -60.667 -21.667 -110.667 -65 -150s-99.333 -59 -168 -59c-66 0 -120.333 18.333 -163 55s-64 83.667 -64 141c0 37.333 10.833 71.5 32.5 102.5s54.167 58.167 97.5 81.5c-36.667 28.667 -63.667 57.5 -81 86.5s-26 59.833 -26 92.5zM287.999 427.999
c53.333 30 79.999 70.332 79.999 120.999c0 25.333 -9 47.333 -27 66s-40.333 28 -67 28c-25.333 0 -46.666 -8.16699 -63.999 -24.5s-26 -37.5 -26 -63.5c0 -24.667 7.5 -46.167 22.5 -64.5s42.167 -39.166 81.5 -62.499zM230.998 329.998
c-56.667 -38.667 -84.999 -83.666 -84.999 -134.999c0 -30.667 11.167 -56.834 33.5 -78.501s50.166 -32.5 83.499 -32.5c29.333 0 55 10 77 30c20.667 20.667 31 45 31 73c0 32 -16 59.667 -48 83z" />
    <glyph glyph-name="nine" unicode="9" 
d="M92 65c82 29.333 142.667 64.168 182 104.501s66 96.166 80 167.499c-41.333 -30 -84 -45 -128 -45c-54 0 -98.333 19.833 -133 59.5s-52 90.834 -52 153.501c0 68 19.667 122.667 59 164s91.333 62 156 62c70.667 0 127 -27.167 169 -81.5s63 -127.833 63 -220.5
c0 -234.667 -122.333 -382.334 -367 -443.001zM359 416.002l1.00195 21.999c0 60.667 -10.833 110 -32.5 148s-49.834 57 -84.501 57c-26 0 -47.167 -10.167 -63.5 -30.5s-24.5 -48.166 -24.5 -83.499c0 -40 10.667 -74.5 32 -103.5s47.666 -43.5 78.999 -43.5
c16.667 0 31.667 2.33301 45 7s29.333 13.667 48 27z" />
    <glyph glyph-name="colon" unicode=":" horiz-adv-x="234" 
d="M118 99c20.667 0 38 -5.66602 52 -16.999c6.66699 -4.66699 12 -10.334 16 -17.001s6 -14.334 6 -23.001c0 -15.333 -7.16699 -28.166 -21.5 -38.499s-31.833 -15.5 -52.5 -15.5s-38.667 5.16699 -54 15.5s-23 23.5 -23 39.5s7.33301 29.333 22 40s33 16 55 16z
M118 437.001c20.667 0 38.167 -5.5 52.5 -16.5s21.5 -24.167 21.5 -39.5s-7.16699 -28.5 -21.5 -39.5s-31.833 -16.5 -52.5 -16.5c-21.333 0 -39.5 5.5 -54.5 16.5s-22.5 24.167 -22.5 39.5c0 16 7.33301 29.333 22 40s33 16 55 16z" />
    <glyph glyph-name="semicolon" unicode=";" horiz-adv-x="245" 
d="M65 105h122l-118 -239l-57 15zM130 437c20 0 37.668 -5.33105 53.001 -15.998c6.66699 -4.66699 12 -10.334 16 -17.001s6 -14.334 6 -23.001c0 -15.333 -7.33301 -28.333 -22 -39s-32.334 -16 -53.001 -16s-38.667 5.16699 -54 15.5s-23 23.5 -23 39.5
s7.33301 29.333 22 40s33 16 55 16z" />
    <glyph glyph-name="less" unicode="&#x3c;" horiz-adv-x="248" 
d="M151 454l63 -26l-82 -175l81 -172l-64 -23l-115 195z" />
    <glyph glyph-name="equal" unicode="=" 
d="M34 477h464v-85h-464v85zM34 352h464v-82h-464v82z" />
    <glyph glyph-name="greater" unicode="&#x3e;" horiz-adv-x="248" 
d="M115 253l-78 177l61 25l116 -201l-118 -195l-62 23z" />
    <glyph glyph-name="question" unicode="?" horiz-adv-x="365" 
d="M170 731c56 0 100.999 -14.001 134.999 -42.001s51 -65 51 -111c0 -26.667 -5.66699 -51.5 -17 -74.5s-22.833 -42.5 -34.5 -58.5l-24.5 -33l-25 -29l-44 -56l-21 -32c-4.66699 -9.33301 -9 -22.166 -13 -38.499s-6 -34.833 -6 -55.5l1 -40h-93l-5 41l-2 36
c0 29.333 4 53 12 71l20 37l29 41l9 14l27 38l27 40c20 30 30 55.667 30 77c0 24 -8.16699 43.167 -24.5 57.5s-39.166 21.5 -68.499 21.5c-23.333 0 -56 -6 -98 -18l-23 90c57.333 16 110 24 158 24zM130.999 97.999c20 0 37.333 -5.33301 52 -16s22 -23.667 22 -39
s-7.16699 -28.5 -21.5 -39.5s-31.833 -16.5 -52.5 -16.5c-22 0 -40.5 5.5 -55.5 16.5s-22.5 24.167 -22.5 39.5s7.66699 28.333 23 39c8.66699 5.33301 17 9.33301 25 12s18 4 30 4z" />
    <glyph glyph-name="at" unicode="@" horiz-adv-x="782" 
d="M436 195c-24.667 -28.667 -52.002 -42.999 -82.002 -42.999c-14.667 0 -39.5 7.5 -74.5 22.5s-52.5 70.5 -52.5 166.5l4 35c4 33.333 11.667 61.666 23 84.999c9.33301 22.667 22.833 44.834 40.5 66.501s36.334 37.334 56.001 47.001s38.834 14.5 57.501 14.5
c38.667 0 67.334 -17.333 86.001 -52l5 -10l9 54h49l-37 -213l-13 -85l-3 -34l1 -20l8 -22c3.33301 -10.667 15 -16 35 -16l18 4c7.33301 2 15 6.33301 23 13s17.667 17 29 31c12.667 13.333 23.667 31.166 33 53.499s15.333 42.833 18 61.5l6 43l1 29
c0 76 -23.333 137.833 -70 185.5s-107.334 71.5 -182.001 71.5c-15.333 0 -45 -3.16699 -89 -9.5s-90.667 -39.666 -140 -99.999s-74 -131.833 -74 -214.5v-24l8 -78c4 -44 33.833 -92.333 89.5 -145s120.834 -79 195.501 -79c38 0 78.667 9 122 27s84.333 47.667 123 89
l25 30l18 -43l-25 -29c-76.667 -80.667 -166 -121 -268 -121s-186 37.5 -252 112.5s-99 170.167 -99 285.5c0 51.333 10.167 98.166 30.5 140.499s55 85.5 104 129.5s95.833 68.333 140.5 73l90 8c88.667 0 162 -28.833 220 -86.5s87 -131.167 87 -220.5
c0 -22 -2.83301 -49.333 -8.5 -82s-17.5 -64.334 -35.5 -95.001c-16.667 -32 -34.5 -55 -53.5 -69s-36.167 -24 -51.5 -30c-7.33301 -2 -14 -3.66699 -20 -5s-13 -2 -21 -2c-18.667 0 -35.334 4.83301 -50.001 14.5s-24 19.5 -28 29.5l-5 21l-1 19
c-4 -12.667 -10.667 -24 -20 -34zM298.998 230.001c11.333 -24 31.0029 -36.002 59.0029 -36.002c17.333 0 31.166 5.16699 41.499 15.5s18.833 21.5 25.5 33.5c0.666992 1.33301 2.66699 6 6 14c7.33301 18.667 12 30.334 14 35.001c7.33301 20 14.666 46.667 21.999 80
l1 10l7 42l3 37l-3 32c-0.666992 10.667 -7.5 21.834 -20.5 33.501s-27.5 17.5 -43.5 17.5c-8 0 -18.667 -2.66699 -32 -8s-25.833 -15.833 -37.5 -31.5s-22.167 -36.167 -31.5 -61.5c-3.33301 -9.33301 -6.33301 -19.333 -9 -30s-5.33398 -22 -8.00098 -34l-6 -44l-1 -44
l3 -34c2 -10.667 5.33301 -19.667 10 -27z" />
    <glyph glyph-name="A" unicode="A" horiz-adv-x="520" 
d="M178 721h164l197 -721h-136l-58 230h-170l-58 -230h-136zM192 322h136l-56 223l-9 50l-2 45l-8 -63l-5 -32z" />
    <glyph glyph-name="B" unicode="B" horiz-adv-x="544" 
d="M50 721h240.999c69.333 0 120 -13.833 152 -41.5s48 -72.167 48 -133.5c0 -52.667 -12 -92 -36 -118s-65.333 -43 -124 -51c64.667 0 111.834 -14.333 141.501 -43s44.5 -75 44.5 -139c0 -130 -68.667 -195 -206 -195h-261v721zM183.999 411h72
c38 0 65.167 8.66699 81.5 26s24.5 46.333 24.5 87c0 37.333 -7.16699 64.5 -21.5 81.5s-37.5 25.5 -69.5 25.5h-87v-220zM181.999 89h95.001c37.333 0 64.666 9 81.999 27c16 18 24 49.667 24 95s-9.33301 76.5 -28 93.5s-52 25.5 -100 25.5h-73v-241z" />
    <glyph glyph-name="C" unicode="C" horiz-adv-x="479" 
d="M429 611c-36.667 15.333 -71.333 23.001 -104 23.001c-51.333 0 -89.666 -23.333 -114.999 -70s-38 -118 -38 -214c0 -176.667 51.333 -265 154 -265c36 0 76.667 11.333 122 34l16 -94c-59.333 -24.667 -113.333 -37 -162 -37c-87.333 0 -154.333 31.833 -201 95.5
s-70 154.5 -70 272.5c0 119.333 23.667 211.666 71 276.999s113.666 98 198.999 98c44 0 93 -10 147 -30z" />
    <glyph glyph-name="D" unicode="D" horiz-adv-x="570" 
d="M50 721l200.001 -0.000976562c67.333 0 132.166 -18.5 194.499 -55.5s93.5 -137.833 93.5 -302.5c0 -123.333 -24.167 -214.666 -72.5 -273.999s-122.833 -89 -223.5 -89h-192v721zM183.001 96.999l65 -0.000976562c42 0 72.167 9.16699 90.5 27.5s31.333 38 39 59
s13.167 47.833 16.5 80.5l4 96c0 120.667 -14.833 194.834 -44.5 222.501s-64.167 41.5 -103.5 41.5h-67v-527z" />
    <glyph glyph-name="E" unicode="E" horiz-adv-x="476" 
d="M50 721h395v-90l-261 -13v-201h226v-91h-226v-220l266 -13v-93h-400v721z" />
    <glyph glyph-name="F" unicode="F" horiz-adv-x="441" 
d="M50 721h398v-90l-265 -14v-201h228v-91h-228v-325h-133v721z" />
    <glyph glyph-name="G" unicode="G" horiz-adv-x="600" 
d="M479 589c-51.333 30.667 -99.333 46 -144 46c-26 0 -52 -7.16699 -78 -21.5s-46.333 -42.333 -61 -84s-22 -100.167 -22 -175.5c0 -94 12 -161.833 36 -203.5s64 -62.5 120 -62.5c34 0 66 7.66699 96 23v199h-140v91h264v-360c-40.667 -16 -82.667 -29.667 -126 -41
c-14.667 -3.33301 -32.167 -6.33301 -52.5 -9s-37.833 -4 -52.5 -4c-94 0 -165.5 30.833 -214.5 92.5s-73.5 152.167 -73.5 271.5c0 124 24.333 218.5 73 283.5s119.667 97.5 213 97.5c66 0 132.333 -19.333 199 -58z" />
    <glyph glyph-name="H" unicode="H" horiz-adv-x="589" 
d="M50 721h134v-300h220v300h135v-721h-134v330h-221v-330h-134v721z" />
    <glyph glyph-name="I" unicode="I" horiz-adv-x="232" 
d="M50 721h133v-721h-133v721z" />
    <glyph glyph-name="J" unicode="J" horiz-adv-x="235" 
d="M44 -24l6 43.002l2 70v632h133v-623v-18v-14v-12c0 -26.667 -1 -46.334 -3 -59.001s-8.16699 -29 -18.5 -49s-21.833 -37.5 -34.5 -52.5s-31.667 -31.833 -57 -50.5l-70 48c22 27.333 36 55.666 42 84.999z" />
    <glyph glyph-name="K" unicode="K" horiz-adv-x="523" 
d="M50 721h133.001v-262v-24l-2 -29l10 28l10 22l173 265h141l-221 -335l255 -386h-155l-190 290c-6.66699 12 -14.334 30.667 -23.001 56l1 -16l1 -16l1 -32v-282h-134v721z" />
    <glyph glyph-name="L" unicode="L" horiz-adv-x="418" 
d="M50 721h134v-615l244 -14v-92h-378v721z" />
    <glyph glyph-name="M" unicode="M" horiz-adv-x="771" 
d="M97 721h156l116 -447l9 -53l8 -66l6 66l10 53l116 447h156l76 -721h-131l-44 479l-2 44l-1 65l-3 -19l-6 -33l-9 -57l-118 -479h-101l-117 479l-10 57l-5 26l-4 26v-17v-15v-12v-12c0 -26 -1 -43.667 -3 -53l-45 -479h-130z" />
    <glyph glyph-name="N" unicode="N" horiz-adv-x="596" 
d="M50 721h141.999l222 -486c2.66699 -4.66699 6.33398 -14.667 11.001 -30l17 -67l-2 27l-3 26l-5 49v481h114v-721h-145l-218 480l-15 45l-8 27l-9 27c6.66699 -44.667 10 -80.667 10 -108v-471h-111v721z" />
    <glyph glyph-name="O" unicode="O" horiz-adv-x="594" 
d="M296 731c84 0 149.333 -32.001 196 -96.001s70 -155.667 70 -275c0 -117.333 -23.167 -208.666 -69.5 -273.999s-111.833 -98 -196.5 -98c-84 0 -149.167 32.5 -195.5 97.5s-69.5 156.5 -69.5 274.5c0 117.333 23.167 208.5 69.5 273.5s111.5 97.5 195.5 97.5z
M170 359.999c0 -90 10.668 -158.333 32.001 -205s52.666 -70 93.999 -70c40.667 0 72.167 23.667 94.5 71s33.5 115.333 33.5 204c0 87.333 -11 155 -33 203s-53.667 72 -95 72c-40 0 -71 -23.833 -93 -71.5s-33 -115.5 -33 -203.5z" />
    <glyph glyph-name="P" unicode="P" horiz-adv-x="499" 
d="M50 721h189.001c32 0 67 -3.66699 105 -11s70.833 -29.5 98.5 -66.5s41.5 -83.167 41.5 -138.5c0 -39.333 -7.16699 -74.833 -21.5 -106.5s-36.833 -58.5 -67.5 -80.5s-82.334 -33 -155.001 -33h-57v-285h-133v721zM183.001 374l41.999 0.000976562
c44 0 76.5 10.167 97.5 30.5s31.5 53.166 31.5 98.499c0 41.333 -8.66699 71 -26 89s-45.666 27 -84.999 27h-60v-245z" />
    <glyph glyph-name="Q" unicode="Q" horiz-adv-x="594" 
d="M320 -22c0 -30 21 -44.999 63 -44.999c10 0 26 2 48 6l13 -73c-40 -13.333 -77.667 -20 -113 -20c-68 0 -102 23.333 -102 70c0 21.333 5.33301 46.666 16 75.999c-142.667 33.333 -214 156 -214 368c0 117.333 23.167 208.5 69.5 273.5s111.5 97.5 195.5 97.5
s149.333 -32 196 -96s70 -155.667 70 -275c0 -112.667 -20 -200.167 -60 -262.5s-100.333 -98.5 -181 -108.5zM170 360.001c0 -90 10.668 -158.333 32.001 -205s52.666 -70 93.999 -70c40.667 0 72.167 23.667 94.5 71s33.5 115.333 33.5 204c0 87.333 -11 155 -33 203
s-53.667 72 -95 72c-40 0 -71 -23.833 -93 -71.5s-33 -115.5 -33 -203.5z" />
    <glyph glyph-name="R" unicode="R" horiz-adv-x="530" 
d="M50 721h217.001c71.333 0 126.5 -16.167 165.5 -48.5s58.5 -77.833 58.5 -136.5c0 -54.667 -17.333 -98.667 -52 -132s-80.334 -50 -137.001 -50h-4l260 -354h-152l-223 328v-328h-133v721zM183.001 413h40c87.333 0 131 37.667 131 113c0 68.667 -37.667 103 -113 103
h-58v-216z" />
    <glyph glyph-name="S" unicode="S" horiz-adv-x="496" 
d="M398 604c-44 20 -84.666 30.001 -121.999 30.001s-67 -8.66699 -89 -26s-33 -40.333 -33 -69c0 -24 6.33301 -42.333 19 -55c10.667 -9.33301 24 -19 40 -29l65 -32c28.667 -12.667 52.834 -24.334 72.501 -35.001s44.667 -27.5 75 -50.5s45.5 -65.833 45.5 -128.5
c0 -65.333 -23.667 -118.666 -71 -159.999s-108.333 -62 -183 -62c-51.333 0 -114.666 14 -189.999 42l32 101c58 -28 109.333 -42 154 -42c35.333 0 64.666 9.16699 87.999 27.5s35 42.5 35 72.5c0 27.333 -9.66699 49.666 -29 66.999l-40 25l-72 36
c-34.667 16 -58.834 28.5 -72.501 37.5s-33.334 26 -59.001 51s-38.5 64.833 -38.5 119.5c0 62 21.667 112.167 65 150.5s101.333 57.5 174 57.5c27.333 0 52.333 -2.33301 75 -7c15.333 -2.66699 29 -5.5 41 -8.5s28.333 -7.83301 49 -14.5z" />
    <glyph glyph-name="T" unicode="T" horiz-adv-x="456" 
d="M-8 721h471v-91l-169 -13v-617h-133v616l-169 15v90z" />
    <glyph glyph-name="U" unicode="U" horiz-adv-x="594" 
d="M544 209l-3 -44.001l-9 -41c-14 -41.333 -42.5 -74.666 -85.5 -99.999s-93.167 -38 -150.5 -38c-18 0 -34.333 1 -49 3s-30.667 5.66699 -48 11c-30.667 10 -63.167 28.167 -97.5 54.5s-51.5 77.833 -51.5 154.5v512h134v-508c0 -83.333 37.333 -125 112 -125
c76 0 114 41.667 114 125v508h134v-512z" />
    <glyph glyph-name="V" unicode="V" horiz-adv-x="503" 
d="M128 721l110 -502l10 -53c2 -13.333 3 -30 3 -50l5 50l9 53l110 502h141l-184 -721h-161l-184 721h141z" />
    <glyph glyph-name="W" unicode="W" horiz-adv-x="798" 
d="M146 721l77 -486l5 -52l3 -61l3 15l3 33l9 65l97 486h114l97 -486l14 -113v31c0 10 0.666992 19.667 2 29l7 53l77 486h135l-133 -721h-145l-99 477l-7 50l-5 48c0 -6 -0.5 -13.667 -1.5 -23s-2.83301 -20.333 -5.5 -33l-6 -42l-99 -477h-145l-134 721h137z" />
    <glyph glyph-name="X" unicode="X" horiz-adv-x="537" 
d="M166 391l-147 330h141l90 -218c6 -17.333 12 -41.666 18 -72.999c6.66699 33.333 12.667 57.666 18 72.999l91 218h141l-148 -330l166 -391h-141l-107 276l-9 28l-11 42c-6 -30.667 -12.333 -54 -19 -70l-106 -276h-142z" />
    <glyph glyph-name="Y" unicode="Y" horiz-adv-x="503" 
d="M123 721l109 -258.001l9 -29l9 -48c2 12.667 3.16699 20.834 3.5 24.501s1.83301 10.167 4.5 19.5l9 33l111 258h150l-213 -436v-285h-134v285l-206 436h148z" />
    <glyph glyph-name="Z" unicode="Z" horiz-adv-x="477" 
d="M18 69l262 517l15 23l23 22l-30 -7l-22 -1l-234 8v90h425v-73l-258 -510l-15 -23l-21 -24l26 9l24 3h5l240 -9v-94h-440v69z" />
    <glyph glyph-name="bracketleft" unicode="[" horiz-adv-x="238" 
d="M50 809h179v-76h-67v-746h67v-76h-179v898z" />
    <glyph glyph-name="backslash" unicode="\" horiz-adv-x="302" 
d="M133 720l126 -720h-90l-126 720h90z" />
    <glyph glyph-name="bracketright" unicode="]" horiz-adv-x="238" 
d="M9 -13h67v746h-67v76h179v-898h-179v76z" />
    <glyph glyph-name="asciicircum" unicode="^" horiz-adv-x="303" 
d="M151 714l147 -115l-31 -45l-116 67l-115 -67l-32 42z" />
    <glyph glyph-name="underscore" unicode="_" horiz-adv-x="446" 
d="M43 0h360v-32h-360v32z" />
    <glyph glyph-name="grave" unicode="`" horiz-adv-x="250" 
d="M72 731l138 -136l-42 -40l-164 109z" />
    <glyph glyph-name="a" unicode="a" horiz-adv-x="495" 
d="M328 349c0 15.333 -1.00293 26.001 -3.00293 32.001c-6 32.667 -36 49 -90 49c-20 0 -40.167 -2 -60.5 -6s-44.5 -11.333 -72.5 -22l-30 88c36.667 10 70.834 17.667 102.501 23s60.5 8 86.5 8c62.667 0 106 -9.66699 130 -29s39 -37.333 45 -54s9 -42.334 9 -77.001
v-361h-111l-5 45c-46 -38.667 -93.333 -58 -142 -58c-49.333 0 -88.833 15 -118.5 45s-44.5 69 -44.5 117c0 51.333 17 93 51 125c16.667 15.333 36.334 27 59.001 35s48.334 12 77.001 12c37.333 0 76.333 -5.33301 117 -16v44zM327.997 243.001l-33 5l-30 1
c-35.333 0 -63.666 -8.16699 -84.999 -24.5s-32 -38.833 -32 -67.5c0 -23.333 8 -43 24 -59c16 -14 37.667 -21 65 -21s57.666 11 90.999 33v133z" />
    <glyph glyph-name="b" unicode="b" horiz-adv-x="515" 
d="M50 719l118 13v-255c40.667 28.667 81.667 43 123 43c56.667 0 102.334 -23.5 137.001 -70.5s52 -110.5 52 -190.5c0 -80.667 -17.167 -146 -51.5 -196s-79.833 -75 -136.5 -75c-22 0 -42.333 3.5 -61 10.5s-41.334 20.167 -68.001 39.5l-8 -38h-105v719zM166 122
c32 -18.667 60.667 -28 86 -28c31.333 0 56.333 14 75 42s28 67.667 28 119c0 52 -9 92 -27 120s-44.333 42 -79 42c-26 0 -53.667 -9.66699 -83 -29v-266z" />
    <glyph glyph-name="c" unicode="c" horiz-adv-x="404" 
d="M362 392c-32 22.667 -61.332 33.998 -87.999 33.998c-36 0 -64.333 -15 -85 -45s-31 -72.667 -31 -128c0 -53.333 10.167 -94.666 30.5 -123.999s49.166 -44 86.499 -44c28.667 0 59 12 91 36l23 -91c-49.333 -28 -97 -42 -143 -42c-65.333 0 -116.833 23.333 -154.5 70
s-56.5 111.334 -56.5 194.001c0 81.333 19 146.333 57 195s90.333 73 157 73c46 0 91.333 -13.333 136 -40z" />
    <glyph glyph-name="d" unicode="d" horiz-adv-x="516" 
d="M348 719l118.003 12v-731h-115v39c-25.333 -18.667 -47.333 -31.834 -66 -39.501s-38.334 -11.5 -59.001 -11.5c-58 0 -104.333 23.833 -139 71.5s-52 110.834 -52 189.501c0 82 17.667 147.667 53 197s82.666 74 141.999 74c39.333 0 78.666 -14 117.999 -42v241z
M348.003 386c-28.667 19.333 -55.334 29 -80.001 29c-71.333 0 -107 -55 -107 -165c0 -50 9 -89.167 27 -117.5s44.667 -42.5 80 -42.5c24.667 0 51.334 9.33301 80.001 28v268z" />
    <glyph glyph-name="e" unicode="e" horiz-adv-x="490" 
d="M164 215c9.33301 -90.667 60 -135.999 152 -135.999c8 0 16.167 0.333008 24.5 1s18.833 2.16699 31.5 4.5s31 8.16602 55 17.499l21 -86c-56 -18 -109.333 -27 -160 -27c-80.667 0 -143 24 -187 72s-66 115.333 -66 202c0 80.667 19.167 143.667 57.5 189
s92.5 68 162.5 68c66 0 117.333 -22 154 -66s55 -107.333 55 -190l-2 -49h-298zM154 291.001h196v5c0 92.667 -32 139 -96 139c-32 0 -56.667 -12.5 -74 -37.5s-26 -60.5 -26 -106.5z" />
    <glyph glyph-name="f" unicode="f" horiz-adv-x="254" 
d="M2 508h59v73c0 98.667 50.667 148 152 148l48 -3l49 -8l-20 -84l-45 7c-44 0 -66 -25 -66 -75v-58h110v-79l-110 -7v-422h-117v423l-60 5v80z" />
    <glyph glyph-name="g" unicode="g" horiz-adv-x="483" 
d="M124 -44c0 -26 8.83301 -44.3281 26.5 -54.9951s47.5 -16 89.5 -16c74 0 111 21.667 111 65c0 17.333 -6.66699 29.666 -20 36.999c-14.667 6.66699 -39 10 -73 10l-55 1h-22h-21c-5.33301 1.33301 -9 2 -11 2c-13.333 0 -30.666 1.83301 -51.999 5.5
s-38.5 10.5 -51.5 20.5s-19.5 22 -19.5 36c0 5.33301 1.66699 11.166 5 17.499s9.33301 13.833 18 22.5c13.333 14.667 40.333 39 81 73c-66 25.333 -99 77.666 -99 156.999c0 59.333 18.5 105.833 55.5 139.5s89.167 50.5 156.5 50.5c64.667 0 113.667 -15.667 147 -47
c19.333 32 44.333 48 75 48l17 -1v-95l-17 1c-12.667 0 -25.667 -4.33301 -39 -13c7.33301 -14.667 12.333 -28.334 15 -41.001l4 -44c0 -55.333 -17.333 -98.833 -52 -130.5s-83.667 -47.5 -147 -47.5c-12 0 -21 0.666992 -27 2l-25 3
c-28.667 -26.667 -43 -45.334 -43 -56.001c0 -6 8.33301 -11 25 -15c11.333 -1.33301 23 -2.33301 35 -3s31 -1 57 -1h44c12 0 25.667 -1.16699 41 -3.5s30.666 -4.83301 45.999 -7.5c46.667 -6 70 -44 70 -114c0 -106 -75 -159 -225 -159
c-74 0 -129.167 12.167 -165.5 36.5s-54.5 62.833 -54.5 115.5v6h100zM151 335.005c0 -33.333 7.83301 -59.8311 23.5 -79.498s37.5 -29.5 65.5 -29.5c26.667 0 48.167 9.66699 64.5 29s24.5 46 24.5 80c0 35.333 -7.66699 62.666 -23 81.999s-37 29 -65 29
c-25.333 0 -47 -10.333 -65 -31c-16.667 -20.667 -25 -47.334 -25 -80.001z" />
    <glyph glyph-name="h" unicode="h" horiz-adv-x="511" 
d="M50 719l116 12.999v-257c22.667 15.333 45.667 27 69 35s46.666 12 69.999 12c51.333 0 87.666 -10.667 108.999 -32c20.667 -19.333 33.834 -38.166 39.501 -56.499s8.5 -43.5 8.5 -75.5v-358h-117v329l-3 41c-8 37.333 -34.667 56 -80 56
c-33.333 0 -64.666 -12.333 -93.999 -37v-389h-118v719z" />
    <glyph glyph-name="i" unicode="i" horiz-adv-x="219" 
d="M51 507l117 13v-520h-117v507zM117 724c39.333 0 59.001 -17.667 59.001 -53l-1 -9c-2.66699 -25.333 -6.33398 -40.5 -11.001 -45.5s-23 -10.5 -55 -16.5h-10c-37.333 0 -56 21 -56 63c0 23.333 5.33301 39.333 16 48s30 13 58 13z" />
    <glyph glyph-name="j" unicode="j" horiz-adv-x="221" 
d="M43 -96l7 36.999l2 62v504l118 12v-516v-12c0 -26 -1 -46.833 -3 -62.5s-7.83301 -34.5 -17.5 -56.5s-33.167 -46 -70.5 -72l-73 39c16.667 20.667 29 42.334 37 65.001zM118 723.999c39.333 0 59 -18.333 59 -55l-1 -7v-12c0 -4.66699 -0.666992 -9.66699 -2 -15
c0 -6 -2 -12 -6 -18l-22 -10l-36 -7l-8 -1c-38 0 -57 21.333 -57 64c0 21.333 5.5 36.833 16.5 46.5s29.833 14.5 56.5 14.5z" />
    <glyph glyph-name="k" unicode="k" horiz-adv-x="461" 
d="M50 719l118 13v-363l-2 -31l-1 -18l8 21l15 22l118 145h134l-172 -214l225 -294h-146l-157 211l-13 21l-12 29l3 -63v-198h-118v719z" />
    <glyph glyph-name="l" unicode="l" horiz-adv-x="216" 
d="M50 719l116 13v-732h-116v719z" />
    <glyph glyph-name="m" unicode="m" horiz-adv-x="773" 
d="M50 507l118 13v-38c43.333 26.667 85.333 40 126 40c54 0 96.333 -19.333 127 -58c50.667 37.333 102 56 154 56c48.667 0 83 -11 103 -33s32.667 -42.333 38 -61c2 -8.66699 3.66699 -19.5 5 -32.5s2 -28.167 2 -45.5v-348h-118v319l-2 45
c-2.66699 18 -11 32.667 -25 44s-30.333 17 -49 17c-28 0 -56.667 -12 -86 -36v-389h-117v319l-2 44c-2 17.333 -10.167 32 -24.5 44s-31.5 18 -51.5 18c-26 0 -53.333 -10.333 -82 -31v-394h-116v507z" />
    <glyph glyph-name="n" unicode="n" horiz-adv-x="511" 
d="M50 507l115.997 13v-43c51.333 30 98.333 45 141 45c48.667 0 83.334 -10 104.001 -30s34.334 -40 41.001 -60s10 -46 10 -78v-354h-118v324l-2 42c-3.33301 18 -12.166 32.333 -26.499 43s-31.833 16 -52.5 16c-26.667 0 -59 -12 -97 -36v-389h-116v507z" />
    <glyph glyph-name="o" unicode="o" horiz-adv-x="518" 
d="M258 521c150 0 225 -89 225 -267c0 -178.667 -75 -268 -225 -268c-148.667 0 -223 89.333 -223 268c0 178 74.333 267 223 267zM158 254c0 -122 33.333 -183 100 -183c67.333 0 101 61 101 183c0 121.333 -33.667 182 -101 182c-66.667 0 -100 -60.667 -100 -182z" />
    <glyph glyph-name="p" unicode="p" horiz-adv-x="516" 
d="M50 507l112.999 11.999l5 -45c19.333 14.667 38.666 26.334 57.999 35.001c20 6.66699 40 10 60 10c58.667 0 105.834 -24.333 141.501 -73s53.5 -113.667 53.5 -195c0 -78.667 -17.167 -142.167 -51.5 -190.5s-80.166 -72.5 -137.499 -72.5
c-40.667 0 -82.667 16 -126 48v-223h-116v694zM167.999 120.999c16 -8.66699 30.999 -15.667 44.999 -21c15.333 -4.66699 28 -7 38 -7c70 0 105 53.333 105 160c0 50 -9.66699 89.667 -29 119s-45.666 44 -78.999 44c-24 0 -50.667 -9.33301 -80 -28v-267z" />
    <glyph glyph-name="q" unicode="q" horiz-adv-x="515" 
d="M350 507l114.999 12v-705h-118v223c-39.333 -33.333 -80 -50 -122 -50c-58 0 -104.167 23.5 -138.5 70.5s-51.5 109.167 -51.5 186.5c0 82.667 17.167 149.167 51.5 199.5s80.833 75.5 139.5 75.5c38.667 0 80.334 -14.667 125.001 -44zM347.999 388
c-28.667 19.333 -55.999 29 -81.999 29c-33.333 0 -59.333 -14.833 -78 -44.5s-28 -72.167 -28 -127.5c0 -47.333 9 -85 27 -113c18 -26 44.333 -39 79 -39c25.333 0 52.666 9.66699 81.999 29v266z" />
    <glyph glyph-name="r" unicode="r" horiz-adv-x="283" 
d="M50 507l118 7v-42c36.667 30.667 75 46 115 46h12l-12 -109l-35 3c-28 0 -54.667 -7.33301 -80 -22v-390h-118v507z" />
    <glyph glyph-name="s" unicode="s" horiz-adv-x="424" 
d="M50 112c48.667 -19.333 91.333 -28.9971 128 -28.9971c29.333 0 53 5 71 15s27 23.333 27 40c0 17.333 -7.33301 30.333 -22 39l-33 18l-68 31c-38.667 16 -69.5 35.333 -92.5 58s-34.5 52.667 -34.5 90c0 45.333 18.167 81.666 54.5 108.999s85.166 41 146.499 41
c18 0 31.333 -0.333008 40 -1s22.5 -2.83398 41.5 -6.50098s46.833 -11.5 83.5 -23.5l-27 -89c-57.333 20 -103.666 30 -138.999 30c-26 0 -46.167 -4.16699 -60.5 -12.5s-21.5 -20.833 -21.5 -37.5c0 -12.667 3.5 -22.834 10.5 -30.501s21.833 -16.834 44.5 -27.501l12 -6
l37 -17l41 -19l46 -24c20.667 -10 36.667 -24.667 48 -44c12 -18 18 -41.333 18 -70c0 -47.333 -18.333 -85.666 -55 -114.999s-86.667 -44 -150 -44c-44 0 -90 7 -138 21l-36 11z" />
    <glyph glyph-name="t" unicode="t" horiz-adv-x="276" 
d="M1 508h58v80l118 17v-97h93v-76l-93 -9v-282l1 -33c4 -22 19.333 -33 46 -33c12 0 27.667 3 47 9v-82l-45 -10l-43 -4c-44 0 -76 9 -96 27c-18.667 18.667 -28 48.667 -28 90v319l-58 6v78z" />
    <glyph glyph-name="u" unicode="u" horiz-adv-x="511" 
d="M204 -12c-102.667 0 -153.999 51.333 -153.999 154v365l118 13v-347c0 -32 6 -54.833 18 -68.5s33.333 -20.5 64 -20.5c29.333 0 60.666 11.333 93.999 34v390h118v-508h-117l-1 31c-49.333 -28.667 -96 -43 -140 -43z" />
    <glyph glyph-name="v" unicode="v" horiz-adv-x="435" 
d="M112 520l97 -349c4 -12.667 8 -36.667 12 -72l5 37c2 15.333 4.66699 27 8 35l95 337h120l-158 -508h-149l-155 507z" />
    <glyph glyph-name="w" unicode="w" horiz-adv-x="735" 
d="M126 520l75 -336l6 -32l3 -36c0 18.667 0.666992 31 2 37l9 32l85 323h130l84 -321l10 -69l3 39l6 30l78 321h116l-132 -508h-136l-84 320l-9 43l-6 47l-2 -21l-3 -20l-6 -45l-85 -324h-138l-130 507z" />
    <glyph glyph-name="x" unicode="x" horiz-adv-x="451" 
d="M136 270l-124 237l126 13l77 -169l7 -20l6 -23l4 18l10 28l77 154h120l-119 -237l133 -271h-127l-82 186l-11 27l-5 29c-4 -24 -10 -43 -18 -57l-87 -185h-126z" />
    <glyph glyph-name="y" unicode="y" horiz-adv-x="441" 
d="M111 520l98 -348l6 -38l3 -20l3 -13c0 13.333 0.666992 23.333 2 30l9 42l99 335h123l-175 -567c-16 -54.667 -35.333 -91.667 -58 -111c-22 -20.667 -54 -31 -96 -31c-33.333 0 -71.666 6 -114.999 18l25 84c24 -10 45.333 -15 64 -15
c21.333 0 37.666 5.16699 48.999 15.5s21.333 28.833 30 55.5l14 43h-57l-148 507z" />
    <glyph glyph-name="z" unicode="z" horiz-adv-x="432" 
d="M15 54l225 340c8 12 20.333 23 37 33l-25 -8l-18 -1h-7l-200 8v82h386v-53l-222 -337c-10 -16 -23.333 -29.333 -40 -40c18 7.33301 33.333 11 46 11h8l208 -9v-80h-398v54z" />
    <glyph glyph-name="braceleft" unicode="{" horiz-adv-x="325" 
d="M107 432l-0.000976562 325.999c0 23.333 7 42 21 56s35 21 63 21h91v-53h-12c-22 0 -37 -4 -45 -12s-12 -23 -12 -45v-282c0 -23.333 -8 -42.666 -24 -57.999c-15.333 -13.333 -32.333 -21.666 -51 -24.999c10 -1.33301 24.667 -7 44 -17
c20.667 -9.33301 31 -31.333 31 -66v-282c0 -22.667 3.83301 -37.834 11.5 -45.501s22.834 -11.5 45.501 -11.5h12v-53h-91c-26 0 -46.5 6.66699 -61.5 20s-22.5 32.333 -22.5 57v326c0 20.667 -6 37.834 -18 51.501s-27.333 20.5 -46 20.5c18 0 33.167 6.66699 45.5 20
s18.5 30.666 18.5 51.999z" />
    <glyph glyph-name="bar" unicode="|" horiz-adv-x="176" 
d="M43 720h90v-720h-90v720z" />
    <glyph glyph-name="braceright" unicode="}" horiz-adv-x="325" 
d="M43 -62l12.002 0.00195312c21.333 0 36.333 4 45 12s13 23 13 45v282c0 34.667 9.66699 56.667 29 66s34.666 15 45.999 17c-10.667 1.33301 -25.834 6.66602 -45.501 15.999s-29.5 31.666 -29.5 66.999v282c0 22 -3.83301 37 -11.5 45s-23.167 12 -46.5 12h-12v53h91
c28 0 49.167 -6.66699 63.5 -20s21.5 -32.333 21.5 -57v-326c0 -20.667 5.83301 -37.834 17.5 -51.501s26.834 -20.5 45.501 -20.5c-18.667 0 -33.834 -6.66699 -45.501 -20s-17.5 -30.666 -17.5 -51.999v-326c0 -24 -7.66699 -42.667 -23 -56c-14 -14 -34.667 -21 -62 -21
h-91v53z" />
    <glyph glyph-name="asciitilde" unicode="~" horiz-adv-x="361" 
d="M4 832c35.333 18 72.002 27 110.002 27c19.333 0 34.666 -1 45.999 -3l59 -15c12 -2 23.167 -3.66699 33.5 -5s20.833 -2 31.5 -2c15.333 0 28.666 1.16699 39.999 3.5s22.333 6.83301 33 13.5v-72c-31.333 -9.33301 -57.333 -14 -78 -14c-16 0 -28 1.33301 -36 4l-42 10
c-34.667 8.66699 -65 13 -91 13c-28 0 -54.667 -4.66699 -80 -14l-26 -13v67z" />
    <glyph glyph-name="c128" horiz-adv-x="559" 
d="M474 498h-405l-34 -86h413zM544 25l-15.999 94c-44.667 -22.667 -85.334 -34 -122.001 -34c-102.667 0 -154 88.333 -154 265c0 96.667 12.5 168.167 37.5 214.5s63.5 69.5 115.5 69.5c31.333 0 66 -7.66699 104 -23l19 90c-54 20 -103 30 -147 30
c-86 0 -152.5 -32.5 -199.5 -97.5s-70.5 -157.5 -70.5 -277.5c0 -118.667 23.167 -209.5 69.5 -272.5s113.5 -94.5 201.5 -94.5c48.667 0 102.667 12 162 36zM432.001 372h-353l-30 -84h359z" />
    <glyph glyph-name="c128" unicode="&#x20ac;" horiz-adv-x="559" 
d="M474 498h-405l-34 -86h413zM544 25l-15.999 94c-44.667 -22.667 -85.334 -34 -122.001 -34c-102.667 0 -154 88.333 -154 265c0 96.667 12.5 168.167 37.5 214.5s63.5 69.5 115.5 69.5c31.333 0 66 -7.66699 104 -23l19 90c-54 20 -103 30 -147 30
c-86 0 -152.5 -32.5 -199.5 -97.5s-70.5 -157.5 -70.5 -277.5c0 -118.667 23.167 -209.5 69.5 -272.5s113.5 -94.5 201.5 -94.5c48.667 0 102.667 12 162 36zM432.001 372h-353l-30 -84h359z" />
    <glyph glyph-name="quotesinglbase" horiz-adv-x="200" 
d="M51 105h122l-118 -239l-56 15z" />
    <glyph glyph-name="quotesinglbase" unicode="&#x201a;" horiz-adv-x="200" 
d="M51 105h122l-118 -239l-56 15z" />
    <glyph glyph-name="florin" horiz-adv-x="401" 
d="M-56 -95c12.667 -5.33301 26.667 -8.00098 42 -8.00098c26 0 44.333 5.16699 55 15.5s18 29.833 22 58.5l46 447l-57 6l9 81l57 1l7 69c4 27.333 8 47.333 12 60c10 25.333 28.667 45.833 56 61.5s59 23.5 95 23.5l48 -2l36 -4l16 -4l-28 -82l-13 3l-18 3l-22 1
c-39.333 0 -61.333 -24.667 -66 -74l-5 -56l110 -1l-8 -80l-113 -6l-47 -462c-2.66699 -27.333 -8.66699 -51.333 -18 -72c-7.33301 -19.333 -25 -36.666 -53 -51.999s-61.667 -23 -101 -23c-21.333 0 -46 2.33301 -74 7l-14 2l-4 1z" />
    <glyph glyph-name="florin" unicode="&#x192;" horiz-adv-x="401" 
d="M-56 -95c12.667 -5.33301 26.667 -8.00098 42 -8.00098c26 0 44.333 5.16699 55 15.5s18 29.833 22 58.5l46 447l-57 6l9 81l57 1l7 69c4 27.333 8 47.333 12 60c10 25.333 28.667 45.833 56 61.5s59 23.5 95 23.5l48 -2l36 -4l16 -4l-28 -82l-13 3l-18 3l-22 1
c-39.333 0 -61.333 -24.667 -66 -74l-5 -56l110 -1l-8 -80l-113 -6l-47 -462c-2.66699 -27.333 -8.66699 -51.333 -18 -72c-7.33301 -19.333 -25 -36.666 -53 -51.999s-61.667 -23 -101 -23c-21.333 0 -46 2.33301 -74 7l-14 2l-4 1z" />
    <glyph glyph-name="quotedblbase" horiz-adv-x="358" 
d="M51 105h122l-118 -239l-56 15zM209 105h122l-118 -239l-56 15z" />
    <glyph glyph-name="quotedblbase" unicode="&#x201e;" horiz-adv-x="358" 
d="M51 105h122l-118 -239l-56 15zM209 105h122l-118 -239l-56 15z" />
    <glyph glyph-name="ellipsis" unicode="&#x85;" horiz-adv-x="996" 
d="M167 133c20 0 37 -7 51 -21s21 -31 21 -51s-7 -37 -21 -51s-31 -21 -51 -21s-37 7 -51 21s-21 31 -21 51s7 37 21 51s31 21 51 21zM500 133c20 0 37 -7 51 -21s21 -31 21 -51s-7 -37 -21 -51s-31 -21 -51 -21s-37 7 -51 21s-21 31 -21 51s7 37 21 51s31 21 51 21z
M833 133c20 0 37 -7 51 -21s21 -31 21 -51s-7 -37 -21 -51s-31 -21 -51 -21s-37 7 -51 21s-21 31 -21 51s7 37 21 51s31 21 51 21z" />
    <glyph glyph-name="ellipsis" unicode="&#x2026;" horiz-adv-x="996" 
d="M167 133c20 0 37 -7 51 -21s21 -31 21 -51s-7 -37 -21 -51s-31 -21 -51 -21s-37 7 -51 21s-21 31 -21 51s7 37 21 51s31 21 51 21zM500 133c20 0 37 -7 51 -21s21 -31 21 -51s-7 -37 -21 -51s-31 -21 -51 -21s-37 7 -51 21s-21 31 -21 51s7 37 21 51s31 21 51 21z
M833 133c20 0 37 -7 51 -21s21 -31 21 -51s-7 -37 -21 -51s-31 -21 -51 -21s-37 7 -51 21s-21 31 -21 51s7 37 21 51s31 21 51 21z" />
    <glyph glyph-name="dagger" horiz-adv-x="595" 
d="M19 496h217v225h123v-225h216v-120h-216v-474h-123v474h-217v120z" />
    <glyph glyph-name="dagger" unicode="&#x2020;" horiz-adv-x="595" 
d="M19 496h217v225h123v-225h216v-120h-216v-474h-123v474h-217v120z" />
    <glyph glyph-name="daggerdbl" horiz-adv-x="624" 
d="M250 164l-1 212h-214v120l215 -1l-1 222h123l1 -221h216l1 -120h-217l1 -211l215 -1l1 -119h-217v-222h-123v222h-216v118z" />
    <glyph glyph-name="daggerdbl" unicode="&#x2021;" horiz-adv-x="624" 
d="M250 164l-1 212h-214v120l215 -1l-1 222h123l1 -221h216l1 -120h-217l1 -211l215 -1l1 -119h-217v-222h-123v222h-216v118z" />
    <glyph glyph-name="perthousand" horiz-adv-x="949" 
d="M174 734c44.667 0 79.5 -16.167 104.5 -48.5s37.5 -77.833 37.5 -136.5s-12.167 -104.167 -36.5 -136.5s-59.5 -48.5 -105.5 -48.5c-43.333 0 -77.5 16.167 -102.5 48.5s-37.5 77.833 -37.5 136.5c0 57.333 12.167 102.5 36.5 135.5s58.833 49.5 103.5 49.5zM533 721h58
l-487 -721h-60zM459 355c43.333 0 77.666 -16.333 102.999 -49s38 -78 38 -136s-12.167 -103.333 -36.5 -136s-59.166 -49 -104.499 -49c-43.333 0 -77.5 16 -102.5 48s-37.5 77.667 -37.5 137c0 58 12.333 103.333 37 136s59 49 103 49zM775 355
c43.333 0 77.666 -16.333 102.999 -49s38 -78 38 -136s-12.167 -103.333 -36.5 -136s-59.166 -49 -104.499 -49c-43.333 0 -77.333 16 -102 48s-37 77.667 -37 137c0 57.333 12.167 102.5 36.5 135.5s58.5 49.5 102.5 49.5zM403 170c0 -33.333 5 -59.833 15 -79.5
s23.667 -29.5 41 -29.5c18 0 32 9.5 42 28.5s15 45.833 15 80.5c0 33.333 -5 59.833 -15 79.5s-24 29.5 -42 29.5c-16.667 0 -30.167 -9.33301 -40.5 -28s-15.5 -45.667 -15.5 -81zM117 549c0 -34 5.00098 -60.833 15.001 -80.5s24 -29.5 42 -29.5s32.167 10.167 42.5 30.5
s15.5 46.833 15.5 79.5c0 34 -5.16699 60.833 -15.5 80.5s-24.5 29.5 -42.5 29.5c-16.667 0 -30.334 -9.83301 -41.001 -29.5s-16 -46.5 -16 -80.5zM719.001 170c0 -33.333 5 -59.833 15 -79.5s23.667 -29.5 41 -29.5c18 0 32 9.66699 42 29s15 46 15 80
c0 33.333 -5 59.833 -15 79.5s-24 29.5 -42 29.5c-16.667 0 -30.167 -9.66699 -40.5 -29s-15.5 -46 -15.5 -80z" />
    <glyph glyph-name="perthousand" unicode="&#x2030;" horiz-adv-x="949" 
d="M174 734c44.667 0 79.5 -16.167 104.5 -48.5s37.5 -77.833 37.5 -136.5s-12.167 -104.167 -36.5 -136.5s-59.5 -48.5 -105.5 -48.5c-43.333 0 -77.5 16.167 -102.5 48.5s-37.5 77.833 -37.5 136.5c0 57.333 12.167 102.5 36.5 135.5s58.833 49.5 103.5 49.5zM533 721h58
l-487 -721h-60zM459 355c43.333 0 77.666 -16.333 102.999 -49s38 -78 38 -136s-12.167 -103.333 -36.5 -136s-59.166 -49 -104.499 -49c-43.333 0 -77.5 16 -102.5 48s-37.5 77.667 -37.5 137c0 58 12.333 103.333 37 136s59 49 103 49zM775 355
c43.333 0 77.666 -16.333 102.999 -49s38 -78 38 -136s-12.167 -103.333 -36.5 -136s-59.166 -49 -104.499 -49c-43.333 0 -77.333 16 -102 48s-37 77.667 -37 137c0 57.333 12.167 102.5 36.5 135.5s58.5 49.5 102.5 49.5zM403 170c0 -33.333 5 -59.833 15 -79.5
s23.667 -29.5 41 -29.5c18 0 32 9.5 42 28.5s15 45.833 15 80.5c0 33.333 -5 59.833 -15 79.5s-24 29.5 -42 29.5c-16.667 0 -30.167 -9.33301 -40.5 -28s-15.5 -45.667 -15.5 -81zM117 549c0 -34 5.00098 -60.833 15.001 -80.5s24 -29.5 42 -29.5s32.167 10.167 42.5 30.5
s15.5 46.833 15.5 79.5c0 34 -5.16699 60.833 -15.5 80.5s-24.5 29.5 -42.5 29.5c-16.667 0 -30.334 -9.83301 -41.001 -29.5s-16 -46.5 -16 -80.5zM719.001 170c0 -33.333 5 -59.833 15 -79.5s23.667 -29.5 41 -29.5c18 0 32 9.66699 42 29s15 46 15 80
c0 33.333 -5 59.833 -15 79.5s-24 29.5 -42 29.5c-16.667 0 -30.167 -9.66699 -40.5 -29s-15.5 -46 -15.5 -80z" />
    <glyph glyph-name="guilsinglleft" horiz-adv-x="248" 
d="M151 454l63 -26l-82 -175l81 -172l-64 -23l-115 195z" />
    <glyph glyph-name="guilsinglleft" unicode="&#x2039;" horiz-adv-x="248" 
d="M151 454l63 -26l-82 -175l81 -172l-64 -23l-115 195z" />
    <glyph glyph-name="OE" horiz-adv-x="810" 
d="M428 0l-37.001 -2l-37 -6l-55 -4c-81.333 0 -145.666 33.167 -192.999 99.5s-71 157.833 -71 274.5s24.167 207.5 72.5 272.5s115.833 97.5 202.5 97.5l44 -3l41 -8h51h335v-91l-266 -13v-215h226v-91h-227v-204l262 -14v-93h-348zM378.999 612
c-20 12.667 -44.333 19 -73 19c-88 0 -132 -90.333 -132 -271c0 -88.667 11.667 -156.5 35 -203.5s57 -70.5 101 -70.5c24 0 47 7 69 21v505z" />
    <glyph glyph-name="OE" unicode="&#x152;" horiz-adv-x="810" 
d="M428 0l-37.001 -2l-37 -6l-55 -4c-81.333 0 -145.666 33.167 -192.999 99.5s-71 157.833 -71 274.5s24.167 207.5 72.5 272.5s115.833 97.5 202.5 97.5l44 -3l41 -8h51h335v-91l-266 -13v-215h226v-91h-227v-204l262 -14v-93h-348zM378.999 612
c-20 12.667 -44.333 19 -73 19c-88 0 -132 -90.333 -132 -271c0 -88.667 11.667 -156.5 35 -203.5s57 -70.5 101 -70.5c24 0 47 7 69 21v505z" />
    <glyph glyph-name="quoteleft" horiz-adv-x="209" 
d="M134 711l56 -15l-53 -224h-122z" />
    <glyph glyph-name="quoteleft" unicode="&#x2018;" horiz-adv-x="209" 
d="M134 711l56 -15l-53 -224h-122z" />
    <glyph glyph-name="quoteright" horiz-adv-x="209" 
d="M68 712h122l-119 -240l-56 16z" />
    <glyph glyph-name="quoteright" unicode="&#x2019;" horiz-adv-x="209" 
d="M68 712h122l-119 -240l-56 16z" />
    <glyph glyph-name="quotedblleft" horiz-adv-x="366" 
d="M134 711l56 -15l-53 -224h-122zM292 711l56 -15l-53 -224h-122z" />
    <glyph glyph-name="quotedblleft" unicode="&#x201c;" horiz-adv-x="366" 
d="M134 711l56 -15l-53 -224h-122zM292 711l56 -15l-53 -224h-122z" />
    <glyph glyph-name="quotedblright" horiz-adv-x="366" 
d="M68 712h122l-119 -240l-56 16zM226 712h122l-119 -240l-56 16z" />
    <glyph glyph-name="quotedblright" unicode="&#x201d;" horiz-adv-x="366" 
d="M68 712h122l-119 -240l-56 16zM226 712h122l-119 -240l-56 16z" />
    <glyph glyph-name="bullet" horiz-adv-x="204" 
d="M104 309c20 0 37.333 -5.33398 52 -16.001s22 -23.667 22 -39c0 -13.333 -7.33301 -26 -22 -38c-14 -10 -31.667 -15 -53 -15c-20 0 -38 5 -54 15c-14.667 10.667 -22 23.334 -22 38.001c0 15.333 7.33301 28.333 22 39s33 16 55 16z" />
    <glyph glyph-name="bullet" unicode="&#x2022;" horiz-adv-x="204" 
d="M104 309c20 0 37.333 -5.33398 52 -16.001s22 -23.667 22 -39c0 -13.333 -7.33301 -26 -22 -38c-14 -10 -31.667 -15 -53 -15c-20 0 -38 5 -54 15c-14.667 10.667 -22 23.334 -22 38.001c0 15.333 7.33301 28.333 22 39s33 16 55 16z" />
    <glyph glyph-name="endash" 
d="M34 404h464v-83h-464v83z" />
    <glyph glyph-name="endash" unicode="&#x2013;" 
d="M34 404h464v-83h-464v83z" />
    <glyph glyph-name="emdash" horiz-adv-x="996" 
d="M30 406h936v-95h-936v95z" />
    <glyph glyph-name="emdash" unicode="&#x2014;" horiz-adv-x="996" 
d="M30 406h936v-95h-936v95z" />
    <glyph glyph-name="trademark" horiz-adv-x="723" 
d="M43 720h218v-54h-80v-306h-60v306h-78v54zM316 727l39 -0.000976562l92 -217c11.333 -26 17 -48.667 17 -68c0 18.667 5.66699 41.334 17 68.001l93 217h39l67 -367h-60l-35 206l-1 11l-1 10v38l-10 -37l-4 -15l-2 -5l-90 -214h-25l-90 214l-2 5l-5 15l-10 37v-19l1 -19
l-1 -10l-2 -11l-35 -206h-59z" />
    <glyph glyph-name="trademark" unicode="&#x2122;" horiz-adv-x="723" 
d="M43 720h218v-54h-80v-306h-60v306h-78v54zM316 727l39 -0.000976562l92 -217c11.333 -26 17 -48.667 17 -68c0 18.667 5.66699 41.334 17 68.001l93 217h39l67 -367h-60l-35 206l-1 11l-1 10v38l-10 -37l-4 -15l-2 -5l-90 -214h-25l-90 214l-2 5l-5 15l-10 37v-19l1 -19
l-1 -10l-2 -11l-35 -206h-59z" />
    <glyph glyph-name="guilsinglright" horiz-adv-x="248" 
d="M115 253l-78 177l61 25l116 -201l-118 -195l-62 23z" />
    <glyph glyph-name="guilsinglright" unicode="&#x203a;" horiz-adv-x="248" 
d="M115 253l-78 177l61 25l116 -201l-118 -195l-62 23z" />
    <glyph glyph-name="oe" horiz-adv-x="826" 
d="M589 520c72 0 123.668 -23.667 155.001 -71s47 -111.333 47 -192l-1 -42h-297c9.33301 -91.333 58.666 -137 147.999 -137c20.667 0 39 1.5 55 4.5s36.333 9.16699 61 18.5l20 -85l-85 -22c-22 -4 -45.667 -6 -71 -6c-66.667 0 -111.667 10 -135 30l-37 35l-14 21
c-34 -59.333 -93 -89 -177 -89c-148.667 0 -223 88 -223 264c0 90.667 19 159 57 205s93.333 69 166 69c78 0 135 -27 171 -81c38 52 91.333 78 160 78zM156.001 252c0 -122 35.333 -183 106 -183c69.333 0 104 60.667 104 182c0 60.667 -8.83301 107 -26.5 139
s-43.5 48 -77.5 48c-70.667 0 -106 -62 -106 -186zM482.001 291h200c0 96 -32.333 144 -97 144c-32 0 -57.167 -12.333 -75.5 -37s-27.5 -59 -27.5 -103v-4z" />
    <glyph glyph-name="oe" unicode="&#x153;" horiz-adv-x="826" 
d="M589 520c72 0 123.668 -23.667 155.001 -71s47 -111.333 47 -192l-1 -42h-297c9.33301 -91.333 58.666 -137 147.999 -137c20.667 0 39 1.5 55 4.5s36.333 9.16699 61 18.5l20 -85l-85 -22c-22 -4 -45.667 -6 -71 -6c-66.667 0 -111.667 10 -135 30l-37 35l-14 21
c-34 -59.333 -93 -89 -177 -89c-148.667 0 -223 88 -223 264c0 90.667 19 159 57 205s93.333 69 166 69c78 0 135 -27 171 -81c38 52 91.333 78 160 78zM156.001 252c0 -122 35.333 -183 106 -183c69.333 0 104 60.667 104 182c0 60.667 -8.83301 107 -26.5 139
s-43.5 48 -77.5 48c-70.667 0 -106 -62 -106 -186zM482.001 291h200c0 96 -32.333 144 -97 144c-32 0 -57.167 -12.333 -75.5 -37s-27.5 -59 -27.5 -103v-4z" />
    <glyph glyph-name="Ydieresis" horiz-adv-x="503" 
d="M123 721l109 -258.001l9 -29l9 -48c2 12.667 3.16699 20.834 3.5 24.501s1.83301 10.167 4.5 19.5l9 33l111 258h150l-213 -436v-285h-134v285l-206 436h148zM160 897.999c18.667 0 34 -5.33301 46 -16s18 -23.334 18 -38.001c0 -15.333 -6.16699 -28.166 -18.5 -38.499
s-27.5 -15.5 -45.5 -15.5c-17.333 0 -33 5 -47 15c-12.667 10.667 -19 23.667 -19 39c0 14 6.66699 26.667 20 38c4 3.33301 8.66699 6.33301 14 9c9.33301 4.66699 20 7 32 7zM341 897.999c17.333 0 33.001 -5.00098 47.001 -15.001c12.667 -10.667 19 -23.667 19 -39
s-6.16699 -28.166 -18.5 -38.499s-28.166 -15.5 -47.499 -15.5c-16.667 0 -31.334 5 -44.001 15s-19 23 -19 39c0 14 6.16699 26.5 18.5 37.5s27.166 16.5 44.499 16.5z" />
    <glyph glyph-name="Ydieresis" unicode="&#x178;" horiz-adv-x="503" 
d="M123 721l109 -258.001l9 -29l9 -48c2 12.667 3.16699 20.834 3.5 24.501s1.83301 10.167 4.5 19.5l9 33l111 258h150l-213 -436v-285h-134v285l-206 436h148zM160 897.999c18.667 0 34 -5.33301 46 -16s18 -23.334 18 -38.001c0 -15.333 -6.16699 -28.166 -18.5 -38.499
s-27.5 -15.5 -45.5 -15.5c-17.333 0 -33 5 -47 15c-12.667 10.667 -19 23.667 -19 39c0 14 6.66699 26.667 20 38c4 3.33301 8.66699 6.33301 14 9c9.33301 4.66699 20 7 32 7zM341 897.999c17.333 0 33.001 -5.00098 47.001 -15.001c12.667 -10.667 19 -23.667 19 -39
s-6.16699 -28.166 -18.5 -38.499s-28.166 -15.5 -47.499 -15.5c-16.667 0 -31.334 5 -44.001 15s-19 23 -19 39c0 14 6.16699 26.5 18.5 37.5s27.166 16.5 44.499 16.5z" />
    <glyph glyph-name="nonbreakingspace" unicode="&#xa0;" horiz-adv-x="500" 
 />
    <glyph glyph-name="exclamdown" unicode="&#xa1;" horiz-adv-x="235" 
d="M82 547h74l38 -560h-150zM117 721c22 0 40 -5.66699 54 -17c15.333 -10 23 -23 23 -39c0 -15.333 -7.33301 -28.333 -22 -39s-33 -16 -55 -16c-20.667 0 -38.5 5.33301 -53.5 16s-22.5 23.667 -22.5 39c0 16 7.33301 29.333 22 40s32.667 16 54 16z" />
    <glyph glyph-name="cent" unicode="&#xa2;" horiz-adv-x="404" 
d="M229 578l43 -0.00292969v-62c16.667 0 31.834 -1.66699 45.501 -5s36.167 -13.666 67.5 -30.999l-23 -88c-30.667 21.333 -57.334 32 -80.001 32h-13v-338h8c29.333 0 59 11.667 89 35l23 -91c-20.667 -11.333 -41 -20.666 -61 -27.999c-14.667 -4.66699 -35 -9 -61 -13
v-74h-41v74c-61.333 6 -108.5 32 -141.5 78s-49.5 107.667 -49.5 185c0 80.667 17.5 144.834 52.5 192.501s82.167 71.5 141.5 71.5v62zM226 408.997l-12 -11.999l-22 -23c-23.333 -26.667 -35 -65.334 -35 -116.001c0 -19.333 0.5 -32.5 1.5 -39.5s3.5 -18.833 7.5 -35.5
s9.66699 -30.667 17 -42l19 -22l24 -16v306z" />
    <glyph glyph-name="sterling" unicode="&#xa3;" 
d="M35 71c68 0 101.998 42.668 101.998 128.001v9v22v17c-1.33301 8 -2 13.667 -2 17c0 16.667 -2 41.667 -6 75l-1 10h-72v51h72l-6 50l-2 45c0 158 75.333 237 226 237c43.333 0 88 -7.66699 134 -23l-22 -77c-34 10.667 -62.667 16 -86 16c-82 0 -123 -55.667 -123 -167
l4 -76v-6h179v-50h-176l5 -49l1 -44c0 -46.667 -5.16699 -80.334 -15.5 -101.001s-31.5 -42 -63.5 -64h17c18.667 0 32.334 -0.333008 41.001 -1s24.667 -3 48 -7l46 -6l37 -2c26.667 0 49.5 2 68.5 6s37.833 11.333 56.5 22v-97c-20.667 -6.66699 -41.667 -12 -63 -16
s-41.666 -6 -60.999 -6c-17.333 0 -35.333 1 -54 3s-41 5.66699 -67 11l-67 12c-23.333 4 -45.333 6 -66 6l-44 -3c-8 -1.33301 -13.833 -2.5 -17.5 -3.5s-11.167 -4.16699 -22.5 -9.5v71z" />
    <glyph glyph-name="currency" unicode="&#xa4;" horiz-adv-x="494" 
d="M103 272c-8 11.333 -15 25.3301 -21 41.9971c-2.66699 8.66699 -4.66699 16.834 -6 24.501s-2 15.834 -2 24.501c0 32.667 9.66699 62 29 88l-59 57c8.66699 12 19.667 24.333 33 37l62 -60c27.333 20 57.333 30 90 30c34 0 64 -9.66699 90 -29l60 60l10 -8
c8 -7.33301 16.333 -17.333 25 -30l-59 -56c19.333 -27.333 29 -57.666 29 -90.999c0 -32.667 -10 -63 -30 -91l60 -60l-8 -8l-8 -9l-20 -18l-59 60c-27.333 -20 -57.333 -30 -90 -30c-33.333 0 -63.333 10.333 -90 31l-62 -60l-9 8l-8 9l-9 9l-8 10zM156 286.997
c20 -20 44.667 -30 74 -30c28 0 52 10 72 30s30 44.667 30 74c0 28 -10 52 -30 72s-44.333 30 -73 30c-27.333 0 -51.333 -10 -72 -30s-31 -44.333 -31 -73c0 -26.667 10 -51 30 -73z" />
    <glyph glyph-name="yen" unicode="&#xa5;" horiz-adv-x="619" 
d="M182 721l109 -258.001c6 -15.333 11.667 -41 17 -77c2 12.667 3.16699 20.834 3.5 24.501s1.83301 10.167 4.5 19.5l9 33l112 258h149l-160 -330h140v-60h-171l-22 -46v-36h193v-63h-193v-186h-134v187h-176v64h176v34l-20 46h-156v64h127l-156 326h148z" />
    <glyph glyph-name="section" unicode="&#xa7;" horiz-adv-x="594" 
d="M89 578c0 44.667 20.502 82.166 61.502 112.499s92.833 45.5 155.5 45.5c129.333 0 204.666 -56 225.999 -168h-109c0 26 -10.833 47.167 -32.5 63.5s-49.167 24.5 -82.5 24.5c-30.667 0 -54.834 -6.16699 -72.501 -18.5s-26.5 -29.166 -26.5 -50.499
c0 -14 4.5 -26.167 13.5 -36.5s15.5 -16.833 19.5 -19.5l28 -13l182 -77c32.667 -14 58.834 -33.833 78.501 -59.5s29.5 -54.167 29.5 -85.5c0 -52 -31 -98.667 -93 -140c29.333 -23.333 44 -54 44 -92c0 -48 -20.333 -87.5 -61 -118.5s-92.334 -46.5 -155.001 -46.5
c-58 0 -103.833 11 -137.5 33s-58.167 45.667 -73.5 71c-6 10.667 -10.333 21.334 -13 32.001l-7 45l109 -1c0 -15.333 3 -28.833 9 -40.5s15 -22.834 27 -33.501c21.333 -18 49 -27 83 -27c32 0 56.667 6.66699 74 20s26 32 26 56c0 30 -18 53 -54 69l-190 81
c-34 15.333 -61.833 32.5 -83.5 51.5s-32.5 46.833 -32.5 83.5c0 62 35 111 105 147c-32 25.333 -48 56 -48 92zM205.002 434.999c-38.667 -22.667 -58 -48.335 -58 -77.002c0 -30 17.667 -52.333 53 -67l194 -81c37.333 19.333 56 44 56 74
c0 16.667 -4.16699 30.834 -12.5 42.501s-20.833 20.834 -37.5 27.501z" />
    <glyph glyph-name="dieresis" unicode="&#xa8;" horiz-adv-x="256" 
d="M37 662c18.667 0 34 -5.33301 46 -16s18 -23.334 18 -38.001c0 -15.333 -6.16699 -28.166 -18.5 -38.499s-27.5 -15.5 -45.5 -15.5c-17.333 0 -33 5 -47 15c-12.667 10.667 -19 23.667 -19 39c0 14 6.66699 26.667 20 38c4 3.33301 8.66699 6.33301 14 9
c9.33301 4.66699 20 7 32 7zM218 662c17.333 0 33.001 -5.00098 47.001 -15.001c12.667 -10.667 19 -23.667 19 -39s-6.16699 -28.166 -18.5 -38.499s-28.166 -15.5 -47.499 -15.5c-16.667 0 -31.334 5 -44.001 15s-19 23 -19 39c0 14 6.16699 26.5 18.5 37.5
s27.166 16.5 44.499 16.5z" />
    <glyph glyph-name="copyright" unicode="&#xa9;" horiz-adv-x="862" 
d="M167 624c36.667 36.667 77.333 63.667 122 81c24 9.33301 47.333 16.333 70 21s47 7 73 7c48.667 0 95.5 -9.16699 140.5 -27.5s94.833 -54.833 149.5 -109.5s82 -133 82 -235c0 -103.333 -36.333 -191.333 -109 -264s-160.667 -109 -264 -109s-191.333 36.333 -264 109
s-109 160.667 -109 264c0 49.333 9.16699 96.5 27.5 141.5s45.5 85.5 81.5 121.5zM205.999 131c30 -30 64.832 -53.168 104.499 -69.501s80.167 -24.5 121.5 -24.5c42.667 0 82.834 7.83301 120.501 23.5s72 39.167 103 70.5s54.333 67 70 107s23.5 81 23.5 123
s-7.66699 82.833 -23 122.5s-38.166 74.5 -68.499 104.5s-65.833 53.5 -106.5 70.5s-81 25.5 -121 25.5c-40.667 0 -80.334 -7.66699 -119.001 -23s-81.5 -47.166 -128.5 -95.499s-70.5 -116.5 -70.5 -204.5c0 -42 8 -83.167 24 -123.5s39.333 -75.833 70 -106.5z
M568.998 493.999c-23.333 19.333 -45.666 31.333 -66.999 36s-38.333 7 -51 7c-44.667 0 -82.834 -13.5 -114.501 -40.5s-50.5 -54.833 -56.5 -83.5l-7 -57c0 -44 13.667 -82.667 41 -116s54 -52.333 80 -57l53 -7c16.667 0 33.167 2.33301 49.5 7s32.5 12 48.5 22l23 16
l33 -47c-21.333 -18 -44.833 -31.833 -70.5 -41.5s-52.5 -14.5 -80.5 -14.5c-68 0 -125.5 22.667 -172.5 68s-70.5 101 -70.5 167v26c2 9.33301 3.66699 18.833 5 28.5s8 30 20 61s37.667 60.167 77 87.5s84.333 41 135 41h19c5.33301 0 12.5 -0.833008 21.5 -2.5
s22.667 -4 41 -7s43.833 -18.5 76.5 -46.5z" />
    <glyph glyph-name="ordfeminine" unicode="&#xaa;" horiz-adv-x="446" 
d="M403 336v-68h-350v68h350zM329 720l73.999 -0.000976562v-335h-75v69l-3 -8l-4 -8c-10 -18.667 -25.5 -33.667 -46.5 -45s-44.167 -17 -69.5 -17c-22 0 -51 7.16699 -87 21.5s-60 53.5 -72 117.5l-3 39c0 50.667 16 92.834 48 126.501s70 50.5 114 50.5
c8.66699 0 15.5 -0.333008 20.5 -1s14.833 -3 29.5 -7c22.667 -4 44.334 -21.333 65.001 -52l5 -9l4 -7v65zM121.999 530.999c4 -23.333 13.167 -42.499 27.5 -57.499s29.5 -24.167 45.5 -27.5l31 -4c13.333 0 32 5 56 15c21.333 10 35 26.333 41 49l7 49l-7 43
c-4 23.333 -16 39.666 -36 48.999l-42 16l-21 3c-24.667 0 -46.5 -8.16699 -65.5 -24.5s-31.5 -38.833 -37.5 -67.5l-1 -20l-1 -12z" />
    <glyph glyph-name="guillemotleft" unicode="&#xab;" horiz-adv-x="404" 
d="M151 469l63 -29l-82 -188l81 -186l-64 -26l-115 212zM308 469l63 -29l-82 -188l81 -186l-64 -26l-116 212z" />
    <glyph glyph-name="logicalnot" unicode="&#xac;" horiz-adv-x="590" 
d="M43 450h504v-234h-72v144h-432v90z" />
    <glyph glyph-name="registered" unicode="&#xae;" horiz-adv-x="862" 
d="M167 624c36.667 36.667 77.333 63.667 122 81c24 9.33301 47.333 16.333 70 21s47 7 73 7c48.667 0 95.5 -9.16699 140.5 -27.5s94.833 -54.833 149.5 -109.5s82 -133 82 -235c0 -103.333 -36.333 -191.333 -109 -264s-160.667 -109 -264 -109s-191.333 36.333 -264 109
s-109 160.667 -109 264c0 49.333 9.16699 96.5 27.5 141.5s45.5 85.5 81.5 121.5zM205.999 131c30 -30 64.832 -53.168 104.499 -69.501s80.167 -24.5 121.5 -24.5c42.667 0 82.834 7.83301 120.501 23.5s72 39.167 103 70.5s54.333 67 70 107s23.5 81 23.5 123
s-7.66699 82.833 -23 122.5s-38.166 74.5 -68.499 104.5s-65.833 53.5 -106.5 70.5s-81 25.5 -121 25.5c-40.667 0 -80.334 -7.66699 -119.001 -23s-81.5 -47.166 -128.5 -95.499s-70.5 -116.5 -70.5 -204.5c0 -42 8 -83.167 24 -123.5s39.333 -75.833 70 -106.5z
M310.998 594.999l113.999 0.000976562c25.333 0 45.833 -2 61.5 -6s32 -13 49 -27s28.167 -31.667 33.5 -53c4 -20 6 -34.667 6 -44c0 -30.667 -9.16699 -56.834 -27.5 -78.501s-43.166 -35.5 -74.499 -41.5l-15 -1l141 -209h-77l-146 223v-223h-65v460zM413.997 381
c28.667 0 51.5 7.16699 68.5 21.5s25.5 33.5 25.5 57.5c0 54 -29.667 81 -89 81h-43v-160h38z" />
    <glyph glyph-name="plusminus" unicode="&#xb1;" horiz-adv-x="549" 
d="M506 19h-462v68h462v-68zM309 331h197v-68h-197v-122h-68v122h-197v68h197v122h68v-122z" />
    <glyph glyph-name="acute" unicode="&#xb4;" horiz-adv-x="225" 
d="M174 730l70 -67l-162 -109l-42 37z" />
    <glyph glyph-name="mu" unicode="&#xb5;" horiz-adv-x="576" 
d="M166 153c0 -47.333 4.66797 -79.001 14.001 -95.001s26 -24 50 -24c37.333 0 68.833 27.167 94.5 81.5s38.5 122.166 38.5 203.499v130h92v-328c0 -30 3 -52 9 -66s15.667 -21 29 -21s23.833 6.83301 31.5 20.5s11.5 34.167 11.5 61.5v14h21l1 -9v-13
c0 -35.333 -7.83301 -63.666 -23.5 -84.999s-37.834 -32 -66.501 -32c-32 0 -57 14.333 -75 43s-27 71.667 -27 129c-15.333 -59.333 -35.833 -102.833 -61.5 -130.5s-57.834 -41.5 -96.501 -41.5c-28.667 0 -53 8.66699 -73 26c-18 18 -31.333 43.667 -40 77l-1 -28
c0 -44 10.333 -90.833 31 -140.5s31.667 -80.5 33 -92.5c0 -13.333 -3.66699 -23.666 -11 -30.999s-17.666 -11 -30.999 -11c-15.333 0 -26.333 5.83301 -33 17.5s-10 29.167 -10 52.5l2 58l2 89l-1 101l-2 95v245h92v-296z" />
    <glyph glyph-name="paragraph" unicode="&#xb6;" horiz-adv-x="600" 
d="M557 720v-58.001h-316c-38 0 -70.833 -14.167 -98.5 -42.5s-41.5 -62.166 -41.5 -101.499c0 -38.667 13.667 -71.667 41 -99s60.333 -41 99 -41h67v238h61v-616h-61v320h-67c-54 0 -100.5 19.333 -139.5 58s-58.5 86 -58.5 142c0 54.667 19 101.667 57 141s85 59 141 59
h316zM434 615.999h61v-616h-61v616z" />
    <glyph glyph-name="cedilla" unicode="&#xb8;" horiz-adv-x="161" 
d="M105 -32c19.333 0 35.333 -5.33398 48 -16.001s19 -24 19 -40c0 -41.333 -41 -72.666 -123 -93.999v37c41.333 6 62 20.333 62 43c0 14.667 -9 22 -27 22c-11.333 0 -25.333 -3.66699 -42 -11l-5 41c26 12 48.667 18 68 18z" />
    <glyph glyph-name="ordmasculine" unicode="&#xba;" horiz-adv-x="446" 
d="M49 336h349v-68h-349v68zM47 591c8 43.333 28.332 78.3311 60.999 104.998s70.334 40 113.001 40h15l47 -9c25.333 -4.66699 51.666 -23.667 78.999 -57s41 -71.666 41 -114.999l-3 -38c-8 -41.333 -29 -75.5 -63 -102.5s-72 -40.5 -114 -40.5
c-13.333 0 -31.666 2.16699 -54.999 6.5s-47.333 18.833 -72 43.5s-40 49.334 -46 74.001l-7 56v15zM118.999 533.998c8 -48.667 25.668 -76.166 53.001 -82.499s45 -9.5 53 -9.5c25.333 0 47.166 8.16699 65.499 24.5s30.5 38.5 36.5 66.5l2 22
c0 39.333 -15 69.666 -45 90.999c-17.333 13.333 -37.333 20 -60 20c-16 0 -35.5 -5.33301 -58.5 -16s-38.5 -35.667 -46.5 -75l-2 -21z" />
    <glyph glyph-name="guillemotright" unicode="&#xbb;" horiz-adv-x="404" 
d="M115 252l-78 190l61 28l116 -218l-118 -210l-62 25zM271 252l-77 190l61 28l116 -218l-118 -210l-63 25z" />
    <glyph glyph-name="questiondown" unicode="&#xbf;" horiz-adv-x="365" 
d="M286 558c2 -14.667 3.66797 -28.6699 5.00098 -42.0029s2 -25.333 2 -36c0 -32 -5 -57.667 -15 -77s-28 -47.666 -54 -84.999l-27 -38l-26.5 -40.5l-19.5 -31.5c-8 -16 -12 -31.333 -12 -46c0 -24 8.5 -43.167 25.5 -57.5s39.5 -21.5 67.5 -21.5c23.333 0 56 6 98 18
l24 -89c-62.667 -16.667 -115.334 -25 -158.001 -25c-56 0 -101 14 -135 42s-51 64.667 -51 110c0 28.667 5.16699 53.834 15.5 75.501s20.833 39.834 31.5 54.501l49 61l44 56l24 36c8 12.667 13.5 26.5 16.5 41.5s4.5 33.167 4.5 54.5l-1 40h92zM235.001 730.997
c22 0 40.332 -5.33203 54.999 -15.999c6.66699 -4.66699 12 -10.334 16 -17.001s6 -14.334 6 -23.001c0 -15.333 -7.16699 -28.166 -21.5 -38.499s-32.5 -15.5 -54.5 -15.5c-20 0 -38 5 -54 15c-14.667 10.667 -22 23.667 -22 39c0 16 7.33301 29.333 22 40
s32.334 16 53.001 16z" />
    <glyph glyph-name="Agrave" unicode="&#xc0;" horiz-adv-x="520" 
d="M178 721h164l197 -721h-136l-58 230h-170l-58 -230h-136zM192 322h136l-56 223l-9 50l-2 45l-8 -63l-5 -32zM207 967l138 -136l-42 -40l-164 109z" />
    <glyph glyph-name="Aacute" unicode="&#xc1;" horiz-adv-x="520" 
d="M178 721h164l197 -721h-136l-58 230h-170l-58 -230h-136zM192 322h136l-56 223l-9 50l-2 45l-8 -63l-5 -32zM321 966l70 -67l-162 -109l-42 37z" />
    <glyph glyph-name="Acircumflex" unicode="&#xc2;" horiz-adv-x="520" 
d="M178 721h164l197 -721h-136l-58 230h-170l-58 -230h-136zM192 322h136l-56 223l-9 50l-2 45l-8 -63l-5 -32zM259 950l147 -115l-31 -45l-116 67l-115 -67l-32 42z" />
    <glyph glyph-name="Atilde" unicode="&#xc3;" horiz-adv-x="520" 
d="M178 721h164l197 -721h-136l-58 230h-170l-58 -230h-136zM192 322h136l-56 223l-9 50l-2 45l-8 -63l-5 -32zM119 852c29.333 16 58.668 24 88.001 24c12.667 0 22 -0.666992 28 -2l39 -9l40 -10l30 -2c21.333 0 40.666 5 57.999 15v-64c-19.333 -8 -40 -12 -62 -12l-28 2
l-35 10l-40 8l-33 3c-24 0 -45 -4.33301 -63 -13l-22 -11v61z" />
    <glyph glyph-name="Adieresis" unicode="&#xc4;" horiz-adv-x="520" 
d="M150 883c19.333 0 36.999 -6 52.999 -18c14.667 -12.667 22 -27 22 -43c0 -16.667 -7.16699 -31.167 -21.5 -43.5s-32.166 -18.5 -53.499 -18.5c-22.667 0 -41 5.66699 -55 17s-21 26 -21 44c0 16.667 7.16699 31.167 21.5 43.5s32.5 18.5 54.5 18.5zM369.999 883
c20.667 0 38.501 -6.16797 53.501 -18.501s22.5 -26.833 22.5 -43.5c0 -16 -7.16699 -30.167 -21.5 -42.5s-32.5 -18.5 -54.5 -18.5c-19.333 0 -37 6 -53 18c-14.667 12.667 -22 27.334 -22 44.001c0 16 7.16699 30.167 21.5 42.5s32.166 18.5 53.499 18.5zM178 720.999h164
l197 -721h-136l-58 230h-170l-58 -230h-136zM192 321.999h136l-56 223l-9 50l-2 45l-8 -63l-5 -32z" />
    <glyph glyph-name="Aring" unicode="&#xc5;" horiz-adv-x="520" 
d="M258 909c30 0 54.834 -7.16699 74.501 -21.5s29.5 -32.166 29.5 -53.499c0 -20 -10 -37.667 -30 -53c-20 -14 -45 -21 -75 -21c-28.667 0 -52.834 7.16699 -72.501 21.5s-29.5 32.166 -29.5 53.499c0 19.333 10.167 36.5 30.5 51.5s44.5 22.5 72.5 22.5zM178.001 721h164
l197 -721h-136l-58 230h-170l-58 -230h-136zM259.001 812c28 0 42 7.33203 42 21.999c0 6 -4.5 11.333 -13.5 16s-18.833 7 -29.5 7c-10 0 -19.333 -2.16699 -28 -6.5s-13 -9.5 -13 -15.5c0 -5.33301 4 -10.666 12 -15.999c9.33301 -4.66699 19.333 -7 30 -7z
M192.001 321.999h136l-56 223l-9 50l-2 45l-8 -63l-5 -32z" />
    <glyph glyph-name="AE" unicode="&#xc6;" horiz-adv-x="835" 
d="M335 721h466v-90l-263 -13v-200h227v-92h-227v-219l266 -14v-93h-400v230h-164l-105 -230h-154zM271 323h134v299z" />
    <glyph glyph-name="Ccedilla" unicode="&#xc7;" horiz-adv-x="480" 
d="M290 -37c16 0 29.333 -4.50098 40 -13.501s16 -20.833 16 -35.5c0 -39.333 -35 -68.666 -105 -87.999v33c36 6 54 20 54 42c0 12.667 -7.66699 19 -23 19c-10.667 0 -22.667 -3.33301 -36 -10l-5 38c20 10 39.667 15 59 15zM429 610.999
c-36.667 15.333 -71.333 23.001 -104 23.001c-51.333 0 -89.666 -23.333 -114.999 -70s-38 -118 -38 -214c0 -176.667 51.333 -265 154 -265c36 0 76.667 11.333 122 34l16 -94c-59.333 -24.667 -113.333 -37 -162 -37c-87.333 0 -154.333 31.833 -201 95.5
s-70 154.5 -70 272.5c0 119.333 23.667 211.666 71 276.999s113.666 98 198.999 98c44 0 93 -10 147 -30z" />
    <glyph glyph-name="Egrave" unicode="&#xc8;" horiz-adv-x="476" 
d="M50 721h395v-90l-261 -13v-201h226v-91h-226v-220l266 -13v-93h-400v721zM185 967l138 -136l-42 -40l-164 109z" />
    <glyph glyph-name="Eacute" unicode="&#xc9;" horiz-adv-x="476" 
d="M50 721h395v-90l-261 -13v-201h226v-91h-226v-220l266 -13v-93h-400v721zM299 966l70 -67l-162 -109l-42 37z" />
    <glyph glyph-name="Ecircumflex" unicode="&#xca;" horiz-adv-x="476" 
d="M50 721h395v-90l-261 -13v-201h226v-91h-226v-220l266 -13v-93h-400v721zM237 950l147 -115l-31 -45l-116 67l-115 -67l-32 42z" />
    <glyph glyph-name="Edieresis" unicode="&#xcb;" horiz-adv-x="476" 
d="M50 721h395v-90l-261 -13v-201h226v-91h-226v-220l266 -13v-93h-400v721zM147 898c18.667 0 34 -5.33301 46 -16s18 -23.334 18 -38.001c0 -15.333 -6.16699 -28.166 -18.5 -38.499s-27.5 -15.5 -45.5 -15.5c-17.333 0 -33 5 -47 15c-12.667 10.667 -19 23.667 -19 39
c0 14 6.66699 26.667 20 38c4 3.33301 8.66699 6.33301 14 9c9.33301 4.66699 20 7 32 7zM328 898c17.333 0 33.001 -5.00098 47.001 -15.001c12.667 -10.667 19 -23.667 19 -39s-6.16699 -28.166 -18.5 -38.499s-28.166 -15.5 -47.499 -15.5
c-16.667 0 -31.334 5 -44.001 15s-19 23 -19 39c0 14 6.16699 26.5 18.5 37.5s27.166 16.5 44.499 16.5z" />
    <glyph glyph-name="Igrave" unicode="&#xcc;" horiz-adv-x="232" 
d="M50 721h133v-721h-133v721zM64 967l138 -136l-42 -40l-164 109z" />
    <glyph glyph-name="Iacute" unicode="&#xcd;" horiz-adv-x="232" 
d="M50 721h133v-721h-133v721zM177 966l70 -67l-162 -109l-42 37z" />
    <glyph glyph-name="Icircumflex" unicode="&#xce;" horiz-adv-x="232" 
d="M50 721h133v-721h-133v721zM117 950l147 -115l-31 -45l-116 67l-115 -67l-32 42z" />
    <glyph glyph-name="Idieresis" unicode="&#xcf;" horiz-adv-x="232" 
d="M50 721h133v-721h-133v721zM26 898c18.667 0 34 -5.33301 46 -16s18 -23.334 18 -38.001c0 -15.333 -6.16699 -28.166 -18.5 -38.499s-27.5 -15.5 -45.5 -15.5c-17.333 0 -33 5 -47 15c-12.667 10.667 -19 23.667 -19 39c0 14 6.66699 26.667 20 38
c4 3.33301 8.66699 6.33301 14 9c9.33301 4.66699 20 7 32 7zM207 898c17.333 0 33.001 -5.00098 47.001 -15.001c12.667 -10.667 19 -23.667 19 -39s-6.16699 -28.166 -18.5 -38.499s-28.166 -15.5 -47.499 -15.5c-16.667 0 -31.334 5 -44.001 15s-19 23 -19 39
c0 14 6.16699 26.5 18.5 37.5s27.166 16.5 44.499 16.5z" />
    <glyph glyph-name="Ntilde" unicode="&#xd1;" horiz-adv-x="596" 
d="M50 721h141.999l222 -486c2.66699 -4.66699 6.33398 -14.667 11.001 -30l17 -67l-2 27l-3 26l-5 49v481h114v-721h-145l-218 480l-15 45l-8 27l-9 27c6.66699 -44.667 10 -80.667 10 -108v-471h-111v721zM156.999 852c29.333 16 58.668 24 88.001 24
c12.667 0 22 -0.666992 28 -2l39 -9l40 -10l30 -2c21.333 0 40.666 5 57.999 15v-64c-19.333 -8 -40 -12 -62 -12l-28 2l-35 10l-40 8l-33 3c-24 0 -45 -4.33301 -63 -13l-22 -11v61z" />
    <glyph glyph-name="Ograve" unicode="&#xd2;" horiz-adv-x="594" 
d="M296 731c84 0 149.333 -32.001 196 -96.001s70 -155.667 70 -275c0 -117.333 -23.167 -208.666 -69.5 -273.999s-111.833 -98 -196.5 -98c-84 0 -149.167 32.5 -195.5 97.5s-69.5 156.5 -69.5 274.5c0 117.333 23.167 208.5 69.5 273.5s111.5 97.5 195.5 97.5z
M170 359.999c0 -90 10.668 -158.333 32.001 -205s52.666 -70 93.999 -70c40.667 0 72.167 23.667 94.5 71s33.5 115.333 33.5 204c0 87.333 -11 155 -33 203s-53.667 72 -95 72c-40 0 -71 -23.833 -93 -71.5s-33 -115.5 -33 -203.5zM244.001 966.999l138 -136l-42 -40
l-164 109z" />
    <glyph glyph-name="Oacute" unicode="&#xd3;" horiz-adv-x="594" 
d="M296 731c84 0 149.333 -32.001 196 -96.001s70 -155.667 70 -275c0 -117.333 -23.167 -208.666 -69.5 -273.999s-111.833 -98 -196.5 -98c-84 0 -149.167 32.5 -195.5 97.5s-69.5 156.5 -69.5 274.5c0 117.333 23.167 208.5 69.5 273.5s111.5 97.5 195.5 97.5z
M170 359.999c0 -90 10.668 -158.333 32.001 -205s52.666 -70 93.999 -70c40.667 0 72.167 23.667 94.5 71s33.5 115.333 33.5 204c0 87.333 -11 155 -33 203s-53.667 72 -95 72c-40 0 -71 -23.833 -93 -71.5s-33 -115.5 -33 -203.5zM358.001 965.999l70 -67l-162 -109
l-42 37z" />
    <glyph glyph-name="Ocircumflex" unicode="&#xd4;" horiz-adv-x="594" 
d="M296 731c84 0 149.333 -32.001 196 -96.001s70 -155.667 70 -275c0 -117.333 -23.167 -208.666 -69.5 -273.999s-111.833 -98 -196.5 -98c-84 0 -149.167 32.5 -195.5 97.5s-69.5 156.5 -69.5 274.5c0 117.333 23.167 208.5 69.5 273.5s111.5 97.5 195.5 97.5z
M170 359.999c0 -90 10.668 -158.333 32.001 -205s52.666 -70 93.999 -70c40.667 0 72.167 23.667 94.5 71s33.5 115.333 33.5 204c0 87.333 -11 155 -33 203s-53.667 72 -95 72c-40 0 -71 -23.833 -93 -71.5s-33 -115.5 -33 -203.5zM296.001 949.999l147 -115l-31 -45
l-116 67l-115 -67l-32 42z" />
    <glyph glyph-name="Otilde" unicode="&#xd5;" horiz-adv-x="594" 
d="M296 731c84 0 149.333 -32.001 196 -96.001s70 -155.667 70 -275c0 -117.333 -23.167 -208.666 -69.5 -273.999s-111.833 -98 -196.5 -98c-84 0 -149.167 32.5 -195.5 97.5s-69.5 156.5 -69.5 274.5c0 117.333 23.167 208.5 69.5 273.5s111.5 97.5 195.5 97.5z
M170 359.999c0 -90 10.668 -158.333 32.001 -205s52.666 -70 93.999 -70c40.667 0 72.167 23.667 94.5 71s33.5 115.333 33.5 204c0 87.333 -11 155 -33 203s-53.667 72 -95 72c-40 0 -71 -23.833 -93 -71.5s-33 -115.5 -33 -203.5zM156.001 851.999
c29.333 16 58.668 24 88.001 24c12.667 0 22 -0.666992 28 -2l39 -9l40 -10l30 -2c21.333 0 40.666 5 57.999 15v-64c-19.333 -8 -40 -12 -62 -12l-28 2l-35 10l-40 8l-33 3c-24 0 -45 -4.33301 -63 -13l-22 -11v61z" />
    <glyph glyph-name="Odieresis" unicode="&#xd6;" horiz-adv-x="594" 
d="M162 878c19.333 0 36.998 -5.99902 52.998 -17.999c14.667 -12.667 22 -27.334 22 -44.001c0 -16 -7.16699 -30 -21.5 -42s-32.166 -18 -53.499 -18s-39.666 5.66699 -54.999 17c-14.667 12.667 -22 26.667 -22 42c0 18 7.16699 33 21.5 45s32.833 18 55.5 18z
M430.998 878.001c21.333 0 39.501 -6.16699 54.501 -18.5s22.5 -27.166 22.5 -44.499c0 -16 -7.33301 -29.833 -22 -41.5s-33 -17.5 -55 -17.5s-40 5.66699 -54 17s-21 25.666 -21 42.999c0 16.667 7.16699 31.167 21.5 43.5s32.166 18.5 53.499 18.5zM295.999 731.001
c84 0 149.333 -32.001 196 -96.001s70 -155.667 70 -275c0 -117.333 -23.167 -208.666 -69.5 -273.999s-111.833 -98 -196.5 -98c-84 0 -149.167 32.5 -195.5 97.5s-69.5 156.5 -69.5 274.5c0 117.333 23.167 208.5 69.5 273.5s111.5 97.5 195.5 97.5zM169.999 360
c0 -90 10.668 -158.333 32.001 -205s52.666 -70 93.999 -70c40.667 0 72.167 23.667 94.5 71s33.5 115.333 33.5 204c0 87.333 -11 155 -33 203s-53.667 72 -95 72c-40 0 -71 -23.833 -93 -71.5s-33 -115.5 -33 -203.5z" />
    <glyph glyph-name="Oslash" unicode="&#xd8;" horiz-adv-x="608" 
d="M529 708l45 -31.001l-53 -75c14.667 -33.333 26 -70 34 -110c3.33301 -17.333 6 -37 8 -59s3 -44.667 3 -68c0 -120.667 -23.167 -213.667 -69.5 -279s-111.5 -98 -195.5 -98c-71.333 0 -130 24.333 -176 73l-44 -62l-44 31l52 75l-4 5
c-18 44.667 -30.833 84.834 -38.5 120.501s-11.5 77.167 -11.5 124.5c0 119.333 23 211.833 69 277.5s111.667 98.5 197 98.5c36 0 68.667 -6.33301 98 -19c14 -6 28.5 -14.167 43.5 -24.5s29.5 -22.833 43.5 -37.5zM208 167.999c6.66699 -23.333 18.666 -43 35.999 -59
c17.333 -14 37 -21 59 -21c38.667 0 68.834 21.333 90.501 64s32.5 103.667 32.5 183l-4 55l-4 82zM400.999 542.999c-24 58 -57.998 87 -101.998 87c-18 0 -35.833 -7.16699 -53.5 -21.5s-31.334 -32.666 -41.001 -54.999s-16.834 -48.833 -21.501 -79.5
c-2 -15.333 -3.66699 -32.166 -5 -50.499s-2 -38.5 -2 -60.5c0 -20.667 1 -41.334 3 -62.001s5.33301 -42.334 10 -65.001z" />
    <glyph glyph-name="Ugrave" unicode="&#xd9;" horiz-adv-x="594" 
d="M544 209l-3 -44.001l-9 -41c-14 -41.333 -42.5 -74.666 -85.5 -99.999s-93.167 -38 -150.5 -38c-18 0 -34.333 1 -49 3s-30.667 5.66699 -48 11c-30.667 10 -63.167 28.167 -97.5 54.5s-51.5 77.833 -51.5 154.5v512h134v-508c0 -83.333 37.333 -125 112 -125
c76 0 114 41.667 114 125v508h134v-512zM244 966.999l138 -136l-42 -40l-164 109z" />
    <glyph glyph-name="Uacute" unicode="&#xda;" horiz-adv-x="594" 
d="M544 209l-3 -44.001l-9 -41c-14 -41.333 -42.5 -74.666 -85.5 -99.999s-93.167 -38 -150.5 -38c-18 0 -34.333 1 -49 3s-30.667 5.66699 -48 11c-30.667 10 -63.167 28.167 -97.5 54.5s-51.5 77.833 -51.5 154.5v512h134v-508c0 -83.333 37.333 -125 112 -125
c76 0 114 41.667 114 125v508h134v-512zM358 965.999l70 -67l-162 -109l-42 37z" />
    <glyph glyph-name="Ucircumflex" unicode="&#xdb;" horiz-adv-x="594" 
d="M544 209l-3 -44.001l-9 -41c-14 -41.333 -42.5 -74.666 -85.5 -99.999s-93.167 -38 -150.5 -38c-18 0 -34.333 1 -49 3s-30.667 5.66699 -48 11c-30.667 10 -63.167 28.167 -97.5 54.5s-51.5 77.833 -51.5 154.5v512h134v-508c0 -83.333 37.333 -125 112 -125
c76 0 114 41.667 114 125v508h134v-512zM296 949.999l147 -115l-31 -45l-116 67l-115 -67l-32 42z" />
    <glyph glyph-name="Udieresis" unicode="&#xdc;" horiz-adv-x="594" 
d="M196 888c20.667 0 38.333 -6.33301 53 -19s22 -27.334 22 -44.001s-7.33301 -31.334 -22 -44.001c-14.667 -11.333 -32.334 -17 -53.001 -17c-21.333 0 -39.666 5.66699 -54.999 17c-14.667 12.667 -22 27.334 -22 44.001s7.66699 31.334 23 44.001s33.333 19 54 19z
M397.999 888c21.333 0 39.5 -6.16895 54.5 -18.502s22.5 -27.166 22.5 -44.499c0 -16.667 -7.5 -31 -22.5 -43s-33.167 -18 -54.5 -18c-20.667 0 -38.667 5.66699 -54 17c-14.667 12.667 -22 27.334 -22 44.001c0 15.333 7.33301 30 22 44c16 12.667 34 19 54 19z
M543.999 208.998l-3 -44.001l-9 -41c-14 -41.333 -42.5 -74.666 -85.5 -99.999s-93.167 -38 -150.5 -38c-18 0 -34.333 1 -49 3s-30.667 5.66699 -48 11c-30.667 10 -63.167 28.167 -97.5 54.5s-51.5 77.833 -51.5 154.5v512h134v-508c0 -83.333 37.333 -125 112 -125
c76 0 114 41.667 114 125v508h134v-512z" />
    <glyph glyph-name="germandbls" unicode="&#xdf;" horiz-adv-x="524" 
d="M50 546c0 65.333 16.999 111.999 50.999 139.999c15.333 13.333 36.333 24.333 63 33s55 13 85 13c54 0 97 -12 129 -36s48 -56.667 48 -98v-17l-6 -24l-10 -25l-23 -38l-21 -35c-2 -4.66699 -3.66699 -11.667 -5 -21c0 -7.33301 2.33301 -15.5 7 -24.5
s17.334 -26.167 38.001 -51.5l26 -34c7.33301 -9.33301 14.5 -19.666 21.5 -30.999s15.5 -26 25.5 -44c18 -31.333 27 -64 27 -98c0 -49.333 -16.167 -89.5 -48.5 -120.5s-76.166 -46.5 -131.499 -46.5c-15.333 0 -30 1 -44 3s-29 5.66699 -45 11l17 79
c18.667 -4.66699 32.667 -7 42 -7c24 0 43.5 7.5 58.5 22.5s22.5 34.833 22.5 59.5c0 21.333 -7.66699 45.333 -23 72l-56 91l-28 43c-14.667 25.333 -22 45.333 -22 60c0 10 1.66699 18.667 5 26l27 45l29 50c5.33301 12 8 24 8 36c0 20.667 -6.66699 36.667 -20 48
c-12.667 12.667 -29.667 19 -51 19c-25.333 0 -42.833 -6 -52.5 -18s-16.834 -24.667 -21.501 -38l-4 -49v-541h-118v546z" />
    <glyph glyph-name="agrave" unicode="&#xe0;" horiz-adv-x="495" 
d="M328 349c0 15.333 -1.00293 26.001 -3.00293 32.001c-6 32.667 -36 49 -90 49c-20 0 -40.167 -2 -60.5 -6s-44.5 -11.333 -72.5 -22l-30 88c36.667 10 70.834 17.667 102.501 23s60.5 8 86.5 8c62.667 0 106 -9.66699 130 -29s39 -37.333 45 -54s9 -42.334 9 -77.001
v-361h-111l-5 45c-46 -38.667 -93.333 -58 -142 -58c-49.333 0 -88.833 15 -118.5 45s-44.5 69 -44.5 117c0 51.333 17 93 51 125c16.667 15.333 36.334 27 59.001 35s48.334 12 77.001 12c37.333 0 76.333 -5.33301 117 -16v44zM327.997 243.001l-33 5l-30 1
c-35.333 0 -63.666 -8.16699 -84.999 -24.5s-32 -38.833 -32 -67.5c0 -23.333 8 -43 24 -59c16 -14 37.667 -21 65 -21s57.666 11 90.999 33v133zM193.997 731.001l138 -136l-42 -40l-164 109z" />
    <glyph glyph-name="aacute" unicode="&#xe1;" horiz-adv-x="495" 
d="M328 349c0 15.333 -1.00293 26.001 -3.00293 32.001c-6 32.667 -36 49 -90 49c-20 0 -40.167 -2 -60.5 -6s-44.5 -11.333 -72.5 -22l-30 88c36.667 10 70.834 17.667 102.501 23s60.5 8 86.5 8c62.667 0 106 -9.66699 130 -29s39 -37.333 45 -54s9 -42.334 9 -77.001
v-361h-111l-5 45c-46 -38.667 -93.333 -58 -142 -58c-49.333 0 -88.833 15 -118.5 45s-44.5 69 -44.5 117c0 51.333 17 93 51 125c16.667 15.333 36.334 27 59.001 35s48.334 12 77.001 12c37.333 0 76.333 -5.33301 117 -16v44zM327.997 243.001l-33 5l-30 1
c-35.333 0 -63.666 -8.16699 -84.999 -24.5s-32 -38.833 -32 -67.5c0 -23.333 8 -43 24 -59c16 -14 37.667 -21 65 -21s57.666 11 90.999 33v133zM308.997 730.001l70 -67l-162 -109l-42 37z" />
    <glyph glyph-name="acircumflex" unicode="&#xe2;" horiz-adv-x="495" 
d="M328 349c0 15.333 -1.00293 26.001 -3.00293 32.001c-6 32.667 -36 49 -90 49c-20 0 -40.167 -2 -60.5 -6s-44.5 -11.333 -72.5 -22l-30 88c36.667 10 70.834 17.667 102.501 23s60.5 8 86.5 8c62.667 0 106 -9.66699 130 -29s39 -37.333 45 -54s9 -42.334 9 -77.001
v-361h-111l-5 45c-46 -38.667 -93.333 -58 -142 -58c-49.333 0 -88.833 15 -118.5 45s-44.5 69 -44.5 117c0 51.333 17 93 51 125c16.667 15.333 36.334 27 59.001 35s48.334 12 77.001 12c37.333 0 76.333 -5.33301 117 -16v44zM327.997 243.001l-33 5l-30 1
c-35.333 0 -63.666 -8.16699 -84.999 -24.5s-32 -38.833 -32 -67.5c0 -23.333 8 -43 24 -59c16 -14 37.667 -21 65 -21s57.666 11 90.999 33v133zM246.997 714.001l147 -115l-31 -45l-116 67l-115 -67l-32 42z" />
    <glyph glyph-name="atilde" unicode="&#xe3;" horiz-adv-x="495" 
d="M328 349c0 15.333 -1.00293 26.001 -3.00293 32.001c-6 32.667 -36 49 -90 49c-20 0 -40.167 -2 -60.5 -6s-44.5 -11.333 -72.5 -22l-30 88c36.667 10 70.834 17.667 102.501 23s60.5 8 86.5 8c62.667 0 106 -9.66699 130 -29s39 -37.333 45 -54s9 -42.334 9 -77.001
v-361h-111l-5 45c-46 -38.667 -93.333 -58 -142 -58c-49.333 0 -88.833 15 -118.5 45s-44.5 69 -44.5 117c0 51.333 17 93 51 125c16.667 15.333 36.334 27 59.001 35s48.334 12 77.001 12c37.333 0 76.333 -5.33301 117 -16v44zM327.997 243.001l-33 5l-30 1
c-35.333 0 -63.666 -8.16699 -84.999 -24.5s-32 -38.833 -32 -67.5c0 -23.333 8 -43 24 -59c16 -14 37.667 -21 65 -21s57.666 11 90.999 33v133zM105.997 616.001c29.333 16 58.668 24 88.001 24c12.667 0 22 -0.666992 28 -2l39 -9l40 -10l30 -2
c21.333 0 40.666 5 57.999 15v-64c-19.333 -8 -40 -12 -62 -12l-28 2l-35 10l-40 8l-33 3c-24 0 -45 -4.33301 -63 -13l-22 -11v61z" />
    <glyph glyph-name="adieresis" unicode="&#xe4;" horiz-adv-x="495" 
d="M161 674c18 0 33.333 -5.33398 46 -16.001s19 -23.667 19 -39c0 -14.667 -6.33301 -28 -19 -40c-4 -3.33301 -9.66699 -6.83301 -17 -10.5s-17 -5.5 -29 -5.5c-17.333 0 -33 5 -47 15c-12 10 -18 23 -18 39c0 14.667 6.33301 27.834 19 39.501s28 17.5 46 17.5z
M347 673.999c18 0 33.333 -5.33203 46 -15.999s19 -24.334 19 -41.001c0 -13.333 -6.33301 -26 -19 -38c-4 -3.33301 -9.66699 -6.83301 -17 -10.5s-17 -5.5 -29 -5.5c-18 0 -33.333 5.33301 -46 16s-19 24 -19 40c0 15.333 6.33301 28.333 19 39
c4 3.33301 8.66699 6.33301 14 9c9.33301 4.66699 20 7 32 7zM328 349c0 15.333 -1.00293 26.001 -3.00293 32.001c-6 32.667 -36 49 -90 49c-20 0 -40.167 -2 -60.5 -6s-44.5 -11.333 -72.5 -22l-30 88c36.667 10 70.834 17.667 102.501 23s60.5 8 86.5 8
c62.667 0 106 -9.66699 130 -29s39 -37.333 45 -54s9 -42.334 9 -77.001v-361h-111l-5 45c-46 -38.667 -93.333 -58 -142 -58c-49.333 0 -88.833 15 -118.5 45s-44.5 69 -44.5 117c0 51.333 17 93 51 125c16.667 15.333 36.334 27 59.001 35s48.334 12 77.001 12
c37.333 0 76.333 -5.33301 117 -16v44zM327.997 243.001l-33 5l-30 1c-35.333 0 -63.666 -8.16699 -84.999 -24.5s-32 -38.833 -32 -67.5c0 -23.333 8 -43 24 -59c16 -14 37.667 -21 65 -21s57.666 11 90.999 33v133z" />
    <glyph glyph-name="aring" unicode="&#xe5;" horiz-adv-x="495" 
d="M328 349c0 15.333 -1.00293 26.001 -3.00293 32.001c-6 32.667 -36 49 -90 49c-20 0 -40.167 -2 -60.5 -6s-44.5 -11.333 -72.5 -22l-30 88c36.667 10 70.834 17.667 102.501 23s60.5 8 86.5 8c62.667 0 106 -9.66699 130 -29s39 -37.333 45 -54s9 -42.334 9 -77.001
v-361h-111l-5 45c-46 -38.667 -93.333 -58 -142 -58c-49.333 0 -88.833 15 -118.5 45s-44.5 69 -44.5 117c0 51.333 17 93 51 125c16.667 15.333 36.334 27 59.001 35s48.334 12 77.001 12c37.333 0 76.333 -5.33301 117 -16v44zM261.997 695.001
c26.667 0 48.667 -6.66699 66 -20c18.667 -12.667 28 -28.667 28 -48c0 -18 -9.33301 -34 -28 -48c-19.333 -12.667 -41.666 -19 -66.999 -19c-26.667 0 -48.667 6.5 -66 19.5s-26 29.167 -26 48.5c0 17.333 9.16699 32.833 27.5 46.5s40.166 20.5 65.499 20.5z
M327.997 243.001l-33 5l-30 1c-35.333 0 -63.666 -8.16699 -84.999 -24.5s-32 -38.833 -32 -67.5c0 -23.333 8 -43 24 -59c16 -14 37.667 -21 65 -21s57.666 11 90.999 33v133zM216.997 628.001c0 -8 4.50098 -14.334 13.501 -19.001s19.833 -7 32.5 -7
c12 0 22 2.16699 30 6.5s12.667 10.5 14 18.5c0 6.66699 -4.33301 12.834 -13 18.501s-19.334 8.5 -32.001 8.5s-23 -2.33301 -31 -7s-12.667 -11 -14 -19z" />
    <glyph glyph-name="ae" unicode="&#xe6;" horiz-adv-x="787" 
d="M331 354c0 51.333 -31.333 77 -94 77c-20.667 0 -40.334 -1.83301 -59.001 -5.5s-33.667 -7.16699 -45 -10.5c-1.33301 -0.666992 -12 -4.66699 -32 -12l-29 87l13 3c38.667 10 68.167 16.5 88.5 19.5s37 5.16699 50 6.5s26.5 2 40.5 2c40.667 0 72 -5 94 -15
c22 -8.66699 38 -24.667 48 -48c34 41.333 82.333 62 145 62c50.667 0 92.834 -13.667 126.501 -41s54.5 -62.333 62.5 -105s12 -88.334 12 -137.001v-21h-299c12 -92 61.333 -138 148 -138c19.333 0 38 1.66699 56 5s38.333 9.33301 61 18l20 -85
c-30.667 -9.33301 -58.167 -16.333 -82.5 -21s-48.5 -7 -72.5 -7c-90.667 0 -156.667 28.667 -198 86c-63.333 -58 -128 -87 -194 -87c-49.333 0 -89.666 15 -120.999 45c-29.333 30.667 -44 71.334 -44 122.001c0 50 17 90.333 51 121s81 46 141 46
c23.333 0 54.666 -4 93.999 -12l19 -4v49zM330 244l-31.001 5.00098l-30 1c-37.333 0 -67.666 -8 -90.999 -24c-21.333 -16 -32 -38.333 -32 -67c0 -24.667 8.33301 -44.834 25 -60.501s38.667 -23.5 66 -23.5c36 0 75 18 117 54l-12 29l-8 33zM643.999 291.001
c0 96 -32.667 143.999 -98 143.999c-32 0 -57 -12.167 -75 -36.5s-27 -59.166 -27 -104.499z" />
    <glyph glyph-name="ccedilla" unicode="&#xe7;" horiz-adv-x="401" 
d="M239 -30c16.667 0 30.168 -5 40.501 -15s15.5 -22 15.5 -36c0 -38.667 -35 -67.667 -105 -87v34c16 2 29 6.83301 39 14.5s15 16.5 15 26.5c0 12.667 -7.33301 19 -22 19l-16 -1l-21 -9l-4 38c21.333 10.667 40.666 16 57.999 16zM359.001 392
c-14 9.33301 -29 17.334 -45 24.001s-30.667 10 -44 10c-35.333 0 -63.333 -15 -84 -45s-31 -72.667 -31 -128c0 -52.667 10 -93.834 30 -123.501s48.667 -44.5 86 -44.5c29.333 0 60 12 92 36l23 -91c-49.333 -28 -97 -42 -143 -42c-66 0 -117.833 23.5 -155.5 70.5
s-56.5 111.5 -56.5 193.5c0 81.333 19 146.333 57 195s90.333 73 157 73c46 0 91.667 -13.333 137 -40z" />
    <glyph glyph-name="egrave" unicode="&#xe8;" horiz-adv-x="490" 
d="M164 215c9.33301 -90.667 60 -135.999 152 -135.999c8 0 16.167 0.333008 24.5 1s18.833 2.16699 31.5 4.5s31 8.16602 55 17.499l21 -86c-56 -18 -109.333 -27 -160 -27c-80.667 0 -143 24 -187 72s-66 115.333 -66 202c0 80.667 19.167 143.667 57.5 189
s92.5 68 162.5 68c66 0 117.333 -22 154 -66s55 -107.333 55 -190l-2 -49h-298zM154 291.001h196v5c0 92.667 -32 139 -96 139c-32 0 -56.667 -12.5 -74 -37.5s-26 -60.5 -26 -106.5zM192 731.001l138 -136l-42 -40l-164 109z" />
    <glyph glyph-name="eacute" unicode="&#xe9;" horiz-adv-x="490" 
d="M164 215c9.33301 -90.667 60 -135.999 152 -135.999c8 0 16.167 0.333008 24.5 1s18.833 2.16699 31.5 4.5s31 8.16602 55 17.499l21 -86c-56 -18 -109.333 -27 -160 -27c-80.667 0 -143 24 -187 72s-66 115.333 -66 202c0 80.667 19.167 143.667 57.5 189
s92.5 68 162.5 68c66 0 117.333 -22 154 -66s55 -107.333 55 -190l-2 -49h-298zM154 291.001h196v5c0 92.667 -32 139 -96 139c-32 0 -56.667 -12.5 -74 -37.5s-26 -60.5 -26 -106.5zM306 730.001l70 -67l-162 -109l-42 37z" />
    <glyph glyph-name="ecircumflex" unicode="&#xea;" horiz-adv-x="490" 
d="M164 215c9.33301 -90.667 60 -135.999 152 -135.999c8 0 16.167 0.333008 24.5 1s18.833 2.16699 31.5 4.5s31 8.16602 55 17.499l21 -86c-56 -18 -109.333 -27 -160 -27c-80.667 0 -143 24 -187 72s-66 115.333 -66 202c0 80.667 19.167 143.667 57.5 189
s92.5 68 162.5 68c66 0 117.333 -22 154 -66s55 -107.333 55 -190l-2 -49h-298zM154 291.001h196v5c0 92.667 -32 139 -96 139c-32 0 -56.667 -12.5 -74 -37.5s-26 -60.5 -26 -106.5zM244 714.001l147 -115l-31 -45l-116 67l-115 -67l-32 42z" />
    <glyph glyph-name="edieresis" unicode="&#xeb;" horiz-adv-x="490" 
d="M164 215c9.33301 -90.667 60 -135.999 152 -135.999c8 0 16.167 0.333008 24.5 1s18.833 2.16699 31.5 4.5s31 8.16602 55 17.499l21 -86c-56 -18 -109.333 -27 -160 -27c-80.667 0 -143 24 -187 72s-66 115.333 -66 202c0 80.667 19.167 143.667 57.5 189
s92.5 68 162.5 68c66 0 117.333 -22 154 -66s55 -107.333 55 -190l-2 -49h-298zM154 291.001h196v5c0 92.667 -32 139 -96 139c-32 0 -56.667 -12.5 -74 -37.5s-26 -60.5 -26 -106.5zM154 662.001c18.667 0 34 -5.33301 46 -16s18 -23.334 18 -38.001
c0 -15.333 -6.16699 -28.166 -18.5 -38.499s-27.5 -15.5 -45.5 -15.5c-17.333 0 -33 5 -47 15c-12.667 10.667 -19 23.667 -19 39c0 14 6.66699 26.667 20 38c4 3.33301 8.66699 6.33301 14 9c9.33301 4.66699 20 7 32 7zM335 662.001
c17.333 0 33.001 -5.00098 47.001 -15.001c12.667 -10.667 19 -23.667 19 -39s-6.16699 -28.166 -18.5 -38.499s-28.166 -15.5 -47.499 -15.5c-16.667 0 -31.334 5 -44.001 15s-19 23 -19 39c0 14 6.16699 26.5 18.5 37.5s27.166 16.5 44.499 16.5z" />
    <glyph glyph-name="igrave" unicode="&#xec;" horiz-adv-x="204" 
d="M43 507l118 13v-520h-118v507zM50 731l138 -136l-42 -40l-164 109z" />
    <glyph glyph-name="iacute" unicode="&#xed;" horiz-adv-x="204" 
d="M43 507l118 13v-520h-118v507zM165 730l70 -67l-162 -109l-42 37z" />
    <glyph glyph-name="icircumflex" unicode="&#xee;" horiz-adv-x="204" 
d="M43 507l118 13v-520h-118v507zM103 714l147 -115l-31 -45l-116 67l-115 -67l-32 42z" />
    <glyph glyph-name="idieresis" unicode="&#xef;" horiz-adv-x="204" 
d="M43 507l118 13v-520h-118v507zM12 662c18.667 0 34 -5.33301 46 -16s18 -23.334 18 -38.001c0 -15.333 -6.16699 -28.166 -18.5 -38.499s-27.5 -15.5 -45.5 -15.5c-17.333 0 -33 5 -47 15c-12.667 10.667 -19 23.667 -19 39c0 14 6.66699 26.667 20 38
c4 3.33301 8.66699 6.33301 14 9c9.33301 4.66699 20 7 32 7zM193 662c17.333 0 33.001 -5.00098 47.001 -15.001c12.667 -10.667 19 -23.667 19 -39s-6.16699 -28.166 -18.5 -38.499s-28.166 -15.5 -47.499 -15.5c-16.667 0 -31.334 5 -44.001 15s-19 23 -19 39
c0 14 6.16699 26.5 18.5 37.5s27.166 16.5 44.499 16.5z" />
    <glyph glyph-name="ntilde" unicode="&#xf1;" horiz-adv-x="511" 
d="M50 507l115.997 13v-43c51.333 30 98.333 45 141 45c48.667 0 83.334 -10 104.001 -30s34.334 -40 41.001 -60s10 -46 10 -78v-354h-118v324l-2 42c-3.33301 18 -12.166 32.333 -26.499 43s-31.833 16 -52.5 16c-26.667 0 -59 -12 -97 -36v-389h-116v507zM113.997 616
c29.333 16 58.668 24 88.001 24c12.667 0 22 -0.666992 28 -2l39 -9l40 -10l30 -2c21.333 0 40.666 5 57.999 15v-64c-19.333 -8 -40 -12 -62 -12l-28 2l-35 10l-40 8l-33 3c-24 0 -45 -4.33301 -63 -13l-22 -11v61z" />
    <glyph glyph-name="ograve" unicode="&#xf2;" horiz-adv-x="518" 
d="M258 521c150 0 225 -89 225 -267c0 -178.667 -75 -268 -225 -268c-148.667 0 -223 89.333 -223 268c0 178 74.333 267 223 267zM158 254c0 -122 33.333 -183 100 -183c67.333 0 101 61 101 183c0 121.333 -33.667 182 -101 182c-66.667 0 -100 -60.667 -100 -182z
M206 731l138 -136l-42 -40l-164 109z" />
    <glyph glyph-name="oacute" unicode="&#xf3;" horiz-adv-x="518" 
d="M258 521c150 0 225 -89 225 -267c0 -178.667 -75 -268 -225 -268c-148.667 0 -223 89.333 -223 268c0 178 74.333 267 223 267zM158 254c0 -122 33.333 -183 100 -183c67.333 0 101 61 101 183c0 121.333 -33.667 182 -101 182c-66.667 0 -100 -60.667 -100 -182z
M320 730l70 -67l-162 -109l-42 37z" />
    <glyph glyph-name="ocircumflex" unicode="&#xf4;" horiz-adv-x="518" 
d="M258 521c150 0 225 -89 225 -267c0 -178.667 -75 -268 -225 -268c-148.667 0 -223 89.333 -223 268c0 178 74.333 267 223 267zM158 254c0 -122 33.333 -183 100 -183c67.333 0 101 61 101 183c0 121.333 -33.667 182 -101 182c-66.667 0 -100 -60.667 -100 -182z
M258 714l147 -115l-31 -45l-116 67l-115 -67l-32 42z" />
    <glyph glyph-name="otilde" unicode="&#xf5;" horiz-adv-x="518" 
d="M258 521c150 0 225 -89 225 -267c0 -178.667 -75 -268 -225 -268c-148.667 0 -223 89.333 -223 268c0 178 74.333 267 223 267zM158 254c0 -122 33.333 -183 100 -183c67.333 0 101 61 101 183c0 121.333 -33.667 182 -101 182c-66.667 0 -100 -60.667 -100 -182z
M118 616c29.333 16 58.668 24 88.001 24c12.667 0 22 -0.666992 28 -2l39 -9l40 -10l30 -2c21.333 0 40.666 5 57.999 15v-64c-19.333 -8 -40 -12 -62 -12l-28 2l-35 10l-40 8l-33 3c-24 0 -45 -4.33301 -63 -13l-22 -11v61z" />
    <glyph glyph-name="odieresis" unicode="&#xf6;" horiz-adv-x="518" 
d="M166 674c18 0 33.5 -5.16699 46.5 -15.5s19.5 -23.5 19.5 -39.5c0 -15.333 -6.33301 -28.333 -19 -39s-27.667 -16 -45 -16s-33 5 -47 15c-12.667 10.667 -19 23.667 -19 39c0 14.667 6.16699 27.667 18.5 39s27.5 17 45.5 17zM351 674
c18 0 33.332 -5.33398 45.999 -16.001s19 -24 19 -40c0 -15.333 -6.33301 -28.166 -19 -38.499s-28.667 -15.5 -48 -15.5c-17.333 0 -32.333 5.33301 -45 16s-19 23.667 -19 39s6.33301 28.333 19 39s28.334 16 47.001 16zM257.999 520.999c150 0 225 -89 225 -267
c0 -178.667 -75 -268 -225 -268c-148.667 0 -223 89.333 -223 268c0 178 74.333 267 223 267zM157.999 253.999c0 -122 33.333 -183 100 -183c67.333 0 101 61 101 183c0 121.333 -33.667 182 -101 182c-66.667 0 -100 -60.667 -100 -182z" />
    <glyph glyph-name="divide" unicode="&#xf7;" horiz-adv-x="549" 
d="M275 158c16 0 29.333 -5.33203 40 -15.999s16 -24.334 16 -41.001c0 -16 -5.66699 -29.333 -17 -40c-10 -11.333 -23 -17 -39 -17s-29.667 5.66699 -41 17c-10.667 12.667 -16 26 -16 40c0 16 6 29.5 18 40.5s25 16.5 39 16.5zM506 202.001h-463v68h463v-68zM275 427.001
c16 0 29.333 -5.83203 40 -17.499s16 -24.834 16 -39.501c0 -16 -5.66699 -29.333 -17 -40c-10 -11.333 -23 -17 -39 -17s-29.667 5.33301 -41 16c-10.667 12 -16 25.667 -16 41c0 16 6 29.5 18 40.5s25 16.5 39 16.5z" />
    <glyph glyph-name="oslash" unicode="&#xf8;" horiz-adv-x="523" 
d="M456 516l33.001 -27.998l-45 -52l2 -7l29 -79c2.66699 -8.66699 4.66699 -19.334 6 -32.001s2 -29.667 2 -51c0 -45.333 -3 -82.833 -9 -112.5s-21.333 -65.334 -46 -107.001s-81.667 -62.5 -171 -62.5c-50.667 0 -92.334 10.333 -125.001 31l-23 22l-42 -48l-31 29
l44 50c-14 12 -25 35 -33 69s-12 74 -12 120c0 175.333 75.333 263 226 263c36 0 64.167 -3.5 84.5 -10.5s43.833 -21.167 70.5 -42.5zM185.001 128.002c5.33301 -16 15.167 -29.001 29.5 -39.001s30.5 -15 48.5 -15c64 0 96 55.667 96 167v17v13
c-1.33301 6.66699 -2 11.334 -2 14.001c0 10 -2.66699 24.667 -8 44zM337.002 379.001c-6 16 -16.667 29.333 -32 40c-4.66699 3.33301 -9.66699 6.33301 -15 9c-9.33301 4.66699 -19 7 -29 7c-68 0 -102 -57.667 -102 -173c0 -26.667 4 -55 12 -85z" />
    <glyph glyph-name="ugrave" unicode="&#xf9;" horiz-adv-x="511" 
d="M204 -12c-102.667 0 -153.999 51.333 -153.999 154v365l118 13v-347c0 -32 6 -54.833 18 -68.5s33.333 -20.5 64 -20.5c29.333 0 60.666 11.333 93.999 34v390h118v-508h-117l-1 31c-49.333 -28.667 -96 -43 -140 -43zM202.001 731l138 -136l-42 -40l-164 109z" />
    <glyph glyph-name="uacute" unicode="&#xfa;" horiz-adv-x="511" 
d="M204 -12c-102.667 0 -153.999 51.333 -153.999 154v365l118 13v-347c0 -32 6 -54.833 18 -68.5s33.333 -20.5 64 -20.5c29.333 0 60.666 11.333 93.999 34v390h118v-508h-117l-1 31c-49.333 -28.667 -96 -43 -140 -43zM317.001 730l70 -67l-162 -109l-42 37z" />
    <glyph glyph-name="ucircumflex" unicode="&#xfb;" horiz-adv-x="511" 
d="M204 -12c-102.667 0 -153.999 51.333 -153.999 154v365l118 13v-347c0 -32 6 -54.833 18 -68.5s33.333 -20.5 64 -20.5c29.333 0 60.666 11.333 93.999 34v390h118v-508h-117l-1 31c-49.333 -28.667 -96 -43 -140 -43zM255.001 714l147 -115l-31 -45l-116 67l-115 -67
l-32 42z" />
    <glyph glyph-name="udieresis" unicode="&#xfc;" horiz-adv-x="511" 
d="M165 672c18 0 33 -5.00098 45 -15.001s18 -22.667 18 -38s-6.33301 -28.333 -19 -39s-27.667 -16 -45 -16s-33 5 -47 15c-12.667 10.667 -19 23.667 -19 39c0 14.667 6.66699 27.334 20 38.001s29 16 47 16zM347 671.999c17.333 0 33 -5 47 -15
c12.667 -10.667 19 -23.667 19 -39c0 -13.333 -6.33301 -26 -19 -38c-4 -3.33301 -9.66699 -6.83301 -17 -10.5s-17 -5.5 -29 -5.5c-18 0 -33.333 5.33301 -46 16s-19 23.667 -19 39c0 14 6 26.667 18 38c12 10 27.333 15 46 15zM204 -12.001
c-102.667 0 -153.999 51.333 -153.999 154v365l118 13v-347c0 -32 6 -54.833 18 -68.5s33.333 -20.5 64 -20.5c29.333 0 60.666 11.333 93.999 34v390h118v-508h-117l-1 31c-49.333 -28.667 -96 -43 -140 -43z" />
    <glyph glyph-name="ydieresis" unicode="&#xff;" horiz-adv-x="441" 
d="M111 520l98 -348l6 -38l3 -20l3 -13c0 13.333 0.666992 23.333 2 30l9 42l99 335h123l-175 -567c-16 -54.667 -35.333 -91.667 -58 -111c-22 -20.667 -54 -31 -96 -31c-33.333 0 -71.666 6 -114.999 18l25 84c24 -10 45.333 -15 64 -15
c21.333 0 37.666 5.16699 48.999 15.5s21.333 28.833 30 55.5l14 43h-57l-148 507zM129 662c18.667 0 34 -5.33301 46 -16s18 -23.334 18 -38.001c0 -15.333 -6.16699 -28.166 -18.5 -38.499s-27.5 -15.5 -45.5 -15.5c-17.333 0 -33 5 -47 15
c-12.667 10.667 -19 23.667 -19 39c0 14 6.66699 26.667 20 38c4 3.33301 8.66699 6.33301 14 9c9.33301 4.66699 20 7 32 7zM310 662c17.333 0 33.001 -5.00098 47.001 -15.001c12.667 -10.667 19 -23.667 19 -39s-6.16699 -28.166 -18.5 -38.499
s-28.166 -15.5 -47.499 -15.5c-16.667 0 -31.334 5 -44.001 15s-19 23 -19 39c0 14 6.16699 26.5 18.5 37.5s27.166 16.5 44.499 16.5z" />
    <glyph glyph-name="c293" unicode="&#x125;" horiz-adv-x="496" 
d="M398 604c-44 20 -84.666 30.001 -121.999 30.001s-67 -8.66699 -89 -26s-33 -40.333 -33 -69c0 -24 6.33301 -42.333 19 -55c10.667 -9.33301 24 -19 40 -29l65 -32c28.667 -12.667 52.834 -24.334 72.501 -35.001s44.667 -27.5 75 -50.5s45.5 -65.833 45.5 -128.5
c0 -65.333 -23.667 -118.666 -71 -159.999s-108.333 -62 -183 -62c-51.333 0 -114.666 14 -189.999 42l32 101c58 -28 109.333 -42 154 -42c35.333 0 64.666 9.16699 87.999 27.5s35 42.5 35 72.5c0 27.333 -9.66699 49.666 -29 66.999l-40 25l-72 36
c-34.667 16 -58.834 28.5 -72.501 37.5s-33.334 26 -59.001 51s-38.5 64.833 -38.5 119.5c0 62 21.667 112.167 65 150.5s101.333 57.5 174 57.5c27.333 0 52.333 -2.33301 75 -7c15.333 -2.66699 29 -5.5 41 -8.5s28.333 -7.83301 49 -14.5zM132.001 948.001l115 -67
l116 67l31 -46l-147 -114l-147 118z" />
    <glyph glyph-name="c294" unicode="&#x126;" horiz-adv-x="424" 
d="M50 112c48.667 -19.333 91.333 -28.9971 128 -28.9971c29.333 0 53 5 71 15s27 23.333 27 40c0 17.333 -7.33301 30.333 -22 39l-33 18l-68 31c-38.667 16 -69.5 35.333 -92.5 58s-34.5 52.667 -34.5 90c0 45.333 18.167 81.666 54.5 108.999s85.166 41 146.499 41
c18 0 31.333 -0.333008 40 -1s22.5 -2.83398 41.5 -6.50098s46.833 -11.5 83.5 -23.5l-27 -89c-57.333 20 -103.666 30 -138.999 30c-26 0 -46.167 -4.16699 -60.5 -12.5s-21.5 -20.833 -21.5 -37.5c0 -12.667 3.5 -22.834 10.5 -30.501s21.833 -16.834 44.5 -27.501l12 -6
l37 -17l41 -19l46 -24c20.667 -10 36.667 -24.667 48 -44c12 -18 18 -41.333 18 -70c0 -47.333 -18.333 -85.666 -55 -114.999s-86.667 -44 -150 -44c-44 0 -90 7 -138 21l-36 11zM95.999 712.003l115 -67l116 67l31 -46l-147 -114l-147 118z" />
    <glyph glyph-name="c295" unicode="&#x127;" horiz-adv-x="477" 
d="M18 69l262 517l15 23l23 22l-30 -7l-22 -1l-234 8v90h425v-73l-258 -510l-15 -23l-21 -24l26 9l24 3h5l240 -9v-94h-440v69zM123 948l115 -67l116 67l31 -46l-147 -114l-147 118z" />
    <glyph glyph-name="c296" unicode="&#x128;" horiz-adv-x="432" 
d="M15 54l225 340c8 12 20.333 23 37 33l-25 -8l-18 -1h-7l-200 8v82h386v-53l-222 -337c-10 -16 -23.333 -29.333 -40 -40c18 7.33301 33.333 11 46 11h8l208 -9v-80h-398v54zM100 712l115 -67l116 67l31 -46l-147 -114l-147 118z" />
    <glyph glyph-name="dotlessi" unicode="&#x131;" horiz-adv-x="204" 
d="M43 507l118 13v-520h-118v507z" />
    <glyph glyph-name="hungarumlaut" unicode="&#x2ba;" horiz-adv-x="225" 
d="M174 730l70 -67l-162 -109l-42 37z" />
    <glyph glyph-name="caron" unicode="&#x2c7;" horiz-adv-x="303" 
d="M36 712l115 -67l116 67l31 -46l-147 -114l-147 118z" />
    <glyph glyph-name="macron" unicode="&#x2c9;" horiz-adv-x="299" 
d="M0 631h298v-68h-298v68z" />
    <glyph glyph-name="breve" unicode="&#x2d8;" horiz-adv-x="296" 
d="M50 701c16 -24 31.167 -40.832 45.5 -50.499s31.5 -14.5 51.5 -14.5c22.667 0 41 4 55 12s30 25 48 51l46 -31c-20 -42 -40.5 -71.5 -61.5 -88.5s-47.833 -25.5 -80.5 -25.5c-38 0 -68 8 -90 24c-19.333 15.333 -40 46.666 -62 93.999z" />
    <glyph glyph-name="dotaccent" unicode="&#x2d9;" horiz-adv-x="301" 
d="M40 896l221 -88l-21 -43l-236 48z" />
    <glyph glyph-name="ring" unicode="&#x2da;" horiz-adv-x="254" 
d="M126 692c14.667 0 26.833 -1.33203 36.5 -3.99902s19.834 -8 30.501 -16c18.667 -12.667 28 -28.667 28 -48c0 -18 -9.5 -33.667 -28.5 -47s-41.5 -20 -67.5 -20c-24.667 0 -46.334 6.33301 -65.001 19c-17.333 13.333 -26 29.666 -26 48.999
c0 17.333 9.16699 32.833 27.5 46.5s39.833 20.5 64.5 20.5zM81.999 625.001c0 -8 4.5 -14.334 13.5 -19.001s19.833 -7 32.5 -7c12 0 22 2.16699 30 6.5s12.667 10.5 14 18.5c0 6.66699 -4.33301 12.834 -13 18.501s-19.667 8.5 -33 8.5c-12 0 -22.333 -2.16699 -31 -6.5
s-13 -10.833 -13 -19.5z" />
    <glyph glyph-name="ogonek" unicode="&#x2db;" horiz-adv-x="204" 
d="M103 99c20.667 0 37.999 -5.66699 51.999 -17c6.66699 -4.66699 12 -10.334 16 -17.001s6 -14.334 6 -23.001c0 -13.333 -7 -26 -21 -38c-4.66699 -3.33301 -11.167 -6.83301 -19.5 -10.5s-19.166 -5.5 -32.499 -5.5c-20.667 0 -39 5 -55 15
c-6.66699 4.66699 -12 10.334 -16 17.001s-6 14.334 -6 23.001c0 16 7.33301 29.333 22 40s32.667 16 54 16z" />
    <glyph glyph-name="circumflex" unicode="&#x302;" horiz-adv-x="303" 
d="M151 714l147 -115l-31 -45l-116 67l-115 -67l-32 42z" />
    <glyph glyph-name="tilde" unicode="&#x303;" horiz-adv-x="284" 
d="M1 616c29.333 16 58.668 24 88.001 24c12.667 0 22 -0.666992 28 -2l39 -9l40 -10l30 -2c21.333 0 40.666 5 57.999 15v-64c-19.333 -8 -40 -12 -62 -12l-28 2l-35 10l-40 8l-33 3c-24 0 -45 -4.33301 -63 -13l-22 -11v61z" />
    <glyph glyph-name="summation" unicode="&#x3a3;" horiz-adv-x="713" 
d="M618 643l14.9971 -129h-44c-21.333 70 -49.666 118 -84.999 144s-91.666 39 -168.999 39h-132l315 -431l-344 -394h187c42.667 0 77.5 2.5 104.5 7.5s49.5 13.167 67.5 24.5c33.333 20 61 58.667 83 116h45l-30 -130l-2 -7c-15.333 -66 -52.333 -99 -111 -99h-482
l389 446l-375 514h460c42.667 0 70 -5 82 -15c10.667 -7.33301 19.334 -36 26.001 -86z" />
    <glyph glyph-name="Omega" unicode="&#x3a9;" horiz-adv-x="768" 
d="M593 90c32 0 54.667 6.16992 68 18.5029s20 34.833 20 67.5h23v-176h-272v180c50.667 10 91.334 35.667 122.001 77s46 91.666 46 150.999c0 70.667 -19.667 126.834 -59 168.501s-91.666 62.5 -156.999 62.5c-64.667 0 -116.834 -20.833 -156.501 -62.5
s-59.5 -97.834 -59.5 -168.501c0 -60.667 14.667 -110.834 44 -150.501s70.666 -65.5 123.999 -77.5v-180h-272v176h23c0 -32 6.33301 -54.333 19 -67s35.667 -19 69 -19h123v59c-78.667 14 -139.667 43.667 -183 89s-65 102 -65 170c0 80 31 144.5 93 193.5
s142.333 73.5 241 73.5c99.333 0 179.833 -24.333 241.5 -73s92.5 -113.334 92.5 -194.001c0 -66.667 -21.167 -122.5 -63.5 -167.5s-103.833 -75.5 -184.5 -91.5v-59h123z" />
    <glyph glyph-name="pi" unicode="&#x3c0;" horiz-adv-x="549" 
d="M404 373l-1 -24.0029l-3 -150v-40c0 -57.333 2.83301 -92.666 8.5 -105.999s15.834 -20 30.501 -20c17.333 0 31.333 10 42 30s16 49.333 16 88h25v-5c0 -53.333 -8.66699 -92.666 -26 -117.999s-44 -38 -80 -38c-36.667 0 -63.334 13.333 -80.001 40
c-7.33301 12.667 -13 32.667 -17 60s-6 62 -6 104l1 78l3 104l-50 1l-77 2c0 -158 -7.66699 -262.333 -23 -313s-42 -76 -80 -76c-22.667 0 -40.334 9.66699 -53.001 29c-11.333 19.333 -17 48 -17 86v19h24c0 -17.333 3 -30.333 9 -39s15.333 -13 28 -13
c28 0 46 15.667 54 47s14 68 18 110s6 92 6 150h-22c-26 0 -46 -4.66699 -60 -14c-14 -8 -23 -21 -27 -39h-23c0 22.667 3.16699 41.834 9.5 57.501s18.5 30.5 36.5 44.5s55.667 21 113 21l102 -3l152 -3c22.667 0 38.834 2.16699 48.501 6.5s15.5 11.5 17.5 21.5l23 1
c0 -34 -7.83301 -59.167 -23.5 -75.5s-40.5 -24.5 -74.5 -24.5h-14z" />
    <glyph glyph-name="partialdiff" unicode="&#x2202;" horiz-adv-x="494" 
d="M358 287l5.99805 27.999l3 31l3 89c0 56.667 -5.16699 98.667 -15.5 126s-26.166 41 -47.499 41c-12 0 -28.667 -11.667 -50 -35s-40 -35 -56 -35c-10 0 -18.667 2.33301 -26 7c-5.33301 4.66699 -9 13 -11 25c0 18 10 34.667 30 50c20 14 44 21 72 21
c50.667 0 87.334 -17.667 110.001 -53s38.334 -69.5 47.001 -102.5s13 -70.5 13 -112.5c0 -108.667 -21.333 -199.167 -64 -271.5s-95.334 -108.5 -158.001 -108.5c-44 0 -80.333 17 -109 51s-43 79.667 -43 137c0 54 17.667 101.667 53 143s77 62 125 62
c29.333 0 53.333 -7.16699 72 -21.5s34 -38.166 46 -71.499zM255.998 348.999c-33.333 0 -61.999 -20 -85.999 -60c-22.667 -41.333 -34 -95 -34 -161c0 -37.333 7.16699 -66.5 21.5 -87.5s35.166 -31.5 62.499 -31.5c35.333 0 64.333 20.833 87 62.5s34 92.5 34 152.5
c0 38 -7.33301 68.333 -22 91s-35.667 34 -63 34z" />
    <glyph glyph-name="Delta" unicode="&#x2206;" horiz-adv-x="612" 
d="M595 0h-574l276 672h22zM92 45h373l-186 459z" />
    <glyph glyph-name="product" unicode="&#x220f;" horiz-adv-x="823" 
d="M118 -176v880h-88v40h767v-40h-88v-880h88v-40h-264v40h84v880h-407v-880h84v-40h-264v40h88z" />
    <glyph glyph-name="fraction" unicode="&#x2215;" horiz-adv-x="163" 
d="M241 721h74l-389 -721h-74z" />
    <glyph glyph-name="periodcentered" unicode="&#x2219;" horiz-adv-x="204" 
d="M104 309c20 0 37.333 -5.33398 52 -16.001s22 -23.667 22 -39c0 -13.333 -7.33301 -26 -22 -38c-14 -10 -31.667 -15 -53 -15c-20 0 -38 5 -54 15c-14.667 10.667 -22 23.334 -22 38.001c0 15.333 7.33301 28.333 22 39s33 16 55 16z" />
    <glyph glyph-name="radical" unicode="&#x221a;" horiz-adv-x="549" 
d="M594 764h-57l-290 -784h-32l-156 431l-61 -22l-12 39l138 48l125 -346l252 681h93v-47z" />
    <glyph glyph-name="infinity" unicode="&#x221e;" horiz-adv-x="713" 
d="M366 238c-22 -40.667 -45.9971 -71.665 -71.9971 -92.998c-12.667 -10.667 -25.834 -18.5 -39.501 -23.5s-28.834 -7.5 -45.501 -7.5c-44 0 -81 17.5 -111 52.5s-45 78.833 -45 131.5c0 55.333 13.667 100.166 41 134.499s62.333 51.5 105 51.5
c30.667 0 58 -9.83301 82 -29.5s46 -51.167 66 -94.5c20 41.333 43 72.333 69 93c13.333 10 27.166 17.667 41.499 23s29.833 8 46.5 8c42 0 78.333 -17.667 109 -53c15.333 -17.333 26.833 -36.833 34.5 -58.5s11.5 -45.834 11.5 -72.501c0 -56 -13.333 -101 -40 -135
s-61.667 -51 -105 -51c-30 0 -58 10 -84 30c-24 20 -45.333 51.333 -64 94zM330.003 327.002c-17.333 30.667 -37 53.833 -59 69.5s-47.333 23.5 -76 23.5c-34.667 0 -62.834 -11.667 -84.501 -35s-32.5 -53.333 -32.5 -90c0 -36 9.66699 -65.667 29 -89
c20.667 -22.667 46.334 -34 77.001 -34c26 0 49.667 10.5 71 31.5s46.333 62.167 75 123.5zM383.003 271.001c14.667 -30 33.832 -53 57.499 -69s49.5 -24 77.5 -24c34.667 0 62.834 11.667 84.501 35s32.5 53.333 32.5 90c0 36 -10.167 65.5 -30.5 88.5
s-46.833 34.5 -79.5 34.5c-23.333 0 -47 -12 -71 -36c-21.333 -23.333 -45 -63 -71 -119z" />
    <glyph glyph-name="integral" unicode="&#x222b;" horiz-adv-x="274" 
d="M283 757c24 0 43.4971 -6.16992 58.4971 -18.5029s22.5 -28.5 22.5 -48.5c0 -13.333 -4.16699 -24.666 -12.5 -33.999s-20.5 -14 -36.5 -14c-18.667 0 -33.167 10.5 -43.5 31.5s-20.166 31.833 -29.499 32.5c-38 0 -57 -103.333 -57 -310l-3 -98v-16v-13v-12
c0 -13.333 -0.333008 -26.666 -1 -39.999s-2 -26.333 -4 -39c0 -17.333 -1.16699 -36.166 -3.5 -56.499s-6.16602 -49.333 -11.499 -87s-15 -72.167 -29 -103.5s-34.167 -57.833 -60.5 -79.5s-53.5 -32.5 -81.5 -32.5c-23.333 0 -42.666 6.16699 -57.999 18.5
s-23 28.5 -23 48.5c0 14 4.16699 25.333 12.5 34s20.5 13 36.5 13c18.667 0 33 -10 43 -30s20.333 -31 31 -33c38 0 57 108 57 324l2 84c0 14 0.666992 36.5 2 67.5s2 47.167 2 48.5c0 15.333 1.16699 33.333 3.5 54s6 50.5 11 89.5s15.167 74.5 30.5 106.5
c14 34 33.833 61.333 59.5 82s53.167 31 82.5 31z" />
    <glyph glyph-name="approxequal" unicode="&#x2248;" horiz-adv-x="549" 
d="M15 100l-0.000976562 77.001c15.333 9.33301 29.833 17.5 43.5 24.5s28.167 13.5 43.5 19.5c26 9.33301 50.667 14 74 14c28.667 0 66.834 -8 114.501 -24s80.834 -24 99.501 -24c17.333 0 37.166 5 59.499 15s50.5 27.333 84.5 52v-78
c-14.667 -9.33301 -28.334 -17.5 -41.001 -24.5s-24.667 -12.833 -36 -17.5c-24 -8.66699 -48 -13 -72 -13c-12 0 -25.667 1.66699 -41 5s-36.333 9.33301 -63 18c-48 16 -86.667 24 -116 24c-19.333 0 -37.666 -3.83301 -54.999 -11.5s-33 -15.834 -47 -24.501
c-10.667 -6 -18.5 -10.667 -23.5 -14s-13.167 -9.33301 -24.5 -18zM14.999 219.001v77.001l43 25l51 21c20.667 7.33301 42.667 11 66 11c28 0 66.333 -7.83301 115 -23.5s82 -23.5 100 -23.5c19.333 0 39.333 4.66699 60 14c10.667 4.66699 22.834 11.167 36.501 19.5
s29.5 19.166 47.5 32.499v-77l-41 -24l-49 -22c-17.333 -6 -37 -9 -59 -9c-24 0 -59.333 7.83301 -106 23.5s-83 23.5 -109 23.5c-24.667 0 -46.667 -4.66699 -66 -14c-18.667 -7.33301 -48.334 -25.333 -89.001 -54z" />
    <glyph glyph-name="notequal" unicode="&#x2260;" horiz-adv-x="549" 
d="M413 336h91v-64h-149l-73 -72h222v-64h-281l-118 -118l-43 44l74 74h-91v64h150l73 72h-223v64h281l118 118l44 -44z" />
    <glyph glyph-name="lessequal" unicode="&#x2264;" horiz-adv-x="549" 
d="M506 18h-463v68h463v-68zM162 280l344 -107v-70l-462 145v65l462 145v-70z" />
    <glyph glyph-name="greaterequal" unicode="&#x2265;" horiz-adv-x="549" 
d="M506 18h-463v68h463v-68zM506 248l-463 -145v70l344 107l-344 108v70l463 -145v-65z" />
    <glyph glyph-name="lozenge" unicode="&#x25ca;" horiz-adv-x="494" 
d="M247 807l244 -518l-244 -522l-244 522zM247 688l-188 -399l188 -403l188 403z" />
    <glyph glyph-name=".null" unicode="&#xe001;" horiz-adv-x="0" 
 />
    <glyph glyph-name="nonmarkingreturn" unicode="&#xe002;" horiz-adv-x="290" 
 />
    <glyph glyph-name="apple" unicode="&#xf000;" horiz-adv-x="790" 
d="M408 594l-0.998047 6.99902v11c0 40 15.167 77.167 45.5 111.5s69.166 55.833 116.499 64.5v-12l1 -18c0 -41.333 -16.833 -79.166 -50.5 -113.499s-66.834 -51.5 -99.501 -51.5h-4zM735.002 196.999c-18.667 -40 -36.4971 -74.1699 -53.4971 -102.503
s-32.833 -50.166 -47.5 -65.499c-30.667 -30.667 -63.667 -46 -99 -46c-16.667 0 -38.5 5.33301 -65.5 16s-46.5 16 -58.5 16c-15.333 0 -37 -5.33301 -65 -16s-48.333 -16 -61 -16c-20 0 -41 7 -63 21l-31 27l-48 60c-20 28.667 -40 69 -60 121
c-9.33301 27.333 -16.333 52.833 -21 76.5s-7 47.5 -7 71.5c0 71.333 20.5 129.5 61.5 174.5s93.5 67.5 157.5 67.5c10.667 0 21.167 -1 31.5 -3s19.166 -4.16699 26.499 -6.5s17 -6.16602 29 -11.499c7.33301 -2.66699 16.166 -5.5 26.499 -8.5s17.833 -4.5 22.5 -4.5
c13.333 0 34 5.66699 62 17s52 17 72 17c37.333 0 69.666 -6.66699 96.999 -20c28 -12 54 -32 78 -60c-31.333 -20 -56 -43.667 -74 -71c-16 -26 -24 -55.667 -24 -89c0 -35.333 10 -67.666 30 -96.999s48 -52 84 -68z" />
    <glyph glyph-name="fi" unicode="&#xf001;" 
d="M159 544l106 -107l108 108l64 -64l-108 -108l108 -108l-64 -63l-107 107l-105 -105l-65 65l105 105l-106 106z" />
    <glyph glyph-name="fl" unicode="&#xf002;" horiz-adv-x="383" 
d="M215 721h68v-614h123v-107h-379v107h123v466l-122 -42l-19 66z" />
    </font>
</defs>
</svg>
