<?xml version="1.0" standalone="no"?>
<!DOCTYPE svg PUBLIC "-//W3C//DTD SVG 1.1//EN" "http://www.w3.org/Graphics/SVG/1.1/DTD/svg11.dtd" >
<svg>
<metadata>
Created by FontForge 20090914 at Thu Mar 10 09:04:32 2016
 By www-data
&#194;&#169; 2001, Graham Meade. All rights reserved. Visit www.apostrophiclab.com or email graham@apostrophiclab.com for more info.
</metadata>
<defs>
<font id="LadyCopra" horiz-adv-x="877" >
  <font-face 
    font-family="Lady Copra"
    font-weight="400"
    font-stretch="normal"
    units-per-em="2048"
    panose-1="2 0 4 0 0 0 0 0 0 0"
    ascent="1638"
    descent="-410"
    x-height="852.999"
    cap-height="1188"
    bbox="-155.001 -431.001 1996 1618"
    underline-thickness="174"
    underline-position="-120"
    unicode-range="U+0020-U+2122"
  />
<missing-glyph horiz-adv-x="1024" 
 />
    <glyph glyph-name=".notdef" horiz-adv-x="1024" 
 />
    <glyph glyph-name="space" unicode=" " horiz-adv-x="743" 
 />
    <glyph glyph-name="space" unicode="&#xa0;" horiz-adv-x="743" 
 />
    <glyph glyph-name="exclam" unicode="!" horiz-adv-x="369" 
d="M336 1188c-8.66699 -8 -18.333 -16 -29 -24c-4 -12.667 -7.33301 -45.334 -10 -98.001l-36 -640c-2.66699 -43.333 10 -76.666 38 -99.999h-227c22.667 20.667 34 54 34 100v0l-32 640c-2.66699 52.667 -6 84 -10 94l-31 28h303zM316.001 58l-5 -1v-2l-124 -65v-4l-2 2
l-3 -2l2 4l-127 67v1l-4 2h4v134l-4 2l4 1l125 67v2h3v-2l126 -70v-136h5z" />
    <glyph glyph-name="quotedbl" unicode="&#x22;" horiz-adv-x="524" 
d="M489 1222c-8 -8 -12 -13.6689 -12 -17.002l4 -7c0.666992 -4.66699 1 -11 1 -19c0 -22.667 -4.33301 -49 -13 -79l-36 -125v-17c0 -33.333 12 -60.666 36 -81.999h-141c24 20 36 53 36 99v0l-34 125c-9.33301 34 -14 59.333 -14 76
c0 2.66699 0.833008 6.83398 2.5 12.501s2.5 10.167 2.5 13.5s-4 10 -12 20h180zM216 1222c-8 -8 -12.333 -13.667 -13 -17l1 -7c1.33301 -4.66699 2 -11 2 -19c0 -16 -4.66699 -42.333 -14 -79l-32 -125c-2.66699 -4.66699 -4 -10.334 -4 -17.001
c0 -33.333 13.333 -60.666 40 -81.999h-141c24 20 36 53 36 99v0l-36 125c-8 28 -12 53.333 -12 76v14c1.33301 4.66699 2 8.66699 2 12s-4 10 -12 20h183z" />
    <glyph glyph-name="numbersign" unicode="#" horiz-adv-x="1008" 
d="M975 860l-42.998 -227.003c-13.333 24.667 -27 40.334 -41 47.001c-10 4.66699 -31.333 7 -64 7h-92l-35 -189h93c50 0 91.667 17.667 125 53l-41 -227c-13.333 24.667 -27.666 40.334 -42.999 47.001c-10.667 4.66699 -31.667 7 -63 7h-93l-26 -145
c-6 -32.667 -7.66699 -54.334 -5 -65.001c3.33301 -13.333 16 -30 38 -50h-227c40 26.667 64.667 65 74 115l26 145h-189l-26 -145c-6 -32.667 -7.66699 -54.334 -5 -65.001c3.33301 -13.333 16 -30 38 -50h-227c40 26.667 64.667 65 74 115l26 145h-93
c-49.333 0 -90.333 -18 -123 -54l41 227c25.333 -35.333 60.333 -53 105 -53h92l35 189h-93c-48 0 -89.667 -18 -125 -54l41 227c25.333 -35.333 60.666 -53 105.999 -53h93l26 144c3.33301 18.667 5 35.334 5 50.001c0 19.333 -12.667 41 -38 65h227
c-40.667 -30.667 -65.334 -69 -74.001 -115l-26 -144h189l26 144c3.33301 18.667 5 35.334 5 50.001c0 19.333 -12.667 41 -38 65h227c-42 -31.333 -66.667 -69.666 -74 -114.999l-24 -144h92c47.333 0 88.666 17.667 123.999 53zM616.002 686.997h-190l-35 -189h189z" />
    <glyph glyph-name="dollar" unicode="$" horiz-adv-x="925" 
d="M891 376c0 -94.667 -43.0029 -168.334 -129.003 -221.001c-72.667 -44.667 -159.667 -67 -261 -67c-11.333 0 -23.666 0.333008 -36.999 1l-13 -48c-6.66699 -24.667 -10 -43.334 -10 -56.001c0 -17.333 11.667 -37 35 -59h-261c30.667 19.333 50 36 58 50
c8 10.667 16 32.334 24 65.001l19 76c-41.333 10 -91.666 21.333 -150.999 34c-33.333 3.33301 -77.333 -7 -132 -31l135 247c26.667 -52.667 87.334 -92.667 182.001 -120l71 290l-93 31c-127.333 42.667 -191 114.334 -191 215.001c0 88 43.667 155.333 131 202
c70.667 38 153 57 247 57h33l13 57c8 35.333 12 54 12 56c0 17.333 -12 37 -36 59h261c-41.333 -24.667 -68.666 -63 -81.999 -115l-19 -74c17.333 -1.33301 31.666 -2 42.999 -2c43.333 0 84.333 9.66699 123 29l-120 -259c-13.333 51.333 -40 83.333 -80 96l-59 -235
l59 -19c152 -48.667 228 -135 228 -259zM511.997 901c-103.333 -3.33301 -155 -37 -155 -101c0 -40 35 -73.333 105 -100zM679.997 355c0 57.333 -39 101 -117 131l-65 -258c121.333 4.66699 182 47 182 127z" />
    <glyph glyph-name="percent" unicode="%" horiz-adv-x="1421" 
d="M1387 285c0 -128 -45.667 -216 -137 -264c-44 -23.333 -91.667 -35 -143 -35c-88.667 0 -157.5 26.333 -206.5 79s-73.5 123.667 -73.5 213c0 88 24.833 158.667 74.5 212s118.167 80 205.5 80s155.833 -25.5 205.5 -76.5s74.5 -120.5 74.5 -208.5zM1140 1188
c-48 -28.667 -82.332 -67 -102.999 -115l-407 -958c-14.667 -34.667 -22 -56.334 -22 -65.001c0 -14 9 -30.667 27 -50h-331c47.333 26.667 81.666 65 102.999 115l407 958c14.667 34.667 22 56.334 22 65.001c0 14 -8.66699 30.667 -26 50h330zM592.001 906
c0 -128 -45.665 -216 -136.998 -264c-43.333 -22.667 -91 -34 -143 -34c-88.667 0 -157.334 26.333 -206.001 79s-73 123.667 -73 213c0 88 24.667 158.5 74 211.5s117.666 79.5 204.999 79.5s155.833 -25.5 205.5 -76.5s74.5 -120.5 74.5 -208.5zM1212 282
c0 92.667 -35 139 -105 139c-69.333 0 -104 -47.667 -104 -143c0 -94.667 34.667 -142 104 -142c70 0 105 48.667 105 146zM419.003 903c0 92.667 -35.667 139 -107 139c-69.333 0 -104 -47.333 -104 -142c0 -95.333 34.667 -143 104 -143c71.333 0 107 48.667 107 146z" />
    <glyph glyph-name="ampersand" unicode="&#x26;" horiz-adv-x="1107" 
d="M1075 0l-332 -2.00098c16 19.333 24 35 24 47c0 11.333 -6.66699 31.333 -20 60c-87.333 -87.333 -202 -131 -344 -131c-109.333 0 -197.333 28.667 -264 86c-70.667 60 -106 144 -106 252c0 159.333 91.333 278 274 356c-70.667 8 -121.334 49.667 -152.001 125
c-14 34 -21 71.667 -21 113c0 95.333 37.333 171.666 112 228.999c68.667 52.667 152 79 250 79c96.667 0 176.667 -24 240 -72c70 -52.667 105 -126 105 -220c0 -127.333 -84 -234.333 -252 -321c-130 -66.667 -201 -104.334 -213 -113.001
c-77.333 -52.667 -116.666 -113 -117.999 -181c-1.33301 -46.667 13.334 -83.5 44.001 -110.5s69.667 -40.5 117 -40.5c93.333 0 181 48 263 144c61.333 72 89.666 131.667 84.999 179l-5 51c-5.33301 18.667 -14 34.334 -26 47.001l299 -139
c-48 -4.66699 -79.333 -16.334 -94 -35.001c-3.33301 -3.33301 -24 -37.666 -62 -102.999c2.66699 -11.333 14 -37.666 34 -78.999l52 -106c24 -49.333 60.667 -87.666 110 -114.999zM630 916.999c0 76.667 -47 114.999 -141 114.999c-94.667 0 -142 -43.667 -142 -131
c0 -94.667 47.333 -142 142 -142c94 20.667 141 73.334 141 158.001z" />
    <glyph glyph-name="quotesingle" unicode="'" horiz-adv-x="249" 
d="M216 1222c-8 -8 -12.333 -13.667 -13 -17l1 -7c1.33301 -4.66699 2 -11 2 -19c0 -16 -4.66699 -42.333 -14 -79l-32 -125c-2.66699 -4.66699 -4 -10.334 -4 -17.001c0 -33.333 13.333 -60.666 40 -81.999h-141c24 20 36 53 36 99v0l-36 125c-8 28 -12 53.333 -12 76v14
c1.33301 4.66699 2 8.66699 2 12s-4 10 -12 20h183z" />
    <glyph glyph-name="parenleft" unicode="(" horiz-adv-x="560" 
d="M525 -336l-275.998 -95c18 27.333 27 48.666 27 63.999c-2 4.66699 -7.66699 15.334 -17 32.001c-150.667 216.667 -226 471.334 -226 764.001c0 288.667 77 540.667 231 756l14 25c0 15.333 -8.66699 36.666 -26 63.999l260 -95c-26.667 -8 -46.334 -17 -59.001 -27
l-32 -64c-30.667 -61.333 -55.334 -116 -74.001 -164c-65.333 -168 -98 -332.333 -98 -493c0 -266 51.333 -479.333 154 -640l62 -97c8 -10 28 -20 60 -30z" />
    <glyph glyph-name="parenright" unicode=")" horiz-adv-x="560" 
d="M525 429c0 -292.667 -74.333 -547.335 -223 -764.002c-10 -20 -16.333 -30.667 -19 -32c0 -15.333 8.66699 -36.666 26 -63.999l-276 95c34 10.667 54.333 21.334 61 32.001l61 95c102.667 160 154 373.333 154 640c0 159.333 -32.667 323.666 -98 492.999
c-32.667 84 -56 138.667 -70 164l-36 64c-11.333 10 -30.333 19 -57 27l261 95c-17.333 -27.333 -26 -48.666 -26 -63.999l12 -25c153.333 -215.333 230 -467.333 230 -756z" />
    <glyph glyph-name="asterisk" unicode="*" horiz-adv-x="695" 
d="M661 805c-14 18.667 -34.6641 28.001 -61.9971 28.001l-149 1l75 -130c13.333 -22.667 31.666 -36 54.999 -40l-149 -85c9.33301 23.333 7.66602 45.333 -5.00098 66l-79 131l-74 -129c-12.667 -22 -14.334 -44.333 -5.00098 -67l-151 88c24.667 3.33301 43 16 55 38
l73 130h-151c-26 0 -46 -9 -60 -27l-1 173c15.333 -18.667 35.333 -28 60 -28l152 -1l-77 130c-14 23.333 -31.667 36.666 -53 39.999l149 84c-8.66699 -21.333 -6.66699 -43 6 -65l75 -131l76 129c13.333 22.667 15 45 5 67l151 -88
c-23.333 -3.33301 -41 -15.666 -53 -36.999l-74 -131l149 -2c25.333 -0.666992 46 8.66602 62 27.999v-172z" />
    <glyph glyph-name="plus" unicode="+" 
d="M843 295c-28.667 35.333 -66.334 52.998 -113.001 52.998h-179v-178c0 -32.667 2.33301 -54.334 7 -65.001c6 -14 21.333 -30.667 46 -50h-331c24.667 18.667 40.667 35.334 48 50.001c4.66699 9.33301 7 31 7 65v178h-179c-32.667 0 -54.334 -2 -65.001 -6
c-14 -5.33301 -31 -21 -51 -47v330c19.333 -25.333 36.333 -40.666 51 -45.999c12.667 -4.66699 34.334 -7 65.001 -7h179v178c0 46 -18.333 84.333 -55 115h331c-35.333 -29.333 -53 -67.666 -53 -114.999v-178h179c46.667 0 84.334 17.667 113.001 53v-330z" />
    <glyph glyph-name="comma" unicode="," horiz-adv-x="388" 
d="M354 55c0 -94 -30.668 -166.665 -92.001 -217.998c-56.667 -48 -133 -71.333 -229 -70c50.667 11.333 101.334 38.666 152.001 81.999c57.333 48.667 86 96.667 86 144c0 15.333 -8 22.666 -24 21.999c-20.667 -1.33301 -39 -3.33301 -55 -6
c-18.667 0 -34.667 6.66699 -48 20c-28 28 -45 59 -51 93c-6.66699 38 0.5 69 21.5 93s50.833 36 89.5 36c100 0 150 -65.333 150 -196z" />
    <glyph glyph-name="hyphen" unicode="-" 
d="M843 295c-28.667 35.333 -66.334 52.999 -113.001 52.999h-581c-32.667 0 -54.334 -2 -65.001 -6c-14 -5.33301 -31 -21 -51 -47v330c19.333 -25.333 36.333 -40.666 51 -45.999c12.667 -4.66699 34.334 -7 65.001 -7h581c46.667 0 84.334 17.667 113.001 53v-330z" />
    <glyph glyph-name="hyphen" unicode="&#x2010;" 
d="M843 295c-28.667 35.333 -66.334 52.999 -113.001 52.999h-581c-32.667 0 -54.334 -2 -65.001 -6c-14 -5.33301 -31 -21 -51 -47v330c19.333 -25.333 36.333 -40.666 51 -45.999c12.667 -4.66699 34.334 -7 65.001 -7h581c46.667 0 84.334 17.667 113.001 53v-330z" />
    <glyph glyph-name="period" unicode="." horiz-adv-x="331" 
d="M297 58l-2 -1v-4l-3 2l-124 -65l4 -4l-4 2l-3 -2l2 4l-126 67l-3 -2v3l-2 2h2v134l-5 2l5 1v2h3l124 65l-4 4l6 -2l1 2v-4l129 -70h-5l3 -136h2z" />
    <glyph glyph-name="slash" unicode="/" horiz-adv-x="903" 
d="M870 1188c-48 -27.333 -82.333 -65.666 -103 -114.999l-408 -958c-14 -32.667 -21 -54.334 -21 -65.001c0 -14 8.66699 -30.667 26 -50h-331c46.667 25.333 81 63.666 103 114.999l408 958c14 32.667 21 54.334 21 65.001c0 14 -8.66699 30.667 -26 50h331z" />
    <glyph glyph-name="zero" unicode="0" horiz-adv-x="918" 
d="M884 594c0 -413.333 -142 -620 -426 -620c-283.333 0 -425 206.667 -425 620s141.667 620 425 620c284 0 426 -206.667 426 -620zM673 594c0 292 -71.667 438 -215 438c-90 0 -151.667 -55 -185 -165c-18.667 -61.333 -28 -152.333 -28 -273s9.33301 -211.667 28 -273
c33.333 -110 95 -165 185 -165c143.333 0 215 146 215 438z" />
    <glyph glyph-name="one" unicode="1" horiz-adv-x="500" 
d="M465 0l-328 0.000976562c36 28.667 54 67 54 115l1 716c0 33.333 -0.333008 47 -1 41c3.33301 20.667 -18.667 34 -66 40c-26 3.33301 -56.667 6 -92 8l432 302c-14 -12.667 -28.333 -37.667 -43 -75c-4.66699 -12 -7 -36 -7 -72l-1 -960
c0 -32.667 2.33301 -54.334 7 -65.001c6 -14 20.667 -30.667 44 -50z" />
    <glyph glyph-name="two" unicode="2" horiz-adv-x="924" 
d="M891 -2l-773.004 2c-27.333 0 -47.666 -3.33301 -60.999 -10v62c0 174 49.667 311.667 149 413c39.333 40 134.333 103 285 189c101.333 58 152.666 118 153.999 180c0.666992 60 -10.666 108 -33.999 144c-28 42.667 -70.333 64 -127 64
c-164.667 0 -250.334 -71 -257.001 -213l-194 398c56 -37.333 103.333 -56 142 -56c36.667 0 91.334 7.16699 164.001 21.5s127.334 21.5 164.001 21.5c118 0 209.333 -34.333 274 -103s94.667 -162 90 -280c-3.33301 -94.667 -51 -182.667 -143 -264
c-48.667 -42.667 -133.667 -100.667 -255 -174c-93.333 -56 -141 -99 -143 -129c-4.66699 -64 15 -96 59 -96c6.66699 0 16.834 0.666992 30.501 2s23.834 2 30.501 2c19.333 0 48.333 -0.666992 87 -2s67.667 -2 87 -2c144 0 234.333 48 271 144v-314z" />
    <glyph glyph-name="three" unicode="3" horiz-adv-x="934" 
d="M901 359c0 -120.667 -40.3301 -216.004 -120.997 -286.004c-76.667 -66 -176.334 -99 -299.001 -99c-61.333 0 -170.666 14.333 -327.999 43c-32.667 6 -52.667 9 -60 9c-22 0 -42 -7.66699 -60 -23l127 285c19.333 -54 56 -91 110 -111c37.333 -14 91 -21 161 -21
c164.667 0 247 67.667 247 203c0 84.667 -32.667 141.334 -98 170.001c-46.667 20.667 -116.334 28.667 -209.001 24c40 0 28 1 -36 3c-4.66699 0 -14 -5 -28 -15v202c9.33301 -5.33301 19.666 -10.333 30.999 -15c2.66699 -2.66699 13 -4 31 -4
c81.333 -1.33301 141.333 5.66699 180 21c63.333 24.667 95 70.334 95 137.001c0 46 -17.333 83 -52 111c-32 26 -71.333 39 -118 39c-93.333 0 -159.333 -7 -198 -21c-53.333 -19.333 -88 -58.666 -104 -117.999l-117 304c43.333 -28 76.666 -42 99.999 -42
c40 0 98.5 9.83301 175.5 29.5s135.5 29.5 175.5 29.5c106.667 0 191.667 -24.333 255 -73c70.667 -54 106 -132.667 106 -236c0 -113.333 -52 -200 -156 -260c126.667 -59.333 190 -154.666 190 -285.999z" />
    <glyph glyph-name="four" unicode="4" horiz-adv-x="987" 
d="M953 294c-22 26.667 -40.998 42.667 -56.998 48c-9.33301 3.33301 -34.333 5 -75 5h-24v-232c0 -35.333 2 -57 6 -65c6.66699 -13.333 22.667 -30 48 -50h-331c26 20 41.667 36.667 47 50c4 10 6 31.667 6 65v232l-403 1c-48.667 0 -94.334 -17.667 -137.001 -53l55 136
l266 644c13.333 31.333 19.666 54 18.999 68c0 12 -7.66699 27.667 -23 47h328c-48 -30 -81.667 -68.333 -101 -115l-208 -503h204l-1 24c-1.33301 28 -4.33301 48 -9 60c-6 14.667 -20.333 27.667 -43 39l331 98c-38 -40.667 -56.667 -84 -56 -130l2 -93h24
c40 0 65 1.66699 75 5c17.333 6 36.333 22 57 48v-329zM89.002 431h-1v-4z" />
    <glyph glyph-name="five" unicode="5" horiz-adv-x="944" 
d="M910 395c0 -140 -43.999 -246.667 -131.999 -320c-82 -67.333 -194.333 -101 -337 -101c-56 0 -105.667 4 -149 12c-10 2 -34 11 -72 27c-32.667 14 -55 21 -67 21c-18.667 2.66699 -45 5.66699 -79 9c-3.33301 1.33301 -4 2 -2 2c-11.333 0 -24.333 -2.33301 -39 -7
l111 250c17.333 -48.667 59.666 -85.667 126.999 -111c54.667 -20.667 112.667 -31 174 -31c161.333 0 242 83 242 249c0 142 -71 213 -213 213c-80 0 -144.667 -19 -194 -57h-174l2 548c0 10.667 -0.833008 25.667 -2.5 45s-2.5 34 -2.5 44h697c22 0 41.333 8.66699 58 26
v-301c-37.333 71.333 -98.333 107 -183 107c-19.333 0 -48 -1.5 -86 -4.5s-66.667 -4.5 -86 -4.5c-120 0 -175 -0.666992 -165 -2c-11.333 1.33301 -17 -31 -17 -97v-170c62 32 123.667 48 185 48c127.333 0 226.5 -34.167 297.5 -102.5s106.5 -165.833 106.5 -292.5z" />
    <glyph glyph-name="six" unicode="6" horiz-adv-x="930" 
d="M898 1233l-149.999 -314.999c-0.666992 53.333 -18.667 86.666 -54 99.999c-24.667 9.33301 -78 14 -160 14c-102.667 0 -179 -42 -229 -126c-40.667 -68 -61 -156.667 -61 -266c34 100 120.333 150 259 150c115.333 0 208 -40 278 -120
c67.333 -76 101 -172.333 101 -289c0 -130 -37.667 -230.333 -113 -301s-178.333 -106 -309 -106c-284.667 0 -427 208.333 -427 625c0 170 34.667 309.667 104 419c82.667 130.667 204.667 196 366 196c19.333 0 68.666 -3.66699 147.999 -11
c60 -5.33301 108.667 -6.33301 146 -3c35.333 3.33301 69 14.333 101 33zM676.001 383.001c0 150 -64.667 225 -194 225c-61.333 0 -110 -22.667 -146 -68c-34 -42 -51 -94.333 -51 -157c0 -151.333 60 -227 180 -227c140.667 0 211 75.667 211 227z" />
    <glyph glyph-name="seven" unicode="7" horiz-adv-x="958" 
d="M924 1188l-48.001 -41c-7.33301 -4.66699 -15 -18.334 -23 -41.001l-336 -965c-6 -17.333 -9 -49 -9 -95c0 -16 7 -25 21 -27c22.667 -3.33301 38 -9.66602 46 -18.999h-407l76 72c8.66699 6.66699 18.334 25 29.001 55l269 769c22.667 65.333 33 101.333 31 108
c-0.666992 12.667 -16 19 -46 19h-113c-130 0 -209.667 -3.33301 -239 -10c-70 -16 -117 -59.667 -141 -131l-1 304h3c-9.33301 1.33301 18 2 82 2h806z" />
    <glyph glyph-name="eight" unicode="8" horiz-adv-x="949" 
d="M917 361c0 -125.333 -42.333 -222.334 -127 -291.001c-78 -64 -181 -96 -309 -96c-298.667 0 -448 119.667 -448 359c0 142 65.667 243.333 197 304c-94.667 59.333 -142 145.666 -142 258.999c0 110.667 39.333 193.334 118 248.001c68 46.667 159.667 70 275 70
c113.333 0 204.333 -24 273 -72c80 -55.333 120 -137.333 120 -246c0 -113.333 -47.667 -199.666 -143 -258.999c124 -57.333 186 -149.333 186 -276zM661 881.999c0 100 -61.335 149.999 -184.002 149.999c-49.333 0 -90.666 -13.333 -123.999 -40
c-36 -28.667 -54 -67 -54 -115c0 -49.333 17.667 -87.666 53 -114.999c32.667 -25.333 74.334 -38 125.001 -38c51.333 0 94 13.333 128 40c37.333 28.667 56 68 56 118zM681.998 351.998c0 126.667 -68.333 190.002 -205 190.002c-61.333 0 -111.833 -18.833 -151.5 -56.5
s-59.5 -86.834 -59.5 -147.501c0 -58.667 21 -104.334 63 -137.001c38 -30 87.333 -45 148 -45c61.333 0 110.833 17.5 148.5 52.5s56.5 82.833 56.5 143.5z" />
    <glyph glyph-name="nine" unicode="9" horiz-adv-x="930" 
d="M896 608c0 -170 -34.334 -309.668 -103.001 -419.001c-82 -130.667 -204 -196 -366 -196c-26.667 0 -75.667 3.33301 -147 10c-62 6 -110 7.33301 -144 4c-37.333 -3.33301 -71.666 -14.333 -102.999 -33l151 314c0 -52.667 17.667 -85.667 53 -99
c24.667 -9.33301 77.334 -14 158.001 -14c103.333 0 180 41.667 230 125c41.333 68 62 157 62 267c-33.333 -100 -120.333 -150 -261 -150c-117.333 0 -210 36.333 -278 109c-66.667 70.667 -100 165 -100 283c0 130.667 34.667 233.334 104 308.001
c71.333 77.333 171.666 116 300.999 116c295.333 0 443 -208.333 443 -625zM646.999 823.999c0 63.333 -16.667 116.001 -50 158.001c-36 46 -85 69 -147 69c-130.667 0 -196 -75.667 -196 -227c0 -150 59.667 -225 179 -225c63.333 0 114.833 21.667 154.5 65
s59.5 96.666 59.5 159.999z" />
    <glyph glyph-name="colon" unicode=":" horiz-adv-x="331" 
d="M297 633l-2 -1v-4l-3 2l-124 -65l4 -4l-4 2l-3 -2l2 4l-126 67l-3 -2v3l-2 2h2v134l-5 2l5 2v1h3l124 65l-4 4l6 -2l1 2v-4l129 -70h-5l3 -136h2zM297 33l-2 -2v-4l-3 2l-124 -65l4 -3l-4 1l-3 -1l2 3l-126 67l-3 -2v4l-2 1h2v134l-5 2l5 2v1h3l124 66l-4 3l6 -2l1 2v-3
l129 -71h-5l3 -135h2z" />
    <glyph glyph-name="semicolon" unicode=";" horiz-adv-x="388" 
d="M333 633l-3 -1v-4l-2 2l-124 -65l2 -4l-2 2l-5 -2l4 4l-127 67l-2 -2v3l-2 2h2v134l-5 2l5 2v1h2l123 65l-2 4l6 -2l1 2v-4l129 -70h-5l2 -136h3zM354 55c0 -94 -30.668 -166.665 -92.001 -217.998c-56.667 -48 -133 -71.333 -229 -70
c50.667 11.333 101.334 38.666 152.001 81.999c57.333 48.667 86 96.667 86 144c0 15.333 -8 22.666 -24 21.999c-20.667 -1.33301 -39 -3.33301 -55 -6c-18.667 0 -34.667 6.66699 -48 20c-28 28 -45 59 -51 93c-6.66699 38 0.5 69 21.5 93s50.833 36 89.5 36
c100 0 150 -65.333 150 -196z" />
    <glyph glyph-name="less" unicode="&#x3c;" horiz-adv-x="925" 
d="M893 62h-397.002c12.667 14.667 19 26.667 19 36c0 13.333 -20.667 39 -62 77l-204 189c-36.667 34 -68.667 58 -96 72c-19.333 10 -57.666 23.667 -114.999 41h-5c30.667 9.33301 73.334 25.333 128.001 48c21.333 14 48.333 36 81 66l204 188
c44 40.667 66 66.667 66 78c0 8.66699 -7.66699 20.667 -23 36h397c-33.333 -10 -71 -24 -113 -42c-16.667 -6.66699 -47.667 -30.667 -93 -72l-208 -188c-52.667 -47.333 -84 -84.666 -94 -111.999l5 -2c18 -34.667 49.333 -72.334 94 -113.001l208 -189
c40 -36.667 71.333 -60.667 94 -72c15.333 -8 53.333 -21.667 114 -41z" />
    <glyph glyph-name="equal" unicode="=" 
d="M843 501c-28.667 35.333 -66.333 53 -113 53h-581c-32.667 0 -54.334 -2 -65.001 -6c-14 -5.33301 -31 -21 -51 -47v296c19.333 -25.333 36.333 -41 51 -47c12 -4.66699 33.667 -7 65 -7h581c46.667 0 84.334 18 113.001 54v-296zM843.001 158
c-28.667 35.333 -66.334 53 -113.001 53h-581c-31.333 0 -53 -2.33301 -65 -7c-14.667 -6 -31.667 -21.333 -51 -46v295c19.333 -24.667 36.333 -40 51 -46c12 -4.66699 33.667 -7 65 -7h581c46.667 0 84.334 17.667 113.001 53v-295z" />
    <glyph glyph-name="greater" unicode="&#x3e;" horiz-adv-x="925" 
d="M893 477l-7 -0.00195312c-37.333 -11.333 -75 -25 -113 -41c-17.333 -7.33301 -48.333 -31.333 -93 -72l-208 -189c-41.333 -37.333 -62 -63 -62 -77c0 -9.33301 7.66699 -21.333 23 -36h-400c56 16.667 94.333 30.334 115 41.001c24 12 55.333 36 94 72l204 189
c50 46 82.667 83.667 98 113l5 2c-7.33301 22.667 -39.333 60 -96 112l-204 188c-38 34.667 -70 58.667 -96 72c-21.333 10.667 -59.666 24.667 -114.999 42h400c-15.333 -15.333 -23 -27.333 -23 -36c0 -14.667 20.667 -40.667 62 -78l208 -188
c43.333 -39.333 74.666 -63.666 93.999 -72.999c14 -6.66699 44 -17.667 90 -33z" />
    <glyph glyph-name="question" unicode="?" horiz-adv-x="857" 
d="M824 889c-0.666992 -74 -16.001 -131.166 -46.001 -171.499s-80.333 -70.5 -151 -90.5c-90 -25.333 -144 -43.333 -162 -54c-10 -4 -16.333 -17.667 -19 -41v-117c0 -29.333 8.66699 -59 26 -89h-268c0.666992 0.666992 7.33398 51.667 20.001 153
s28.334 160.333 47.001 177c25.333 22.667 69.333 42.667 132 60c68.667 18.667 114 35.667 136 51c44.667 31.333 67.667 76.666 69 135.999c2 92.667 -64.333 139 -199 139c-69.333 0 -120.333 -11.667 -153 -35c-34.667 -25.333 -60 -71 -76 -137l-147 351
c48 -33.333 94.667 -50 140 -50c29.333 0 72.833 7.16699 130.5 21.5s101.167 21.5 130.5 21.5c111.333 0 202 -25.667 272 -77c79.333 -58 118.666 -140.667 117.999 -248zM468.999 58.001l-4 -1v-4l-1 2l-124 -65l2 -4l-4 2l-3 -2v4l-124 67l-2 -2v3l-3 2h3v134l-3 2l3 1
v2l2 -2l124 67c-1.33301 1.33301 -1.33301 2 0 2c2 0 3 -0.666992 3 -2l126 -70l1 -136h4z" />
    <glyph glyph-name="at" unicode="@" horiz-adv-x="1274" 
d="M1241 443c-54 -150.667 -147.664 -271.001 -280.997 -361.001c-106.667 -72 -203.334 -108 -290.001 -108c-190 0 -342.333 51.667 -457 155c-120 108 -180 256 -180 444c0 186.667 56 339.334 168 458.001c114.667 122 264.667 183 450 183
c163.333 0 300.333 -46.667 411 -140c117.333 -98.667 176 -228.334 176 -389.001c0 -108 -28.667 -208.667 -86 -302c-65.333 -106.667 -148.333 -160 -249 -160c-40 0 -84.667 33.333 -134 100l-14 7c-53.333 -42.667 -111 -64 -173 -64c-131.333 0 -197 66 -197 198
c0 104 46.667 169.667 140 197c9.33301 2.66699 37 7.66699 83 15c86.667 14 131.667 37 135 69c0 41.333 -33.667 62 -101 62c-32 0 -93.333 -19 -184 -57v-3c-8.66699 -2.66699 -14.334 -5 -17.001 -7c-12.667 -4.66699 -19 -23 -19 -55l-7 -3l-49 238l7 4
c6.66699 -17.333 12.334 -27.333 17.001 -30c3.33301 -4.66699 8 -7 14 -7c3.33301 0 7 0.666992 11 2l18 5c153.333 42.667 227.666 64 222.999 64c150.667 0 226 -77.333 226 -232c0 -12.667 -1 -28.667 -3 -48l3 -2v-249h2c0 -53.333 17.333 -80 52 -80
c49.333 0 92 45 128 135c30 74.667 45 142.334 45 203.001c0 122 -46 221.667 -138 299c-87.333 73.333 -193 110 -317 110c-148 0 -268.667 -56 -362 -168c-87.333 -104.667 -131 -232.667 -131 -384c0 -128 51 -238.333 153 -331
c99.333 -89.333 213.666 -134 342.999 -134c138.667 0 262 34 370 102c68 43.333 139.333 131.333 214 264zM743.003 615.999c-19.333 -40 -58 -64.667 -116 -74c-68.667 -11.333 -103 -37 -103 -77c0 -45.333 26.667 -68 80 -68c62 0 104.333 26.667 127 80
c8 18.667 12 65 12 139z" />
    <glyph glyph-name="A" unicode="A" horiz-adv-x="1169" 
d="M1136 0l-351.001 0.000976562c28 34 42 63.333 42 88c0 20 -9.5 66 -28.5 138s-33.5 116.333 -43.5 133h-353c-13.333 -20.667 -29.833 -66.334 -49.5 -137.001s-29.5 -119 -29.5 -145c0 -33.333 11.333 -59 34 -77h-324c42.667 47.333 89.334 145.666 140.001 294.999
l304 893h242l278 -893c44 -141.333 90.333 -239.666 139 -294.999zM705.999 530.001l-117 394h-4l-127 -394h248z" />
    <glyph glyph-name="B" unicode="B" horiz-adv-x="1094" 
d="M1059 359c0 -117.333 -44.667 -209.667 -134 -277c-80.667 -61.333 -181.334 -92 -302.001 -92c-49.333 0 -123.166 1.66699 -221.499 5s-172.166 5 -221.499 5c-40 0 -89 8 -147 24c46.667 38 70 97.667 70 179v801c0 43.333 -3.33301 73.666 -10 90.999
c-8.66699 22.667 -28.667 45.667 -60 69c37.333 16 96.666 24 177.999 24c41.333 0 102.833 1.66699 184.5 5s143.167 5 184.5 5c119.333 0 215 -21.667 287 -65c89.333 -53.333 134 -135.666 134 -246.999c0 -108 -56.667 -186 -170 -234v-3c152 -33.333 228 -130 228 -290
zM778 866.999c0 106.667 -78.667 160 -236 160c-16 0 -39.667 0.833008 -71 2.5s-55 2.5 -71 2.5c-49.333 0 -74 -20 -74 -60v-201c0 -46.667 51.333 -70 154 -70c4 0 11 0.333008 21 1h23c64.667 -1.33301 120 9.66699 166 33c58.667 29.333 88 73.333 88 132zM836 360.999
c0 76.667 -31.665 132.333 -94.998 167c-51.333 28 -117.666 40.333 -198.999 37c-24.667 4.66699 -50.334 7 -77.001 7c-92.667 0 -139 -25.333 -139 -76v-237c0 -48 16.667 -77.667 50 -89c17.333 -6 66.666 -9 147.999 -9c77.333 0 144.666 14 201.999 42
c73.333 36 110 88.667 110 158z" />
    <glyph glyph-name="C" unicode="C" horiz-adv-x="927" 
d="M893 1215l-119 -337.999c-1.33301 -1.33301 -3 -2.33301 -5 -3l-2 3c-32 96 -114.333 144 -247 144c-174.667 0 -262 -145.667 -262 -437c0 -258 93 -387 279 -387c57.333 0 99.333 24.667 126 74c8.66699 28.667 18.334 58 29.001 88l194 -21
c-10.667 -242.667 -145.334 -364 -404.001 -364c-159.333 0 -277.666 66 -354.999 198c-62.667 107.333 -94 246.333 -94 417c0 169.333 33.667 310 101 422c81.333 135.333 202 203 362 203c54 0 107.667 -5.66699 161 -17c51.333 -10.667 92.666 -19 123.999 -25
c26.667 -4.66699 64 9.66602 112 42.999z" />
    <glyph glyph-name="D" unicode="D" horiz-adv-x="1068" 
d="M1033 630c0 -426.667 -190.333 -639.999 -571 -639.999c-31.333 0 -78.333 1.66699 -141 5s-109.667 5 -141 5c-35.333 0 -84.333 8 -147 24c46.667 38 70 97.667 70 179v801c0 43.333 -3.33301 73.666 -10 90.999c-8.66699 22.667 -28.667 45.667 -60 69
c84.667 22.667 195 34 331 34h136c174 0 307.333 -52 400 -156c88.667 -98.667 133 -236 133 -412zM810 609.001c0 278.667 -102.333 418 -307 418c-12 0 -30 0.5 -54 1.5s-42 1.5 -54 1.5c-46 0 -69 -21.667 -69 -65v-726c0 -52.667 21.667 -79 65 -79h74h10
c1.33301 0.666992 0.333008 1 -3 1c225.333 0 338 149.333 338 448z" />
    <glyph glyph-name="E" unicode="E" horiz-adv-x="960" 
d="M927 -21c-22.667 20 -152.666 29.999 -389.999 29.999c-8 0 -41.333 -0.666992 -100 -2c-78.667 -1.33301 -151.667 -2.66602 -219 -3.99902l-185 -3c35.333 27.333 53 83 53 167v854c0 84 -17.667 139.667 -53 167c56 0 140 -2.66699 252 -8s196 -8 252 -8
c178.667 0 296 14 352 42v-296c-5.33301 54 -26 86.667 -62 98c-14.667 4.66699 -61 7 -139 7h-20l-36 2h-67c-170.667 0 -256 -47 -256 -141v-168c46.667 -4.66699 106.334 -7 179.001 -7h49c7.33301 0 16 -0.666992 26 -2h14c52.667 0 97.334 24.667 134.001 74v-311
c-20.667 47.333 -55 71 -103 71c-152.667 0 -252.334 -2.33301 -299.001 -7v-228c0 -92 51.667 -138 155 -138c12.667 0 31.167 1.16699 55.5 3.5s42.833 3.5 55.5 3.5c19.333 0 48.166 -1.33301 86.499 -4s67.166 -4 86.499 -4c100 0 159.667 38.333 179 115v-303z" />
    <glyph glyph-name="F" unicode="F" horiz-adv-x="750" 
d="M786 941c-6.66699 34.667 -25.335 57.334 -56.002 68.001c-22 7.33301 -61 11 -117 11c-14.667 0 -39.667 -0.666992 -75 -2c-31.333 -1.33301 -56 -2 -74 -2c-55.333 1.33301 -89.666 -0.333984 -102.999 -5.00098c-34.667 -11.333 -52 -36.333 -52 -75v-222
c30.667 -2 88.334 -3 173.001 -3c58.667 0 90.334 1 95.001 3c11.333 3.33301 33.666 24 66.999 62v-299c-25.333 34.667 -46.666 54.667 -63.999 60c-4.66699 1.33301 -37.334 2 -98.001 2c-75.333 0 -133 -1 -173 -3v-421c0 -34 2.33301 -55.667 7 -65
c6.66699 -14 22.667 -30.667 48 -50h-331c24.667 19.333 40.667 36 48 50c3.33301 10 5 31.667 5 65v906c0 84 -17.667 139.667 -53 167h642c38.667 0 75.667 8.66699 111 26v-273z" />
    <glyph glyph-name="G" unicode="G" horiz-adv-x="958" 
d="M924 -201l-311.001 0.00195312c24 19.333 38.667 36 44 50c6 10 9 31.667 9 65v117c-49.333 -38 -110.666 -57 -183.999 -57c-159.333 0 -277.666 66 -354.999 198c-62.667 107.333 -94 246.333 -94 417c0 169.333 33.667 310 101 422c81.333 135.333 202 203 362 203
c54 0 107.667 -5.66699 161 -17c51.333 -10.667 92.666 -19 123.999 -25c26.667 -4.66699 64 9.66602 112 42.999l-119 -355c-1.33301 -1.33301 -3 -2.33301 -5 -3l-2 3c-13.333 63.333 -42.333 107.333 -87 132c-36 19.333 -89.333 29 -160 29
c-174.667 0 -262 -145.667 -262 -437c0 -258 93 -387 279 -387c58.667 0 101.667 28.333 129 85v281c0 44.667 -17.667 83 -53 115h311c-34.667 -30.667 -52 -69 -52 -115v-649c0 -32.667 2.33301 -54.334 7 -65.001c6 -14 21 -30.667 45 -50z" />
    <glyph glyph-name="H" unicode="H" horiz-adv-x="1028" 
d="M996 0l-330 0.000976562c14 17.333 29 34.666 45 51.999c4.66699 8 7 28 7 60v437h-409v-437c0 -32 2.33301 -52 7 -60l48 -52h-331c24.667 19.333 40.667 36 48 50c3.33301 10 5 31.667 5 65v958c0 46.667 -17.667 85 -53 115h314c-24 -26.667 -36.667 -44 -38 -52v-415
h409v355c0 44.667 0.333008 64.667 1 60c-2 8 -14.333 25.333 -37 52h314c-36.667 -30.667 -55 -69 -55 -115v-958c0 -34 2.33301 -55.667 7 -65c6.66699 -14 22.667 -30.667 48 -50z" />
    <glyph glyph-name="I" unicode="I" horiz-adv-x="397" 
d="M362 0l-329 -0.000976562c24.667 19.333 40 36 46 50c4.66699 10.667 7 32.334 7 65.001v958c0 46.667 -17.667 85 -53 115h329c-35.333 -32 -53 -70.333 -53 -115v-958c0 -34 2.33301 -55.667 7 -65c6.66699 -14 22 -30.667 46 -50z" />
    <glyph glyph-name="J" unicode="J" horiz-adv-x="843" 
d="M809 1188c-36 -32 -54 -70.333 -54 -115v-841c0 -113.333 -29 -201.333 -87 -264c-60 -64.667 -146.333 -97 -259 -97c-48.667 0 -101 8.66699 -157 26l-123 38c-15.333 4.66699 -47.333 1 -96 -11l178 309c-1.33301 -40 16.667 -80 54 -120s76 -60 116 -60
c100.667 0 151 59 151 177v843c0 46 -17 84.333 -51 115h328z" />
    <glyph glyph-name="K" unicode="K" horiz-adv-x="1155" 
d="M1121 0l-433 0.00390625l40 29c9.33301 11.333 14 26.333 14 45c0 43.333 -8 74.666 -24 93.999l-306 366l-103 -108v-314c0 -33.333 1.66699 -54 5 -62c3.33301 -12.667 14.333 -29.334 33 -50.001h-314c24.667 19.333 40.667 36 48 50c3.33301 10 5 31.667 5 65v958
c0 46.667 -17.667 85 -53 115h331l-48 -52c-4.66699 -8 -7 -28 -7 -60v-381l287 323c49.333 55.333 74 96.666 74 123.999c0 12 -12.667 27.333 -38 46h389c-78.667 -63.333 -146.667 -127.333 -204 -192l-263 -297l428 -553c20.667 -26.667 67 -75.334 139 -146.001z" />
    <glyph glyph-name="L" unicode="L" horiz-adv-x="773" 
d="M738 -21c-14.667 12.667 -25.998 19.668 -33.998 21.001h-618v1073c0 46.667 -17.667 85 -53 115h312c-24 -18.667 -36 -57 -36 -115v-836c0 -46.667 12 -70 36 -70c7.33301 0 18.666 0.833008 33.999 2.5s27 2.5 35 2.5
c103.333 -2.66699 170.666 0.666016 201.999 9.99902c55.333 16.667 96 56 122 118v-321z" />
    <glyph glyph-name="M" unicode="M" horiz-adv-x="1415" 
d="M1380 0l-345.001 -0.000976562c36.667 32 56.667 51 60 57c19.333 26 29 64.667 29 116v854h-3l-336 -1027h-177l-316 996h-4v-823c0 -51.333 10.333 -90 31 -116c2.66699 -6 22.334 -25 59.001 -57h-345c24.667 19.333 40 36 46 50c4.66699 10.667 7 32.334 7 65.001
v958c0 46.667 -17.667 85 -53 115h376l291 -862h4l292 859l384 3c-35.333 -32 -53 -70.333 -53 -115v-958c0 -34 2.33301 -55.667 7 -65c6.66699 -14 22 -30.667 46 -50z" />
    <glyph glyph-name="N" unicode="N" horiz-adv-x="1028" 
d="M996 1188c-28 -22.667 -42.999 -36 -44.999 -40c-6.66699 -8 -10 -27.333 -10 -58v-1006c0 -40 8 -68 24 -84h-242l-421 851h-3v-702c0 -86.667 16 -136.334 48 -149.001h-314c29.333 22.667 44.666 35.667 45.999 39c4.66699 8.66699 7 28.334 7 59.001v975
c0 52.667 -12 91 -36 115h297l377 -786h6v671c0 33.333 -2 55 -6 65c-4 24 -18 40.667 -42 50h314z" />
    <glyph glyph-name="O" unicode="O" horiz-adv-x="1042" 
d="M1008 594c0 -413.333 -162.667 -620 -488 -620c-324.667 0 -487 206.667 -487 620s162.333 620 487 620c325.333 0 488 -206.667 488 -620zM803 594c0 292 -94.333 438 -283 438c-186.667 0 -280 -146 -280 -438s93.333 -438 280 -438c188.667 0 283 146 283 438z" />
    <glyph glyph-name="P" unicode="P" horiz-adv-x="908" 
d="M874 850c0 -211.333 -114 -335.666 -342 -372.999c-42.667 -7.33301 -79.667 -10 -111 -8c-20 1.33301 -42.333 4.66602 -67 9.99902l-31 7c-7.33301 0 -10.333 -5.66699 -9 -17l2 -344c0 -43.333 4 -69.666 12 -78.999c2 -6.66699 19.667 -22 53 -46h-348l53 38
c4.66699 8 7 30.667 7 68v1000c-6 16.667 -23.333 36 -52 58c3.33301 1.33301 23 8.66602 59 21.999c21.333 8 41.666 12 60.999 12h347c112.667 0 201.834 -30 267.501 -90s98.5 -146 98.5 -258zM663 867c0 55.333 -18.665 98 -55.998 128
c-34.667 28 -80.334 42 -137.001 42c-66.667 0 -103.667 -1.33301 -111 -4c-28.667 -10.667 -43 -39.667 -43 -87v-261c49.333 -11.333 92.666 -17 129.999 -17c144.667 0 217 66.333 217 199z" />
    <glyph glyph-name="Q" unicode="Q" horiz-adv-x="1042" 
d="M1008 -215l-330 -3c14.667 19.333 22 35.333 22 48c0 13.333 -7.33301 35.666 -22 66.999l-41 88c-36.667 -7.33301 -75.667 -11 -117 -11c-324.667 0 -487 206.667 -487 620s162.333 620 487 620c325.333 0 488 -206.667 488 -620c0 -252.667 -62 -429 -186 -529
l79 -165c23.333 -49.333 59 -87.666 107 -114.999zM785 594c0 292 -88.332 438.001 -264.999 438.001c-174.667 0 -262 -146 -262 -438s87.333 -438 262 -438c11.333 0 23.333 0.666992 36 2l-135 283c-24.667 51.333 -60.334 89.666 -107.001 114.999l330 4
c-16 -20 -24 -36 -24 -48c0 -10.667 8 -33 24 -67l79 -169c41.333 74.667 62 180.667 62 318z" />
    <glyph glyph-name="R" unicode="R" horiz-adv-x="936" 
d="M903 0l-329.999 -0.000976562c15.333 18 23 33.333 23 46c0 6 -7 29 -21 69l-124 354c-18.667 -1.33301 -46.334 1 -83.001 7c-38.667 6.66699 -53.667 10 -45 10c-7.33301 0 -10.333 -5.66699 -9 -17l2 -344c0 -43.333 4 -69.666 12 -78.999
c2 -6.66699 19.667 -22 53 -46h-348l53 38c4.66699 8 7 30.667 7 68v1000c-6 16.667 -23.333 36 -52 58c3.33301 1.33301 23 8.66602 59 21.999c21.333 8 41.666 12 60.999 12h347c112.667 0 201.834 -30 267.501 -90s98.5 -146 98.5 -258
c0 -167.333 -72.333 -280 -217 -338l6 -12l135 -385c16.667 -47.333 51.667 -85.666 105 -114.999zM663.001 866.999c0 55.333 -18.665 98 -55.998 128c-34.667 28 -80.334 42 -137.001 42c-66.667 0 -103.667 -1.33301 -111 -4c-28.667 -10.667 -43 -39.667 -43 -87v-261
c49.333 -11.333 92.666 -17 129.999 -17c144.667 0 217 66.333 217 199z" />
    <glyph glyph-name="S" unicode="S" horiz-adv-x="977" 
d="M944 348c0 -116.667 -40.668 -209.001 -122.001 -277.001c-76 -64.667 -173.333 -97 -292 -97c-45.333 0 -105.333 12 -180 36c-86 28 -145.333 43.667 -178 47s-79 -10 -139 -40l144 319c24 -56 71 -101 141 -135c62.667 -30 127.334 -45 194.001 -45
c138 0 207 55.667 207 167c0 78 -46.667 137 -140 177l-232 99c-135.333 58 -203 150.667 -203 278c0 106.667 41 191 123 253c74.667 56 167 84 277 84c26 0 65.5 -4.16699 118.5 -12.5s93.167 -12.166 120.5 -11.499c40 0.666992 83.333 13 130 37l-123 -336
c-14 62.667 -40.333 103.334 -79 122.001c-26.667 12.667 -77 19 -151 19c-121.333 0 -182 -44 -182 -132c0 -60.667 52.667 -111.334 158 -152.001l164 -63c162.667 -62.667 244 -175 244 -337z" />
    <glyph glyph-name="T" unicode="T" horiz-adv-x="980" 
d="M946 1231l-32.998 -340h-5c-16 73.333 -40 117.333 -72 132c-14.667 6.66699 -60.334 10 -137.001 10c-40 0 -64.667 -2.66699 -74 -8c-16 -9.33301 -24 -31 -24 -65v-845c0 -27.333 8 -49 24 -65l63 -50h-398c22 16 43.333 32.667 64 50c16 16 24 37.667 24 65v845
c0 34 -8 55.667 -24 65c-9.33301 5.33301 -34 8 -74 8c-78 0 -124 -3.33301 -138 -10c-30.667 -14.667 -54 -58.667 -70 -132h-5l-34 340c44.667 -28.667 75 -43 91 -43h731c17.333 0 47.666 14.333 90.999 43z" />
    <glyph glyph-name="U" unicode="U" horiz-adv-x="1008" 
d="M975 1188c-24 -18.667 -37.001 -32.335 -39.001 -41.002c2 6.66699 3 -12.333 3 -57v-618c0 -167.333 -33.667 -290.666 -101 -369.999c-73.333 -85.333 -192.333 -128 -357 -128c-123.333 0 -220.666 28 -291.999 84c-79.333 61.333 -119 152 -119 272v760
c0 44.667 0.666992 63.667 2 57c-1.33301 8.66699 -14.333 22.334 -39 41.001h297c-24 -26.667 -36.667 -44 -38 -52v-758c0 -148 67.333 -222 202 -222c148 0 222 74 222 222v716c0 32 -2.33301 52.333 -7 61c-1.33301 3.33301 -11 14.333 -29 33h295z" />
    <glyph glyph-name="V" unicode="V" horiz-adv-x="1159" 
d="M1126 1188c-49.333 -40.667 -84.333 -92.667 -105 -156l-336 -1032h-220l-309 1003c-12.667 42 -28 76.333 -46 103c-6.66699 10 -32.334 37.333 -77.001 82h382c-21.333 -16 -34.833 -29.167 -40.5 -39.5s-8.5 -28.5 -8.5 -54.5c0 -38 6.33301 -80 19 -126l187 -683
l24 -5l197 692c14.667 51.333 22 93 22 125c0 26 -2.66699 43.833 -8 53.5s-18.666 22.167 -39.999 37.5h359z" />
    <glyph glyph-name="W" unicode="W" horiz-adv-x="1576" 
d="M1543 1188c-54.667 -60.667 -90.667 -136.666 -108 -227.999l-184 -960h-221l-223 851h-4l-211 -851h-235l-201 922c-26.667 122.667 -67.667 211.334 -123 266.001h345c-20 -16 -32 -28 -36 -36v-48c0 -20 4.33301 -54.333 13 -103l122 -685h4l233 874l191 -2l223 -893
h5l112 663c11.333 67.333 17 118.666 17 153.999c0 33.333 -12 58.666 -36 75.999h317z" />
    <glyph glyph-name="X" unicode="X" horiz-adv-x="1214" 
d="M1181 0l-394.999 -0.000976562c9.33301 6.66699 19 13 29 19c4.66699 5.33301 7 15 7 29c0 37.333 -31.333 107.666 -94 210.999l-132 217c-70.667 -115.333 -112 -183.666 -124 -204.999c-54 -98 -81 -168.333 -81 -211c0 -18 15.667 -38 47 -60h-405
c71.333 49.333 154.666 154.666 249.999 315.999c27.333 46 89.666 157 186.999 333c-84 158 -137.667 256.333 -161 295c-80 132.667 -146.333 214 -199 244h393l-33 -12c-5.33301 -2 -8 -10 -8 -24c0 -33.333 25 -91.666 75 -174.999
c58.667 -97.333 91.334 -155.333 98.001 -174c113.333 184.667 170 297.667 170 339c0 14.667 -2.66699 24.334 -8 29.001c-12 5.33301 -22.333 11 -31 17h384c-72 -48 -145.667 -136.667 -221 -266c-2 -3.33301 -58.667 -103 -170 -299l183 -333
c61.333 -111.333 141 -208 239 -290z" />
    <glyph glyph-name="Y" unicode="Y" horiz-adv-x="1107" 
d="M1075 1188c-52.667 -36 -118.669 -127.668 -198.002 -275.001l-228 -420v-400c0 -30 2.33301 -48.333 7 -55c2 -10.667 14.667 -23.334 38 -38.001h-303c24 12.667 38 24 42 34c3.33301 4.66699 5 24.334 5 59.001v400c-30 58 -68.333 136.333 -115 235l-136 290
c-27.333 58.667 -78.666 115.334 -153.999 170.001h386c-20.667 -18.667 -31 -40.334 -31 -65.001c0 -20 14.333 -60 43 -120c64.667 -135.333 106.334 -226 125.001 -272c14 23.333 43.333 83 88 179c52.667 112.667 79 186.334 79 221.001c0 15.333 -4.66699 27 -14 35
c-14 8 -26 15.333 -36 22h402z" />
    <glyph glyph-name="Z" unicode="Z" horiz-adv-x="939" 
d="M905 -3c-6 2 -59.335 3.00098 -160.002 3.00098h-712l461 896c26.667 76.667 40 112.667 40 108c0 9.33301 -8.66699 14 -26 14c0.666992 0 -12 -0.666992 -38 -2c-20.667 -1.33301 -39 -1.33301 -55 0c-41.333 2.66699 -77.666 4 -108.999 4
c-84.667 0 -137 -10.333 -157 -31c-9.33301 -9.33301 -24 -47 -44 -113l-4 -4v325c10.667 -6 41 -9 91 -9h697l-429 -831c-11.333 -29.333 -29 -72.666 -53 -129.999c-6 -14 -9 -23.333 -9 -28c0 -16.667 13.667 -25.334 41 -26.001c18.667 0 55.334 -0.333008 110.001 -1
c119.333 -2.66699 194 -2.33398 224 0.999023c44 4.66699 73.667 15 89 31c11.333 28 25 58 41 90l2 3v-300z" />
    <glyph glyph-name="bracketleft" unicode="[" horiz-adv-x="477" 
d="M445 -422c-4 8 -19 18.668 -45 32.001l-367 69c10 6.66699 15 32 15 76v1323c0 43.333 -5 68.666 -15 75.999l367 68c14 2.66699 29 13.667 45 33v-249c-17.333 30 -32.333 43.667 -45 41l-167 -34v-1193l167 -35c12.667 -2.66699 27.667 11.333 45 42v-249z" />
    <glyph glyph-name="backslash" unicode="\" horiz-adv-x="903" 
d="M870 0h-331c17.333 19.333 26 36 26 50c0 10.667 -7 32.334 -21 65.001l-408 958c-22 51.333 -56.333 89.666 -103 114.999h331c-17.333 -19.333 -26 -36 -26 -50c0 -10.667 7 -32.334 21 -65.001l408 -958c22 -51.333 56.333 -89.666 103 -114.999z" />
    <glyph glyph-name="bracketright" unicode="]" horiz-adv-x="477" 
d="M445 -321l-366.001 -69c-15.333 -2.66699 -30.666 -13.334 -45.999 -32.001v249c16.667 -30.667 32 -44.667 46 -42l163 35v1193l-163 34c-14 2.66699 -29.333 -11 -46 -41v249c2 -8 17.333 -19 46 -33l366 -68c-12 -7.33301 -18 -32.666 -18 -75.999v-1323
c0 -44 6 -69.333 18 -76z" />
    <glyph glyph-name="asciicircum" unicode="^" horiz-adv-x="850" 
d="M817 671h-324v19c30.667 8 46 25.333 46 52c0 24 -6.33301 46.333 -19 67l-87 140l-93 -144c-11.333 -17.333 -17 -39.666 -17 -66.999c0 -26 16 -43 48 -51v-19h-338v19c22.667 4 41 17.667 55 41l197 323c14.667 24 22 48 22 72c0 29.333 -15.333 47.666 -46 54.999v19
h328v-19c-30 -7.33301 -45 -25.666 -45 -54.999c0 -27.333 7 -51.333 21 -72l166 -246c14 -21.333 24.333 -46 31 -74c12.667 -22.667 31 -36.334 55 -41.001v-19z" />
    <glyph glyph-name="underscore" unicode="_" horiz-adv-x="929" 
d="M896 -422c-30 35.333 -68.333 53 -115 53h-632c-31.333 0 -53 -2.33301 -65 -7c-14.667 -6 -31.667 -21.333 -51 -46v226c19.333 -24.667 36.333 -40 51 -46c12 -4.66699 33.667 -7 65 -7h632c46.667 0 85 17.667 115 53v-226z" />
    <glyph glyph-name="grave" unicode="`" horiz-adv-x="534" 
d="M501 989l-278 2.00195c8 13.333 12 25.666 12 36.999c0 16 -14.333 42 -43 78l-24 30c-41.333 52 -86.333 90.333 -135 115l278 -1c-6.66699 -14 -10 -26 -10 -36c0 -2.66699 0.333008 -6.33398 1 -11.001c1.33301 -10 14.666 -32.667 39.999 -68l22 -31
c32.667 -46.667 78.334 -85 137.001 -115z" />
    <glyph glyph-name="a" unicode="a" horiz-adv-x="925" 
d="M891 -14l-216 0.000976562l-24 79c-87.333 -56 -179 -84 -275 -84c-90 0 -162.667 20 -218 60c-64 45.333 -96 111.333 -96 198c0 64.667 21.667 120.667 65 168c40 44 92.667 73.667 158 89c24 5.33301 67 11.666 129 18.999c136 15.333 207 45.666 213 90.999
c0 54 -52.667 81 -158 81c-49.333 0 -145.666 -25.333 -288.999 -76v-3c-16 -4 -24.333 -7 -25 -9c-20 -7.33301 -30 -31.333 -30 -72l-10 -3l-82 309l12 5c17.333 -31.333 34.333 -47 51 -47c6 0 11.333 0.666992 16 2l25 7c195.333 54.667 312.666 82 351.999 82
c160 0 265.333 -41 316 -123c27.333 -44.667 41 -103.667 41 -177c0 -17.333 -1 -38.666 -3 -63.999l3 -3l2 -383c0 -3.33301 -0.666992 -6.66602 -2 -9.99902v-52c0 -32.667 15 -54.334 45 -65.001v-19zM627 438.001c-30 -52 -90.668 -84 -182.001 -96
c-55.333 -7.33301 -92.666 -15.333 -111.999 -24c-35.333 -16 -53 -41.333 -53 -76c0 -59.333 43 -89 129 -89c96.667 0 163 35 199 105c12.667 24.667 19 84.667 19 180z" />
    <glyph glyph-name="b" unicode="b" horiz-adv-x="882" 
d="M848 431c0 -179.333 -59.999 -309.331 -179.999 -389.998c-60 -40 -127.667 -60 -203 -60c-67.333 0 -128 18.333 -182 55l-5 -53h-245v20c27.333 9.33301 42.666 27.666 45.999 54.999v0v1049c-4.66699 19.333 -20 33.666 -46 42.999v19h295v-19
c-24 -9.33301 -39 -24 -45 -44v-284c57.333 40 119.666 60 186.999 60c74.667 0 142.334 -19.333 203.001 -58c116.667 -74.667 175 -205.667 175 -393zM637.001 431.002c0 180.667 -59.667 271.001 -179 271.001c-56.667 0 -100.667 -21.667 -132 -65
c-28.667 -38.667 -43 -87.334 -43 -146.001v-137c0 -128.667 56 -193 168 -193c66 0 115.333 30 148 90c25.333 47.333 38 107.333 38 180z" />
    <glyph glyph-name="c" unicode="c" horiz-adv-x="838" 
d="M803 134l-8.00195 -15.998c-9.33301 2.66699 -17.333 4 -24 4c-9.33301 0 -23.666 -7.33301 -42.999 -22l-79 -59c-53.333 -40 -124.333 -60 -213 -60c-131.333 0 -232.333 41.333 -303 124c-66.667 77.333 -100 182.666 -100 315.999c0 192 64.667 323 194 393
c62.667 34 132.334 51 209.001 51c80 0 148.667 -17 206 -51v0l31 -21c12.667 -12.667 37.667 -31.667 75 -57c4.66699 -2 10 -3 16 -3c8 0 16 1.66699 24 5l9 -17l-255 -180l-8 15c13.333 17.333 20.666 31 21.999 41c2 17.333 -1.33301 31.666 -10 42.999l-12 16v1
c-25.333 20.667 -56.333 31 -93 31c-131.333 0 -197 -88 -197 -264c0 -177.333 63.333 -266 190 -266c42.667 0 78.334 11.333 107.001 34l12 23c10 18.667 13.333 33 10 43c-2 11.333 -9.33301 25 -22 41l8 15z" />
    <glyph glyph-name="d" unicode="d" horiz-adv-x="882" 
d="M848 -17l-244 -0.000976562l-5 53c-54 -36.667 -115.333 -55 -184 -55c-72.667 0 -139 20 -199 60c-122 81.333 -183 211.333 -183 390c0 186.667 58.667 317.667 176 393c60.667 38.667 128.334 58 203.001 58c67.333 0 129.666 -20 186.999 -60v284
c-4.66699 20 -19.667 34.667 -45 44v19h294v-19c-24 -9.33301 -39 -23.666 -45 -42.999v-1049c0 -26.667 15 -45 45 -55v-20zM599 353.999v137c0 59.333 -14.333 108.333 -43 147c-32 42.667 -76.667 64 -134 64c-116.667 0 -175 -90.333 -175 -271
c0 -180 61.333 -270 184 -270c100.667 0 156.667 64.333 168 193z" />
    <glyph glyph-name="e" unicode="e" horiz-adv-x="903" 
d="M870 172l-7.00098 -17.002c-5.33301 0.666992 -10.333 1 -15 1c-16 0 -34.333 -12.667 -55 -38l-3 -3l-45 -57c-54 -51.333 -142.667 -77 -266 -77c-140.667 0 -250 37.667 -328 113s-117 183 -117 323c0 136 35 243.667 105 323c72.667 83.333 176.334 125 311.001 125
c116 0 212.5 -37.333 289.5 -112s115.5 -170 115.5 -286c0 -14 -0.666992 -39.667 -2 -77h-601c1.33301 -70.667 21.833 -126.667 61.5 -168s94.834 -62.666 165.501 -63.999c54 -1.33301 93 8.33398 117 29.001l20 26c7.33301 9.33301 8.66602 25.333 3.99902 48
c-3.33301 10 -12 22 -26 36l7 19zM632.999 540.998c-19.333 98 -80 147 -182 147c-104 0 -167.333 -49 -190 -147h372z" />
    <glyph glyph-name="f" unicode="f" horiz-adv-x="530" 
d="M575 1234l-59.9971 -309.001l-15 4c-1.33301 38 -15.333 60.667 -42 68c-44.667 12 -71.334 18 -80.001 18c-14 0 -24.333 -4 -31 -12c-9.33301 -11.333 -14 -79.666 -14 -204.999v-5h62c28.667 0 47.334 18.333 56.001 55h14v-285h-14
c-8.66699 36.667 -27.334 55 -56.001 55h-60v-534c0 -32 16 -53 48 -63v-21h-297v21c29.333 10 44 31 44 63v534h-25c-28.667 0 -47.667 -18.333 -57 -55h-15v285h15c9.33301 -36.667 28.333 -55 57 -55h29v110c0 108 13 183 39 225c37.333 60.667 101.666 91 192.999 91
c37.333 0 82 -7.33301 134 -22c29.333 0 49.666 13.667 60.999 41z" />
    <glyph glyph-name="g" unicode="g" horiz-adv-x="915" 
d="M882 862c-27.333 -8 -42.668 -26.333 -46.001 -55h3l2 -781c0 -136.667 -36 -243.334 -108 -320.001c-73.333 -78.667 -178 -118 -314 -118c-92.667 0 -170 20 -232 60v0l-77 58c-5.33301 3.33301 -15 10.333 -29 21c-3.33301 1.33301 -8 2 -14 2
c-8 0 -16 -1.33301 -24 -4l-10 16l252 180l10 -15c-11.333 -16.667 -18.666 -30.667 -21.999 -42c-2.66699 -9.33301 1.33301 -23.666 12 -42.999l12 -22c27.333 -22.667 68.666 -34 123.999 -34c137.333 0 206 87 206 261l5 1v16c-57.333 -40 -119.666 -60 -186.999 -60
c-73.333 0 -140 19.333 -200 58c-117.333 75.333 -176 206.333 -176 393c0 177.333 60 307.333 180 390c58 40 125.333 60 202 60c68 0 128.333 -18.333 181 -55l5 53h245v-20zM631.998 374l0.000976562 139c0 127.333 -56 191 -168 191c-122.667 0 -184 -90 -184 -270
c0 -180.667 59.333 -271 178 -271c57.333 0 101.666 21.667 132.999 65c27.333 38 41 86.667 41 146z" />
    <glyph glyph-name="h" unicode="h" horiz-adv-x="879" 
d="M846 2h-46v-2h-206v2h-45v19c25.333 8 40.333 22.333 45 43v441c0 106 -44 159 -132 159c-78 0 -130.667 -31.333 -158 -94c-14 -32 -21 -76.667 -21 -134v-372c3.33301 -23.333 18.333 -39 45 -47v-20h-295v20c24.667 8 40 22.333 46 43v1042
c-4.66699 20.667 -20 35.667 -46 45v19h46v1h204v-1h45v-19c-26.667 -9.33301 -41.667 -25.333 -45 -48v-280c62 42 130.333 63 205 63c141.333 0 235 -50.333 281 -151c20.667 -45.333 31 -109.333 31 -192v-470c4.66699 -23.333 20 -39.333 46 -48v-19z" />
    <glyph glyph-name="i" unicode="i" horiz-adv-x="361" 
d="M302 1025l-3 -2v-3l-2 1l-129 -68v1l-127 71l4 2v133h-7l7 4l127 69v-2l125 -69v-2h2l-2 -1l2 -134h3zM328 -5h-295v19c32 10 48 31 48 63v697c0 32 -16 53.667 -48 65v21h295v-21c-30 -11.333 -45 -33 -45 -65v-697c0 -32 15 -53 45 -63v-19z" />
    <glyph glyph-name="j" unicode="j" horiz-adv-x="381" 
d="M314 1025l-2 -2v-3l-1 1l-124 -67v-1l-2 1l-3 -1v1l-129 71l4 2v133h-5l5 4l123 67v2l2 -2l2 2v-2l127 -69v-2h1l-1 -1l1 -134h2zM336 839c-30.667 -10 -46 -30.999 -46 -62.999v-850c0 -102 -13.667 -176.333 -41 -223c-36.667 -62.667 -101.334 -94 -194.001 -94
c-36.667 0 -81.334 7.33301 -134.001 22c-9.33301 0 -20.666 -1.33301 -33.999 -4c-9.33301 -6.66699 -18 -19 -26 -37l-16 5l62 341l16 -3c0.666992 -38.667 14.334 -61.667 41.001 -69c42 -11.333 69 -17 81 -17c23.333 0 37.333 17.667 42 53
c0.666992 9.33301 1 35.666 1 78.999v797c0 32 -15.667 53 -47 63v21h295v-21z" />
    <glyph glyph-name="k" unicode="k" horiz-adv-x="910" 
d="M877 839c-24 -6.66699 -56 -30 -96 -70l-55 -55l-211 -218l227 -352c48 -74 92 -115.667 132 -125v-19h-371v19c25.333 6.66699 38 18.667 38 36c0 4 -11.667 25.667 -35 65l-140 235l-83 -75v-192c0 -33.333 15.667 -55.333 47 -66v-19h-297v19
c30.667 11.333 46 33.333 46 66v985c0 30.667 -15.333 51.667 -46 63v19h297v-19c-31.333 -10 -47 -31 -47 -63v-541l217 225c19.333 20 29 35.333 29 46c0 17.333 -13.667 29.333 -41 36v21h389v-21z" />
    <glyph glyph-name="l" unicode="l" horiz-adv-x="364" 
d="M330 -5h-294v19c30 10 45 31 45 63v886c0 28.667 -11 43 -33 43c-6 0 -11 -0.666992 -15 -2v21l295 153v-18c-28.667 -24.667 -43 -53.667 -43 -87v-996c0 -32 15 -53 45 -63v-19z" />
    <glyph glyph-name="m" unicode="m" horiz-adv-x="1377" 
d="M1342 0h-294.999v21c31.333 11.333 47 33 47 65v386c0 66.667 -2.33301 110.667 -7 132c-12.667 57.333 -53.334 86 -122.001 86c-79.333 0 -132.666 -31.333 -159.999 -94c-1.33301 -2.66699 -4 -12.334 -8 -29.001c0.666992 -14 1 -29 1 -45v-431
c-0.666992 -3.33301 -2.33398 -5 -5.00098 -5c0 -33.333 15.333 -55 46 -65v-21h-36v-2h-240v2h-17v21c30.667 11.333 46 33 46 65v386c0 66.667 -2.33301 110.667 -7 132c-12.667 57.333 -53.667 86 -123 86c-78.667 0 -131.334 -31.333 -158.001 -94
c-12 -29.333 -18.333 -75.666 -19 -138.999l-2 -373c0 -33.333 15 -55.666 45 -66.999v-19h-294v19c28.667 11.333 43.667 33.666 45 66.999v0v699c0 32 -15.333 53.667 -46 65v19h219l21 -72c62 50 134 75 216 75c114.667 0 199 -36 253 -108l37 38
c58.667 46.667 129.334 70 212.001 70c207.333 0 310.333 -116 309 -348l-2 -436c0 -33.333 14.667 -55 44 -65v-21z" />
    <glyph glyph-name="n" unicode="n" horiz-adv-x="876" 
d="M841 0h-295.001v21c30.667 11.333 46 33 46 65v39h2v347c0 68 -2.33301 112 -7 132c-13.333 57.333 -54.333 86 -123 86c-79.333 0 -132.666 -31.333 -159.999 -94c-12.667 -28.667 -19 -75 -19 -139v-373h-2c0 -33.333 15.667 -55.666 47 -66.999v-19h-294v19
c28.667 11.333 43 33.666 43 66.999v0v699c0 32 -15.333 53.667 -46 65v19h219l21 -72c62 50 134 75 216 75c206.667 0 309.667 -116 309 -348l-1 -436c0 -33.333 14.667 -55 44 -65v-21z" />
    <glyph glyph-name="o" unicode="o" horiz-adv-x="900" 
d="M867 433c0 -194.667 -68.001 -328.001 -204.001 -400.001c-65.333 -34.667 -136 -52 -212 -52c-133.333 0 -236.666 40.667 -309.999 122c-71.333 78 -107 184.333 -107 319s35.333 241.334 106 320.001c74 82 177.667 123 311 123c131.333 0 234 -39.333 308 -118
c72 -77.333 108 -182 108 -314zM655.999 426.999c0 73.333 -15.333 133 -46 179c-36 54 -89 81 -159 81c-136 0 -204 -88.333 -204 -265c0 -176 68 -264 204 -264c136.667 0 205 89.667 205 269z" />
    <glyph glyph-name="p" unicode="p" horiz-adv-x="882" 
d="M848 434c0 -188 -58.335 -319.667 -175.002 -395c-58 -37.333 -125.667 -56 -203 -56c-67.333 0 -129.666 20 -186.999 60v-282c4.66699 -21.333 19.667 -36.666 45 -45.999v-19h-295v19c24.667 9.33301 40 23.666 46 42.999v1049c-3.33301 28.667 -18.666 47 -45.999 55
v20h245l5 -53c54 36.667 114.667 55 182 55c75.333 0 143 -20 203 -60c120 -80.667 180 -210.667 180 -390zM636.998 434c0 72.667 -12.667 132.668 -38 180.001c-32 60 -81.333 90 -148 90c-112 0 -168 -64 -168 -192v-138c0 -58.667 14.333 -107.334 43 -146.001
c31.333 -43.333 75.333 -65 132 -65c119.333 0 179 90.333 179 271z" />
    <glyph glyph-name="q" unicode="q" horiz-adv-x="882" 
d="M848 -304l-293.999 -0.000976562v19c24.667 9.33301 39.667 24.666 45 45.999v282c-58 -40 -120.333 -60 -187 -60c-76.667 0 -144.334 18.667 -203.001 56c-117.333 74.667 -176 206.334 -176 395.001c0 178.667 61 308.667 183 390c60 40 126.333 60 199 60
c68.667 0 130 -18.333 184 -55l5 53h244v-20c-27.333 -8 -42.333 -26.333 -45 -55v0v-1049c4.66699 -19.333 19.667 -33.666 45 -42.999v-19zM599.001 373.999v138c0 128 -56 192 -168 192c-122.667 0 -184 -90 -184 -270c0 -180.667 58.333 -271 175 -271
c57.333 0 102 21.333 134 64c28.667 38.667 43 87.667 43 147z" />
    <glyph glyph-name="r" unicode="r" horiz-adv-x="649" 
d="M699 872l-93 -285.001l-12 7c2 37.333 -10 62 -36 74l-31 14v1c-30 14 -55.333 21 -76 21c-54.667 0 -97 -20 -127 -60c-27.333 -36 -41 -82.333 -41 -139v-467c3.33301 -22 18.333 -37.667 45 -47v-18h-295v18c24 9.33301 38.333 24.333 43 45v771h3
c-4.66699 28.667 -20 47 -46 55v20h245l5 -53c52 36.667 112.333 55 181 55c44 0 86.667 -7.33301 128 -22h2c8 -3.33301 19 -8.66602 33 -15.999c2.66699 -0.666992 5.66699 -1 9 -1c16.667 0 32 11.333 46 34z" />
    <glyph glyph-name="s" unicode="s" horiz-adv-x="783" 
d="M748 261c0 -52.667 -13.999 -100.335 -41.999 -143.002c-60 -91.333 -165.333 -137 -316 -137c-58.667 0 -143.334 12 -254.001 36v-2l-19 6c-2.66699 0.666992 -8.33398 2.33398 -17.001 5.00098c-22 2 -39.333 -10.667 -52 -38l-15 3l53 282l17 -3
c2 -36.667 15.667 -59 41 -67l36 -11c74 -22.667 144 -34 210 -34c99.333 0 149 30.333 149 91c0 28.667 -22.333 48.667 -67 60l-84 21c-103.333 26 -175 48.333 -215 67c-91.333 43.333 -137 113 -137 209c0 86.667 34.667 153 104 199c60 40 135.333 60 226 60
c75.333 0 156 -10.333 242 -31v2l31 -10c22.667 -2.66699 41 11 55 41l15 -4l-53 -281l-17 3c-1.33301 38 -15.666 61 -42.999 69l-31 9c-39.333 16.667 -102.333 25 -189 25c-94 0 -141 -22.333 -141 -67c0 -21.333 16.667 -37.666 50 -48.999
c12.667 -4.66699 51.667 -15.667 117 -33c102 -27.333 170 -48.333 204 -63c94.667 -40 142 -111.667 142 -215z" />
    <glyph glyph-name="t" unicode="t" horiz-adv-x="500" 
d="M465 563l-15 0.000976562c-8 36.667 -26.333 55 -55 55h-62v-534c0 -32 16 -53 48 -63v-21h-295v21c29.333 10 44 31 44 63v534h-27c-28.667 0 -47 -18.333 -55 -55h-15v285h15c8 -36.667 26.333 -55 55 -55h26v213c0 30.667 -15 46.667 -45 48v19l45 19l249 94v-19
c-30 -22.667 -45 -49.334 -45 -80.001v-294h62c26 0 44.333 18.333 55 55h15v-285z" />
    <glyph glyph-name="u" unicode="u" horiz-adv-x="876" 
d="M841 -15l-218 -0.000976562l-22 70c-63.333 -49.333 -136 -74 -218 -74c-114.667 0 -199 35.667 -253 107c-37.333 49.333 -56 129.333 -56 240v432l5 6c0 32.667 -15.333 54.334 -46 65.001v20h295v-20c-30 -11.333 -45 -33 -45 -65v-40h-3v-347
c0 -64 3.33301 -108 10 -132c16 -57.333 56.667 -86 122 -86c77.333 0 129.333 31.667 156 95c14 33.333 21 79 21 137v374h3c0 33.333 -16 55.666 -48 66.999v19h297v-19c-30.667 -11.333 -46.667 -33.666 -48 -66.999h4v-698c0 -32 14.667 -54 44 -66v-18z" />
    <glyph glyph-name="v" unicode="v" horiz-adv-x="918" 
d="M920 850c-25.333 -4.66699 -43.667 -18.334 -55 -41.001c-4.66699 -10 -15 -34.667 -31 -74l-235 -589c-13.333 -33.333 -20 -57.333 -20 -72c0 -30 14.667 -48.333 44 -55v-19h-326v19c30 6.66699 45 25 45 55c0 9.33301 -7.66699 33.333 -23 72l-264 666
c-12.667 22.667 -31 36.334 -55 41.001v19h336v-19c-30.667 -8 -46 -25 -46 -51c0 -16.667 5.33301 -39 16 -67l161 -419l158 415c11.333 30 17 52.333 17 67c0 26.667 -15.333 44 -46 52v19h324v-19z" />
    <glyph glyph-name="w" unicode="w" horiz-adv-x="1337" 
d="M1337 827c-26 -8.66699 -44.667 -22.6689 -56 -42.002c-4.66699 -6 -14 -30.667 -28 -74l-182 -560c-13.333 -41.333 -20 -68.333 -20 -81c0 -40 17 -64 51 -72v-1h-309v1c33.333 7.33301 50 33.333 50 78c0 16.667 -7.33301 42.334 -22 77.001l-158 376l-145 -390
c-12 -32 -18 -53.667 -18 -65c0 -39.333 17 -64.666 51 -75.999v-1h-304v1c32 8 48 34 48 78c0 10 -6.66699 35 -20 75l-189 565c-7.33301 21.333 -17 46.333 -29 75c-14 22 -33 36 -57 42v20h330v-20c-30 -8 -45 -26 -45 -54c0 -12 4 -30.667 12 -56l105 -335l183 465
l174 -5l190 -463l98 322c10.667 35.333 16 58.333 16 69c0 25.333 -17.333 42.333 -52 51v19h326v-19z" />
    <glyph glyph-name="x" unicode="x" horiz-adv-x="920" 
d="M927 -5l-385 0.00292969v3c28.667 7.33301 43 28.666 43 63.999c0 15.333 -8.33301 35.333 -25 60l-109 163l-97 -153c-20.667 -32.667 -31 -55 -31 -67c0 -41.333 16.667 -64 50 -68v-2h-373v2c21.333 3.33301 45.333 24.333 72 63l53 77l215 314l-185 284
c-24.667 38 -43 64.667 -55 80l-35 35c-13.333 13.333 -26.333 20.666 -39 21.999v4h389v-4c-28 -10 -42 -34 -42 -72c0 -16.667 10 -40 30 -70l67 -100l64 96c22.667 34 34 59.333 34 76c0 37.333 -16.667 59.666 -50 66.999v3h380v-3
c-19.333 -2.66699 -43.333 -22.667 -72 -60c-10 -12.667 -29 -38.667 -57 -78l-185 -267l214 -327c32 -48.667 62.333 -87 91 -115c13.333 -13.333 26 -21.333 38 -24v-3z" />
    <glyph glyph-name="y" unicode="y" horiz-adv-x="932" 
d="M898 851c-25.333 -8.66699 -39.666 -32 -42.999 -70v0l3 -757c0.666992 -134.667 -35.5 -238.667 -108.5 -312s-176.833 -110 -311.5 -110c-105.333 0 -189 19.333 -251 58v-2l-103 76c-4.66699 2 -9.66699 3 -15 3c-9.33301 0 -18 -1 -26 -3l-10 15l255 174l9 -16
c-14 -14.667 -22 -27.667 -24 -39c0 -13.333 4 -27 12 -41l12 -21c27.333 -22.667 74.333 -34 141 -34c137.333 0 206 84 206 252l7 2v15c-58.667 -38.667 -121 -58 -187 -58c-74.667 0 -142.334 18.667 -203.001 56c-113.333 70 -170 193.333 -170 370v367
c0 42 -16 69 -48 81v1h297v-1c-30 -12 -45 -39 -45 -81v-359c0 -172.667 60.333 -259 181 -259c54.667 0 98 20.667 130 62c30 38 45 85 45 141v437c-14 30 -28.333 47.333 -43 52v1h48v2h242v-2z" />
    <glyph glyph-name="z" unicode="z" horiz-adv-x="855" 
d="M822 -55h-17c-8 36.667 -26.333 55 -55 55h-717v149l473 524h-369c-26 0 -43.667 -17.667 -53 -53h-15v293h15c9.33301 -36.667 27 -55 53 -55h663v-128l-484 -545h434c28.667 0 47 18.333 55 55h17v-295z" />
    <glyph glyph-name="braceleft" unicode="{" horiz-adv-x="579" 
d="M544 -373c-2 3.33301 -10.6689 9.33398 -26.002 18.001c-23.333 14 -74.333 27 -153 39l-113 16c-60.667 35.333 -91 112 -91 230v281c0 111.333 -42.667 179.333 -128 204c50 16 84.667 41.667 104 77c16 29.333 24 72.333 24 129v282c0 119.333 30.333 196 91 230
c16 8.66699 57.333 17.167 124 25.5s112.334 19.166 137.001 32.499c2 0 6.83301 2.33301 14.5 7s13.167 7 16.5 7v-209c-6.66699 5.33301 -16.334 9.33301 -29.001 12c-20.667 8.66699 -41.334 13 -62.001 13c-70.667 0 -106 -47.333 -106 -142v-182
c0 -82 -19.667 -153 -59 -213c-17.333 -26 -37.666 -42.667 -60.999 -50l15 -20c20.667 -6 38.334 -24.333 53.001 -55l28 -79c16 -32 24 -80 24 -144v-182c0 -92.667 36.667 -139 110 -139c20.667 0 39.334 3.33301 56.001 10c8 4.66699 18.333 8.66699 31 12v-210z" />
    <glyph glyph-name="bar" unicode="|" horiz-adv-x="397" 
d="M364 -359l-331 -0.000976562c24.667 19.333 40.667 36 48 50c3.33301 10 5 31.667 5 65v1422c0 46.667 -17.667 85 -53 115h331c-36.667 -31.333 -55 -69.666 -55 -114.999v-1422c0 -34 2.33301 -55.667 7 -65c6.66699 -14 22.667 -30.667 48 -50z" />
    <glyph glyph-name="braceright" unicode="}" horiz-adv-x="579" 
d="M546 415c-86 -24.667 -129.003 -92.668 -129.003 -204.001v-281c0 -118 -29.667 -194.667 -89 -230c-3.33301 -2 -41.666 -7.16699 -114.999 -15.5s-123.666 -21.5 -150.999 -39.5c-23.333 -12 -32 -18 -26 -18v210l2 -2c6 -4.66699 15 -8 27 -10
c16 -6.66699 35 -10 57 -10c73.333 0 110 46.333 110 139v182c0 64 8 112 24 144l27 79c10 29.333 27.667 47.666 53 54.999l18 20c-23.333 6.66699 -44 23.334 -62 50.001c-40 60.667 -60 131.667 -60 213v182c0 94.667 -35.667 142 -107 142
c-21.333 0 -41.666 -4.33301 -60.999 -13c-6 -4.66699 -15.333 -8.66699 -28 -12v209c2 0 6.83301 -2.33301 14.5 -7s12.5 -7 14.5 -7c25.333 -13.333 71.5 -24.166 138.5 -32.499s108.5 -16.833 124.5 -25.5c59.333 -33.333 89 -110 89 -230v-282
c0 -110 43 -178.667 129 -206z" />
    <glyph glyph-name="asciitilde" unicode="~" horiz-adv-x="860" 
d="M827 659c-34 -48.667 -70.333 -92.667 -109 -132c-55.333 -56 -102.333 -84 -141 -84c-40 0 -80.333 22.667 -121 68l-56 66c-34.667 30.667 -75.334 46 -122.001 46c-38 0 -81 -31.333 -129 -94c-20 -26 -38.333 -56.333 -55 -91l-61 163
c26 48.667 60.667 93.667 104 135c55.333 52.667 104 79 146 79c24.667 0 78.834 -29.667 162.501 -89s128.5 -89 134.5 -89c43.333 0 105.333 61.667 186 185z" />
    <glyph glyph-name="exclamdown" unicode="&#xa1;" horiz-adv-x="369" 
d="M316 824h-5v-136h3l-3 -1l-126 -69v-2h-3v2l-129 69l4 1v134h-4l4 2v2l127 67l-2 3l3 -2l2 2v-3l124 -66v-1zM336 -306l-302.999 0.000976562c11.333 9.33301 21.666 18.666 30.999 27.999c4 12 7.33301 43.333 10 94l32 641c2 45.333 -9.33301 78.333 -34 99h227
c-28 -22.667 -40.667 -55.667 -38 -99l36 -641c2.66699 -52 6 -84.667 10 -98z" />
    <glyph glyph-name="cent" unicode="&#xa2;" horiz-adv-x="838" 
d="M803 134l-8.00098 -15.998c-9.33301 2.66699 -17.333 4 -24 4c-9.33301 0 -23.666 -7.33301 -42.999 -22l-79 -59c-38.667 -29.333 -88 -48 -148 -56c0 -34 1.66699 -54.667 5 -62c6.66699 -14.667 22.334 -31.334 47.001 -50.001l-278 -2c36.667 28 55 66.333 55 115v5
c-100.667 22 -176.667 74.333 -228 157c-46 73.333 -69 164.333 -69 273c0 192 64.667 323 194 393c30.667 16.667 64.334 29.667 101.001 39v43c0 34 -2 56.333 -6 67c-5.33301 14 -20.666 30 -45.999 48l278 2c-36 -30 -54 -69 -54 -117v-34
c59.333 -8 106.666 -24 141.999 -48l31 -21c12.667 -12.667 37.667 -31.667 75 -57c4.66699 -2 10 -3 16 -3c8 0 16 1.66699 24 5l9 -17l-255 -180l-8 15c13.333 17.333 20.666 31 21.999 41c2 17.333 -1.33301 31.666 -10 42.999l-12 16v1
c-10.667 8.66699 -22 15.667 -34 21l1 -508c15.333 6 28.666 13.333 39.999 22l12 23c10 18.667 13.333 33 10 43c-2 11.333 -9.33301 25 -22 41l8 15zM329.999 187.002l-2 470c-56 -40 -84 -117.667 -84 -233c0 -119.333 28.667 -198.333 86 -237z" />
    <glyph glyph-name="sterling" unicode="&#xa3;" horiz-adv-x="1082" 
d="M1047 213l-7.99902 -24.0029c-8 3.33301 -16 5 -24 5c-9.33301 0 -23.666 -11 -42.999 -33l-79 -89c-52.667 -59.333 -123.667 -89 -213 -89c-207.333 0 -335.666 144 -384.999 432l-130 -3c-36 -0.666992 -59 -2.33398 -69 -5.00098
c-13.333 -3.33301 -34.333 -14.666 -63 -33.999l89 212c18 -25.333 51 -37.666 99 -36.999l59 1c-2.66699 32 -4 64 -4 96v14h-8c-30 0 -51.667 -1.66699 -65 -5c-18.667 -4.66699 -40.667 -16 -66 -34l90 213c11.333 -18.667 23.666 -29.667 36.999 -33
c4 -2 10.333 -3 19 -3c19.333 208 81.666 355 186.999 441c63.333 51.333 133.333 77 210 77c86 0 154.667 -25.667 206 -77l31 -31c12 -19.333 37.667 -48 77 -86c3.33301 -3.33301 8 -5 14 -5c8 0 16 2.66699 24 8l8 -27l-254 -237l-8 24
c13.333 24.667 20.666 45.334 21.999 62.001c2 27.333 -1.33301 49 -10 65l-12 22v4c-24 30.667 -55 46 -93 46c-103.333 0 -166.333 -95 -189 -285l136 4c49.333 1.33301 92.666 14.333 129.999 39l-89 -213c-18 26.667 -51.333 39.334 -100 38.001l-85 -2v-13
c0 -32 1.66699 -64.333 5 -97h34c46.667 0 90 13.333 130 40l-89 -213c-16 22.667 -36 34.667 -60 36c30 -134.667 86.667 -202 170 -202c42.667 0 78.334 17 107.001 51l12 34c8.66699 24.667 12.667 46 12 64c-4 17.333 -12 38 -24 62l8 24z" />
    <glyph glyph-name="sterling" unicode="&#x20ac;" horiz-adv-x="1082" 
d="M1047 213l-7.99902 -24.0029c-8 3.33301 -16 5 -24 5c-9.33301 0 -23.666 -11 -42.999 -33l-79 -89c-52.667 -59.333 -123.667 -89 -213 -89c-207.333 0 -335.666 144 -384.999 432l-130 -3c-36 -0.666992 -59 -2.33398 -69 -5.00098
c-13.333 -3.33301 -34.333 -14.666 -63 -33.999l89 212c18 -25.333 51 -37.666 99 -36.999l59 1c-2.66699 32 -4 64 -4 96v14h-8c-30 0 -51.667 -1.66699 -65 -5c-18.667 -4.66699 -40.667 -16 -66 -34l90 213c11.333 -18.667 23.666 -29.667 36.999 -33
c4 -2 10.333 -3 19 -3c19.333 208 81.666 355 186.999 441c63.333 51.333 133.333 77 210 77c86 0 154.667 -25.667 206 -77l31 -31c12 -19.333 37.667 -48 77 -86c3.33301 -3.33301 8 -5 14 -5c8 0 16 2.66699 24 8l8 -27l-254 -237l-8 24
c13.333 24.667 20.666 45.334 21.999 62.001c2 27.333 -1.33301 49 -10 65l-12 22v4c-24 30.667 -55 46 -93 46c-103.333 0 -166.333 -95 -189 -285l136 4c49.333 1.33301 92.666 14.333 129.999 39l-89 -213c-18 26.667 -51.333 39.334 -100 38.001l-85 -2v-13
c0 -32 1.66699 -64.333 5 -97h34c46.667 0 90 13.333 130 40l-89 -213c-16 22.667 -36 34.667 -60 36c30 -134.667 86.667 -202 170 -202c42.667 0 78.334 17 107.001 51l12 34c8.66699 24.667 12.667 46 12 64c-4 17.333 -12 38 -24 62l8 24z" />
    <glyph glyph-name="currency" unicode="&#xa4;" horiz-adv-x="874" 
d="M839 539l-233.001 -232.997c1.33301 13.333 2 25.333 2 36c0 12.667 -1.33301 23 -4 31c-6 17.333 -19.667 35 -41 53l-12 10c-38 -16 -77.333 -24 -118 -24c-40 0 -78 7.33301 -114 22l-10 -8c-30 -30 -45 -58 -45 -84c0 -10.667 0.666992 -22.667 2 -36l-233 233
c12.667 -1.33301 23.334 -2 32.001 -2c27.333 0 56.666 15.667 87.999 47l7 7c-17.333 37.333 -26 77.333 -26 120c0 41.333 8.66699 80.666 26 117.999l-7 7c-30 30 -58.667 45 -86 45c-9.33301 0 -20.666 -0.666992 -33.999 -2l233 233c-1.33301 -12 -2 -22.667 -2 -32
c0 -30.667 15 -59.334 45 -86.001l10 -9c36.667 15.333 74 23 112 23c43.333 0 83.333 -8 120 -24l12 10c30 25.333 45 54 45 86c0 9.33301 -0.666992 20 -2 32l233 -233c-11.333 1.33301 -21.333 2 -30 2c-38.667 0 -68.667 -15 -90 -45l-10 -14c14 -35.333 21 -73 21 -113
c0 -38.667 -7 -76.334 -21 -113.001l10 -12c18.667 -22.667 37 -37 55 -43c8 -2.66699 17.667 -4 29 -4c12 0 24 0.666992 36 2zM600.999 718.003c0 45.333 -15.833 83.999 -47.5 115.999s-70.167 48 -115.5 48c-50.667 0 -93.167 -16.667 -127.5 -50
s-51.5 -75.333 -51.5 -126c0 -47.333 16 -86.666 48 -117.999s71.667 -47 119 -47c50 0 91.667 17 125 51s50 76 50 126z" />
    <glyph glyph-name="yen" unicode="&#xa5;" horiz-adv-x="1107" 
d="M1075 1188c-42 -27.333 -90.6689 -88.001 -146.002 -182.001c-22.667 -38 -76.667 -137 -162 -297h62c48 0 87 17.667 117 53v-295c-30 35.333 -69 53 -117 53h-163l-17 -27v-127h180c48 0 87 17.667 117 53v-295c-30 35.333 -69 53 -117 53h-180v-84
c0 -30 2.33301 -48.333 7 -55c2 -10.667 14.667 -23.334 38 -38.001h-303c24 12.667 38 24 42 34c3.33301 4.66699 5 24.334 5 59.001v84h-189c-30.667 0 -52 -2.33301 -64 -7c-14.667 -6 -31 -21.333 -49 -46v295c16.667 -24 32.667 -39 48 -45
c12 -5.33301 33.667 -8 65 -8h189v127c-3.33301 6.66699 -7.33301 15.667 -12 27h-177c-30.667 0 -52 -2.33301 -64 -7c-14.667 -6 -31 -21.333 -49 -46v295c18 -24.667 34.333 -40 49 -46c12 -4.66699 33.333 -7 64 -7h84l-10 19l-136 290
c-27.333 58.667 -78.666 115.334 -153.999 170.001h386c-20.667 -18.667 -31 -40.334 -31 -65.001c0 -20 14.333 -60 43 -120c64.667 -135.333 106.334 -226 125.001 -272c14 23.333 43.333 83 88 179c52.667 112.667 79 186.334 79 221.001c0 15.333 -4.66699 27 -14 35
c-14 8 -26 15.333 -36 22h402z" />
    <glyph glyph-name="brokenbar" unicode="&#xa6;" horiz-adv-x="397" 
d="M364 481h-331c24.667 19.333 40 35.666 46 48.999c4.66699 10.667 7 32.667 7 66v477c0 46.667 -17.667 85 -53 115h331c-36.667 -30.667 -55 -69 -55 -115v-477c0 -34.667 2.33301 -56.667 7 -66c6.66699 -13.333 22.667 -29.666 48 -48.999zM364 -361
l-331 -0.000976562c24.667 19.333 40 36 46 50c4.66699 10.667 7 32.667 7 66v477c0 46.667 -17.667 85 -53 115h331c-36.667 -31.333 -55 -69.666 -55 -114.999v-477c0 -34.667 2.33301 -56.667 7 -66c6.66699 -13.333 22.667 -30 48 -50z" />
    <glyph glyph-name="section" unicode="&#xa7;" horiz-adv-x="726" 
d="M692 575c0 -78 -25.3359 -146 -76.0029 -204c48 -44.667 72 -108.667 72 -192c0 -56 -13 -107 -39 -153c-56 -98.667 -152 -148 -288 -148c-55.333 0 -134 13.333 -236 40v-2l-15 5c-2.66699 1.33301 -8 3 -16 5c-20 2.66699 -36.333 -11 -49 -41l-12 3l48 304l17 -3
c2 -39.333 14.667 -63.333 38 -72l32 -12c64 -24 128.333 -36 193 -36c90 0 135 32.667 135 98c0 34 -19.333 55.667 -58 65l-81 20c-79.333 19.333 -145 43.333 -197 72c-82.667 45.333 -124 121 -124 227c0 86 27 153.667 81 203c-52.667 45.333 -79 109.333 -79 192
c0 88.667 29 157.667 87 207c54.667 47.333 127 71 217 71c68.667 0 142.334 -11 221.001 -33v2c13.333 -5.33301 23 -8.66602 29 -9.99902c20.667 -4 37.334 10.333 50.001 43l14 -4l-50 -302l-14 4c-3.33301 40.667 -17 65 -41 73l-26 9c-36.667 19.333 -95 29 -175 29
c-86 0 -129 -24 -129 -72c0 -24.667 15 -43 45 -55c1.33301 -0.666992 37 -12 107 -34c88.667 -28 151.334 -51 188.001 -69c87.333 -42.667 131 -119.334 131 -230.001zM499.997 561c0 33.333 -20.668 55.333 -62.001 66l-38 10c-17.333 1.33301 -35.666 2 -54.999 2
c-84.667 0 -127 -24 -127 -72c0 -36 15.333 -60.333 46 -73c38 -24 67.333 -36 88 -36c6 0 12.333 0.666992 19 2l36 7c62 12 93 43.333 93 94z" />
    <glyph glyph-name="dieresis" unicode="&#xa8;" horiz-adv-x="630" 
d="M596 1028l-2 -1v-4l-2 2l-108 -65l4 -4l-6 2l-1 -2l1 4l-106 67l-3 -2v3l-2 2h2v134l-4 2l4 1v2h3l105 65v4l1 -2v-2l110 -70l2 -136h2zM261 1027l-2 -2v-4l-1 2l-109 -65l4 -4l-4 2l-1 -2v4l-107 67l-3 -2v4l-2 1h2v134l-5 2l5 2v1h3l107 66l-4 3l4 -2l1 2v-3l109 -71
l1 -135h2z" />
    <glyph glyph-name="copyright" unicode="&#xa9;" horiz-adv-x="1306" 
d="M1274 594c0 -178 -58.833 -325.833 -176.5 -443.5s-265.5 -176.5 -443.5 -176.5c-179.333 0 -327.666 58.5 -444.999 175.5s-176 265.167 -176 444.5s58.667 327.5 176 444.5s265.666 175.5 444.999 175.5c178 0 325.833 -58.833 443.5 -176.5s176.5 -265.5 176.5 -443.5
zM1121 594c0 137.333 -43.332 252.665 -129.999 345.998c-88.667 95.333 -201 143 -337 143c-136.667 0 -249 -47.167 -337 -141.5s-132 -210.166 -132 -347.499c0 -136 44 -251 132 -345c89.333 -96 201.666 -144 336.999 -144c134 0 245.667 48.333 335 145
c88 94.667 132 209.334 132 344.001zM882.001 965.999l-73.001 -204l-4 2c-19.333 58 -68.666 87 -147.999 87c-104.667 0 -157 -87.333 -157 -262c0 -154.667 56 -232 168 -232c33.333 0 58.333 14.333 75 43c4.66699 18 10.334 35.667 17.001 53l117 -12
c-6.66699 -145.333 -87.334 -218 -242.001 -218c-179.333 0 -269 122.667 -269 368c0 103.333 20 188 60 254c48.667 80.667 121.334 121 218.001 121c31.333 0 64 -3.33301 98 -10c8.66699 -1.33301 33 -6.33301 73 -15c15.333 -3.33301 37.666 5 66.999 25z" />
    <glyph glyph-name="ordfeminine" unicode="&#xaa;" horiz-adv-x="560" 
d="M525 661l-125 0.00195312l-12 50c-49.333 -36 -102.666 -54 -159.999 -54c-120 0 -180 54.667 -180 164c0 86.667 43 141 129 163c11.333 2.66699 36.333 6.66699 75 12c78 10 119.333 28.667 124 56c0 34.667 -31 52 -93 52c-28.667 0 -84.667 -16 -168 -48l2 -2
c-7.33301 -2 -12 -3.66699 -14 -5c-11.333 -4.66699 -17 -20 -17 -46l-7 -2l-46 196l8 3c6 -14 10 -22 12 -24c8 -6.66699 16.667 -8.33398 26 -5.00098l14 5c95.333 34 162.666 51 201.999 51c136.667 0 205 -63.333 205 -190v-41l1 -242c0 -2.66699 -0.333008 -5 -1 -7
v-33c0 -20.667 8.33301 -34.334 25 -41.001v-12zM376 946.002c-17.333 -32 -53.332 -52.001 -107.999 -60.001c-63.333 -9.33301 -95 -30.666 -95 -63.999c0 -36.667 24.667 -55 74 -55c57.333 0 95.666 22 114.999 66c8 18 12.667 55.667 14 113z" />
    <glyph glyph-name="guillemotleft" unicode="&#xab;" horiz-adv-x="1035" 
d="M1003 807c-54 -27.333 -98.334 -65.668 -133.001 -115.001l-70 -100c-5.33301 -8 -16.666 -26.333 -33.999 -55c-14 -22.667 -22 -42.667 -24 -60h1c12 -34 32.667 -72.333 62 -115l62 -91c34.667 -50.667 78 -89 130 -115h-327c8 16 12 28.667 12 38
c0 14 -12.667 39.667 -38 77l-62 91c-32.667 48 -76.667 86.333 -132 115h-4c39.333 18.667 66.333 35.334 81 50.001c10 10 26.667 31.667 50 65l70 100c26.667 38 40 63.667 40 77c0 9.33301 -4.66699 22 -14 38h330zM588.999 806.998
c-53.333 -26.667 -96.999 -64.999 -130.999 -114.999l-68 -100c-19.333 -28.667 -40 -67 -62 -115h5c12.667 -38 32 -76.333 58 -115l62 -91c35.333 -52 80 -90.333 134 -115h-329c8.66699 16 13 28.667 13 38c0 11.333 -13.667 37 -41 77l-62 91
c-34 49.333 -77.333 87.666 -130 114.999h-5c39.333 20 66.666 36.667 81.999 50c12.667 11.333 30 33 52 65l68 100c25.333 37.333 38 63 38 77c0 9.33301 -4 22 -12 38h328z" />
    <glyph glyph-name="logicalnot" unicode="&#xac;" 
d="M898 177l-330.001 -0.000976562c26 20 41.667 37 47 51c4 10.667 6 32.667 6 66v54h-472c-32.667 0 -54.334 -2 -65.001 -6c-14 -5.33301 -31 -21 -51 -47v330c19.333 -25.333 36.333 -40.666 51 -45.999c12.667 -4.66699 34.334 -7 65.001 -7h581
c46.667 0 84.334 17.667 113.001 53v-186c1.33301 -3.33301 2 -7.33301 2 -12v-133c0 -33.333 2 -55.333 6 -66c5.33301 -14 21 -31 47 -51z" />
    <glyph glyph-name="minus" unicode="&#xad;" 
d="M843 295c-28.667 35.333 -66.334 52.999 -113.001 52.999h-581c-32.667 0 -54.334 -2 -65.001 -6c-14 -5.33301 -31 -21 -51 -47v330c19.333 -25.333 36.333 -40.666 51 -45.999c12.667 -4.66699 34.334 -7 65.001 -7h581c46.667 0 84.334 17.667 113.001 53v-330z" />
    <glyph glyph-name="minus" unicode="&#x2212;" 
d="M843 295c-28.667 35.333 -66.334 52.999 -113.001 52.999h-581c-32.667 0 -54.334 -2 -65.001 -6c-14 -5.33301 -31 -21 -51 -47v330c19.333 -25.333 36.333 -40.666 51 -45.999c12.667 -4.66699 34.334 -7 65.001 -7h581c46.667 0 84.334 17.667 113.001 53v-330z" />
    <glyph glyph-name="registered" unicode="&#xae;" horiz-adv-x="1306" 
d="M1274 594c0 -178 -58.833 -325.833 -176.5 -443.5s-265.5 -176.5 -443.5 -176.5c-179.333 0 -327.666 58.5 -444.999 175.5s-176 265.167 -176 444.5s58.667 327.5 176 444.5s265.666 175.5 444.999 175.5c178 0 325.833 -58.833 443.5 -176.5s176.5 -265.5 176.5 -443.5
zM1121 594c0 137.333 -43.332 252.665 -129.999 345.998c-88.667 95.333 -201 143 -337 143c-136.667 0 -249 -47.167 -337 -141.5s-132 -210.166 -132 -347.499c0 -136 44 -251 132 -345c89.333 -96 201.666 -144 336.999 -144c134 0 245.667 48.333 335 145
c88 94.667 132 209.334 132 344.001zM936.001 239.999l-198 -0.00195312c10.667 10.667 16 20 16 28c0 5.33301 -4 19 -12 41l-76 211c-11.333 0 -28 1.66699 -50 5s-31 5 -27 5c-4.66699 0 -7 -3.33301 -7 -10l3 -206c0 -8.66699 2 -23 6 -43
c3.33301 -5.33301 14 -15.666 32 -30.999h-208l31 23c3.33301 4.66699 5 18.334 5 41.001v599c-4 10 -14 21.333 -30 34c45.333 11.333 69.333 18.333 72 21h207c67.333 0 120.833 -18 160.5 -54s59.5 -87.333 59.5 -154c0 -100.667 -43 -168.667 -129 -204l2 -7l81 -230
c10 -28.667 30.667 -51.667 62 -69zM793.001 759.997c0 68 -38.334 102.001 -115.001 102.001c-41.333 0 -63.666 -0.666992 -66.999 -2c-17.333 -6.66699 -26 -24.334 -26 -53.001v-156c28 -7.33301 54 -11 78 -11c86.667 0 130 40 130 120z" />
    <glyph glyph-name="degree" unicode="&#xb0;" horiz-adv-x="558" 
d="M525 968c0 -68.667 -23.668 -126.666 -71.001 -173.999s-105.333 -71 -174 -71c-69.333 0 -127.666 23.5 -174.999 70.5s-71 105.167 -71 174.5c0 70 23.5 128.5 70.5 175.5s105.5 70.5 175.5 70.5c68.667 0 126.667 -23.833 174 -71.5s71 -105.834 71 -174.501z
M425.999 968.001c0 40.667 -14.167 75.167 -42.5 103.5s-62.833 42.5 -103.5 42.5c-41.333 0 -76 -14 -104 -42s-42 -62.667 -42 -104s14 -76 42 -104s62.667 -42 104 -42c40 0 74.333 14.333 103 43s43 63 43 103z" />
    <glyph glyph-name="plusminus" unicode="&#xb1;" 
d="M843 -48c-28.667 35.333 -66.334 53 -113.001 53h-581c-31.333 0 -53 -2.33301 -65 -7c-14.667 -6 -31.667 -21.333 -51 -46v330c19.333 -25.333 36.333 -41 51 -47c12 -4.66699 33.667 -7 65 -7h179v189h-179c-31.333 0 -53 -2.33301 -65 -7
c-14.667 -6 -31.667 -21.333 -51 -46v330c19.333 -25.333 36.333 -41 51 -47c12 -4.66699 33.667 -7 65 -7h179v179c0 46 -18.333 84.333 -55 115h331c-35.333 -30 -53 -68.333 -53 -115v-179h179c46.667 0 84.334 18 113.001 54v-330
c-28.667 35.333 -66.334 53 -113.001 53h-179v-189h179c46.667 0 84.334 18 113.001 54v-330z" />
    <glyph glyph-name="twosuperior" unicode="&#xb2;" horiz-adv-x="534" 
d="M482 633l-386.004 2.00098c-13.333 0 -23.666 -1.66699 -30.999 -5v31c0 87.333 24.667 156 74 206c18 18 65.667 49.333 143 94c50.667 29.333 76.334 59.333 77.001 90c1.33301 69.333 -25.667 104 -81 104c-82 0 -125 -35.333 -129 -106l-96 199
c27.333 -19.333 51 -29 71 -29c18.667 0 46 3.66699 82 11s63.333 11 82 11c58 0 103.5 -17.167 136.5 -51.5s48.167 -80.5 45.5 -138.5c-2 -48 -26 -92.667 -72 -134c-23.333 -20.667 -65.666 -49.334 -126.999 -86.001c-46.667 -28 -70.667 -49.667 -72 -65
c-2 -32 7.66699 -48 29 -48c4.66699 0 10.334 0.333008 17.001 1h59h40c9.33301 -0.666992 10.333 -1 3 -1c72 0 117 24.333 135 73v-158z" />
    <glyph glyph-name="threesuperior" unicode="&#xb3;" horiz-adv-x="518" 
d="M470 809c0 -60.667 -20.002 -108.335 -60.002 -143.002c-37.333 -33.333 -87 -50 -149 -50c-33.333 0 -88.333 7 -165 21c-16 2.66699 -25.667 4.33398 -29 5.00098c-11.333 0 -21.666 -4 -30.999 -12l64 143c16 -44 61 -66 135 -66c82.667 0 124 34 124 102
c0 69.333 -51 101.333 -153 96c14.667 0 8.33398 1 -18.999 3c-3.33301 -1.33301 -8 -4 -14 -8v101c4.66699 -3.33301 10 -5.66602 16 -6.99902c3.33301 -1.33301 8.33301 -2.33301 15 -3c92 0 138 26 138 78c0 50.667 -28 76 -84 76c-42.667 0 -73.667 -3 -93 -9
c-31.333 -9.33301 -51 -29.333 -59 -60l-58 151c22 -13.333 38.667 -20 50 -20c20 0 49.167 4.83301 87.5 14.5s67.5 14.5 87.5 14.5c120 0 180 -51.333 180 -154c0 -57.333 -25.667 -100.333 -77 -129c62.667 -30 94 -78 94 -144z" />
    <glyph glyph-name="acute" unicode="&#xb4;" horiz-adv-x="534" 
d="M500 1251c-58 -30 -104 -68.334 -138 -115.001l-22 -30c-27.333 -37.333 -41 -63.333 -41 -78c0 -11.333 4 -23.666 12 -36.999l-278 -2c49.333 22 94.333 60.333 135 115l23 31c23.333 31.333 37.333 54 42 68c2.66699 12 -1.33301 27.667 -12 47z" />
    <glyph glyph-name="mu1" unicode="&#xb5;" horiz-adv-x="876" 
d="M905 -118c-68 -30 -126.999 -44.999 -176.999 -44.999c-132 0 -202.333 48 -211 144h-26c-82.667 0 -155.334 24.667 -218.001 74l-2 -397c0 -28 16 -50.667 48 -68h-286v1c29.333 12 44 39.667 44 83v1093h4c-1.33301 44.667 -17.333 72.667 -48 84v2h297v-2
c-32 -11.333 -48 -39.333 -48 -84h3v-374c0 -58 7 -103.667 21 -137c26.667 -63.333 78.667 -95 156 -95c65.333 0 106 28.667 122 86c6.66699 24 10 68 10 132v347h-3v40c0 43.333 -15 70.666 -45 81.999v3h295v-3c-30.667 -10 -46 -37.333 -46 -82l5 -6v-432
c0 -160 -47.667 -264.333 -143 -313c1.33301 -35.333 10.666 -59.333 27.999 -72c14.667 -11.333 40.334 -17 77.001 -17c27.333 0 63.333 9.33301 108 28z" />
    <glyph glyph-name="paragraph" unicode="&#xb6;" horiz-adv-x="913" 
d="M881 1190c-38 -7.33301 -65.001 -24.001 -81.001 -50.001c-17.333 -48 -26 -92.667 -26 -134v-992c0 -34.667 2.33301 -56.667 7 -66c6.66699 -13.333 22.667 -29.666 48 -48.999h-168c-2.66699 10 -4 31 -4 63v1034c0 46.667 6 83.667 18 111h-136
c11.333 -27.333 17 -64.333 17 -111v-1034c0 -32 -1.66699 -53 -5 -63h-172c24.667 20 40.334 36.333 47.001 49c4.66699 8 7 30 7 66v575c-14 -2.66699 -29 -4 -45 -4c-93.333 0 -174.333 26.333 -243 79c-74.667 57.333 -112 131.333 -112 222c0 92 36.333 166 109 222
c66 50.667 146.333 76.667 241 78l-4 4h502z" />
    <glyph glyph-name="periodcentered" unicode="&#xb7;" horiz-adv-x="417" 
d="M347 567l-2 -2v-4l-3 2l-124 -65l3 -4l-3 2l-3 -2l1 4l-125 67l-3 -2v4l-2 1h2v134l-6 2l6 2v1h3l124 66l-4 3l5 -2l2 2v-3l129 -71h-5l3 -135h2z" />
    <glyph glyph-name="cedilla" unicode="&#xb8;" horiz-adv-x="455" 
d="M421 -227c0 -54.667 -22.668 -96.333 -68.001 -125c-38 -24 -86 -36 -144 -36c-50 0 -108.667 15 -176 45l34 72c44.667 -18.667 80.667 -28 108 -28c70 0 105 23 105 69c0 38 -27.667 57 -83 57c-19.333 0 -39.666 -4 -60.999 -12l-24 65l79 14l5 140h82l14 -128l5 -2
c82.667 -11.333 124 -55 124 -131zM296.999 -95.999h-5l3 -2c1.33301 0 2 0.666992 2 2z" />
    <glyph glyph-name="onesuperior" unicode="&#xb9;" horiz-adv-x="323" 
d="M263 608h-163.001c16.667 13.333 25 32.666 25 57.999v378c2.66699 12.667 -23.666 20.667 -78.999 24l217 151c-17.333 -14 -26 -38.667 -26 -74v-479c0 -25.333 8.66699 -44.666 26 -57.999z" />
    <glyph glyph-name="ordmasculine" unicode="&#xba;" horiz-adv-x="642" 
d="M608 927c0 -89.333 -25 -158 -75 -206s-120 -72 -210 -72c-90.667 0 -161.667 23.833 -213 71.5s-77 116.5 -77 206.5c0 92 25.333 162.833 76 212.5s122 74.5 214 74.5c190 0 285 -95.667 285 -287zM448 932c0 91.333 -41.667 137 -125 137
c-84.667 0 -127 -45.667 -127 -137c0 -92.667 42.333 -139 127 -139c83.333 0 125 46.333 125 139z" />
    <glyph glyph-name="guillemotright" unicode="&#xbb;" horiz-adv-x="1035" 
d="M1003 477l-5.99805 0.000976562c-52.667 -27.333 -96 -65.666 -130 -114.999l-62 -91c-26 -38 -39 -63.667 -39 -77c0 -9.33301 4.33301 -22 13 -38h-329c52.667 24.667 96.667 63 132 115l62 91c26 38 46 76.333 60 115h2c-6.66699 30.667 -26.334 69 -59.001 115
l-70 100c-34 48 -77.667 86.333 -131 115h328c-8 -16 -12 -28.667 -12 -38c0 -15.333 12.667 -41 38 -77l70 -100c27.333 -38.667 44.666 -60.334 51.999 -65.001c10 -12.667 37 -29.334 81 -50.001zM589.002 477.001l-1.99805 0.00195312
c-56.667 -28.667 -101.334 -67 -134.001 -115l-62 -91c-24.667 -36 -37 -61.667 -37 -77c0 -9.33301 4 -22 12 -38h-328c52 26 95.333 64.333 130 115l62 91c29.333 42.667 50 81 62 115h3c-6 27.333 -26 65.666 -60 114.999l-68 100
c-32.667 48.667 -77.334 87 -134.001 115h331c-9.33301 -16 -14 -28.667 -14 -38c0 -12 13.333 -37.667 40 -77l68 -100c21.333 -31.333 38 -53 50 -65c14.667 -14.667 41.667 -31.334 81 -50.001z" />
    <glyph glyph-name="onequarter" unicode="&#xbc;" horiz-adv-x="1088" 
d="M1027 144c-15.333 18.667 -37.667 28 -67 28h-12v-117c0 -24 9.66699 -43 29 -57h-167c17.333 12.667 26 31.667 26 57v117h-201c-24 0 -46.667 -9.33301 -68 -28l27 69l134 321c5.33301 12.667 8 24 8 34c0 7.33301 -4 15.333 -12 24h165
c-23.333 -14.667 -40 -34 -50 -58l-104 -251h101v12c0 24 -8.66699 40.667 -26 50l167 50c-19.333 -20.667 -29 -43 -29 -67v-45h12c20.667 0 33 0.666992 37 2c9.33301 3.33301 19.333 11.333 30 24v-165zM262.999 608h-163.001c16.667 13.333 25 32.666 25 57.999v378
c2.66699 12.667 -23.666 20.667 -78.999 24l217 151c-17.333 -14 -26 -38.667 -26 -74v-479c0 -25.333 8.66699 -44.666 26 -57.999zM869.998 1188c-48 -27.333 -82.333 -65.665 -103 -114.998l-408 -958c-14 -32.667 -21 -54.334 -21 -65.001c0 -14 8.66699 -30.667 26 -50
h-297c46.667 25.333 81 63.666 103 114.999l409 958c13.333 31.333 20 53 20 65c0 14 -8.66699 30.667 -26 50h297zM595.998 213.001h-2v-2z" />
    <glyph glyph-name="onehalf" unicode="&#xbd;" horiz-adv-x="1157" 
d="M1088 0l-386.002 2.00098c-13.333 0 -23.666 -1.66699 -30.999 -5v30c0 86 25.333 154.667 76 206c20 20 67.333 51.667 142 95c50.667 29.333 76.334 59.666 77.001 90.999c2 68.667 -24.667 103 -80 103c-84 0 -127.667 -35.667 -131 -107l-96 200
c27.333 -18.667 51.333 -28 72 -28c18 0 45.167 3.5 81.5 10.5s63.5 10.5 81.5 10.5c58 0 103.5 -17.333 136.5 -52s48.167 -81 45.5 -139c-2 -48 -25.333 -92 -70 -132c-25.333 -22.667 -68.333 -52 -129 -88c-46.667 -28 -70.667 -49 -72 -63c-2 -32 8.33301 -48 31 -48
h15c6 1.33301 11.333 2 16 2c-8 0 -7.16699 -0.333008 2.5 -1s23.167 -1 40.5 -1h43c72 0 117 24 135 72v-158zM262.998 608.001h-163.001c16.667 13.333 25 32.666 25 57.999v378c2.66699 12.667 -23.666 20.667 -78.999 24l217 151c-17.333 -14 -26 -38.667 -26 -74v-479
c0 -25.333 8.66699 -44.666 26 -57.999zM869.997 1188c-48 -27.333 -82.333 -65.665 -103 -114.998l-408 -958c-14 -32.667 -21 -54.334 -21 -65.001c0 -14 8.66699 -30.667 26 -50h-297c46.667 25.333 81 63.666 103 114.999l409 958c13.333 31.333 20 53 20 65
c0 14 -8.66699 30.667 -26 50h297z" />
    <glyph glyph-name="threequarters" unicode="&#xbe;" horiz-adv-x="1186" 
d="M488 809c0 -60 -20.3369 -107.669 -61.0039 -143.002c-38 -33.333 -87.667 -50 -149 -50c-33.333 0 -88.333 7 -165 21c-16 2.66699 -25.667 4.33398 -29 5.00098c-11.333 0 -21.666 -4 -30.999 -12l64 143c16 -44 61 -66 135 -66c82.667 0 124 34 124 102
c0 69.333 -51 101.333 -153 96c14.667 0 8.33398 1 -18.999 3c-3.33301 -1.33301 -7.66602 -4 -12.999 -8v101c4 -3.33301 9 -5.66602 15 -6.99902c2.66699 -1.33301 7.66699 -2.33301 15 -3c92 0 138 26 138 78c0 50.667 -28.667 76 -86 76
c-41.333 0 -71.666 -3 -90.999 -9c-30.667 -9.33301 -50 -29.333 -58 -60l-60 151c22.667 -13.333 39.667 -20 51 -20c20 0 49.167 4.83301 87.5 14.5s67.5 14.5 87.5 14.5c120 0 180 -51.333 180 -154c0 -57.333 -26.333 -100.333 -79 -129c64.667 -30 97 -78 97 -144z
M972.996 1188c-48 -27.333 -82.333 -65.665 -103 -114.998l-408 -958c-14 -32.667 -21 -54.334 -21 -65.001c0 -14 8.66699 -30.667 26 -50h-297c46.667 25.333 81 63.666 103 114.999l409 958c13.333 31.333 20 53 20 65c0 14 -8.66699 30.667 -26 50h297zM1130 143.999
l0.000976562 165.001c-10.667 -12.667 -20.667 -20.667 -30 -24c-4 -1.33301 -16.333 -2 -37 -2h-12v45c0 24 9 46.333 27 67l-165 -50c17.333 -9.33301 26 -26 26 -50v-12h-101l103 251c9.33301 23.333 26.333 42.666 51 57.999h-165c8 -8.66699 12 -16.667 12 -24
c0 -6 -3.33301 -17.333 -10 -34l-159 -390c21.333 18.667 44 28 68 28h201v-117c0 -25.333 -8.66699 -44.333 -26 -57h165c-18 14 -27 33 -27 57v117h12c29.333 0 51.666 -9.33301 66.999 -28z" />
    <glyph glyph-name="questiondown" unicode="&#xbf;" horiz-adv-x="857" 
d="M652 702l-2.99902 -2v-1l-2 1l-123 -67c-0.666992 -0.666992 -1.33398 -1 -2.00098 -1c-2 0 -2.66699 0.333008 -2 1l-129 71h4l-2 135h-3l3 2v4l2 -2l123 65l-1 4l3 -2l4 2l-2 -4l125 -67l2 2v-4l3 -1h-3v-134zM824.001 -323
c-48 33.333 -94.334 49.9971 -139.001 49.9971c-29.333 0 -72.833 -7.16699 -130.5 -21.5s-101.167 -21.5 -130.5 -21.5c-112.667 0 -203.667 25.333 -273 76c-78.667 57.333 -117.667 140.333 -117 249c0.666992 76 15.334 133.667 44.001 173s79.334 69 152.001 89
c88 24.667 142.333 42.334 163 53.001c9.33301 4.66699 15.666 18.667 18.999 42c1.33301 8.66699 1.33301 30.334 0 65.001l-2 51c-1.33301 33.333 -9.66602 63.333 -24.999 90h269c-1.33301 -1.33301 -8.33301 -53.333 -21 -156c-12.667 -100 -28 -158 -46 -174
c-25.333 -22.667 -69.333 -42.667 -132 -60c-68 -18.667 -113.333 -36 -136 -52c-44 -30.667 -66.667 -75.667 -68 -135c-2.66699 -92.667 63.666 -139 198.999 -139c67.333 0 117.833 12.333 151.5 37s58.5 69.334 74.5 134.001z" />
    <glyph glyph-name="Agrave" unicode="&#xc0;" horiz-adv-x="1190" 
d="M1144 0l-351.001 0.000976562c28 34 42 63.333 42 88c0 20 -9.5 66 -28.5 138s-33.5 116.333 -43.5 133h-353c-13.333 -20.667 -29.833 -66.334 -49.5 -137.001s-29.5 -119 -29.5 -145c0 -33.333 11.333 -59 34 -77h-324c42.667 47.333 89.334 145.666 140.001 294.999
l304 893h242l278 -893c44 -141.333 90.333 -239.666 139 -294.999zM713.999 530.001l-117 394h-4l-127 -394h248zM846.999 1280l-278 2.00195c8 13.333 12 25.666 12 36.999c0 16 -14.333 42 -43 78l-24 30c-41.333 52 -86.333 90.333 -135 115l278 -1
c-6.66699 -14 -10 -26 -10 -36c0 -2.66699 0.333008 -6.33398 1 -11.001c1.33301 -10 14.666 -32.667 39.999 -68l22 -31c32.667 -46.667 78.334 -85 137.001 -115z" />
    <glyph glyph-name="Aacute" unicode="&#xc1;" horiz-adv-x="1186" 
d="M1144 0l-351.001 0.000976562c28 34 42 63.333 42 88c0 20 -9.5 66 -28.5 138s-33.5 116.333 -43.5 133h-353c-13.333 -20.667 -29.833 -66.334 -49.5 -137.001s-29.5 -119 -29.5 -145c0 -33.333 11.333 -59 34 -77h-324c42.667 47.333 89.334 145.666 140.001 294.999
l304 893h242l278 -893c44 -141.333 90.333 -239.666 139 -294.999zM713.999 530.001l-117 394h-4l-127 -394h248zM845.999 1542c-58 -30 -104 -68.334 -138 -115.001l-22 -30c-27.333 -37.333 -41 -63.333 -41 -78c0 -11.333 4 -23.666 12 -36.999l-278 -2
c49.333 22 94.333 60.333 135 115l23 31c23.333 31.333 37.333 54 42 68c2.66699 12 -1.33301 27.667 -12 47z" />
    <glyph glyph-name="Acircumflex" unicode="&#xc2;" horiz-adv-x="1190" 
d="M1144 0l-351.001 0.000976562c28 34 42 63.333 42 88c0 20 -9.5 66 -28.5 138s-33.5 116.333 -43.5 133h-353c-13.333 -20.667 -29.833 -66.334 -49.5 -137.001s-29.5 -119 -29.5 -145c0 -33.333 11.333 -59 34 -77h-324c42.667 47.333 89.334 145.666 140.001 294.999
l304 893h242l278 -893c44 -141.333 90.333 -239.666 139 -294.999zM713.999 530.001l-117 394h-4l-127 -394h248zM886.999 1276h-223v42c6.66699 0.666992 10.667 1.66699 12 3l-15 5c0 6.66699 -15.667 27.334 -47 62.001c-34 -30 -51 -51.333 -51 -64
c-3.33301 0 -8 -1.66699 -14 -5c2.66699 -0.666992 5.66699 -1.66699 9 -3v-41h-230v25c10 1.33301 23.667 11.666 41 30.999l129 141c8 8.66699 12 15.667 12 21c0 24.667 -10.333 39 -31 43v6h257v-6c-19.333 -4 -29 -18.333 -29 -43c0 -8 3 -14.333 9 -19l109 -108
c24.667 -24 39 -41.333 43 -52c-2 -3.33301 4.33301 -7.33301 19 -12v-26z" />
    <glyph glyph-name="Atilde" unicode="&#xc3;" horiz-adv-x="1159" 
d="M1131 0l-351.001 0.000976562c28 34 42 63.333 42 88c0 20 -9.5 66 -28.5 138s-33.5 116.333 -43.5 133h-353c-13.333 -20.667 -29.833 -66.334 -49.5 -137.001s-29.5 -119 -29.5 -145c0 -33.333 11.333 -59 34 -77h-324c42.667 47.333 89.334 145.666 140.001 294.999
l304 893h242l278 -893c44 -141.333 90.333 -239.666 139 -294.999zM700.999 530.001l-117 394h-4l-127 -394h248zM842.999 1467c-64 -121.333 -117.002 -184.999 -159.002 -190.999c-26.667 -3.33301 -48 6 -64 28c-4.66699 8 -20 29 -46 63c-22 21.333 -46.667 30 -74 26
c-15.333 -2 -42.666 -28.333 -81.999 -79c-1.33301 -1.33301 -3.66602 -7 -6.99902 -17l-65 58c16 35.333 38.333 72.666 67 111.999c35.333 48 66 73.667 92 77c16 2 49.667 -16.667 101 -56s78 -59 80 -59c18 2.66699 29.333 6.66699 34 12c10 11.333 27.667 40 53 86z
" />
    <glyph glyph-name="Adieresis" unicode="&#xc4;" horiz-adv-x="1182" 
d="M1131 0l-351.001 0.000976562c28 34 42 63.333 42 88c0 20 -9.5 66 -28.5 138s-33.5 116.333 -43.5 133h-353c-13.333 -20.667 -29.833 -66.334 -49.5 -137.001s-29.5 -119 -29.5 -145c0 -33.333 11.333 -59 34 -77h-324c42.667 47.333 89.334 145.666 140.001 294.999
l304 893h242l278 -893c44 -141.333 90.333 -239.666 139 -294.999zM700.999 530.001l-117 394h-4l-127 -394h248zM874.999 1319l-2 -1v-4l-2 2l-108 -65l4 -4l-6 2l-1 -2l1 4l-106 67l-3 -2v3l-2 2h2v134l-4 2l4 1v2h3l105 65v4l1 -2v-2l110 -70l2 -136h2zM539.999 1318
l-2 -2v-4l-1 2l-109 -65l4 -4l-4 2l-1 -2v4l-107 67l-3 -2v4l-2 1h2v134l-5 2l5 2v1h3l107 66l-4 3l4 -2l1 2v-3l109 -71l1 -135h2z" />
    <glyph glyph-name="Aring" unicode="&#xc5;" horiz-adv-x="1155" 
d="M1131 0l-351.001 0.000976562c28 34 42 63.333 42 88c0 20 -9.5 66 -28.5 138s-33.5 116.333 -43.5 133h-353c-13.333 -20.667 -29.833 -66.334 -49.5 -137.001s-29.5 -119 -29.5 -145c0 -33.333 11.333 -59 34 -77h-324c42.667 47.333 89.334 145.666 140.001 294.999
l304 893h242l278 -893c44 -141.333 90.333 -239.666 139 -294.999zM700.999 530.001l-117 394h-4l-127 -394h248zM768.999 1409c0 -49.333 -17.167 -91.1699 -51.5 -125.503s-76.166 -51.5 -125.499 -51.5c-50.667 0 -92.834 16.833 -126.501 50.5
s-50.5 75.834 -50.5 126.501s16.833 92.834 50.5 126.501s75.834 50.5 126.501 50.5c49.333 0 91.166 -17.167 125.499 -51.5s51.5 -76.166 51.5 -125.499zM679.999 1409c0 24 -8.66699 44.667 -26 62s-38 26 -62 26c-58 0 -87 -29.333 -87 -88c0 -58 29 -87 87 -87
c24 0 44.667 8.5 62 25.5s26 37.5 26 61.5z" />
    <glyph glyph-name="AE" unicode="&#xc6;" horiz-adv-x="1748" 
d="M1715 -38c-22 19.333 -151.999 29.001 -389.999 29.001c-58 0 -124.333 -0.333008 -199 -1c-4.66699 0.666992 -9 1 -13 1s-7.66699 -0.333008 -11 -1l-317 -11c40 33.333 63.333 62 70 86c3.33301 13.333 7.33301 59.666 12 138.999c2 36 3 66 3 90
c0 22.667 -1 37.334 -3 44.001l-355 10c-21.333 -22.667 -51.833 -67.334 -91.5 -134.001s-63.334 -113.334 -71.001 -140.001s-11.5 -44 -11.5 -52c1.33301 -6.66699 7.66602 -17 18.999 -31l-324 9c58 46.667 135 143.334 231 290.001l570 870
c-5.33301 4 -9.33301 7.66699 -12 11h17l4 5l185 -9h67c16.667 0 59.667 -2.33301 129 -7c50 -3.33301 83.667 -5 101 -5c178.667 0 296 14 352 42v-296c-5.33301 54 -26 86.667 -62 98c-14.667 4.66699 -60.334 7 -137.001 7h-22l-35 2h-67c-171.333 0 -257 -47 -257 -141
v-168c46.667 -4.66699 106 -7 178 -7h50c6 0 14 -0.666992 24 -2h17c52 0 96.333 24.667 133 74v-311c-20.667 47.333 -54.667 71 -102 71c-154 0 -254 -2.33301 -300 -7v-229c0 -91.333 51.333 -137 154 -137c12.667 0 31.334 1.16699 56.001 3.5s43.334 3.5 56.001 3.5
c19.333 0 48.5 -1.5 87.5 -4.5s68.167 -4.5 87.5 -4.5c98.667 0 157.667 38.333 177 115v-302zM872.001 908.001h-5l-244 -390l244 -6z" />
    <glyph glyph-name="Ccedilla" unicode="&#xc7;" horiz-adv-x="927" 
d="M893 1215l-118.996 -338c-1.33301 -1.33301 -3 -2.33301 -5 -3l-2 3c-32 96 -114.333 144 -247 144c-174.667 0 -262 -145.667 -262 -437c0 -258 93 -387 279 -387c113.333 0 187.666 54 222.999 162l126 -21c-10.667 -233.333 -135 -354.666 -373 -363.999l7 -68l7 -2
c82.667 -11.333 124 -55 124 -131c0 -54.667 -23 -96.334 -69 -125.001c-38 -24 -86 -36 -144 -36c-50.667 0 -109.667 15 -177 45l36 72c43.333 -18.667 78.666 -28 105.999 -28c70 0 105 23 105 69c0 38 -27.333 57 -82 57c-19.333 0 -39.333 -4 -60 -12l-26 65l81 14v84
c-138.667 16.667 -241.334 90.334 -308.001 221.001c-53.333 104.667 -80 234.667 -80 390c0 169.333 33.667 310 101 422c81.333 135.333 202 203 362 203c54 0 107.667 -5.66699 161 -17c51.333 -10.667 92.666 -19 123.999 -25c26.667 -4.66699 64 9.66602 112 42.999z
M527.004 -96h-7l5 -2z" />
    <glyph glyph-name="Egrave" unicode="&#xc8;" horiz-adv-x="934" 
d="M922 -21c-22.667 20 -152.666 29.999 -389.999 29.999c-8 0 -41.333 -0.666992 -100 -2c-78.667 -1.33301 -151.667 -2.66602 -219 -3.99902l-185 -3c35.333 27.333 53 83 53 167v854c0 84 -17.667 139.667 -53 167c56 0 140 -2.66699 252 -8s196 -8 252 -8
c178.667 0 296 14 352 42v-296c-5.33301 54 -26 86.667 -62 98c-14.667 4.66699 -61 7 -139 7h-20l-36 2h-67c-170.667 0 -256 -47 -256 -141v-168c46.667 -4.66699 106.334 -7 179.001 -7h49c7.33301 0 16 -0.666992 26 -2h14c52.667 0 97.334 24.667 134.001 74v-311
c-20.667 47.333 -55 71 -103 71c-152.667 0 -252.334 -2.33301 -299.001 -7v-228c0 -92 51.667 -138 155 -138c12.667 0 31.167 1.16699 55.5 3.5s42.833 3.5 55.5 3.5c19.333 0 48.166 -1.33301 86.499 -4s67.166 -4 86.499 -4c100 0 159.667 38.333 179 115v-303z
M728.001 1280l-278 2.00195c8 13.333 12 25.666 12 36.999c0 16 -14.333 42 -43 78l-24 30c-41.333 52 -86.333 90.333 -135 115l278 -1c-6.66699 -14 -10 -26 -10 -36c0 -2.66699 0.333008 -6.33398 1 -11.001c1.33301 -10 14.666 -32.667 39.999 -68l22 -31
c32.667 -46.667 78.334 -85 137.001 -115z" />
    <glyph glyph-name="Eacute" unicode="&#xc9;" horiz-adv-x="934" 
d="M918 -21c-22.667 20 -152.666 29.999 -389.999 29.999c-8 0 -41.333 -0.666992 -100 -2c-78.667 -1.33301 -151.667 -2.66602 -219 -3.99902l-185 -3c35.333 27.333 53 83 53 167v854c0 84 -17.667 139.667 -53 167c56 0 140 -2.66699 252 -8s196 -8 252 -8
c178.667 0 296 14 352 42v-296c-5.33301 54 -26 86.667 -62 98c-14.667 4.66699 -61 7 -139 7h-20l-36 2h-67c-170.667 0 -256 -47 -256 -141v-168c46.667 -4.66699 106.334 -7 179.001 -7h49c7.33301 0 16 -0.666992 26 -2h14c52.667 0 97.334 24.667 134.001 74v-311
c-20.667 47.333 -55 71 -103 71c-152.667 0 -252.334 -2.33301 -299.001 -7v-228c0 -92 51.667 -138 155 -138c12.667 0 31.167 1.16699 55.5 3.5s42.833 3.5 55.5 3.5c19.333 0 48.166 -1.33301 86.499 -4s67.166 -4 86.499 -4c100 0 159.667 38.333 179 115v-303z
M707.001 1542c-58 -30 -104 -68.334 -138 -115.001l-22 -30c-27.333 -37.333 -41 -63.333 -41 -78c0 -11.333 4 -23.666 12 -36.999l-278 -2c49.333 22 94.333 60.333 135 115l23 31c23.333 31.333 37.333 54 42 68c2.66699 12 -1.33301 27.667 -12 47z" />
    <glyph glyph-name="Ecircumflex" unicode="&#xca;" horiz-adv-x="934" 
d="M918 -21c-22.667 20 -152.666 29.999 -389.999 29.999c-8 0 -41.333 -0.666992 -100 -2c-78.667 -1.33301 -151.667 -2.66602 -219 -3.99902l-185 -3c35.333 27.333 53 83 53 167v854c0 84 -17.667 139.667 -53 167c56 0 140 -2.66699 252 -8s196 -8 252 -8
c178.667 0 296 14 352 42v-296c-5.33301 54 -26 86.667 -62 98c-14.667 4.66699 -61 7 -139 7h-20l-36 2h-67c-170.667 0 -256 -47 -256 -141v-168c46.667 -4.66699 106.334 -7 179.001 -7h49c7.33301 0 16 -0.666992 26 -2h14c52.667 0 97.334 24.667 134.001 74v-311
c-20.667 47.333 -55 71 -103 71c-152.667 0 -252.334 -2.33301 -299.001 -7v-228c0 -92 51.667 -138 155 -138c12.667 0 31.167 1.16699 55.5 3.5s42.833 3.5 55.5 3.5c19.333 0 48.166 -1.33301 86.499 -4s67.166 -4 86.499 -4c100 0 159.667 38.333 179 115v-303z
M764.001 1276h-223v42c6.66699 0.666992 10.667 1.66699 12 3l-15 5c0 6.66699 -15.667 27.334 -47 62.001c-34 -30 -51 -51.333 -51 -64c-3.33301 0 -8 -1.66699 -14 -5c2.66699 -0.666992 5.66699 -1.66699 9 -3v-41h-230v25c10 1.33301 23.667 11.666 41 30.999l129 141
c8 8.66699 12 15.667 12 21c0 24.667 -10.333 39 -31 43v6h257v-6c-19.333 -4 -29 -18.333 -29 -43c0 -8 3 -14.333 9 -19l109 -108c24.667 -24 39 -41.333 43 -52c-2 -3.33301 4.33301 -7.33301 19 -12v-26z" />
    <glyph glyph-name="Edieresis" unicode="&#xcb;" horiz-adv-x="934" 
d="M918 -21c-22.667 20 -152.666 29.999 -389.999 29.999c-8 0 -41.333 -0.666992 -100 -2c-78.667 -1.33301 -151.667 -2.66602 -219 -3.99902l-185 -3c35.333 27.333 53 83 53 167v854c0 84 -17.667 139.667 -53 167c56 0 140 -2.66699 252 -8s196 -8 252 -8
c178.667 0 296 14 352 42v-296c-5.33301 54 -26 86.667 -62 98c-14.667 4.66699 -61 7 -139 7h-20l-36 2h-67c-170.667 0 -256 -47 -256 -141v-168c46.667 -4.66699 106.334 -7 179.001 -7h49c7.33301 0 16 -0.666992 26 -2h14c52.667 0 97.334 24.667 134.001 74v-311
c-20.667 47.333 -55 71 -103 71c-152.667 0 -252.334 -2.33301 -299.001 -7v-228c0 -92 51.667 -138 155 -138c12.667 0 31.167 1.16699 55.5 3.5s42.833 3.5 55.5 3.5c19.333 0 48.166 -1.33301 86.499 -4s67.166 -4 86.499 -4c100 0 159.667 38.333 179 115v-303z
M768.001 1319l-2 -1v-4l-2 2l-108 -65l4 -4l-6 2l-1 -2l1 4l-106 67l-3 -2v3l-2 2h2v134l-4 2l4 1v2h3l105 65v4l1 -2v-2l110 -70l2 -136h2zM433.001 1318l-2 -2v-4l-1 2l-109 -65l4 -4l-4 2l-1 -2v4l-107 67l-3 -2v4l-2 1h2v134l-5 2l5 2v1h3l107 66l-4 3l4 -2l1 2v-3
l109 -71l1 -135h2z" />
    <glyph glyph-name="Igrave" unicode="&#xcc;" horiz-adv-x="459" 
d="M387 0l-329 -0.000976562c24.667 19.333 40 36 46 50c4.66699 10.667 7 32.334 7 65.001v958c0 46.667 -17.667 85 -53 115h329c-35.333 -32 -53 -70.333 -53 -115v-958c0 -34 2.33301 -55.667 7 -65c6.66699 -14 22 -30.667 46 -50zM455 1280l-278 2.00195
c8 13.333 12 25.666 12 36.999c0 16 -14.333 42 -43 78l-24 30c-41.333 52 -86.333 90.333 -135 115l278 -1c-6.66699 -14 -10 -26 -10 -36c0 -2.66699 0.333008 -6.33398 1 -11.001c1.33301 -10 14.666 -32.667 39.999 -68l22 -31c32.667 -46.667 78.334 -85 137.001 -115z
" />
    <glyph glyph-name="Iacute" unicode="&#xcd;" horiz-adv-x="406" 
d="M353 0l-329 -0.000976562c24.667 19.333 40 36 46 50c4.66699 10.667 7 32.334 7 65.001v958c0 46.667 -17.667 85 -53 115h329c-35.333 -32 -53 -70.333 -53 -115v-958c0 -34 2.33301 -55.667 7 -65c6.66699 -14 22 -30.667 46 -50zM431 1542
c-58 -30 -104 -68.334 -138 -115.001l-22 -30c-27.333 -37.333 -41 -63.333 -41 -78c0 -11.333 4 -23.666 12 -36.999l-278 -2c49.333 22 94.333 60.333 135 115l23 31c23.333 31.333 37.333 54 42 68c2.66699 12 -1.33301 27.667 -12 47z" />
    <glyph glyph-name="Icircumflex" unicode="&#xce;" horiz-adv-x="430" 
d="M391 0l-329 -0.000976562c24.667 19.333 40 36 46 50c4.66699 10.667 7 32.334 7 65.001v958c0 46.667 -17.667 85 -53 115h329c-35.333 -32 -53 -70.333 -53 -115v-958c0 -34 2.33301 -55.667 7 -65c6.66699 -14 22 -30.667 46 -50zM499 1276h-223v42
c6.66699 0.666992 10.667 1.66699 12 3l-15 5c0 6.66699 -15.667 27.334 -47 62.001c-34 -30 -51 -51.333 -51 -64c-3.33301 0 -8 -1.66699 -14 -5c2.66699 -0.666992 5.66699 -1.66699 9 -3v-41h-230v25c10 1.33301 23.667 11.666 41 30.999l129 141
c8 8.66699 12 15.667 12 21c0 24.667 -10.333 39 -31 43v6h257v-6c-19.333 -4 -29 -18.333 -29 -43c0 -8 3 -14.333 9 -19l109 -108c24.667 -24 39 -41.333 43 -52c-2 -3.33301 4.33301 -7.33301 19 -12v-26z" />
    <glyph glyph-name="Idieresis" unicode="&#xcf;" horiz-adv-x="467" 
d="M393 0l-329 -0.000976562c24.667 19.333 40 36 46 50c4.66699 10.667 7 32.334 7 65.001v958c0 46.667 -17.667 85 -53 115h329c-35.333 -32 -53 -70.333 -53 -115v-958c0 -34 2.33301 -55.667 7 -65c6.66699 -14 22 -30.667 46 -50zM521 1319l-2 -1v-4l-2 2l-108 -65
l4 -4l-6 2l-1 -2l1 4l-106 67l-3 -2v3l-2 2h2v134l-4 2l4 1v2h3l105 65v4l1 -2v-2l110 -70l2 -136h2zM186 1318l-2 -2v-4l-1 2l-109 -65l4 -4l-4 2l-1 -2v4l-107 67l-3 -2v4l-2 1h2v134l-5 2l5 2v1h3l107 66l-4 3l4 -2l1 2v-3l109 -71l1 -135h2z" />
    <glyph glyph-name="Eth" unicode="&#xd0;" horiz-adv-x="1102" 
d="M1069 630c0 -426.667 -190.998 -640 -572.998 -640c-31.333 0 -78 1.66699 -140 5s-108.667 5 -140 5c-36.667 0 -85.667 8 -147 24c45.333 38 68 97.667 68 179v283c-26.667 0 -46.667 -3.66699 -60 -11c-10.667 -6 -25.334 -20 -44.001 -42v329
c18 -22 32.667 -36 44 -42c14 -7.33301 34 -11 60 -11v295c0 43.333 -3.33301 73.666 -10 90.999c-8.66699 22.667 -28 45.667 -58 69c84.667 22.667 195 34 331 34h134c173.333 0 306.666 -52 399.999 -156c90 -99.333 135 -236.666 135 -411.999zM846.002 609
c0 278.667 -102.332 418 -306.999 418c-12 0 -30.333 0.5 -55 1.5s-43 1.5 -55 1.5c-45.333 0 -68 -21.667 -68 -65v-256h231c47.333 0 85.666 17.667 114.999 53c15.333 -44.667 23 -96 23 -154c0 -60 -7.66699 -118.333 -23 -175c-29.333 35.333 -67.666 53 -114.999 53
h-231v-247c0 -52.667 22 -79 66 -79h74h9c1.33301 0.666992 0.666016 1 -2.00098 1c225.333 0 338 149.333 338 448z" />
    <glyph glyph-name="Ntilde" unicode="&#xd1;" horiz-adv-x="1022" 
d="M991 1188c-28 -22.667 -42.999 -36 -44.999 -40c-6.66699 -8 -10 -27.333 -10 -58v-1006c0 -40 8 -68 24 -84h-242l-421 851h-3v-702c0 -86.667 16 -136.334 48 -149.001h-314c29.333 22.667 44.666 35.667 45.999 39c4.66699 8.66699 7 28.334 7 59.001v975
c0 52.667 -12 91 -36 115h297l377 -786h6v671c0 33.333 -2 55 -6 65c-4 24 -18 40.667 -42 50h314zM772.001 1467c-64 -121.333 -117.002 -184.999 -159.002 -190.999c-26.667 -3.33301 -48 6 -64 28c-4.66699 8 -20 29 -46 63c-22 21.333 -46.667 30 -74 26
c-15.333 -2 -42.666 -28.333 -81.999 -79c-1.33301 -1.33301 -3.66602 -7 -6.99902 -17l-65 58c16 35.333 38.333 72.666 67 111.999c35.333 48 66 73.667 92 77c16 2 49.667 -16.667 101 -56s78 -59 80 -59c18 2.66699 29.333 6.66699 34 12c10 11.333 27.667 40 53 86z
" />
    <glyph glyph-name="Ograve" unicode="&#xd2;" horiz-adv-x="1036" 
d="M1005 594c0 -413.333 -162.667 -620 -488 -620c-324.667 0 -487 206.667 -487 620s162.333 620 487 620c325.333 0 488 -206.667 488 -620zM800 594c0 292 -94.333 438 -283 438c-186.667 0 -280 -146 -280 -438s93.333 -438 280 -438c188.667 0 283 146 283 438z
M753 1280l-278 2.00195c8 13.333 12 25.666 12 36.999c0 16 -14.333 42 -43 78l-24 30c-41.333 52 -86.333 90.333 -135 115l278 -1c-6.66699 -14 -10 -26 -10 -36c0 -2.66699 0.333008 -6.33398 1 -11.001c1.33301 -10 14.666 -32.667 39.999 -68l22 -31
c32.667 -46.667 78.334 -85 137.001 -115z" />
    <glyph glyph-name="Oacute" unicode="&#xd3;" horiz-adv-x="1036" 
d="M1005 594c0 -413.333 -162.667 -620 -488 -620c-324.667 0 -487 206.667 -487 620s162.333 620 487 620c325.333 0 488 -206.667 488 -620zM800 594c0 292 -94.333 438 -283 438c-186.667 0 -280 -146 -280 -438s93.333 -438 280 -438c188.667 0 283 146 283 438z
M766 1542c-58 -30 -104 -68.334 -138 -115.001l-22 -30c-27.333 -37.333 -41 -63.333 -41 -78c0 -11.333 4 -23.666 12 -36.999l-278 -2c49.333 22 94.333 60.333 135 115l23 31c23.333 31.333 37.333 54 42 68c2.66699 12 -1.33301 27.667 -12 47z" />
    <glyph glyph-name="Ocircumflex" unicode="&#xd4;" horiz-adv-x="1036" 
d="M1005 594c0 -413.333 -162.667 -620 -488 -620c-324.667 0 -487 206.667 -487 620s162.333 620 487 620c325.333 0 488 -206.667 488 -620zM800 594c0 292 -94.333 438 -283 438c-186.667 0 -280 -146 -280 -438s93.333 -438 280 -438c188.667 0 283 146 283 438z
M807 1276h-223v42c6.66699 0.666992 10.667 1.66699 12 3l-15 5c0 6.66699 -15.667 27.334 -47 62.001c-34 -30 -51 -51.333 -51 -64c-3.33301 0 -8 -1.66699 -14 -5c2.66699 -0.666992 5.66699 -1.66699 9 -3v-41h-230v25c10 1.33301 23.667 11.666 41 30.999l129 141
c8 8.66699 12 15.667 12 21c0 24.667 -10.333 39 -31 43v6h257v-6c-19.333 -4 -29 -18.333 -29 -43c0 -8 3 -14.333 9 -19l109 -108c24.667 -24 39 -41.333 43 -52c-2 -3.33301 4.33301 -7.33301 19 -12v-26z" />
    <glyph glyph-name="Otilde" unicode="&#xd5;" horiz-adv-x="1036" 
d="M1005 594c0 -413.333 -162.667 -620 -488 -620c-324.667 0 -487 206.667 -487 620s162.333 620 487 620c325.333 0 488 -206.667 488 -620zM800 594c0 292 -94.333 438 -283 438c-186.667 0 -280 -146 -280 -438s93.333 -438 280 -438c188.667 0 283 146 283 438z
M761 1467c-64 -121.333 -117.002 -184.999 -159.002 -190.999c-26.667 -3.33301 -48 6 -64 28c-4.66699 8 -20 29 -46 63c-22 21.333 -46.667 30 -74 26c-15.333 -2 -42.666 -28.333 -81.999 -79c-1.33301 -1.33301 -3.66602 -7 -6.99902 -17l-65 58
c16 35.333 38.333 72.666 67 111.999c35.333 48 66 73.667 92 77c16 2 49.667 -16.667 101 -56s78 -59 80 -59c18 2.66699 29.333 6.66699 34 12c10 11.333 27.667 40 53 86z" />
    <glyph glyph-name="Odieresis" unicode="&#xd6;" horiz-adv-x="1036" 
d="M1005 594c0 -413.333 -162.667 -620 -488 -620c-324.667 0 -487 206.667 -487 620s162.333 620 487 620c325.333 0 488 -206.667 488 -620zM800 594c0 292 -94.333 438 -283 438c-186.667 0 -280 -146 -280 -438s93.333 -438 280 -438c188.667 0 283 146 283 438z
M811 1319l-2 -1v-4l-2 2l-108 -65l4 -4l-6 2l-1 -2l1 4l-106 67l-3 -2v3l-2 2h2v134l-4 2l4 1v2h3l105 65v4l1 -2v-2l110 -70l2 -136h2zM476 1318l-2 -2v-4l-1 2l-109 -65l4 -4l-4 2l-1 -2v4l-107 67l-3 -2v4l-2 1h2v134l-5 2l5 2v1h3l107 66l-4 3l4 -2l1 2v-3l109 -71
l1 -135h2z" />
    <glyph glyph-name="multiply" unicode="&#xd7;" horiz-adv-x="874" 
d="M841 290l-235.001 -233c1.33301 13.333 2 25.333 2 36c0 13.333 -0.666992 24 -2 32c-6.66699 12.667 -21 30 -43 52l-125 125l-129 -125c-18 -17.333 -31.667 -34.666 -41 -51.999c-1.33301 -8 -2 -18.667 -2 -32v-36l-233 233c14.667 -1.33301 26.667 -2 36 -2
c16 0 27.333 1.33301 34 4c13.333 5.33301 30.666 19 51.999 41l123 127l-123 127c-29.333 30 -58.666 45 -87.999 45c-9.33301 0 -20.666 -0.666992 -33.999 -2l233 233v-32c0 -30.667 14.333 -60 43 -88l129 -125l125 125c30 30 45 59.333 45 88
c0 9.33301 -0.666992 20 -2 32l235 -233c-12.667 1.33301 -23.334 2 -32.001 2c-30.667 0 -60.667 -15 -90 -45l-125 -127l125 -127c20.667 -20.667 39 -34.334 55 -41.001c6.66699 -2.66699 16.334 -4 29.001 -4c12 0 24.667 0.666992 38 2z" />
    <glyph glyph-name="Oslash" unicode="&#xd8;" horiz-adv-x="1042" 
d="M1016 1341c-48 -28 -82.333 -66.334 -103 -115.001l-56 -134c100.667 -102 151 -268 151 -498c0 -413.333 -162.667 -620 -488 -620c-48 0 -92.667 4.66699 -134 14c-5.33301 -16 -8 -27 -8 -33c0 -13.333 8.33301 -29.666 25 -48.999h-331c46 24 80.333 62.333 103 115
l26 60c-112 99.333 -168 270.333 -168 513c0 413.333 162.333 620 487 620c57.333 0 109.333 -6.33301 156 -19l14 31c14 31.333 21 53 21 65c0 14 -8.66699 30.667 -26 50h331zM803 593.999c0 113.333 -14.333 205 -43 275l-302 -708c20 -3.33301 40.667 -5 62 -5
c188.667 0 283 146 283 438zM603 1021c-25.333 7.33301 -53 11 -83 11c-186.667 0 -280 -146 -280 -438c0 -127.333 18 -226.333 54 -297z" />
    <glyph glyph-name="Ugrave" unicode="&#xd9;" horiz-adv-x="1022" 
d="M975 1188c-24 -18.667 -37.001 -32.335 -39.001 -41.002c2 6.66699 3 -12.333 3 -57v-618c0 -167.333 -33.667 -290.666 -101 -369.999c-73.333 -85.333 -192.333 -128 -357 -128c-123.333 0 -220.666 28 -291.999 84c-79.333 61.333 -119 152 -119 272v760
c0 44.667 0.666992 63.667 2 57c-1.33301 8.66699 -14.333 22.334 -39 41.001h297c-24 -26.667 -36.667 -44 -38 -52v-758c0 -148 67.333 -222 202 -222c148 0 222 74 222 222v716c0 32 -2.33301 52.333 -7 61c-1.33301 3.33301 -11 14.333 -29 33h295zM715.999 1280
l-278 2.00195c8 13.333 12 25.666 12 36.999c0 16 -14.333 42 -43 78l-24 30c-41.333 52 -86.333 90.333 -135 115l278 -1c-6.66699 -14 -10 -26 -10 -36c0 -2.66699 0.333008 -6.33398 1 -11.001c1.33301 -10 14.666 -32.667 39.999 -68l22 -31
c32.667 -46.667 78.334 -85 137.001 -115z" />
    <glyph glyph-name="Uacute" unicode="&#xda;" horiz-adv-x="997" 
d="M975 1188c-24 -18.667 -37.001 -32.335 -39.001 -41.002c2 6.66699 3 -12.333 3 -57v-618c0 -167.333 -33.667 -290.666 -101 -369.999c-73.333 -85.333 -192.333 -128 -357 -128c-123.333 0 -220.666 28 -291.999 84c-79.333 61.333 -119 152 -119 272v760
c0 44.667 0.666992 63.667 2 57c-1.33301 8.66699 -14.333 22.334 -39 41.001h297c-24 -26.667 -36.667 -44 -38 -52v-758c0 -148 67.333 -222 202 -222c148 0 222 74 222 222v716c0 32 -2.33301 52.333 -7 61c-1.33301 3.33301 -11 14.333 -29 33h295zM730.999 1542
c-58 -30 -104 -68.334 -138 -115.001l-22 -30c-27.333 -37.333 -41 -63.333 -41 -78c0 -11.333 4 -23.666 12 -36.999l-278 -2c49.333 22 94.333 60.333 135 115l23 31c23.333 31.333 37.333 54 42 68c2.66699 12 -1.33301 27.667 -12 47z" />
    <glyph glyph-name="Ucircumflex" unicode="&#xdb;" horiz-adv-x="1006" 
d="M975 1188c-24 -18.667 -37.001 -32.335 -39.001 -41.002c2 6.66699 3 -12.333 3 -57v-618c0 -167.333 -33.667 -290.666 -101 -369.999c-73.333 -85.333 -192.333 -128 -357 -128c-123.333 0 -220.666 28 -291.999 84c-79.333 61.333 -119 152 -119 272v760
c0 44.667 0.666992 63.667 2 57c-1.33301 8.66699 -14.333 22.334 -39 41.001h297c-24 -26.667 -36.667 -44 -38 -52v-758c0 -148 67.333 -222 202 -222c148 0 222 74 222 222v716c0 32 -2.33301 52.333 -7 61c-1.33301 3.33301 -11 14.333 -29 33h295zM788.999 1276h-223
v42c6.66699 0.666992 10.667 1.66699 12 3l-15 5c0 6.66699 -15.667 27.334 -47 62.001c-34 -30 -51 -51.333 -51 -64c-3.33301 0 -8 -1.66699 -14 -5c2.66699 -0.666992 5.66699 -1.66699 9 -3v-41h-230v25c10 1.33301 23.667 11.666 41 30.999l129 141
c8 8.66699 12 15.667 12 21c0 24.667 -10.333 39 -31 43v6h257v-6c-19.333 -4 -29 -18.333 -29 -43c0 -8 3 -14.333 9 -19l109 -108c24.667 -24 39 -41.333 43 -52c-2 -3.33301 4.33301 -7.33301 19 -12v-26z" />
    <glyph glyph-name="Udieresis" unicode="&#xdc;" horiz-adv-x="1001" 
d="M975 1188c-24 -18.667 -37.001 -32.335 -39.001 -41.002c2 6.66699 3 -12.333 3 -57v-618c0 -167.333 -33.667 -290.666 -101 -369.999c-73.333 -85.333 -192.333 -128 -357 -128c-123.333 0 -220.666 28 -291.999 84c-79.333 61.333 -119 152 -119 272v760
c0 44.667 0.666992 63.667 2 57c-1.33301 8.66699 -14.333 22.334 -39 41.001h297c-24 -26.667 -36.667 -44 -38 -52v-758c0 -148 67.333 -222 202 -222c148 0 222 74 222 222v716c0 32 -2.33301 52.333 -7 61c-1.33301 3.33301 -11 14.333 -29 33h295zM775.999 1319l-2 -1
v-4l-2 2l-108 -65l4 -4l-6 2l-1 -2l1 4l-106 67l-3 -2v3l-2 2h2v134l-4 2l4 1v2h3l105 65v4l1 -2v-2l110 -70l2 -136h2zM440.999 1318l-2 -2v-4l-1 2l-109 -65l4 -4l-4 2l-1 -2v4l-107 67l-3 -2v4l-2 1h2v134l-5 2l5 2v1h3l107 66l-4 3l4 -2l1 2v-3l109 -71l1 -135h2z" />
    <glyph glyph-name="Yacute" unicode="&#xdd;" horiz-adv-x="1083" 
d="M1070 1188c-52.667 -36 -118.669 -127.668 -198.002 -275.001l-228 -420v-400c0 -30 2.33301 -48.333 7 -55c2 -10.667 14.667 -23.334 38 -38.001h-303c24 12.667 38 24 42 34c3.33301 4.66699 5 24.334 5 59.001v400c-30 58 -68.333 136.333 -115 235l-136 290
c-27.333 58.667 -78.666 115.334 -153.999 170.001h386c-20.667 -18.667 -31 -40.334 -31 -65.001c0 -20 14.333 -60 43 -120c64.667 -135.333 106.334 -226 125.001 -272c14 23.333 43.333 83 88 179c52.667 112.667 79 186.334 79 221.001c0 15.333 -4.66699 27 -14 35
c-14 8 -26 15.333 -36 22h402zM814.998 1542c-58 -30 -104 -68.334 -138 -115.001l-22 -30c-27.333 -37.333 -41 -63.333 -41 -78c0 -11.333 4 -23.666 12 -36.999l-278 -2c49.333 22 94.333 60.333 135 115l23 31c23.333 31.333 37.333 54 42 68
c2.66699 12 -1.33301 27.667 -12 47z" />
    <glyph glyph-name="Thorn" unicode="&#xde;" horiz-adv-x="1039" 
d="M1006 596c0 -134.667 -40.668 -238.667 -122.001 -312c-77.333 -70 -184.333 -105 -321 -105c-19.333 0 -57.666 -1.33301 -114.999 -4c-52.667 -2.66699 -99 -4.33398 -139 -5.00098v-55c0 -34 2.33301 -55.667 7 -65c6.66699 -14 22 -30.667 46 -50h-329
c24.667 19.333 40 36 46 50c4.66699 10.667 7 32.334 7 65.001v958c0 46.667 -17.667 85 -53 115h329c-34 -30.667 -51.667 -69 -53 -115l-2 -69c24 6 106.333 8.33301 247 7c195.333 -1.33301 328.333 -69.333 399 -204c35.333 -66.667 53 -137 53 -211zM775.999 596
c0 77.333 -17.335 131 -52.002 161c-32 28.667 -87.333 43 -166 43c-124.667 0 -207.667 -2.33301 -249 -7v-402c44.667 -2 129.334 -2 254.001 0c76.667 1.33301 131.334 17 164.001 47s49 82.667 49 158z" />
    <glyph glyph-name="germandbls" unicode="&#xdf;" horiz-adv-x="1016" 
d="M951 292c0 -62.667 -12.667 -127.667 -38 -195c-28 -74 -64 -128.667 -108 -164c-34 -27.333 -81.333 -53 -142 -77l-84 -33c-28 -10.667 -50.333 -45 -67 -103l-57 270c87.333 22.667 149.666 50 186.999 82c20 17.333 37.667 50 53 98c14 43.333 21 81 21 113
c0 67.333 -22.333 126.666 -67 177.999c-47.333 54 -104 81 -170 81l-2 182c50.667 0 93.334 13.333 128.001 40c37.333 29.333 56 68.666 56 117.999c0 100 -61.333 150 -184 150c-38 0 -74 -9.66699 -108 -29c-40 -22 -60 -50.667 -60 -86v-802
c0 -30 3.16699 -51.833 9.5 -65.5s20.833 -30.167 43.5 -49.5h-329c22.667 18.667 37.167 35 43.5 49s9.5 36 9.5 66l2 781c0 108.667 40 190.667 120 246c68.667 48 159.667 72 273 72s204.333 -24 273 -72c80 -55.333 120 -137.333 120 -246
c0 -113.333 -47.667 -199.666 -143 -258.999c61.333 -29.333 113.333 -77.166 156 -143.499s64 -133.5 64 -201.5z" />
    <glyph glyph-name="agrave" unicode="&#xe0;" horiz-adv-x="918" 
d="M893 -14l-216 0.000976562l-24 79c-87.333 -56 -179 -84 -275 -84c-90 0 -162.667 20 -218 60c-64 45.333 -96 111.333 -96 198c0 64.667 21.667 120.667 65 168c40 44 92.667 73.667 158 89c24 5.33301 67 11.666 129 18.999c136 15.333 207 45.666 213 90.999
c0 54 -52.667 81 -158 81c-49.333 0 -145.666 -25.333 -288.999 -76v-3c-16 -4 -24.333 -7 -25 -9c-20 -7.33301 -30 -31.333 -30 -72l-10 -3l-82 309l12 5c17.333 -31.333 34.333 -47 51 -47c6 0 11.333 0.666992 16 2l25 7c195.333 54.667 312.666 82 351.999 82
c160 0 265.333 -41 316 -123c27.333 -44.667 41 -103.667 41 -177c0 -17.333 -1 -38.666 -3 -63.999l3 -3l2 -383c0 -3.33301 -0.666992 -6.66602 -2 -9.99902v-52c0 -32.667 15 -54.334 45 -65.001v-19zM629 438.001c-30 -52 -90.668 -84 -182.001 -96
c-55.333 -7.33301 -92.666 -15.333 -111.999 -24c-35.333 -16 -53 -41.333 -53 -76c0 -59.333 43 -89 129 -89c96.667 0 163 35 199 105c12.667 24.667 19 84.667 19 180zM693.999 989.001l-278 2.00195c8 13.333 12 25.666 12 36.999c0 16 -14.333 42 -43 78l-24 30
c-41.333 52 -86.333 90.333 -135 115l278 -1c-6.66699 -14 -10 -26 -10 -36c0 -2.66699 0.333008 -6.33398 1 -11.001c1.33301 -10 14.666 -32.667 39.999 -68l22 -31c32.667 -46.667 78.334 -85 137.001 -115z" />
    <glyph glyph-name="aacute" unicode="&#xe1;" horiz-adv-x="928" 
d="M893 -14l-216 0.000976562l-24 79c-87.333 -56 -179 -84 -275 -84c-90 0 -162.667 20 -218 60c-64 45.333 -96 111.333 -96 198c0 64.667 21.667 120.667 65 168c40 44 92.667 73.667 158 89c24 5.33301 67 11.666 129 18.999c136 15.333 207 45.666 213 90.999
c0 54 -52.667 81 -158 81c-49.333 0 -145.666 -25.333 -288.999 -76v-3c-16 -4 -24.333 -7 -25 -9c-20 -7.33301 -30 -31.333 -30 -72l-10 -3l-82 309l12 5c17.333 -31.333 34.333 -47 51 -47c6 0 11.333 0.666992 16 2l25 7c195.333 54.667 312.666 82 351.999 82
c160 0 265.333 -41 316 -123c27.333 -44.667 41 -103.667 41 -177c0 -17.333 -1 -38.666 -3 -63.999l3 -3l2 -383c0 -3.33301 -0.666992 -6.66602 -2 -9.99902v-52c0 -32.667 15 -54.334 45 -65.001v-19zM629 438.001c-30 -52 -90.668 -84 -182.001 -96
c-55.333 -7.33301 -92.666 -15.333 -111.999 -24c-35.333 -16 -53 -41.333 -53 -76c0 -59.333 43 -89 129 -89c96.667 0 163 35 199 105c12.667 24.667 19 84.667 19 180zM708.999 1251c-58 -30 -104 -68.334 -138 -115.001l-22 -30c-27.333 -37.333 -41 -63.333 -41 -78
c0 -11.333 4 -23.666 12 -36.999l-278 -2c49.333 22 94.333 60.333 135 115l23 31c23.333 31.333 37.333 54 42 68c2.66699 12 -1.33301 27.667 -12 47z" />
    <glyph glyph-name="acircumflex" unicode="&#xe2;" horiz-adv-x="928" 
d="M893 -14l-216 0.000976562l-24 79c-87.333 -56 -179 -84 -275 -84c-90 0 -162.667 20 -218 60c-64 45.333 -96 111.333 -96 198c0 64.667 21.667 120.667 65 168c40 44 92.667 73.667 158 89c24 5.33301 67 11.666 129 18.999c136 15.333 207 45.666 213 90.999
c0 54 -52.667 81 -158 81c-49.333 0 -145.666 -25.333 -288.999 -76v-3c-16 -4 -24.333 -7 -25 -9c-20 -7.33301 -30 -31.333 -30 -72l-10 -3l-82 309l12 5c17.333 -31.333 34.333 -47 51 -47c6 0 11.333 0.666992 16 2l25 7c195.333 54.667 312.666 82 351.999 82
c160 0 265.333 -41 316 -123c27.333 -44.667 41 -103.667 41 -177c0 -17.333 -1 -38.666 -3 -63.999l3 -3l2 -383c0 -3.33301 -0.666992 -6.66602 -2 -9.99902v-52c0 -32.667 15 -54.334 45 -65.001v-19zM629 438.001c-30 -52 -90.668 -84 -182.001 -96
c-55.333 -7.33301 -92.666 -15.333 -111.999 -24c-35.333 -16 -53 -41.333 -53 -76c0 -59.333 43 -89 129 -89c96.667 0 163 35 199 105c12.667 24.667 19 84.667 19 180zM749.999 985.001h-223v42c6.66699 0.666992 10.667 1.66699 12 3l-15 5
c0 6.66699 -15.667 27.334 -47 62.001c-34 -30 -51 -51.333 -51 -64c-3.33301 0 -8 -1.66699 -14 -5c2.66699 -0.666992 5.66699 -1.66699 9 -3v-41h-230v25c10 1.33301 23.667 11.666 41 30.999l129 141c8 8.66699 12 15.667 12 21c0 24.667 -10.333 39 -31 43v6h257v-6
c-19.333 -4 -29 -18.333 -29 -43c0 -8 3 -14.333 9 -19l109 -108c24.667 -24 39 -41.333 43 -52c-2 -3.33301 4.33301 -7.33301 19 -12v-26z" />
    <glyph glyph-name="atilde" unicode="&#xe3;" horiz-adv-x="930" 
d="M893 -14l-216 0.000976562l-24 79c-87.333 -56 -179 -84 -275 -84c-90 0 -162.667 20 -218 60c-64 45.333 -96 111.333 -96 198c0 64.667 21.667 120.667 65 168c40 44 92.667 73.667 158 89c24 5.33301 67 11.666 129 18.999c136 15.333 207 45.666 213 90.999
c0 54 -52.667 81 -158 81c-49.333 0 -145.666 -25.333 -288.999 -76v-3c-16 -4 -24.333 -7 -25 -9c-20 -7.33301 -30 -31.333 -30 -72l-10 -3l-82 309l12 5c17.333 -31.333 34.333 -47 51 -47c6 0 11.333 0.666992 16 2l25 7c195.333 54.667 312.666 82 351.999 82
c160 0 265.333 -41 316 -123c27.333 -44.667 41 -103.667 41 -177c0 -17.333 -1 -38.666 -3 -63.999l3 -3l2 -383c0 -3.33301 -0.666992 -6.66602 -2 -9.99902v-52c0 -32.667 15 -54.334 45 -65.001v-19zM629 438.001c-30 -52 -90.668 -84 -182.001 -96
c-55.333 -7.33301 -92.666 -15.333 -111.999 -24c-35.333 -16 -53 -41.333 -53 -76c0 -59.333 43 -89 129 -89c96.667 0 163 35 199 105c12.667 24.667 19 84.667 19 180zM722.999 1176c-64 -121.333 -117.002 -184.999 -159.002 -190.999c-26.667 -3.33301 -48 6 -64 28
c-4.66699 8 -20 29 -46 63c-22 21.333 -46.667 30 -74 26c-15.333 -2 -42.666 -28.333 -81.999 -79c-1.33301 -1.33301 -3.66602 -7 -6.99902 -17l-65 58c16 35.333 38.333 72.666 67 111.999c35.333 48 66 73.667 92 77c16 2 49.667 -16.667 101 -56s78 -59 80 -59
c18 2.66699 29.333 6.66699 34 12c10 11.333 27.667 40 53 86z" />
    <glyph glyph-name="adieresis" unicode="&#xe4;" horiz-adv-x="918" 
d="M893 -14l-216 0.000976562l-24 79c-87.333 -56 -179 -84 -275 -84c-90 0 -162.667 20 -218 60c-64 45.333 -96 111.333 -96 198c0 64.667 21.667 120.667 65 168c40 44 92.667 73.667 158 89c24 5.33301 67 11.666 129 18.999c136 15.333 207 45.666 213 90.999
c0 54 -52.667 81 -158 81c-49.333 0 -145.666 -25.333 -288.999 -76v-3c-16 -4 -24.333 -7 -25 -9c-20 -7.33301 -30 -31.333 -30 -72l-10 -3l-82 309l12 5c17.333 -31.333 34.333 -47 51 -47c6 0 11.333 0.666992 16 2l25 7c195.333 54.667 312.666 82 351.999 82
c160 0 265.333 -41 316 -123c27.333 -44.667 41 -103.667 41 -177c0 -17.333 -1 -38.666 -3 -63.999l3 -3l2 -383c0 -3.33301 -0.666992 -6.66602 -2 -9.99902v-52c0 -32.667 15 -54.334 45 -65.001v-19zM629 438.001c-30 -52 -90.668 -84 -182.001 -96
c-55.333 -7.33301 -92.666 -15.333 -111.999 -24c-35.333 -16 -53 -41.333 -53 -76c0 -59.333 43 -89 129 -89c96.667 0 163 35 199 105c12.667 24.667 19 84.667 19 180zM753.999 1028l-2 -1v-4l-2 2l-108 -65l4 -4l-6 2l-1 -2l1 4l-106 67l-3 -2v3l-2 2h2v134l-4 2l4 1v2
h3l105 65v4l1 -2v-2l110 -70l2 -136h2zM418.999 1027l-2 -2v-4l-1 2l-109 -65l4 -4l-4 2l-1 -2v4l-107 67l-3 -2v4l-2 1h2v134l-5 2l5 2v1h3l107 66l-4 3l4 -2l1 2v-3l109 -71l1 -135h2z" />
    <glyph glyph-name="aring" unicode="&#xe5;" horiz-adv-x="918" 
d="M893 -14l-216 0.000976562l-24 79c-87.333 -56 -179 -84 -275 -84c-90 0 -162.667 20 -218 60c-64 45.333 -96 111.333 -96 198c0 64.667 21.667 120.667 65 168c40 44 92.667 73.667 158 89c24 5.33301 67 11.666 129 18.999c136 15.333 207 45.666 213 90.999
c0 54 -52.667 81 -158 81c-49.333 0 -145.666 -25.333 -288.999 -76v-3c-16 -4 -24.333 -7 -25 -9c-20 -7.33301 -30 -31.333 -30 -72l-10 -3l-82 309l12 5c17.333 -31.333 34.333 -47 51 -47c6 0 11.333 0.666992 16 2l25 7c195.333 54.667 312.666 82 351.999 82
c160 0 265.333 -41 316 -123c27.333 -44.667 41 -103.667 41 -177c0 -17.333 -1 -38.666 -3 -63.999l3 -3l2 -383c0 -3.33301 -0.666992 -6.66602 -2 -9.99902v-52c0 -32.667 15 -54.334 45 -65.001v-19zM629 438.001c-30 -52 -90.668 -84 -182.001 -96
c-55.333 -7.33301 -92.666 -15.333 -111.999 -24c-35.333 -16 -53 -41.333 -53 -76c0 -59.333 43 -89 129 -89c96.667 0 163 35 199 105c12.667 24.667 19 84.667 19 180zM631.999 1156c0 -49.333 -17.167 -91.1699 -51.5 -125.503s-76.166 -51.5 -125.499 -51.5
c-50.667 0 -92.834 16.833 -126.501 50.5s-50.5 75.834 -50.5 126.501s16.833 92.834 50.5 126.501s75.834 50.5 126.501 50.5c49.333 0 91.166 -17.167 125.499 -51.5s51.5 -76.166 51.5 -125.499zM542.999 1156c0 24 -8.66699 44.667 -26 62s-38 26 -62 26
c-58 0 -87 -29.333 -87 -88c0 -58 29 -87 87 -87c24 0 44.667 8.5 62 25.5s26 37.5 26 61.5z" />
    <glyph glyph-name="ae" unicode="&#xe6;" horiz-adv-x="1500" 
d="M1468 172l-7.00098 -16.999c-6 0.666992 -11.333 1 -16 1c-16 0 -34 -12.667 -54 -38l-4 -3l-45 -57c-53.333 -51.333 -142 -77 -266 -77c-123.333 0 -204 21.667 -242 65c-2 -4.66699 -3 -10.334 -3 -17.001c0 -5.33301 1 -11 3 -17l-22 -24l-137 -2l-24 79
c-87.333 -56 -179 -84 -275 -84c-90 0 -162.667 20 -218 60c-64 45.333 -96 111.333 -96 198c0 64.667 21.667 120.667 65 168c40 44 92.667 73.667 158 89c24 5.33301 67 11.666 129 18.999c136 15.333 207 45.666 213 90.999c0 54 -52.667 81 -158 81
c-49.333 0 -145.666 -25.333 -288.999 -76v-3c-16 -4 -24.333 -7 -25 -9c-20 -7.33301 -30 -31.333 -30 -72l-10 -3l-82 309l12 5c17.333 -31.333 34.333 -47 51 -47c6 0 11.333 0.666992 16 2l25 7c195.333 54.667 312.666 82 351.999 82
c143.333 0 242.333 -32.333 297 -97c68.667 53.333 155.667 80 261 80c116.667 0 213.334 -37.333 290.001 -112s115 -170 115 -286c0 -14 -1 -39.667 -3 -77h-601c2 -70.667 23 -126.667 63 -168s95 -62.666 165 -63.999c54 -1.33301 93 8.33398 117 29.001l21 26
c6.66699 8.66699 7.66699 24.667 3 48c-3.33301 10 -12.333 22 -27 36l8 19zM1231 541.001c-19.333 98 -80.667 147 -184 147c-104 0 -167 -49 -189 -147h373zM626.998 438.001c-30 -52 -90.668 -84 -182.001 -96c-55.333 -7.33301 -92.666 -15.333 -111.999 -24
c-35.333 -16 -53 -41.333 -53 -76c0 -59.333 43 -89 129 -89c96.667 0 163 35 199 105c12.667 24.667 19 84.667 19 180z" />
    <glyph glyph-name="ccedilla" unicode="&#xe7;" horiz-adv-x="838" 
d="M803 134l-8.00195 -15.999c-9.33301 2.66699 -17.333 4 -24 4c-9.33301 0 -23.666 -7.33301 -42.999 -22l-79 -59c-53.333 -40 -123.333 -60 -210 -60l7 -75l7 -2c82.667 -11.333 124 -55 124 -131c0 -107.333 -71 -161 -213 -161c-50.667 0 -109 15 -175 45l34 72
c43.333 -18.667 79.333 -28 108 -28c70 0 105 23 105 69c0 38 -28 57 -84 57c-19.333 0 -39.333 -4 -60 -12l-24 65l79 14l1 94c-107.333 18 -188 68.333 -242 151c-48.667 74 -73 168 -73 282c0 192 64.667 323 194 393c62.667 34 132.334 51 209.001 51
c87.333 0 156 -17 206 -51l31 -21c12.667 -12.667 37.667 -31.667 75 -57c4.66699 -2 10 -3 16 -3c8 0 16 1.66699 24 5l9 -17l-255 -180l-8 15c13.333 17.333 20.666 31 21.999 41c2 17.333 -1.33301 31.666 -10 42.999l-12 16v1c-25.333 20.667 -56.333 31 -93 31
c-131.333 0 -197 -88 -197 -264c0 -177.333 63.333 -266 190 -266c42.667 0 78.334 11.333 107.001 34l12 23c10 18.667 13.333 33 10 43c-2 11.333 -9.33301 25 -22 41l8 15zM452.998 -95.999h-5l3 -2z" />
    <glyph glyph-name="egrave" unicode="&#xe8;" horiz-adv-x="897" 
d="M876 172l-7.00098 -17.002c-5.33301 0.666992 -10.333 1 -15 1c-16 0 -34.333 -12.667 -55 -38l-3 -3l-45 -57c-54 -51.333 -142.667 -77 -266 -77c-140.667 0 -250 37.667 -328 113s-117 183 -117 323c0 136 35 243.667 105 323c72.667 83.333 176.334 125 311.001 125
c116 0 212.5 -37.333 289.5 -112s115.5 -170 115.5 -286c0 -14 -0.666992 -39.667 -2 -77h-601c1.33301 -70.667 21.833 -126.667 61.5 -168s94.834 -62.666 165.501 -63.999c54 -1.33301 93 8.33398 117 29.001l20 26c7.33301 9.33301 8.66602 25.333 3.99902 48
c-3.33301 10 -12 22 -26 36l7 19zM638.999 540.998c-19.333 98 -80 147 -182 147c-104 0 -167.333 -49 -190 -147h372zM678.999 988.998l-278 2.00195c8 13.333 12 25.666 12 36.999c0 16 -14.333 42 -43 78l-24 30c-41.333 52 -86.333 90.333 -135 115l278 -1
c-6.66699 -14 -10 -26 -10 -36c0 -2.66699 0.333008 -6.33398 1 -11.001c1.33301 -10 14.666 -32.667 39.999 -68l22 -31c32.667 -46.667 78.334 -85 137.001 -115z" />
    <glyph glyph-name="eacute" unicode="&#xe9;" horiz-adv-x="928" 
d="M876 172l-7.00098 -17.002c-5.33301 0.666992 -10.333 1 -15 1c-16 0 -34.333 -12.667 -55 -38l-3 -3l-45 -57c-54 -51.333 -142.667 -77 -266 -77c-140.667 0 -250 37.667 -328 113s-117 183 -117 323c0 136 35 243.667 105 323c72.667 83.333 176.334 125 311.001 125
c116 0 212.5 -37.333 289.5 -112s115.5 -170 115.5 -286c0 -14 -0.666992 -39.667 -2 -77h-601c1.33301 -70.667 21.833 -126.667 61.5 -168s94.834 -62.666 165.501 -63.999c54 -1.33301 93 8.33398 117 29.001l20 26c7.33301 9.33301 8.66602 25.333 3.99902 48
c-3.33301 10 -12 22 -26 36l7 19zM638.999 540.998c-19.333 98 -80 147 -182 147c-104 0 -167.333 -49 -190 -147h372zM696.999 1251c-58 -30 -104 -68.334 -138 -115.001l-22 -30c-27.333 -37.333 -41 -63.333 -41 -78c0 -11.333 4 -23.666 12 -36.999l-278 -2
c49.333 22 94.333 60.333 135 115l23 31c23.333 31.333 37.333 54 42 68c2.66699 12 -1.33301 27.667 -12 47z" />
    <glyph glyph-name="ecircumflex" unicode="&#xea;" horiz-adv-x="915" 
d="M876 172l-7.00098 -17.002c-5.33301 0.666992 -10.333 1 -15 1c-16 0 -34.333 -12.667 -55 -38l-3 -3l-45 -57c-54 -51.333 -142.667 -77 -266 -77c-140.667 0 -250 37.667 -328 113s-117 183 -117 323c0 136 35 243.667 105 323c72.667 83.333 176.334 125 311.001 125
c116 0 212.5 -37.333 289.5 -112s115.5 -170 115.5 -286c0 -14 -0.666992 -39.667 -2 -77h-601c1.33301 -70.667 21.833 -126.667 61.5 -168s94.834 -62.666 165.501 -63.999c54 -1.33301 93 8.33398 117 29.001l20 26c7.33301 9.33301 8.66602 25.333 3.99902 48
c-3.33301 10 -12 22 -26 36l7 19zM638.999 540.998c-19.333 98 -80 147 -182 147c-104 0 -167.333 -49 -190 -147h372zM720.999 984.998h-223v42c6.66699 0.666992 10.667 1.66699 12 3l-15 5c0 6.66699 -15.667 27.334 -47 62.001c-34 -30 -51 -51.333 -51 -64
c-3.33301 0 -8 -1.66699 -14 -5c2.66699 -0.666992 5.66699 -1.66699 9 -3v-41h-230v25c10 1.33301 23.667 11.666 41 30.999l129 141c8 8.66699 12 15.667 12 21c0 24.667 -10.333 39 -31 43v6h257v-6c-19.333 -4 -29 -18.333 -29 -43c0 -8 3 -14.333 9 -19l109 -108
c24.667 -24 39 -41.333 43 -52c-2 -3.33301 4.33301 -7.33301 19 -12v-26z" />
    <glyph glyph-name="edieresis" unicode="&#xeb;" horiz-adv-x="909" 
d="M876 172l-7.00098 -17.002c-5.33301 0.666992 -10.333 1 -15 1c-16 0 -34.333 -12.667 -55 -38l-3 -3l-45 -57c-54 -51.333 -142.667 -77 -266 -77c-140.667 0 -250 37.667 -328 113s-117 183 -117 323c0 136 35 243.667 105 323c72.667 83.333 176.334 125 311.001 125
c116 0 212.5 -37.333 289.5 -112s115.5 -170 115.5 -286c0 -14 -0.666992 -39.667 -2 -77h-601c1.33301 -70.667 21.833 -126.667 61.5 -168s94.834 -62.666 165.501 -63.999c54 -1.33301 93 8.33398 117 29.001l20 26c7.33301 9.33301 8.66602 25.333 3.99902 48
c-3.33301 10 -12 22 -26 36l7 19zM638.999 540.998c-19.333 98 -80 147 -182 147c-104 0 -167.333 -49 -190 -147h372zM738.999 1028l-2 -1v-4l-2 2l-108 -65l4 -4l-6 2l-1 -2l1 4l-106 67l-3 -2v3l-2 2h2v134l-4 2l4 1v2h3l105 65v4l1 -2v-2l110 -70l2 -136h2z
M403.999 1027l-2 -2v-4l-1 2l-109 -65l4 -4l-4 2l-1 -2v4l-107 67l-3 -2v4l-2 1h2v134l-5 2l5 2v1h3l107 66l-4 3l4 -2l1 2v-3l109 -71l1 -135h2z" />
    <glyph glyph-name="igrave" unicode="&#xec;" horiz-adv-x="362" 
d="M330 -5h-295v19c32 10 48 31 48 63v697c0 32 -16 53.667 -48 65v21h295v-21c-30 -11.333 -45 -33 -45 -65v-697c0 -32 15 -53 45 -63v-19zM420 989l-278 2.00195c8 13.333 12 25.666 12 36.999c0 16 -14.333 42 -43 78l-24 30c-41.333 52 -86.333 90.333 -135 115l278 -1
c-6.66699 -14 -10 -26 -10 -36c0 -2.66699 0.333008 -6.33398 1 -11.001c1.33301 -10 14.666 -32.667 39.999 -68l22 -31c32.667 -46.667 78.334 -85 137.001 -115z" />
    <glyph glyph-name="iacute" unicode="&#xed;" horiz-adv-x="367" 
d="M328 -5h-295v19c32 10 48 31 48 63v697c0 32 -16 53.667 -48 65v21h295v-21c-30 -11.333 -45 -33 -45 -65v-697c0 -32 15 -53 45 -63v-19zM419 1251c-58 -30 -104 -68.334 -138 -115.001l-22 -30c-27.333 -37.333 -41 -63.333 -41 -78c0 -11.333 4 -23.666 12 -36.999
l-278 -2c49.333 22 94.333 60.333 135 115l23 31c23.333 31.333 37.333 54 42 68c2.66699 12 -1.33301 27.667 -12 47z" />
    <glyph glyph-name="icircumflex" unicode="&#xee;" horiz-adv-x="379" 
d="M334 -5h-295v19c32 10 48 31 48 63v697c0 32 -16 53.667 -48 65v21h295v-21c-30 -11.333 -45 -33 -45 -65v-697c0 -32 15 -53 45 -63v-19zM480 985h-223v42c6.66699 0.666992 10.667 1.66699 12 3l-15 5c0 6.66699 -15.667 27.334 -47 62.001
c-34 -30 -51 -51.333 -51 -64c-3.33301 0 -8 -1.66699 -14 -5c2.66699 -0.666992 5.66699 -1.66699 9 -3v-41h-230v25c10 1.33301 23.667 11.666 41 30.999l129 141c8 8.66699 12 15.667 12 21c0 24.667 -10.333 39 -31 43v6h257v-6c-19.333 -4 -29 -18.333 -29 -43
c0 -8 3 -14.333 9 -19l109 -108c24.667 -24 39 -41.333 43 -52c-2 -3.33301 4.33301 -7.33301 19 -12v-26z" />
    <glyph glyph-name="idieresis" unicode="&#xef;" horiz-adv-x="367" 
d="M336 -5h-295v19c32 10 48 31 48 63v697c0 32 -16 53.667 -48 65v21h295v-21c-30 -11.333 -45 -33 -45 -65v-697c0 -32 15 -53 45 -63v-19zM470 1028l-2 -1v-4l-2 2l-108 -65l4 -4l-6 2l-1 -2l1 4l-106 67l-3 -2v3l-2 2h2v134l-4 2l4 1v2h3l105 65v4l1 -2v-2l110 -70
l2 -136h2zM135 1027l-2 -2v-4l-1 2l-109 -65l4 -4l-4 2l-1 -2v4l-107 67l-3 -2v4l-2 1h2v134l-5 2l5 2v1h3l107 66l-4 3l4 -2l1 2v-3l109 -71l1 -135h2z" />
    <glyph glyph-name="eth" unicode="&#xf0;" horiz-adv-x="900" 
d="M867 433c0 -194.667 -68.002 -328.001 -204.002 -400.001c-65.333 -34.667 -136 -52 -212 -52c-133.333 0 -236.666 40.667 -309.999 122c-71.333 78 -107 184.333 -107 319c0 100.667 21 187 63 259c46.667 80.667 115 135.334 205 164.001l252 106l-322 98
c-32.667 10 -55.667 15 -69 15c-25.333 0 -42.333 -17 -51 -51h-19v326h19c8.66699 -26 23 -45 43 -57c6.66699 -4 31 -13 73 -27l467 -155c40 -13.333 67 -20 81 -20c40 0 64 17 72 51h2l1 -371h-1c-7.33301 33.333 -33 50 -77 50c-15.333 0 -37.666 -5.66699 -66.999 -17
c107.333 -78 161 -198 161 -360zM655.998 426.999c0 73.333 -15.333 133 -46 179c-36 54 -89 81 -159 81c-136 0 -204 -88.333 -204 -265c0 -176 68 -264 204 -264c136.667 0 205 89.667 205 269zM437.998 686.999l-38.001 -5c12.667 2 25.334 3.66699 38.001 5z" />
    <glyph glyph-name="ntilde" unicode="&#xf1;" 
d="M847 0h-295.001v21c30.667 11.333 46 33 46 65v39h2v347c0 68 -2.33301 112 -7 132c-13.333 57.333 -54.333 86 -123 86c-79.333 0 -132.666 -31.333 -159.999 -94c-12.667 -28.667 -19 -75 -19 -139v-373h-2c0 -33.333 15.667 -55.666 47 -66.999v-19h-294v19
c28.667 11.333 43 33.666 43 66.999v0v699c0 32 -15.333 53.667 -46 65v19h219l21 -72c62 50 134 75 216 75c206.667 0 309.667 -116 309 -348l-1 -436c0 -33.333 14.667 -55 44 -65v-21zM689.999 1176c-64 -121.333 -117.002 -184.999 -159.002 -190.999
c-26.667 -3.33301 -48 6 -64 28c-4.66699 8 -20 29 -46 63c-22 21.333 -46.667 30 -74 26c-15.333 -2 -42.666 -28.333 -81.999 -79c-1.33301 -1.33301 -3.66602 -7 -6.99902 -17l-65 58c16 35.333 38.333 72.666 67 111.999c35.333 48 66 73.667 92 77
c16 2 49.667 -16.667 101 -56s78 -59 80 -59c18 2.66699 29.333 6.66699 34 12c10 11.333 27.667 40 53 86z" />
    <glyph glyph-name="ograve" unicode="&#xf2;" horiz-adv-x="909" 
d="M873 433c0 -194.667 -68.001 -328.001 -204.001 -400.001c-65.333 -34.667 -136 -52 -212 -52c-133.333 0 -236.666 40.667 -309.999 122c-71.333 78 -107 184.333 -107 319s35.333 241.334 106 320.001c74 82 177.667 123 311 123c131.333 0 234 -39.333 308 -118
c72 -77.333 108 -182 108 -314zM661.999 426.999c0 73.333 -15.333 133 -46 179c-36 54 -89 81 -159 81c-136 0 -204 -88.333 -204 -265c0 -176 68 -264 204 -264c136.667 0 205 89.667 205 269zM660.999 988.999l-278 2.00195c8 13.333 12 25.666 12 36.999
c0 16 -14.333 42 -43 78l-24 30c-41.333 52 -86.333 90.333 -135 115l278 -1c-6.66699 -14 -10 -26 -10 -36c0 -2.66699 0.333008 -6.33398 1 -11.001c1.33301 -10 14.666 -32.667 39.999 -68l22 -31c32.667 -46.667 78.334 -85 137.001 -115z" />
    <glyph glyph-name="oacute" unicode="&#xf3;" horiz-adv-x="909" 
d="M873 433c0 -194.667 -68.001 -328.001 -204.001 -400.001c-65.333 -34.667 -136 -52 -212 -52c-133.333 0 -236.666 40.667 -309.999 122c-71.333 78 -107 184.333 -107 319s35.333 241.334 106 320.001c74 82 177.667 123 311 123c131.333 0 234 -39.333 308 -118
c72 -77.333 108 -182 108 -314zM661.999 426.999c0 73.333 -15.333 133 -46 179c-36 54 -89 81 -159 81c-136 0 -204 -88.333 -204 -265c0 -176 68 -264 204 -264c136.667 0 205 89.667 205 269zM659.999 1251c-58 -30 -104 -68.334 -138 -115.001l-22 -30
c-27.333 -37.333 -41 -63.333 -41 -78c0 -11.333 4 -23.666 12 -36.999l-278 -2c49.333 22 94.333 60.333 135 115l23 31c23.333 31.333 37.333 54 42 68c2.66699 12 -1.33301 27.667 -12 47z" />
    <glyph glyph-name="ocircumflex" unicode="&#xf4;" horiz-adv-x="909" 
d="M873 433c0 -194.667 -68.001 -328.001 -204.001 -400.001c-65.333 -34.667 -136 -52 -212 -52c-133.333 0 -236.666 40.667 -309.999 122c-71.333 78 -107 184.333 -107 319s35.333 241.334 106 320.001c74 82 177.667 123 311 123c131.333 0 234 -39.333 308 -118
c72 -77.333 108 -182 108 -314zM661.999 426.999c0 73.333 -15.333 133 -46 179c-36 54 -89 81 -159 81c-136 0 -204 -88.333 -204 -265c0 -176 68 -264 204 -264c136.667 0 205 89.667 205 269zM751.999 984.999h-223v42c6.66699 0.666992 10.667 1.66699 12 3l-15 5
c0 6.66699 -15.667 27.334 -47 62.001c-34 -30 -51 -51.333 -51 -64c-3.33301 0 -8 -1.66699 -14 -5c2.66699 -0.666992 5.66699 -1.66699 9 -3v-41h-230v25c10 1.33301 23.667 11.666 41 30.999l129 141c8 8.66699 12 15.667 12 21c0 24.667 -10.333 39 -31 43v6h257v-6
c-19.333 -4 -29 -18.333 -29 -43c0 -8 3 -14.333 9 -19l109 -108c24.667 -24 39 -41.333 43 -52c-2 -3.33301 4.33301 -7.33301 19 -12v-26z" />
    <glyph glyph-name="otilde" unicode="&#xf5;" horiz-adv-x="918" 
d="M873 433c0 -194.667 -68.001 -328.001 -204.001 -400.001c-65.333 -34.667 -136 -52 -212 -52c-133.333 0 -236.666 40.667 -309.999 122c-71.333 78 -107 184.333 -107 319s35.333 241.334 106 320.001c74 82 177.667 123 311 123c131.333 0 234 -39.333 308 -118
c72 -77.333 108 -182 108 -314zM661.999 426.999c0 73.333 -15.333 133 -46 179c-36 54 -89 81 -159 81c-136 0 -204 -88.333 -204 -265c0 -176 68 -264 204 -264c136.667 0 205 89.667 205 269zM689.999 1176c-64 -121.333 -117.002 -184.999 -159.002 -190.999
c-26.667 -3.33301 -48 6 -64 28c-4.66699 8 -20 29 -46 63c-22 21.333 -46.667 30 -74 26c-15.333 -2 -42.666 -28.333 -81.999 -79c-1.33301 -1.33301 -3.66602 -7 -6.99902 -17l-65 58c16 35.333 38.333 72.666 67 111.999c35.333 48 66 73.667 92 77
c16 2 49.667 -16.667 101 -56s78 -59 80 -59c18 2.66699 29.333 6.66699 34 12c10 11.333 27.667 40 53 86z" />
    <glyph glyph-name="odieresis" unicode="&#xf6;" horiz-adv-x="903" 
d="M873 433c0 -194.667 -68.001 -328.001 -204.001 -400.001c-65.333 -34.667 -136 -52 -212 -52c-133.333 0 -236.666 40.667 -309.999 122c-71.333 78 -107 184.333 -107 319s35.333 241.334 106 320.001c74 82 177.667 123 311 123c131.333 0 234 -39.333 308 -118
c72 -77.333 108 -182 108 -314zM661.999 426.999c0 73.333 -15.333 133 -46 179c-36 54 -89 81 -159 81c-136 0 -204 -88.333 -204 -265c0 -176 68 -264 204 -264c136.667 0 205 89.667 205 269zM720.999 1028l-2 -1v-4l-2 2l-108 -65l4 -4l-6 2l-1 -2l1 4l-106 67l-3 -2v3
l-2 2h2v134l-4 2l4 1v2h3l105 65v4l1 -2v-2l110 -70l2 -136h2zM385.999 1027l-2 -2v-4l-1 2l-109 -65l4 -4l-4 2l-1 -2v4l-107 67l-3 -2v4l-2 1h2v134l-5 2l5 2v1h3l107 66l-4 3l4 -2l1 2v-3l109 -71l1 -135h2z" />
    <glyph glyph-name="divide" unicode="&#xf7;" 
d="M585 721l-1 -2v-3l-4 2l-123 -66l3 -3l-3 2l-4 -2l2 3l-125 67l-4 -1v3l-2 2h2v134l-5 1l5 2v2h4l123 65l-3 3l5 -1l2 1v-3l128 -70h-5l4 -136h1zM843 295c-28.667 35.333 -66.334 52.999 -113.001 52.999h-581c-32.667 0 -54.334 -2 -65.001 -6
c-14 -5.33301 -31 -21 -51 -47v330c19.333 -25.333 36.333 -40.666 51 -45.999c12.667 -4.66699 34.334 -7 65.001 -7h581c46.667 0 84.334 17.667 113.001 53v-330zM585 68.999l-1 -2v-3l-4 1l-123 -65l3 -3l-3 1l-4 -1l2 3l-125 67l-4 -2v4l-2 1h2v134l-5 2l5 2v1h4
l123 66l-3 3l5 -2l2 2v-3l128 -71h-5l4 -135h1z" />
    <glyph glyph-name="oslash" unicode="&#xf8;" horiz-adv-x="900" 
d="M881 1009c-32 -18 -53.666 -33.333 -64.999 -46s-24 -35.667 -38 -69l-50 -118c92.667 -79.333 139 -193.666 139 -342.999c0 -194.667 -68 -328 -204 -400c-65.333 -34.667 -136 -52 -212 -52c-19.333 0 -37.333 0.666992 -54 2c-10.667 -24 -16 -40.667 -16 -50
c0 -14 8.66699 -30.667 26 -50h-331c48 27.333 82.333 65.666 103 114.999l22 52c-111.333 78 -167 202 -167 372c0 134.667 35.333 241.334 106 320.001c74 82 177.667 123 311 123c31.333 0 60.666 -2.33301 87.999 -7l15 36c14 33.333 21 55.333 21 66
c0 13.333 -8.66699 29.666 -26 48.999h332zM656.001 427c0 49.333 -7 91.667 -21 127l-166 -396c124.667 8 187 97.667 187 269zM467.001 687.001l-16 -0.000976562c-136 0 -204 -88.333 -204 -265c0 -73.333 12 -131.666 36 -174.999z" />
    <glyph glyph-name="ugrave" unicode="&#xf9;" horiz-adv-x="842" 
d="M834 -15l-218 -0.000976562l-22 70c-63.333 -49.333 -136 -74 -218 -74c-114.667 0 -199 35.667 -253 107c-37.333 49.333 -56 129.333 -56 240v432l5 6c0 32.667 -15.333 54.334 -46 65.001v20h295v-20c-30 -11.333 -45 -33 -45 -65v-40h-3v-347
c0 -64 3.33301 -108 10 -132c16 -57.333 56.667 -86 122 -86c77.333 0 129.333 31.667 156 95c14 33.333 21 79 21 137v374h3c0 33.333 -16 55.666 -48 66.999v19h297v-19c-30.667 -11.333 -46.667 -33.666 -48 -66.999h4v-698c0 -32 14.667 -54 44 -66v-18zM661 988.999
l-278 2.00195c8 13.333 12 25.666 12 36.999c0 16 -14.333 42 -43 78l-24 30c-41.333 52 -86.333 90.333 -135 115l278 -1c-6.66699 -14 -10 -26 -10 -36c0 -2.66699 0.333008 -6.33398 1 -11.001c1.33301 -10 14.666 -32.667 39.999 -68l22 -31
c32.667 -46.667 78.334 -85 137.001 -115z" />
    <glyph glyph-name="uacute" unicode="&#xfa;" horiz-adv-x="862" 
d="M834 -15l-218 -0.000976562l-22 70c-63.333 -49.333 -136 -74 -218 -74c-114.667 0 -199 35.667 -253 107c-37.333 49.333 -56 129.333 -56 240v432l5 6c0 32.667 -15.333 54.334 -46 65.001v20h295v-20c-30 -11.333 -45 -33 -45 -65v-40h-3v-347
c0 -64 3.33301 -108 10 -132c16 -57.333 56.667 -86 122 -86c77.333 0 129.333 31.667 156 95c14 33.333 21 79 21 137v374h3c0 33.333 -16 55.666 -48 66.999v19h297v-19c-30.667 -11.333 -46.667 -33.666 -48 -66.999h4v-698c0 -32 14.667 -54 44 -66v-18zM660 1251
c-58 -30 -104 -68.334 -138 -115.001l-22 -30c-27.333 -37.333 -41 -63.333 -41 -78c0 -11.333 4 -23.666 12 -36.999l-278 -2c49.333 22 94.333 60.333 135 115l23 31c23.333 31.333 37.333 54 42 68c2.66699 12 -1.33301 27.667 -12 47z" />
    <glyph glyph-name="ucircumflex" unicode="&#xfb;" horiz-adv-x="862" 
d="M834 -15l-218 -0.000976562l-22 70c-63.333 -49.333 -136 -74 -218 -74c-114.667 0 -199 35.667 -253 107c-37.333 49.333 -56 129.333 -56 240v432l5 6c0 32.667 -15.333 54.334 -46 65.001v20h295v-20c-30 -11.333 -45 -33 -45 -65v-40h-3v-347
c0 -64 3.33301 -108 10 -132c16 -57.333 56.667 -86 122 -86c77.333 0 129.333 31.667 156 95c14 33.333 21 79 21 137v374h3c0 33.333 -16 55.666 -48 66.999v19h297v-19c-30.667 -11.333 -46.667 -33.666 -48 -66.999h4v-698c0 -32 14.667 -54 44 -66v-18zM717 984.999
h-223v42c6.66699 0.666992 10.667 1.66699 12 3l-15 5c0 6.66699 -15.667 27.334 -47 62.001c-34 -30 -51 -51.333 -51 -64c-3.33301 0 -8 -1.66699 -14 -5c2.66699 -0.666992 5.66699 -1.66699 9 -3v-41h-230v25c10 1.33301 23.667 11.666 41 30.999l129 141
c8 8.66699 12 15.667 12 21c0 24.667 -10.333 39 -31 43v6h257v-6c-19.333 -4 -29 -18.333 -29 -43c0 -8 3 -14.333 9 -19l109 -108c24.667 -24 39 -41.333 43 -52c-2 -3.33301 4.33301 -7.33301 19 -12v-26z" />
    <glyph glyph-name="udieresis" unicode="&#xfc;" horiz-adv-x="858" 
d="M834 -15l-218 -0.000976562l-22 70c-63.333 -49.333 -136 -74 -218 -74c-114.667 0 -199 35.667 -253 107c-37.333 49.333 -56 129.333 -56 240v432l5 6c0 32.667 -15.333 54.334 -46 65.001v20h295v-20c-30 -11.333 -45 -33 -45 -65v-40h-3v-347
c0 -64 3.33301 -108 10 -132c16 -57.333 56.667 -86 122 -86c77.333 0 129.333 31.667 156 95c14 33.333 21 79 21 137v374h3c0 33.333 -16 55.666 -48 66.999v19h297v-19c-30.667 -11.333 -46.667 -33.666 -48 -66.999h4v-698c0 -32 14.667 -54 44 -66v-18zM688 1028l-2 -1
v-4l-2 2l-108 -65l4 -4l-6 2l-1 -2l1 4l-106 67l-3 -2v3l-2 2h2v134l-4 2l4 1v2h3l105 65v4l1 -2v-2l110 -70l2 -136h2zM353 1027l-2 -2v-4l-1 2l-109 -65l4 -4l-4 2l-1 -2v4l-107 67l-3 -2v4l-2 1h2v134l-5 2l5 2v1h3l107 66l-4 3l4 -2l1 2v-3l109 -71l1 -135h2z" />
    <glyph glyph-name="yacute" unicode="&#xfd;" horiz-adv-x="936" 
d="M897 851c-25.333 -8.66699 -39.666 -32 -42.999 -70v0l3 -757c0.666992 -134.667 -35.5 -238.667 -108.5 -312s-176.833 -110 -311.5 -110c-105.333 0 -189 19.333 -251 58v-2l-103 76c-4.66699 2 -9.66699 3 -15 3c-9.33301 0 -18 -1 -26 -3l-10 15l255 174l9 -16
c-14 -14.667 -22 -27.667 -24 -39c0 -13.333 4 -27 12 -41l12 -21c27.333 -22.667 74.333 -34 141 -34c137.333 0 206 84 206 252l7 2v15c-58.667 -38.667 -121 -58 -187 -58c-74.667 0 -142.334 18.667 -203.001 56c-113.333 70 -170 193.333 -170 370v367
c0 42 -16 69 -48 81v1h297v-1c-30 -12 -45 -39 -45 -81v-359c0 -172.667 60.333 -259 181 -259c54.667 0 98 20.667 130 62c30 38 45 85 45 141v437c-14 30 -28.333 47.333 -43 52v1h48v2h242v-2zM707 1251c-58 -30 -104 -68.334 -138 -115.001l-22 -30
c-27.333 -37.333 -41 -63.333 -41 -78c0 -11.333 4 -23.666 12 -36.999l-278 -2c49.333 22 94.333 60.333 135 115l23 31c23.333 31.333 37.333 54 42 68c2.66699 12 -1.33301 27.667 -12 47z" />
    <glyph glyph-name="thorn" unicode="&#xfe;" horiz-adv-x="953" 
d="M920 429c0 -195.333 -68.001 -328.667 -204.001 -400c-64.667 -34 -135.667 -51 -213 -51c-74.667 0 -138.667 12.333 -192 37v-240c0 -32.667 2.33301 -54.334 7 -65.001c6 -14 21.333 -30.667 46 -50h-331c24.667 19.333 40.667 36 48 50c4.66699 9.33301 7 31 7 65
v1301c0 46 -18.333 84.333 -55 115h331c-35.333 -29.333 -53 -67.666 -53 -114.999v-252c56 25.333 120 38 192 38c132.667 0 235.334 -38.833 308.001 -116.5s109 -183.167 109 -316.5zM708.999 423.999c0 74 -15.333 133.667 -46 179c-36 53.333 -89.333 80 -160 80
c-102 0 -166 -55.333 -192 -166v-196c26 -110.667 90 -166 192 -166c137.333 0 206 89.667 206 269z" />
    <glyph glyph-name="ydieresis" unicode="&#xff;" horiz-adv-x="930" 
d="M900 851c-25.333 -8.66699 -39.666 -32 -42.999 -70v0l3 -757c0.666992 -134.667 -35.5 -238.667 -108.5 -312s-176.833 -110 -311.5 -110c-105.333 0 -189 19.333 -251 58v-2l-103 76c-4.66699 2 -9.66699 3 -15 3c-9.33301 0 -18 -1 -26 -3l-10 15l255 174l9 -16
c-14 -14.667 -22 -27.667 -24 -39c0 -13.333 4 -27 12 -41l12 -21c27.333 -22.667 74.333 -34 141 -34c137.333 0 206 84 206 252l7 2v15c-58.667 -38.667 -121 -58 -187 -58c-74.667 0 -142.334 18.667 -203.001 56c-113.333 70 -170 193.333 -170 370v367
c0 42 -16 69 -48 81v1h297v-1c-30 -12 -45 -39 -45 -81v-359c0 -172.667 60.333 -259 181 -259c54.667 0 98 20.667 130 62c30 38 45 85 45 141v437c-14 30 -28.333 47.333 -43 52v1h48v2h242v-2zM739 1028l-2 -1v-4l-2 2l-108 -65l4 -4l-6 2l-1 -2l1 4l-106 67l-3 -2v3
l-2 2h2v134l-4 2l4 1v2h3l105 65v4l1 -2v-2l110 -70l2 -136h2zM404 1027l-2 -2v-4l-1 2l-109 -65l4 -4l-4 2l-1 -2v4l-107 67l-3 -2v4l-2 1h2v134l-5 2l5 2v1h3l107 66l-4 3l4 -2l1 2v-3l109 -71l1 -135h2z" />
    <glyph glyph-name="dotlessi" unicode="&#x131;" horiz-adv-x="361" 
d="M328 -5h-295v19c32 10 48 31 48 63v697c0 32 -16 53.667 -48 65v21h295v-21c-30 -11.333 -45 -33 -45 -65v-697c0 -32 15 -53 45 -63v-19z" />
    <glyph glyph-name="OE" unicode="&#x152;" horiz-adv-x="1650" 
d="M1615 -21c-20.667 20 -149.331 29.998 -385.998 29.998c2.66699 0 -22.333 -0.666992 -75 -2c-64 -1.33301 -134 -2.66602 -210 -3.99902l-185 -3c11.333 10 22 23.667 32 41c-72.667 -44.667 -163 -67 -271 -67c-324.667 0 -487 206.667 -487 620s162.333 620 487 620
c108.667 0 199 -22.333 271 -67c-10 16.667 -20.667 30.334 -32 41.001c52 0 129.833 -2.66699 233.5 -8s181.5 -8 233.5 -8c179.333 0 296.666 14 351.999 42v-296c-4.66699 54 -25.334 86.667 -62.001 98c-14.667 4.66699 -60.667 7 -138 7h-22l-32 2h-69
c-66.667 0 -116 -7 -148 -21c-49.333 -21.333 -74 -61.333 -74 -120v-168c47.333 -4.66699 95 -7 143 -7h50c8 0 16.333 -0.666992 25 -2h16c51.333 0 95.333 24.667 132 74v-311c-20.667 47.333 -54.334 71 -101.001 71c-129.333 0 -217.666 -2.33301 -264.999 -7v-228
c0 -47.333 7.66699 -81.333 23 -102c18 -24 50 -36 96 -36c12.667 0 31.834 1.16699 57.501 3.5s44.834 3.5 57.501 3.5c19.333 0 48.166 -1.33301 86.499 -4s67.166 -4 86.499 -4c98.667 0 157 38.333 175 115v-303zM803.003 593.998c0 292 -94.333 438 -283 438
c-186.667 0 -280 -146 -280 -438s93.333 -438 280 -438c188.667 0 283 146 283 438z" />
    <glyph glyph-name="oe" unicode="&#x153;" horiz-adv-x="1538" 
d="M1506 172l-7.00391 -17.0029c-6 0.666992 -11.333 1 -16 1c-16 0 -34.333 -12.667 -55 -38l-3 -3l-45 -57c-53.333 -51.333 -142 -77 -266 -77c-153.333 0 -269 44.667 -347 134c-77.333 -89.333 -182.666 -134 -315.999 -134s-236.666 40.667 -309.999 122
c-71.333 78 -107 184.333 -107 319s35.333 241.334 106 320.001c74 82 177.667 123 311 123c137.333 0 244 -44.667 320 -134l5 7c60.667 84.667 163.667 127 309 127c116.667 0 213.334 -37.333 290.001 -112s115 -170 115 -286c0 -14 -0.666992 -39.667 -2 -77h-600
c0.666992 -70.667 20.834 -126.667 60.501 -168s94.834 -62.666 165.501 -63.999c54 -1.33301 93 8.33398 117 29.001l20 26c7.33301 9.33301 8.66602 25.333 3.99902 48c-3.33301 10 -12 22 -26 36l7 19zM1269 540.997c-20 98 -80.666 147 -181.999 147
c-104.667 0 -168.334 -49 -191.001 -147h373zM655.997 426.997c0 73.333 -15.333 133 -46 179c-36 54 -89 81 -159 81c-136 0 -204 -88.333 -204 -265c0 -176 68 -264 204 -264c136.667 0 205 89.667 205 269z" />
    <glyph glyph-name="Scaron" unicode="&#x160;" horiz-adv-x="981" 
d="M950 348c0 -116.667 -40.668 -209.001 -122.001 -277.001c-76 -64.667 -173.333 -97 -292 -97c-45.333 0 -105.333 12 -180 36c-86 28 -145.333 43.667 -178 47s-79 -10 -139 -40l144 319c24 -56 71 -101 141 -135c62.667 -30 127.334 -45 194.001 -45
c138 0 207 55.667 207 167c0 78 -46.667 137 -140 177l-232 99c-135.333 58 -203 150.667 -203 278c0 106.667 41 191 123 253c74.667 56 167 84 277 84c26 0 65.5 -4.16699 118.5 -12.5s93.167 -12.166 120.5 -11.499c40 0.666992 83.333 13 130 37l-123 -336
c-14 62.667 -40.333 103.334 -79 122.001c-26.667 12.667 -77 19 -151 19c-121.333 0 -182 -44 -182 -132c0 -60.667 52.667 -111.334 158 -152.001l164 -63c162.667 -62.667 244 -175 244 -337zM833.999 1517c-5.33301 -1.33301 -11.667 -5.33398 -19 -12.001
c-4.66699 -10.667 -19 -28 -43 -52l-109 -108c-6 -6 -9 -12.333 -9 -19c0 -26 9.66699 -40.333 29 -43v-8h-257v8c20.667 2.66699 31 17 31 43c0 4 -4 10.333 -12 19l-129 143c-6 8.66699 -19.667 18.667 -41 30v24h230v-41c-4.66699 -0.666992 -7.66699 -1.66699 -9 -3
c8 -3.33301 12.667 -4.66602 14 -3.99902c0 -12 17 -33 51 -63c31.333 34 47 54.667 47 62c3.33301 0 8.33301 1.66699 15 5c-3.33301 0 -7.33301 0.666992 -12 2v42h223v-25z" />
    <glyph glyph-name="scaron" unicode="&#x161;" horiz-adv-x="784" 
d="M748 261c0 -52.667 -13.999 -100.335 -41.999 -143.002c-60 -91.333 -165.333 -137 -316 -137c-58.667 0 -143.334 12 -254.001 36v-2l-19 6c-2.66699 0.666992 -8.33398 2.33398 -17.001 5.00098c-22 2 -39.333 -10.667 -52 -38l-15 3l53 282l17 -3
c2 -36.667 15.667 -59 41 -67l36 -11c74 -22.667 144 -34 210 -34c99.333 0 149 30.333 149 91c0 28.667 -22.333 48.667 -67 60l-84 21c-103.333 26 -175 48.333 -215 67c-91.333 43.333 -137 113 -137 209c0 86.667 34.667 153 104 199c60 40 135.333 60 226 60
c75.333 0 156 -10.333 242 -31v2l31 -10c22.667 -2.66699 41 11 55 41l15 -4l-53 -281l-17 3c-1.33301 38 -15.666 61 -42.999 69l-31 9c-39.333 16.667 -102.333 25 -189 25c-94 0 -141 -22.333 -141 -67c0 -21.333 16.667 -37.666 50 -48.999
c12.667 -4.66699 51.667 -15.667 117 -33c102 -27.333 170 -48.333 204 -63c94.667 -40 142 -111.667 142 -215zM666.001 1226c-5.33301 -1.33301 -11.667 -5.33398 -19 -12.001c-4.66699 -10.667 -19 -28 -43 -52l-109 -108c-6 -6 -9 -12.333 -9 -19
c0 -26 9.66699 -40.333 29 -43v-8h-257v8c20.667 2.66699 31 17 31 43c0 4 -4 10.333 -12 19l-129 143c-6 8.66699 -19.667 18.667 -41 30v24h230v-41c-4.66699 -0.666992 -7.66699 -1.66699 -9 -3c8 -3.33301 12.667 -4.66602 14 -3.99902c0 -12 17 -33 51 -63
c31.333 34 47 54.667 47 62c3.33301 0 8.33301 1.66699 15 5c-3.33301 0 -7.33301 0.666992 -12 2v42h223v-25z" />
    <glyph glyph-name="Ydieresis" unicode="&#x178;" horiz-adv-x="1094" 
d="M1070 1188c-52.667 -36 -118.669 -127.668 -198.002 -275.001l-228 -420v-400c0 -30 2.33301 -48.333 7 -55c2 -10.667 14.667 -23.334 38 -38.001h-303c24 12.667 38 24 42 34c3.33301 4.66699 5 24.334 5 59.001v400c-30 58 -68.333 136.333 -115 235l-136 290
c-27.333 58.667 -78.666 115.334 -153.999 170.001h386c-20.667 -18.667 -31 -40.334 -31 -65.001c0 -20 14.333 -60 43 -120c64.667 -135.333 106.334 -226 125.001 -272c14 23.333 43.333 83 88 179c52.667 112.667 79 186.334 79 221.001c0 15.333 -4.66699 27 -14 35
c-14 8 -26 15.333 -36 22h402zM824.998 1319l-2 -1v-4l-2 2l-108 -65l4 -4l-6 2l-1 -2l1 4l-106 67l-3 -2v3l-2 2h2v134l-4 2l4 1v2h3l105 65v4l1 -2v-2l110 -70l2 -136h2zM489.998 1318l-2 -2v-4l-1 2l-109 -65l4 -4l-4 2l-1 -2v4l-107 67l-3 -2v4l-2 1h2v134l-5 2l5 2v1h3
l107 66l-4 3l4 -2l1 2v-3l109 -71l1 -135h2z" />
    <glyph glyph-name="florin" unicode="&#x192;" horiz-adv-x="822" 
d="M881 1236l-113.997 -342.999l-15 3c2 39.333 -8.33301 62.333 -31 69c-38.667 11.333 -64.334 17 -77.001 17c-14.667 0 -25.667 -4 -33 -12c-11.333 -12.667 -24.333 -69.334 -39 -170.001l-2 -5h62c27.333 0 48.333 18.333 63 55h16l-45 -285h-15
c-4 36.667 -19.667 55 -47 55h-60l-93 -603c0 -3.33301 -1 -6.66602 -3 -9.99902l-10 -67c-16 -106.667 -41.333 -181.667 -76 -225c-48.667 -60.667 -117.334 -91 -206.001 -91c-37.333 0 -80.666 7.33301 -129.999 22c-9.33301 0 -21.333 -1.66699 -36 -5
c-10.667 -5.33301 -21.667 -17.333 -33 -36l-14 4l114 343l15 -4c-3.33301 -38.667 7 -61.334 31 -68.001c40 -11.333 65.667 -17 77 -17c25.333 0 43 19.333 53 58l14 88v8l93 603h-26c-28.667 0 -50.334 -18.333 -65.001 -55h-16l45 285h16c2 -36.667 18 -55 48 -55h27
l17 110c16.667 106.667 42 181.667 76 225c48 60.667 116.667 91 206 91c37.333 0 80.666 -7.66699 129.999 -23c9.33301 0 21.333 1.66699 36 5c10.667 6 21.667 18 33 36z" />
    <glyph glyph-name="circumflex" unicode="&#x2c6;" horiz-adv-x="627" 
d="M592 985h-223v42c6.66699 0.666992 10.667 1.66699 12 3l-15 5c0 6.66699 -15.667 27.334 -47 62.001c-34 -30 -51 -51.333 -51 -64c-3.33301 0 -8 -1.66699 -14 -5c2.66699 -0.666992 5.66699 -1.66699 9 -3v-41h-230v25c10 1.33301 23.667 11.666 41 30.999l129 141
c8 8.66699 12 15.667 12 21c0 24.667 -10.333 39 -31 43v6h257v-6c-19.333 -4 -29 -18.333 -29 -43c0 -8 3 -14.333 9 -19l109 -108c24.667 -24 39 -41.333 43 -52c-2 -3.33301 4.33301 -7.33301 19 -12v-26z" />
    <glyph glyph-name="caron" unicode="&#x2c7;" horiz-adv-x="627" 
d="M592 1226c-5.33301 -1.33301 -11.667 -5.33398 -19 -12.001c-4.66699 -10.667 -19 -28 -43 -52l-109 -108c-6 -6 -9 -12.333 -9 -19c0 -26 9.66699 -40.333 29 -43v-8h-257v8c20.667 2.66699 31 17 31 43c0 4 -4 10.333 -12 19l-129 143
c-6 8.66699 -19.667 18.667 -41 30v24h230v-41c-4.66699 -0.666992 -7.66699 -1.66699 -9 -3c8 -3.33301 12.667 -4.66602 14 -3.99902c0 -12 17 -33 51 -63c31.333 34 47 54.667 47 62c3.33301 0 8.33301 1.66699 15 5c-3.33301 0 -7.33301 0.666992 -12 2v42h223v-25z" />
    <glyph glyph-name="breve" unicode="&#x2d8;" horiz-adv-x="421" 
d="M388 1169c0 -49.333 -17.167 -91.1699 -51.5 -125.503s-76.166 -51.5 -125.499 -51.5c-50.667 0 -92.834 16.833 -126.501 50.5s-50.5 75.834 -50.5 126.501s16.833 92.834 50.5 126.501s75.834 50.5 126.501 50.5c49.333 0 91.166 -17.167 125.499 -51.5
s51.5 -76.166 51.5 -125.499zM299 1169c0 24 -8.66699 44.667 -26 62s-38 26 -62 26c-58 0 -87 -29.333 -87 -88c0 -58 29 -87 87 -87c24 0 44.667 8.5 62 25.5s26 37.5 26 61.5z" />
    <glyph glyph-name="dotaccent" unicode="&#x2d9;" horiz-adv-x="518" 
d="M493 795c-15.333 18 -37.333 27 -66 27h-12v-116c0 -24 9.33301 -43 28 -57h-167c18.667 12.667 28 31.667 28 57v116h-203c-24 0 -46.667 -8.33301 -68 -25l27 66l134 323c6 14.667 9 25.667 9 33c0 6.66699 -3.66699 14.667 -11 24h163
c-22.667 -14.667 -39 -33.667 -49 -57l-105 -252h103l-2 12c-2 12 -3.33301 21.667 -4 29c-2.66699 7.33301 -10 14.333 -22 21l167 49c-20 -20.667 -29.667 -42.667 -29 -66l1 -45h12c30 0 52 8.66699 66 26v-165zM62 863h-2v-1z" />
    <glyph glyph-name="ring" unicode="&#x2da;" horiz-adv-x="727" 
 />
    <glyph glyph-name="ogonek" unicode="&#x2db;" horiz-adv-x="866" 
d="M735 1169v279c-27.333 -35.333 -64 -53 -110 -53h-129v104c0 48 17.667 87.667 53 119h-279c36 -31.333 54 -71 54 -119v-104h-144c-46 0 -83.333 17.667 -112 53v-279c28.667 36 66 54 112 54h144v-678c0 -35.333 -2.33301 -57.333 -7 -66
c-6.66699 -14.667 -22.334 -31 -47.001 -49h279c-23.333 18 -38.333 34.333 -45 49c-5.33301 10 -8 32 -8 66v678h129c48.667 0 85.334 -18 110.001 -54zM285 106c-14 6 -23.667 13.667 -29 23l-41 70v4c40.667 8 61 28.333 61 61c0 44 -34.667 66 -104 66h-100
c-6 0 -17.667 -2 -35 -6l14 -11v-186c0 -8 -0.666992 -12.667 -2 -14l-16 -7h100c-10.667 7.33301 -16 15 -16 23l-2 66c0 1.33301 0.666992 2 2 2c4 -1.33301 16.333 -2 37 -2l36 -66c4.66699 -6.66699 7 -11.334 7 -14.001
c-1.33301 -1.33301 -2.33301 -2.66602 -3 -3.99902s-2 -3 -4 -5h95zM834 264c0 44 -35.667 66.002 -107 66.002h-100c-4 0 -15 -2 -33 -6c4 -4.66699 8.66699 -8.33398 14 -11.001v-186c0 -8 -0.666992 -12.667 -2 -14l-14 -7h100c-12 6 -18 13.667 -18 23v68h8
c1.33301 -1.33301 9 -2 23 -2h14c6.66699 0 12 0.666992 16 2c66 5.33301 99 27.666 99 66.999zM389 614.002l-29 -86v695h29v-609zM473 106.002c-9.33301 6 -14 13.667 -14 23v176c0 9.33301 4.66699 16.333 14 21h-94c10.667 -4.66699 16 -11.667 16 -21v-176
c0 -8 -5.33301 -15.667 -16 -23h94zM373 -345.998c0 10.667 -8.99902 18.667 -26.999 24c14 6 21 13.667 21 23c0 20.667 -17.333 31 -52 31c-18.667 -1.33301 -33.167 -2.33301 -43.5 -3s-16.833 -1 -19.5 -1c4 -4.66699 6 -10.334 6 -17.001v-71
c0 -11.333 -2 -17.666 -6 -18.999c5.33301 -1.33301 28.666 -2 69.999 -2c34 0 51 11.667 51 35zM338.001 -185.998c0 34 -22.667 51 -68 51h-14c-23.333 0 -37 -0.666992 -41 -2c5.33301 -1.33301 8 -6.33301 8 -15v-73c0 -10 -2.66699 -15.667 -8 -17
c14 -2.66699 31.667 -4 53 -4c46.667 0 70 20 70 60zM621.001 1315c0 -28.667 -18 -43 -54 -43c-36.667 0 -55 14.333 -55 43c0 30 18.333 45 55 45c36 0 54 -15 54 -45zM389.001 1315c0 -30 -18.333 -45 -55 -45c-34 0 -51 15 -51 45c0 28.667 17 43 51 43
c36.667 0 55 -14.333 55 -43zM504.001 1315c0 -28.667 -17.667 -43 -53 -43c-36 0 -54 14.333 -54 43c0 30 18 45 54 45c35.333 0 53 -15 53 -45zM487.001 -339.998c0 27.333 -16.333 41 -49 41c-35.333 0 -53 -14.333 -53 -43c0 -26 17.667 -39 53 -39
c32.667 0 49 13.667 49 41zM596.001 -302.998h-34.999c2.66699 0 4 -2 4 -6v-39c0 -12.667 -6.66699 -19 -20 -19c-14 0 -21 8.33301 -21 25v31c0 6.66699 0.666992 10.667 2 12h-32c1.33301 -1.33301 2 -5.33301 2 -12v-31c0 -27.333 16.333 -41 49 -41
c5.33301 0 12 1.33301 20 4c-4 -14.667 -12.667 -22 -26 -22c-7.33301 0 -12.333 1.33301 -15 4l-2 2c-1.33301 0 -2 0.666992 -2 2l4 4l-2 4l-30 -18l2 -3h2l12 -6c5.33301 -4 15.666 -6 30.999 -6c35.333 0 53 13 53 39v70c0 1.33301 1.33301 3.33301 4 6z
M608.002 -34.998h-37c2.66699 0 4 -2 4 -6l-2 -2v-2l-12 -31l-22 41l-27 2l-18 -43l-13 31v6c0 1.33301 0.666992 2.66602 2 3.99902v2h-39v-2c3.33301 0 6.33301 -3.33301 9 -10l24 -53l2 -2c0 -1.33301 0.666992 -2.66602 2 -3.99902l-6 -7h37l-6 7
c0 2.66699 0.666992 4.66699 2 6l18 35l23 -35v-6c0 -3.33301 -2 -5.66602 -6 -6.99902h37l-7 7c0 1.33301 1.66699 3.33301 5 6l22 53c1.33301 5.33301 4 8.66602 8 9.99902zM555.002 -245.998l0.000976562 2c-1.33301 1.33301 -2 3.33301 -2 6v48c0 18.667 -15 28 -45 28
c-8 0 -22.333 -2.66699 -43 -8v-2c-5.33301 0 -9.33301 1.33301 -12 4l12 -27l4 7v2c18 4 30.333 6 37 6c12 0 18 -2.66699 18 -8c0 -4.66699 -8 -7 -24 -7c-2.66699 -1.33301 -8.33398 -2 -17.001 -2c-17.333 -4 -26 -12 -26 -24c0 -16.667 12.333 -25 37 -25
c16 0 26.667 2.66699 32 8l6 -8h23zM260.003 -112.998l-0.000976562 2c-1.33301 1.33301 -2 3 -2 5l-2 2v38l-2 3c0 2.66699 0.666992 4.66699 2 6c0 17.333 -15 26 -45 26c-4 0 -18.333 -2 -43 -6l-4 -2h-4l-4 4l8 -28c2.66699 2.66699 4 4.66699 4 6h4
c12 5.33301 24.333 8 37 8c12 0 18 -2.66699 18 -8c-2.66699 -2.66699 -10.667 -5.66699 -24 -9c-10 0 -15.667 -0.666992 -17 -2c-17.333 -1.33301 -26 -8 -26 -20c0 -16.667 12.333 -25 37 -25c10.667 0 21.334 2.33301 32.001 7l4 -7h27zM772.002 268.002
c0 -26 -20.333 -39 -61 -39c-6 0 -12 0.333008 -18 1s-12.333 1.66699 -19 3v48c0 10.667 2.66699 16.667 8 18h37c35.333 0 53 -10.333 53 -31zM215.002 268.002c0 -26 -20.333 -39 -61 -39c-6 0 -12 0.333008 -18 1s-12.333 1.66699 -19 3v48
c0 10.667 2.66699 16.667 8 18h37c35.333 0 53 -10.333 53 -31zM446.002 -226.998l0.000976562 2l-30 10l6 -4l-6 -4v-2c-2.66699 -1.33301 -8.33398 -2 -17.001 -2c-17.333 0 -26 6.66699 -26 20h73v6c0 24.667 -16.333 37 -49 37c-34 0 -51 -13.667 -51 -41
s17.667 -41 53 -41c18 0 29.667 2.66699 35 8c2.66699 7.33301 6.66699 11 12 11zM713.003 -95.998l-35 14.001v-2l4 -4c-1.33301 0 -2 -1.33301 -2 -4l-2 -2c-8 -2.66699 -12.667 -4 -14 -4c-18 1.33301 -27.667 8.66602 -29 21.999h74c0 4 0.666992 6.66699 2 8
c0 23.333 -16.333 35 -49 35c-36 0 -54 -13.667 -54 -41c0 -26 18.667 -39 56 -39c13.333 0 24 2.33301 32 7l13 8h2zM451.003 -97.9971v2l-35 14v-2l6 -4v-4l-6 -2l-13 -4c-16 1.33301 -24 8.66602 -24 21.999h67l5 8c0 23.333 -17.333 35 -52 35
c-34 0 -51 -13.667 -51 -41c0 -26 18.333 -39 55 -39c6 0 16.333 3 31 9c5.33301 2.66699 9.5 4.33398 12.5 5.00098zM150.003 -1.99707h-93c4 -4 6 -10 6 -18v-82c0 -6 -2 -9.66699 -6 -11h43c-5.33301 1.33301 -8 5 -8 11v39h33l8 -7v27l-8 -2h-33v18
c0 4.66699 6.33301 7 19 7h18c10.667 0 17.667 -1.66699 21 -5v23zM272.003 1270h-104.002v4c0 12 6 22.333 18 31c37.333 13.333 56 21.333 56 24c0 9.33301 -7 14 -21 14c-22 0 -33.667 -4.66699 -35 -14l-22 29c2.66699 -1.33301 5.33398 -2 8.00098 -2
s5.33398 -0.666992 8.00098 -2c11.333 0 19 0.666992 23 2h22c28.667 0 43 -9 43 -27c-2.66699 -9.33301 -12 -17.333 -28 -24l-19 -7l-22 -8c0 -5.33301 3.33301 -8 10 -8h29c18.667 0 30 3.33301 34 10v-22zM311.001 -187.997c0 -18 -14.333 -31.667 -43 -41h-8
c-5.33301 0 -8 2 -8 6v67c0 2.66699 2.66699 4 8 4c34 0 51 -12 51 -36zM352.001 -30.9971l-2 0.000976562c-2.66699 -2.66699 -4.66699 -4 -6 -4s-2 0.666992 -2 2l-2 2c-2.66699 1.33301 -8 2 -16 2c-8.66699 0 -15.667 -2 -21 -6l-4 6h-29v-2l6 -4v-71l-6 -5v-2h37v2
l-4 5v43c0 12 7 18 21 18h6l4 -4c4 -2.66699 6 -5.33398 6 -8.00098h2zM360.001 199.004v26l-36 15l-37 -15l-2 -26h2l37 -13zM596.001 1315c0 20.667 -9.66699 31 -29 31c-18.667 0 -28 -10.333 -28 -31s9.33301 -31 28 -31c19.333 0 29 10.333 29 31zM389.001 1386h-29
v146l29 -86v-60zM563.001 199.004v26l-37 15h-2l-32 -15h-3v-26h3l34 -13zM653.001 -161.996l-2 -0.000976562c-1.33301 -1.33301 -3.33301 -2 -6 -2c-1.33301 1.33301 -2.66602 2 -3.99902 2h-16c-8.66699 0 -17 -2 -25 -6v6h-27l2 -2c0 -1.33301 1 -2.66602 3 -3.99902
v-70c0 -2.66699 -1.66699 -4 -5 -4v-2h35v2c-2.66699 0 -5.33398 1.33301 -8.00098 4v43c0 12.667 7.66699 19 23 19l8 -4h6c2.66699 -2.66699 4 -4.66699 4 -6l2 -2zM758.001 -112.997l-0.000976562 1.99902l-4 5v92c0 2.66699 1.33301 5.33398 4 8.00098v4l-35 -16v-2h2
c1.33301 0 2 -1.66699 2 -5l2 -81c-1.33301 -2 -2.66602 -3 -3.99902 -3l-2 -2v-2h35zM477 1315c0 20.667 -8.66699 31 -26 31c-16.667 0 -25 -10.333 -25 -31s8.33301 -31 25 -31c17.333 0 26 10.333 26 31zM360 1315c0 20.667 -8.66699 31 -26 31
c-16.667 0 -25 -10.333 -25 -31s8.33301 -31 25 -31c17.333 0 26 10.333 26 31zM811 -112.998l-0.00195312 1.99902c-1.33301 1.33301 -2.66602 2 -3.99902 2l-2 3v92c0 2.66699 2 5.33398 6 8.00098v4l-37 -16v-2c1.33301 0 3.33301 -1.66699 6 -5v-81
c-1.33301 -2 -2.66602 -3 -3.99902 -3l-2 -2v-2h37zM460.998 -339.999c0 -16.667 -7.66699 -25 -23 -25c-17.333 0 -26 7.66699 -26 23c0 18 8.66699 27 26 27c15.333 0 23 -8.33301 23 -25zM345.998 -345.999c0 -12.667 -12.333 -19 -37 -19c-16 0 -24 3.66699 -24 11v20
c0 4 6 6 18 6h8c23.333 0 35 -6 35 -18zM339.998 -298.999c0 -10.667 -10.333 -16 -31 -16c-16 0 -24 2 -24 6v18c0 4 2 6 6 6l20 -2c19.333 -2.66699 29 -6.66699 29 -12zM523.998 -218.999c-9.33301 -6.66699 -17.333 -10 -24 -10c-11.333 0 -17 2.66699 -17 8
c0 6.66699 7 10.667 21 12l20 4v-14zM226.998 -87.999c-9.33301 -6.66699 -18.667 -9.99902 -28 -9.99902c-8.66699 0 -13 3.33301 -13 10c0 1.33301 6.16699 3.66602 18.5 6.99902s19.833 6.33301 22.5 9v-16zM421.997 -60.998h-43c0 10.667 6.66699 16 20 16
c15.333 0 23 -5.33301 23 -16zM681.997 -60.998h-45.001c2.66699 10.667 11 16 25 16c10.667 0 17.334 -5.33301 20.001 -16zM421.996 -194.998h-48.999c1.33301 10 9.33301 15 24 15c11.333 0 19.666 -5 24.999 -15z" />
    <glyph glyph-name="tilde" unicode="&#x2dc;" horiz-adv-x="563" 
d="M530 1176c-64 -121.333 -117.002 -184.999 -159.002 -190.999c-26.667 -3.33301 -48 6 -64 28c-4.66699 8 -20 29 -46 63c-22 21.333 -46.667 30 -74 26c-15.333 -2 -42.666 -28.333 -81.999 -79c-1.33301 -1.33301 -3.66602 -7 -6.99902 -17l-65 58
c16 35.333 38.333 72.666 67 111.999c35.333 48 66 73.667 92 77c16 2 49.667 -16.667 101 -56s78 -59 80 -59c18 2.66699 29.333 6.66699 34 12c10 11.333 27.667 40 53 86z" />
    <glyph glyph-name="hungarumlaut" unicode="&#x2dd;" horiz-adv-x="1057" 
d="M1020 524h-151c14.667 18 23.667 28.667 27 32c8 15.333 12 37.666 12 66.999v287h-2l-146 -386h-77l-137 367h-2v-268c0 -29.333 4 -51.666 12 -66.999l26 -32h-149c13.333 16 20 38.333 20 67v345c0 28.667 -6.66699 51 -20 67h163l127 -291h1l127 289l169 2
c-15.333 -16 -23 -38.333 -23 -67v-345c0 -28.667 7.66699 -51 23 -67zM1025 1243l-17 -198.002h-2c-9.33301 42.667 -22 68.667 -38 78c-9.33301 3.33301 -204.333 5 -585 5c-35.333 0 -53 -14.333 -53 -43v-489c0 -19.333 16 -41.666 48 -66.999h-210
c11.333 8.66699 23 18.334 35 29.001c8 9.33301 12 22 12 38v489c0 20.667 -4 33.667 -12 39c-6 2.66699 -19.333 4 -40 4c-40 0 -64 -1.66699 -72 -5c-16 -9.33301 -28.667 -35.333 -38 -78h-1l-19 198c24 -16 40.333 -24 49 -24h895c9.33301 0 25.333 8 48 24z" />
    <glyph glyph-name="Delta" unicode="&#x394;" horiz-adv-x="874" 
d="M841 290l-235.001 -232.997c1.33301 13.333 2 25.333 2 36c0 24.667 -15 52.667 -45 84l-12 10c-36.667 -16 -76 -24 -118 -24c-40 0 -77.333 7.33301 -112 22l-12 -8c-28.667 -31.333 -43 -59.333 -43 -84v-36l-233 233c14.667 -1.33301 26.667 -2 36 -2
c24.667 0 53.334 15 86.001 45l5 9c-16 37.333 -24 77.333 -24 120c0 41.333 8 80.666 24 117.999l-5 7c-32.667 30 -62 45 -88 45c-9.33301 0 -20.666 -0.666992 -33.999 -2l233 233v-32c0 -27.333 14.333 -56.666 43 -87.999l10 -7c36 15.333 74 23 114 23
c42 0 81.333 -8.66699 118 -26l12 10c30 31.333 45 60.666 45 87.999c0 9.33301 -0.666992 20 -2 32l235 -233c-12.667 1.33301 -23.334 2 -32.001 2c-38.667 0 -68.667 -15 -90 -45l-10 -14c14 -36.667 21 -74.334 21 -113.001c0 -40 -7 -77.667 -21 -113l10 -14
c24 -22.667 42.333 -36.334 55 -41.001c7.33301 -2.66699 17 -4 29 -4s24.667 0.666992 38 2zM600.999 467.003c0 46 -15.667 85.166 -47 117.499s-70 48.5 -116 48.5c-51.333 0 -94 -16.667 -128 -50s-51 -75.333 -51 -126c0 -47.333 16 -87 48 -119s71.667 -48 119 -48
c48.667 0 90 17.333 124 52s51 76.334 51 125.001z" />
    <glyph glyph-name="Delta" unicode="&#x2206;" horiz-adv-x="874" 
d="M841 290l-235.001 -232.997c1.33301 13.333 2 25.333 2 36c0 24.667 -15 52.667 -45 84l-12 10c-36.667 -16 -76 -24 -118 -24c-40 0 -77.333 7.33301 -112 22l-12 -8c-28.667 -31.333 -43 -59.333 -43 -84v-36l-233 233c14.667 -1.33301 26.667 -2 36 -2
c24.667 0 53.334 15 86.001 45l5 9c-16 37.333 -24 77.333 -24 120c0 41.333 8 80.666 24 117.999l-5 7c-32.667 30 -62 45 -88 45c-9.33301 0 -20.666 -0.666992 -33.999 -2l233 233v-32c0 -27.333 14.333 -56.666 43 -87.999l10 -7c36 15.333 74 23 114 23
c42 0 81.333 -8.66699 118 -26l12 10c30 31.333 45 60.666 45 87.999c0 9.33301 -0.666992 20 -2 32l235 -233c-12.667 1.33301 -23.334 2 -32.001 2c-38.667 0 -68.667 -15 -90 -45l-10 -14c14 -36.667 21 -74.334 21 -113.001c0 -40 -7 -77.667 -21 -113l10 -14
c24 -22.667 42.333 -36.334 55 -41.001c7.33301 -2.66699 17 -4 29 -4s24.667 0.666992 38 2zM600.999 467.003c0 46 -15.667 85.166 -47 117.499s-70 48.5 -116 48.5c-51.333 0 -94 -16.667 -128 -50s-51 -75.333 -51 -126c0 -47.333 16 -87 48 -119s71.667 -48 119 -48
c48.667 0 90 17.333 124 52s51 76.334 51 125.001z" />
    <glyph glyph-name="Omega" unicode="&#x3a9;" horiz-adv-x="1021" 
d="M989 294c-30 35.333 -69 53.001 -117 53.001h-57v-232c0 -32.667 2.33301 -54.334 7 -65.001c6 -14 21 -30.667 45 -50h-330c25.333 19.333 41.333 36 48 50c4.66699 9.33301 7 31 7 65v232l-420 1c-50 0 -96.333 -17.667 -139 -53l55 136l266 644
c13.333 31.333 19.666 54 18.999 68c0 12 -7.66699 27.667 -23 47h330c-49.333 -30 -83.666 -68.333 -102.999 -115l-206 -503h221v106c0 46 -18.333 84.333 -55 115h330c-34.667 -30.667 -52 -69 -52 -115v-108h57c48 0 87 17.667 117 53v-329zM91 431.001h-3v-4z" />
    <glyph glyph-name="Omega" unicode="&#x2126;" horiz-adv-x="1021" 
d="M989 294c-30 35.333 -69 53.001 -117 53.001h-57v-232c0 -32.667 2.33301 -54.334 7 -65.001c6 -14 21 -30.667 45 -50h-330c25.333 19.333 41.333 36 48 50c4.66699 9.33301 7 31 7 65v232l-420 1c-50 0 -96.333 -17.667 -139 -53l55 136l266 644
c13.333 31.333 19.666 54 18.999 68c0 12 -7.66699 27.667 -23 47h330c-49.333 -30 -83.666 -68.333 -102.999 -115l-206 -503h221v106c0 46 -18.333 84.333 -55 115h330c-34.667 -30.667 -52 -69 -52 -115v-108h57c48 0 87 17.667 117 53v-329zM91 431.001h-3v-4z" />
    <glyph glyph-name="mu" unicode="&#x3bc;" horiz-adv-x="1082" 
d="M1047 213l-7.99805 -24.002c-8 3.33301 -16 5 -24 5c-9.33301 0 -23.666 -11 -42.999 -33l-79 -89c-52.667 -59.333 -123.667 -89 -213 -89c-207.333 0 -335.666 144 -384.999 432l-130 -3c-37.333 -0.666992 -59.666 -2.33398 -66.999 -5.00098
c-14.667 -4.66699 -36.334 -16 -65.001 -34l89 212c18.667 -25.333 51.667 -37.666 99 -36.999l59 1c-1.33301 32 -2 64 -2 96v14h-10c-30 0 -51.667 -1.66699 -65 -5c-18.667 -4.66699 -40.667 -16 -66 -34l91 213c11.333 -18.667 23.333 -29.667 36 -33
c4 -2 10.333 -3 19 -3c19.333 208 81.666 355 186.999 441c63.333 51.333 133.333 77 210 77c86 0 154.667 -25.667 206 -77l31 -31c12 -19.333 37.667 -48 77 -86c3.33301 -3.33301 8 -5 14 -5c8 0 16 2.66699 24 8l8 -27l-254 -237l-7 24c12.667 25.333 19.667 46 21 62
c2 28.667 -1 50.334 -9 65.001l-12 22v4c-24.667 30.667 -55.334 46 -92.001 46c-104.667 0 -168.334 -95 -191.001 -285l136 4c49.333 1.33301 92.666 14.333 129.999 39l-89 -213c-18 26.667 -50.667 39.334 -98 38.001l-87 -2v-13c0 -32 1.66699 -64.333 5 -97h34
c46.667 0 90 13.333 130 40l-89 -213c-16 22.667 -36 34.667 -60 36c30 -134.667 87.333 -202 172 -202c41.333 0 76.333 17 105 51l12 34c8.66699 24.667 12.667 46 12 64c-4 17.333 -12 38 -24 62l8 24z" />
    <glyph glyph-name="pi" unicode="&#x3c0;" horiz-adv-x="534" 
d="M501 541l-62.999 -115.002c-2.66699 17.333 -12.334 31 -29.001 41l-98 58v-115c0 -19.333 7.33301 -34.666 22 -45.999h-129c14 11.333 21 26.666 21 45.999v115l-100 -58c-16 -9.33301 -24.333 -23 -25 -41l-67 115c16 -7.33301 33 -5.66602 51 5.00098l96 57l-96 56
c-18 10.667 -35 12.334 -51 5.00098l67 114c0.666992 -19.333 9 -33.333 25 -42l100 -56v113c0 20.667 -7 36 -21 46h129c-14.667 -10 -22 -25.333 -22 -46v-113l98 56c16 9.33301 25.667 23.333 29 42l63 -114c-14.667 6.66699 -30.667 5 -48 -5l-98 -56l98 -57
c17.333 -10 33.333 -11.667 48 -5z" />
    <glyph glyph-name="endash" unicode="&#x2013;" horiz-adv-x="944" 
d="M912 330c-28.667 35.333 -67 53 -115 53h-649c-31.333 0 -53.333 -2.66699 -66 -8c-14.667 -6.66699 -31 -21.667 -49 -45v329c18 -23.333 34.333 -38.333 49 -45c12.667 -5.33301 34.667 -8 66 -8h649c48 0 86.333 17.667 115 53v-329z" />
    <glyph glyph-name="emdash" unicode="&#x2014;" horiz-adv-x="1631" 
d="M1598 330c-28 35.333 -66.333 53 -115 53h-1335c-31.333 0 -53.333 -2.66699 -66 -8c-14.667 -6.66699 -31 -21.667 -49 -45v329c18 -23.333 34.333 -38.333 49 -45c12.667 -5.33301 34.667 -8 66 -8h1335c48.667 0 87 17.667 115 53v-329z" />
    <glyph glyph-name="quoteleft" unicode="&#x2018;" horiz-adv-x="386" 
d="M352 1267c-50.667 -12.667 -101 -40.668 -151 -84.001c-56 -48.667 -84 -96.334 -84 -143.001c0 -16 7.33301 -23.333 22 -22c53.333 4.66699 71 7 53 7c19.333 0 35.333 -6.33301 48 -19c31.333 -30.667 49.333 -62 54 -94c6 -39.333 -1.33301 -70.666 -22 -93.999
s-50.667 -35 -90 -35c-99.333 0 -149 65.333 -149 196c0 94.667 30 167.334 90 218.001c56.667 48 133 71.333 229 70z" />
    <glyph glyph-name="quoteright" unicode="&#x2019;" horiz-adv-x="386" 
d="M352 1071c0 -94 -29.999 -166.667 -89.999 -218c-57.333 -48 -133.666 -71.333 -228.999 -70c64.667 16 121.667 51.333 171 106c42.667 47.333 64 87.333 64 120c0 16.667 -7.66699 24.334 -23 23.001c-52.667 -4.66699 -70.334 -7 -53.001 -7
c-19.333 0 -36 6.66699 -50 20c-29.333 28.667 -46.333 59.667 -51 93c-5.33301 39.333 2.16699 70.666 22.5 93.999s50.166 35 89.499 35c99.333 0 149 -65.333 149 -196z" />
    <glyph glyph-name="quotesinglbase" unicode="&#x201a;" horiz-adv-x="388" 
d="M354 55c0 -94 -30.668 -166.665 -92.001 -217.998c-56.667 -48 -133 -71.333 -229 -70c50.667 11.333 101.334 38.666 152.001 81.999c57.333 48.667 86 96.667 86 144c0 15.333 -8 22.666 -24 21.999c-20.667 -1.33301 -39 -3.33301 -55 -6
c-18.667 0 -34.667 6.66699 -48 20c-28 28 -45 59 -51 93c-6.66699 38 0.5 69 21.5 93s50.833 36 89.5 36c100 0 150 -65.333 150 -196z" />
    <glyph glyph-name="quotedblleft" unicode="&#x201c;" horiz-adv-x="747" 
d="M712 1267c-50.667 -12.667 -101.001 -40.668 -151.001 -84.001c-56 -48 -84 -95.667 -84 -143c0 -16 7.66699 -23.333 23 -22c54 4.66699 72 7 54 7c18 0 33.667 -6.33301 47 -19c30.667 -30 48.334 -61.333 53.001 -94c5.33301 -39.333 -2.16699 -70.666 -22.5 -93.999
s-50.166 -35 -89.499 -35c-99.333 0 -149 65.333 -149 196c0 94 30 166.667 90 218c57.333 48 133.666 71.333 228.999 70zM351.999 1267c-50.667 -12.667 -101 -40.668 -151 -84.001c-56 -48.667 -84 -96.334 -84 -143.001c0 -16 7.33301 -23.333 22 -22
c53.333 4.66699 71 7 53 7c19.333 0 35.333 -6.33301 48 -19c31.333 -30.667 49.333 -62 54 -94c6 -39.333 -1.33301 -70.666 -22 -93.999s-50.667 -35 -90 -35c-99.333 0 -149 65.333 -149 196c0 94.667 30 167.334 90 218.001c56.667 48 133 71.333 229 70z" />
    <glyph glyph-name="quotedblright" unicode="&#x201d;" horiz-adv-x="747" 
d="M712 1071c0 -94.667 -30 -167.333 -90 -218c-56.667 -48 -133 -71.333 -229 -70c66 16 123.333 51.333 172 106c42 46.667 63 86.667 63 120c0 16.667 -7.33301 24.334 -22 23.001c-52.667 -4.66699 -70 -7 -52 -7c-20.667 0 -37.667 6.66699 -51 20
c-30 29.333 -47.333 60.333 -52 93c-6 39.333 1.33301 70.666 22 93.999s50.667 35 90 35c99.333 0 149 -65.333 149 -196zM352 1071c0 -94 -29.999 -166.667 -89.999 -218c-57.333 -48 -133.666 -71.333 -228.999 -70c64.667 16 121.667 51.333 171 106
c42.667 47.333 64 87.333 64 120c0 16.667 -7.66699 24.334 -23 23.001c-52.667 -4.66699 -70.334 -7 -53.001 -7c-19.333 0 -36 6.66699 -50 20c-29.333 28.667 -46.333 59.667 -51 93c-5.33301 39.333 2.16699 70.666 22.5 93.999s50.166 35 89.499 35
c99.333 0 149 -65.333 149 -196z" />
    <glyph glyph-name="quotedblbase" unicode="&#x201e;" horiz-adv-x="747" 
d="M712 52c0 -94.667 -29.668 -167.331 -89.001 -217.998c-56 -48.667 -132 -72.334 -228 -71.001c62.667 16 119.334 51.667 170.001 107c43.333 47.333 65 87.333 65 120c0 16 -8 23.333 -24 22c-54.667 -4.66699 -72 -7 -52 -7c-20 0 -37 7 -51 21
c-30 29.333 -47.333 60 -52 92c-6 39.333 1.33301 70.666 22 93.999s50.667 35 90 35c99.333 0 149 -65 149 -195zM351.999 52.0029c0 -94.667 -29.998 -167.667 -89.998 -219c-56.667 -48 -133 -71.333 -229 -70c64 16 121 51.667 171 107c42.667 47.333 64 87.333 64 120
c0 16 -7.66699 23.333 -23 22c-54 -4.66699 -71.667 -7 -53 -7c-18.667 0 -35.334 7 -50.001 21c-29.333 28.667 -46.333 59.334 -51 92.001c-5.33301 39.333 2.16699 70.666 22.5 93.999s50.166 35 89.499 35c99.333 0 149 -65 149 -195z" />
    <glyph glyph-name="dagger" unicode="&#x2020;" horiz-adv-x="740" 
d="M706 742c-29.333 35.333 -67.333 52.999 -114 52.999h-128v-678c0 -33.333 2 -55 6 -65c5.33301 -13.333 20.333 -30 45 -50h-278c25.333 19.333 41.333 36 48 50c3.33301 10 5 31.667 5 65v678h-142c-47.333 0 -85.666 -17.667 -114.999 -53v278
c29.333 -36 67.666 -54 114.999 -54h142v109c0 46.667 -17.667 85 -53 115h278c-34 -31.333 -51 -69.666 -51 -114.999v-109h128c47.333 0 85.333 18 114 54v-278z" />
    <glyph glyph-name="daggerdbl" unicode="&#x2021;" horiz-adv-x="740" 
d="M706 158c-29.333 35.333 -67.333 52.999 -114 52.999h-128v-94c0 -33.333 2 -55 6 -65c5.33301 -13.333 20.333 -30 45 -50h-278c25.333 19.333 41.333 36 48 50c3.33301 10 5 31.667 5 65v94h-142c-47.333 0 -85.666 -17.667 -114.999 -53v278
c29.333 -35.333 67.666 -53 114.999 -53h142v412h-142c-47.333 0 -85.666 -17.667 -114.999 -53v278c29.333 -36 67.666 -54 114.999 -54h142v109c0 46.667 -17.667 85 -53 115h278c-34 -31.333 -51 -69.666 -51 -114.999v-109h128c42.667 0 80.667 14 114 42v-266
c-29.333 35.333 -67.333 53 -114 53h-128v-412h128c42.667 0 80.667 13.667 114 41v-266z" />
    <glyph glyph-name="bullet" unicode="&#x2022;" horiz-adv-x="417" 
d="M385 695c0 -70.667 -21.501 -125.833 -64.501 -165.5s-100.167 -58.834 -171.5 -57.501c86 38 125.667 83.333 119 136c-1.33301 10 -13.666 32.167 -36.999 66.5s-36.333 58.5 -39 72.5c-4.66699 28.667 0.5 52.334 15.5 71.001s36.833 28 65.5 28
c74.667 0 112 -50.333 112 -151zM270.999 882.001c-88.667 -38 -129.333 -82.999 -122 -134.999c1.33301 -10.667 14.5 -33.667 39.5 -69s38.167 -58.666 39.5 -69.999c0.666992 -6.66699 1 -13.334 1 -20.001c0 -53.333 -28.333 -80 -85 -80c-74 0 -111 50.333 -111 151
c0 71.333 21.667 126.666 65 165.999s101 58.333 173 57z" />
    <glyph glyph-name="ellipsis" unicode="&#x2026;" horiz-adv-x="1415" 
d="M1380 39l-5 -3v-2l-2 2l-130 -72l2 -2l-4 2l-3 -2v4l-131 72l-1 -2v3l-4 2h4l-4 143l-2 1l2 2v2l4 -2l132 71l-2 3l2 -2l5 2l-2 -3l139 -74l-5 -2v-143h5zM851 39l-3 -3v-2l-2 2l-134 -72v-2l-1 2l-2 -2l2 4l-136 72v1l-5 2h5l-2 143l-3 1l3 2v2l2 -2l131 71v3l3 -2l2 2
v-3l135 -73l2 2v-148h3zM316 39l-7 -3l-136 -74v4l-132 72l-3 -2v3l-2 2h2l-2 143l-3 1l3 2v2l2 -2l134 71l-4 3l5 -2l2 2l-2 -3l141 -74l-5 -2v-143h7z" />
    <glyph glyph-name="perthousand" unicode="&#x2030;" horiz-adv-x="2029" 
d="M1996 292c0 -128 -46.334 -216.333 -139.001 -265c-43.333 -22.667 -90.666 -34 -141.999 -34c-88.667 0 -157.5 26.333 -206.5 79s-73.5 123.667 -73.5 213c0 88 24.833 158.667 74.5 212s118.167 80 205.5 80s156 -25.5 206 -76.5s75 -120.5 75 -208.5zM1387 285
c0 -128 -45.667 -216 -137 -264c-44 -23.333 -91.667 -35 -143 -35c-88.667 0 -157.5 26.333 -206.5 79s-73.5 123.667 -73.5 213c0 88 24.833 158.667 74.5 212s118.167 80 205.5 80s155.833 -25.5 205.5 -76.5s74.5 -120.5 74.5 -208.5zM1140 1188
c-48 -28.667 -82.332 -67 -102.999 -115l-407 -958c-14.667 -34.667 -22 -56.334 -22 -65.001c0 -14 9 -30.667 27 -50h-331c47.333 26.667 81.666 65 102.999 115l407 958c14.667 34.667 22 56.334 22 65.001c0 14 -8.66699 30.667 -26 50h330zM592 906
c0 -128 -45.665 -216 -136.998 -264c-43.333 -22.667 -91 -34 -143 -34c-88.667 0 -157.334 26.333 -206.001 79s-73 123.667 -73 213c0 88 24.667 158.5 74 211.5s117.666 79.5 204.999 79.5s155.833 -25.5 205.5 -76.5s74.5 -120.5 74.5 -208.5zM1820 288
c0 92.667 -35 139 -105 139s-105 -47.333 -105 -142c0 -95.333 35 -143 105 -143s105 48.667 105 146zM1212 282c0 92.667 -35 139 -105 139c-69.333 0 -104 -47.667 -104 -143c0 -94.667 34.667 -142 104 -142c70 0 105 48.667 105 146zM419.002 903
c0 92.667 -35.667 139 -107 139c-69.333 0 -104 -47.333 -104 -142c0 -95.333 34.667 -143 104 -143c71.333 0 107 48.667 107 146z" />
    <glyph glyph-name="guilsinglleft" unicode="&#x2039;" horiz-adv-x="623" 
d="M589 807c-53.333 -26.667 -96.999 -64.999 -130.999 -114.999l-68 -100c-19.333 -28.667 -40 -67 -62 -115h5c12.667 -38 32 -76.333 58 -115l62 -91c35.333 -52 80 -90.333 134 -115h-329c8.66699 16 13 28.667 13 38c0 11.333 -13.667 37 -41 77l-62 91
c-34 49.333 -77.333 87.666 -130 114.999h-5c39.333 20 66.666 36.667 81.999 50c12.667 11.333 30 33 52 65l68 100c25.333 37.333 38 63 38 77c0 9.33301 -4 22 -12 38h328z" />
    <glyph glyph-name="guilsinglright" unicode="&#x203a;" horiz-adv-x="623" 
d="M589 477l-1.99805 0.00195312c-56.667 -28.667 -101.334 -67 -134.001 -115l-62 -91c-24.667 -36 -37 -61.667 -37 -77c0 -9.33301 4 -22 12 -38h-328c52 26 95.333 64.333 130 115l62 91c29.333 42.667 50 81 62 115h3c-6 27.333 -26 65.666 -60 114.999l-68 100
c-32.667 48.667 -77.334 87 -134.001 115h331c-9.33301 -16 -14 -28.667 -14 -38c0 -12 13.333 -37.667 40 -77l68 -100c21.333 -31.333 38 -53 50 -65c14.667 -14.667 41.667 -31.334 81 -50.001z" />
    <glyph glyph-name="trademark" unicode="&#x2122;" horiz-adv-x="1057" 
d="M1020 524h-151c14.667 18 23.667 28.667 27 32c8 15.333 12 37.666 12 66.999v287h-2l-146 -386h-77l-137 367h-2v-268c0 -29.333 4 -51.666 12 -66.999l26 -32h-149c13.333 16 20 38.333 20 67v345c0 28.667 -6.66699 51 -20 67h163l127 -291h1l127 289l169 2
c-15.333 -16 -23 -38.333 -23 -67v-345c0 -28.667 7.66699 -51 23 -67zM1025 1243l-17 -198.002h-2c-9.33301 42.667 -22 68.667 -38 78c-9.33301 3.33301 -204.333 5 -585 5c-35.333 0 -53 -14.333 -53 -43v-489c0 -19.333 16 -41.666 48 -66.999h-210
c11.333 8.66699 23 18.334 35 29.001c8 9.33301 12 22 12 38v489c0 20.667 -4 33.667 -12 39c-6 2.66699 -19.333 4 -40 4c-40 0 -64 -1.66699 -72 -5c-16 -9.33301 -28.667 -35.333 -38 -78h-1l-19 198c24 -16 40.333 -24 49 -24h895c9.33301 0 25.333 8 48 24z" />
    <glyph glyph-name=".null" horiz-adv-x="0" 
 />
    <glyph glyph-name="nonmarkingreturn" horiz-adv-x="1024" 
 />
    </font>
</defs>
</svg>
